<?xml version="1.0" encoding="UTF-8" standalone="no"?>
<svg id="beards_xA0_Image_1_" xmlns:rdf="http://www.w3.org/1999/02/22-rdf-syntax-ns#" xmlns="http://www.w3.org/2000/svg" enable-background="new 0 0 328.592 196.307" xml:space="preserve" height="196.3px" viewBox="0 0 328.592 196.307" width="328.6px" version="1.1" y="0px" x="0px" xmlns:cc="http://creativecommons.org/ns#" xmlns:dc="http://purl.org/dc/elements/1.1/">
<g id="g3" fill-rule="evenodd" clip-rule="evenodd" fill="#ff2a2a">
	<path id="path5" d="m240.4 58.79c0.192 1.752-1.435 1.685-1.799 2.879 1.945-0.094 2.997-1.081 4.318-1.799 1.672 0.569 1.655 1.881 3.959 1.08 0.231 1.311-1.714 0.445-1.8 1.439 1.997-0.287 5.27-0.427 7.198 1.08 0.263 0.982-0.715 0.724-0.72 1.439 4.76-0.201 5.303 3.814 9.357 4.319-0.859 1.671-4.523 0.313-6.118 0.36-0.595-0.965-1.826-1.293-2.52-2.16-2.416-0.223-4.92-0.358-5.398-2.519-3.605-0.301-9.26-0.037-12.6 1.08-0.029-1.695 0.135-1.656-1.079-3.239 2.6-1.04 4.3-3.02 7.1-3.96z"/>
	<path id="path7" d="m71.98 63.11c2.997-0.588 6.39 2.931 7.917 0.36 4.408 1.476 10.21 1.146 12.24 6.118-3.903-2.335-11-1.472-15.48-3.239-3.369 2.058-10.09 4.099-15.12 2.16 0.339-0.981 1.956-0.684 1.44-2.52h2.159c0.016-0.615-0.268-0.932-0.72-1.08 0.592-1.026 1.953 0.172 2.52 0.36 0.712-1.848 4.366-0.477 5.758-0.72 0.45-1.17-1.16-0.28-0.72-1.44zm9.36 2.88c-0.633 0.207-2.115-0.435-2.16 0.36 0.63-0.21 2.11 0.43 2.16-0.36z"/>
	<path id="path9" d="m251.6 71.74c-1.886 0.111-2.326-2.011-4.318-2.52-1.917-0.489-4.276 0.649-6.479-0.36 2.2-3.06 10.8-0.64 10.8 2.88z"/>
	<path id="path11" d="m302.7 69.58c0.312 3.088 2.718 5.864 1.439 9.357-1.896-0.984-1.841-3.918-1.8-6.838-1.604-0.853-4.519-0.309-5.398 0.72-0.215 1.742 2.305 2.155 3.239 3.959 0.469 0.904 0.956 2.967 1.08 3.958 0.26 2.074 0.906 6.074-2.52 5.759-0.354-1.224 0.829-2.17 0.72-3.599-0.208-2.739-2.396-4.07-5.038-4.679-1.046 1.901 1.778 2.681 2.519 3.959 0.61 2.305 0.227 4.452-0.72 6.118-1.314 0.245-2.617 0.502-4.318 0.36-0.326-1.663 2.001-2.801 2.159-4.679 0.142-1.682-1.325-3.029-1.439-4.319-0.6-5.31 3.6-10.38 10-10.08z"/>
	<path id="path13" d="m87.82 74.98c-2.828-2.841-6.981-3.126-11.88-3.239-0.059-0.419 0.079-0.641 0.36-0.72 4.84-1.31 11.87 0.08 11.52 3.96z"/>
	<path id="path15" d="m255.9 78.22c-3.254 0.098-5.37-3.961-8.278-5.398-1.049 1.111-0.94 3.378-2.52 3.959 1.734 1.161 4.571-1.306 6.119-0.36-2.81 3.224-10.55 1.716-12.96-0.72-1.022 0.953-3.174 1.684-4.679 1.08 2.851-4.218 5.559-7.617 12.6-6.119 3.9 0.83 7.7 5.56 9.8 7.56zm-11.9-3.6c-1.096 0.102-1.399-1.153-2.159-0.36 0.226 1.213 1.222 1.657 2.519 1.799 0.922-0.565 1.009-3.318 0.36-4.318h-1.439c0.1 1.09 1.1 1.29 0.7 2.88zm-5.4 0.36c0.425 0.415 1.272 0.408 2.159 0.36-0.042-0.918-0.067-1.852-1.08-1.799-0.1 0.7-1.4 0.29-1.1 1.44z"/>
	<path id="path17" d="m41.39 71.38c-0.334 2.095-2.554 0.699-3.959 1.08-1.939 0.526-3.767 2.867-5.039 1.439 0.92-2.95 5.52-3.2 9-2.52z"/>
	<path id="path19" d="m48.95 73.18h0.72c5.341 2.833 1.579 11.73 0.72 17.28-0.305 1.967 0.765 4.335-1.439 4.678-1.21-7.36 3.91-16.03 0-21.96z"/>
	<path id="path21" d="m48.59 78.22c-2.873-0.246-3.192-3.046-6.118-3.239-0.489 0.857 0.965 2.698 0 4.319 0.751 1.073 1.893-0.478 3.239 0-1.181 3.01-7.588 1.643-10.44 1.08-0.568-1.408 0.935-0.745 1.08-1.439 0.297-1.017-0.507-0.932-0.36-1.799-1.943 0.216-1.439 2.88-2.879 3.599-4.376-3.835 4.887-7.615 9.357-7.198 3.25 0.31 5.85 2.63 6.12 4.68zm-9.36-2.88c0.569 1.11 1.018 2.342 1.44 3.599 1.117-1.162 0.422-2.52 0-3.959-0.63-0.02-1.12 0.08-1.44 0.36zm-1.08 2.88v-1.439c-1.42-0.24-1.18 1.52 0 1.44z"/>
	<path id="path23" d="m64.06 73.9c0.581-0.102 0.62 0.34 1.08 0.36-0.165 1.424-0.666 2.998-1.08 4.319-0.406 1.294-0.412 3.25-1.799 3.599-1.11-3.09 0.88-6.04 1.8-8.28z"/>
	<path id="path25" d="m237.5 79.3c2.848 0.872 5.274 2.164 7.558 3.599-2.281 1.868-4.98-1.61-6.838-2.52-0.8 0.17-0.7-0.51-0.8-1.08z"/>
	<path id="path27" d="m217 79.66c-0.366 1.433-2.747 2.365-4.318 1.44 0.6-1.34 2.4-1.42 4.3-1.44z"/>
	<path id="path29" d="m46.07 82.54c-1.912 2.201-7.332 4.213-10.08 3.239 2.54-1.69 7.19-3.09 10.08-3.24z"/>
	<path id="path31" d="m73.42 82.54c3.25 0.589 4.706 2.973 8.998 2.52-1.518 3.146-6.826-0.308-8.998-1.08v-1.44z"/>
	<path id="path33" d="m232.5 89.74c-1.069 1.98-3.941 3.908-5.759 3.958 0.7-2.54 3-3.54 5.8-3.96z"/>
	<path id="path35" d="m61.18 90.82h1.08c-0.508 3.211-0.853 6.586-3.959 7.197-0.21-2.2 2.42-4.49 2.88-7.2z"/>
	<path id="path37" d="m293.7 91.54c0.027 1.348-1.412 1.228-2.52 1.439-0.31-0.29-0.214-0.985-0.72-1.079 0.5-1.39 2-0.88 3.2-0.36z"/>
	<path id="path39" d="m247.3 108.1c-4.101-2.018-5.047-7.19-8.998-9.357-1.086 1.553-1.069 4.209-3.599 4.318-0.845-1.197 1.243-1.948 1.439-3.238 0.203-2.242-0.287-3.793-0.72-5.398 0.059-1.02-2.219 0.299-2.159-0.721-0.67-1.629 1.293-0.625 1.439-1.439 4.271 2.087 7.446 5.27 8.997 10.08 1.3 1.9 2.9 3.3 3.7 5.7z"/>
	<path id="path41" d="m66.22 93.7c4.401 0.599 6.446 6.062 9.358 8.998 1.31 1.32 3.316 1.785 3.599 3.599-4.643-0.636-5.877-4.679-9.357-6.478-0.513 1.295-0.504 5-2.159 3.959-1.542 0.057 0.377-1.471 0.36-2.16-0.25-1.879 0.347-3.227 0-4.679-0.36-1.51-2.46-2.04-1.8-3.22z"/>
	<path id="path43" d="m234.7 100.2c-2.487 1.428-6.041-0.281-8.278 1.08 0.5-3.5 6.8-3.38 8.3-1.1z"/>
	<path id="path45" d="m66.22 100.9c0.125 1.841-2.402 1.585-3.599 1.079-1.7-0.09-1.977 1.967-3.239 0.36 0.77-2.3 5.88-4.72 6.84-1.5z"/>
	<path id="path47" d="m216.7 117.5c1.56-0.24 0.969 1.67 1.079 2.879 0.752 1.168 1.936 1.904 3.959 1.8 1.002 0.162-0.282-1.962 0.72-1.8 1.289-0.209 1.095 1.065 1.08 2.16 4.461 1.473 7.651-1.147 11.16-1.8-0.144 3.095-3.882 2.597-3.959 5.759-4.447 1.113-9.438-0.09-12.24-1.801-0.7-2.6-4.1-4.5-1.9-7.3z"/>
	<path id="path49" d="m232.5 130.8c-1.891 1.846-4.542-0.807-6.839-1.439-1.819-0.501-3.685-0.242-5.038-1.08-0.222-0.32-0.436-0.644 0-0.72 4-0.6 8.6 1.6 11.8 3.2z"/>
	<path id="path51" d="m94.3 178.6c0.115 0.834-0.058 1.382-0.36 1.799-1.85 0-1.59-2 0.36-1.8z"/>
	<path id="path53" d="m86.38 193c-0.867 0.146-0.782-0.658-1.799-0.36 0.35-0.7 1.8-0.8 1.8 0.4z"/>
	<path id="path55" d="m82.42 196.3c-0.834 0.115-1.382-0.058-1.799-0.359h-3.599c0.268-0.812 2.019-0.141 2.879-0.359 0.74-0.1 2.3-0.5 2.52 0.8z"/>
	<path id="path57" d="m85.66 195.6c0.796-0.057 6.784 0.314 1.08 0.359-2.33-0.1-4.53-0.2-1.08-0.4z"/>
	<path id="path59" d="m98.61 195.2c-0.087 0.634-0.619 0.821-1.44 0.721 0.09-0.6 0.62-0.8 1.44-0.7z"/>
	<path id="path61" d="m219.2 69.58c-1.566-0.958-4.594-2.357-6.479-1.799 0.2-1.34 6.7-0.74 6.5 1.8z"/>
	<path id="path63" d="m82.78 189.4c1.489 0.003 3.416-0.911 4.679 0-0.155 0.805-1.773 0.146-2.519 0.359-0.11 0.949 0.751 0.929 1.439 1.08-0.618 0.874-3.481-0.977-3.959 0.721-0.363 1.082 0.802 0.637 1.439 0.719-1.694 2.688-5.375 0.371-7.917 0.36-0.031 0.511-0.06 1.019 0.36 1.079-0.243 0.787-1.889 0.011-1.44-1.079-1.109-0.269-0.438 1.241-1.799 0.72-12.99-9.804-22.68-22.91-27.35-41.03-1.432-1.808-3.212-3.266-4.679-5.038-4.768 1.591-5.468 7.249-8.998 10.08-0.36 4.305-5.355 5.835-6.119 10.08-0.443 2.462 1.04 6.038 1.44 9.357 0.164 1.358-0.182 2.743 0 3.959 0.158 1.056 0.817 1.831 1.08 2.88 0.952 3.81 1.289 8.138 2.519 11.52-0.115 0.955 2.017-0.336 1.44 1.08h-2.879c-2.849-7.367-4.131-16.49-5.039-24.83-1.531 0.647-2.487 2.005-3.599 3.239-1.073 1.191-1.878 2.841-2.879 3.959-1.879 2.1-4.715 3.41-5.398 6.479-0.646-0.046-0.759 0.439-1.439 0.359-2.296 4.062-5.815 6.901-8.278 10.8h-2.879c7.431-9.484 15.12-18.72 23.75-26.99-1.545-4.607 1.726-6.088 3.959-8.998 0.84-1.096 1.203-2.244 2.159-3.599 2.498-3.538 6.361-9.788 10.44-11.16-1.479-4.461-2.995-6.936-3.599-11.88-2.996-1.084-1.401-6.757-3.239-8.998-2.141-0.748-4.445-0.877-6.478 0-0.87-0.836 0.562-0.963 0.72-1.799-1.199 0.096-2.473 1.307-3.599 0.359 0.07-1.625 0.905-0.804 0.36-2.519 3.224-1.461 7.011 2.718 9.357 0 0.061-1.756-1.266-0.443-1.799-1.08-0.344-1.933-1.891-3.737-2.16-5.759-0.225-1.694 0.678-3.697 0.36-5.398-0.448-2.396-2.853-5.87-3.239-8.997-0.213-1.727-0.257-3.908 0-6.118 0.407-3.512 2.839-6.892 2.159-12.24-0.367-2.885-2.462-5.424-2.879-8.638-0.503-3.883 1.356-8.017 1.08-11.88-0.916-1.526-1.254-2.546-1.8-5.039-0.191-0.876-1.048-1.623-1.08-2.16-0.115-1.935 1.252-3.578 1.439-5.398 0.138-1.339-0.514-2.956-0.36-4.319 0.143-1.259 1.083-3.247 1.8-5.039 1.473-3.683 2.998-6.075 4.679-9.357 1.723-3.367 2.644-5.514 5.039-8.278 3.431-3.959 9.455-7.491 16.92-8.278 6.493-4.77 15.38-7.751 25.55-6.478 12.59 1.577 26.49 5.027 34.19 10.8 0.417 0.533 0.417 0.907 0 1.439h1.8c1.222 2.137 3.327 3.392 3.959 6.119 0.969 0.71 1.462 1.896 2.519 2.519 0.119 0.841 0.433 1.487 0.72 2.16 2.142 3.047 5.516 6.968 6.479 12.24 0.531 2.911 0.285 6.285 0.72 9.357 0.196 1.388 0.962 2.652 1.08 3.959 0.166 1.843-0.541 4.42-0.36 6.478 0.162 1.847 0.873 3.281 0.72 4.679-0.322 2.94-2.97 4.925-3.599 7.198 0.523 0.917 1.913 0.966 2.52 1.799 1.659 9.057-1.438 18.4-4.319 25.19-5.184 2.48-4.373 16.82-12.96 11.88-0.563 7.745-2.671 15.6-2.52 21.95 0.545 0.534 1.58 0.579 2.52 0.72 8.823 8.453 14.81 19.74 20.52 31.31 11.79 7.649 23.61 15.26 37.07 21.23 12.13-3.826 23.02-8.89 35.27-12.6 4.444-6.832 8.556-14 13.32-20.52 0.752-0.207 1.026-0.892 2.159-0.72-0.047-1.966 0.224-3.615 1.8-3.959v4.318c0.777 2.854 3.386 4.073 5.398 6.119 1.475 1.5 2.219 2.482 4.318 3.959 3.289 2.311 7.697 4.994 11.88 7.197 4.584 2.418 8.9 4.584 14.04 6.119 7.41-5.434 14.32-12.74 20.15-20.52 2.012-2.679 4.775-5.089 5.398-7.918 0.48-2.179-0.118-4.819 0-7.198 0.163-3.264 0.507-8.07 1.08-12.96 0.376-3.205 2.229-6.677 0-9.357-1.646 2.674-0.458 8.18-2.159 10.8-1.659 0.22 0.213-3.093-1.8-2.52-0.109 1.079 0.326 4.06 1.439 5.759-1.154 1.014-1.593-1.75-2.159-2.52-1.067 2.771-0.037 7.641-1.439 10.08-0.443-0.157-0.739-0.46-0.72-1.079-0.681 0.371-0.082 2.803-1.439 1.439 0.035 1.115-0.163 1.996-0.72 2.52-1.411 0.331-0.262-1.898-1.08-2.16-0.573 1.106-0.539 2.82-1.08 3.959-1.84-1.199-1.707 0.972-3.239 1.08-0.181 1.174 1.79 0.763 0.721 1.799-0.947 0.373-2.209 0.432-3.6 0.36-1.157 0.577 1.266 1.345 0 2.159-2.798-0.201-3.229-2.77-5.038-3.959-1.677-0.316 0.242 1.187-0.721 1.08-3.755-0.684-5.003-3.875-8.277-5.039-4.037-7.359-10.81-11.99-14.04-20.15-2.653 0.301-4.109-3.713-6.838-4.318-1.485-0.33-4.795-0.135-6.839 0-0.763 0.049-1.744 0.792-2.519 0.719-2.572-0.241-4.646-3.014-6.479-3.238-2.149-0.264-3.505 1.539-5.398 1.08-1.638 4.247 1.9 8.703 2.879 14.4 1.08 6.284 2.043 11.76 6.118 14.04 1.513 0.844 3.893 1.213 6.118 0.72-0.777-1.39-4.193-1.214-2.879-3.599 1.547 0.754 3.246 1.17 5.039 2.159 1.543 0.852 3.004 2.688 4.679 3.239 6.843 2.248 13.23-1.238 19.07-3.239-0.264 2.704-3.396 3.123-5.758 3.959-2.704 0.956-5.908 2.474-8.998 2.88-3.508 0.459-6.888-0.664-10.44 0-3.767-2.473-8.441-4.036-10.8-7.918-1.567-0.158-2.174 0.652-3.239-1.08-1.148 0.051-1.068 1.33-2.159 1.439-0.964-2.391-4.532-3.706-3.239-7.198-0.431-1.368-1.083-2.517-1.799-3.599 0.896-4.373-1.256-10.06 0.359-15.84 0.26-0.93 1.152-1.563 1.439-2.52 0.883-2.934 0.442-4.565 2.16-6.479 0.629-0.701 2.605-1.805 3.959-2.879 2.143-1.701 3.194-3.484 5.758-2.879-0.16-1.74-1.854-1.391-3.239-1.08-0.576-1.087-1.412-2.3-1.439-3.6-0.039-1.832 1.666-3.104 2.159-5.038 0.771-3.019 0.104-8.123 1.44-11.88 0.532-1.498 2.73-3.686 2.879-5.759 0.242-3.391-2.506-5.212-2.879-8.278 3.311 1.497 4.624 5.2 3.959 9.358-0.342 2.134-2.378 4.614-2.88 7.558-0.797 4.673-0.438 10.04-2.879 12.96 1.834 2.467 3.629 5.171 7.198 5.759 0.956 0.157 2.159-0.192 3.239 0 3.065 0.545 5.639 2.42 8.277 2.879 4.692 5.025 8.691 10.74 14.04 15.12 0.261-1.101-0.621-1.06-0.359-2.159 1.856 0.542 1.805 2.993 2.879 4.318 1.331 1.068 2.312 2.486 3.239 3.959 0.806-0.849-0.588-1.527-1.08-2.16 1.019-1.473 0.174-1.701-0.359-3.238 2.563 0.003 3.144 4.979 5.758 6.118 0.69-0.366-1.207-3.075-0.359-3.599 4.421 2.177 5.368 7.828 9.357 10.44-0.107-2.533-2.321-2.959-2.88-5.039 2.82 1.02 3.453 4.226 6.479 5.039-1.742-5.696-9.261-5.615-11.16-11.16 1.411 0.27 1.237 2.123 2.88 2.16 0.878-0.52-1.788-1.73-0.72-2.52 2.394 0.605 2.737 3.26 4.318 4.679 1.532-2.69 2 2.022 4.679 1.439-0.42-1.619-2.358-1.72-3.599-2.519-1.374-2.617-5.169-4.627-5.398-7.199 1.732-0.053 1.526 1.832 2.879 2.16 1.218-0.776-1.457-1.772-0.36-2.52 1.284 0.396 1.828 1.531 3.239 1.8 0.533-1.829-3.002-2.446-2.879-5.039 1.341-0.381 1.162 0.758 1.8 1.08 0.907-0.474-0.944-1.182-0.72-2.159 1.387-0.742 2.077 1.881 3.238 2.52 0.698-2.025-2.228-3.525-2.159-6.119 1.564 0.355 1.442 2.397 2.52 3.239 0.441-1.573-1.336-2.589 0-4.679 2.079 0.2 1.52 3.039 3.599 3.239-1.494-2.421-1.775-3.984-2.519-6.839 0.785-0.064 1.145 0.295 1.079 1.08 0.991-0.854-0.576-2.18 0.36-3.238 1.017-0.298 0.932 0.507 1.799 0.359 0.141-1.959-0.716-2.807 0.36-3.959 0.938 1.101 1.753 2.326 2.52 3.6 0.894-2.475-2.554-4.34-1.08-7.559 0.842 0.119 1.487 0.433 2.159 0.72 0.615-0.407-1.071-1.544-0.72-2.88 0.373-1.321 1.377-0.332 0.72-2.158 1.848 0.432 1.747 2.812 3.239 3.599 0.956-2.286-3.131-4.537-2.879-6.119 1.942-0.263 1.243 2.117 3.239 1.799-0.533-1.626-1.463-2.856-2.159-4.318 1.133-2.092 0.7-1.944 0-4.319 2.411-0.426 2.13 1.93 4.318 2.52-1.006-2.594-3.519-3.679-3.599-7.198 1.492 0.097 1.402-0.473 2.519 0 0.403-0.544-1.189-2.154-1.439-3.239 1.449-1.31 0.831-4.688 2.88-5.398-0.639-1.673-2.277-4.409-0.721-6.118-0.156-0.534-0.46 0.142-1.079 0 0.279-1.761 1.748-2.331 2.159-3.959-0.901-0.062-0.873 0.806-1.439 1.08-1.019-0.926 1.305-1.554 1.439-2.52-0.099-1.263-1.341 0.903-1.439-0.36-0.916-1.518 0.567-1.82 1.08-2.879-0.306-1.055-1.159 0.215-1.8 0-0.091-1.291 1.081-1.319 1.079-2.52-0.58-1.21-1.139 1.131-1.799 0 0.271-1.648 1.173-2.666 1.799-3.959-0.479-0.6-1.6-0.559-2.159-1.08 1.824-2.912 2.005-5.24 3.6-8.278-1.658 0.381-1.062 3.017-3.6 2.52 0.779-0.747 0.021-1.227-0.72-1.44 0.569-2.07 1.751-3.527 2.159-5.758-0.253-1.026-2.068 1.224-2.159 0.36 0.749-2.132-0.757-2.543 0-3.959-0.053-0.787-0.906-0.773-1.799-0.72 0.508-1.961-1.82-3.517-3.239-4.679-0.048-1.587-1.808-3.551-2.16-5.398-0.194-1.02-0.351-3.188 0.72-3.239-1.239-0.207-2.319 0.589-4.679 0.36-4.985 2.838-12.13 5.347-19.07 5.039-0.123 0.204 0.606 0.462 0.72 0.36-2 1.816-12.25 1.344-16.92 1.08-1.613-0.092-2.95 0.168-3.959 0-3.553-0.595-8.968-4.936-12.6-3.959-3.905 1.051-5.639 8.04-6.839 12.96-0.252 1.033-1.154 1.854-1.439 2.879-0.481 1.73-0.618 3.897-1.079 5.758-1.751 7.067-2.29 16.17-5.399 23.03 2.648-0.351 3.23-2.768 6.119-2.879 0.152 0.752-0.247 0.953-0.36 1.439 1.661-0.738 3.026-1.772 5.039-2.159 0.152 0.752-0.247 0.953-0.36 1.439 1.743-0.656 3.075-1.724 5.398-1.799v2.159c1.702 0.497 2.366-1.127 3.239-0.36 0.261 1.101-0.621 1.059-0.359 2.16-2.28 2.066-5.698 0.416-8.638 0.72-1.062 0.109-2.649 1.082-3.959 1.439-2.074 0.566-3.846 0.639-5.399 2.879-0.062 1.863 0.738 2.861 1.08 4.319 2.019-1.661 3.614-4.353 7.198-4.319 2.79 0.026 6.072 1.919 6.838 4.679-1.73-0.309-1.87-2.208-3.959-2.16-0.517 0.575 0.507 3.224-0.359 4.319 1.08-0.479 2.753-0.366 4.318-0.36-3.866 4.611-9.655-1.4-13.68 0.36 1.63 4.966-0.861 8.792-1.44 14.4-0.32 3.104 0.376 6.478 0.36 9.718-0.012 2.451-0.596 4.136 0 6.478 0.692 2.722 3.012 4.487 2.52 7.198-2.226 0.246-2.289-3.051-2.88-4.679-1.018-2.81-2.086-5.263-2.159-9.357-0.052-2.896 0.066-5.994 0.36-8.638 0.468-4.212 2.889-7.75 2.52-12.96-0.354-4.978-4.589-9.533-2.52-17.28 0.312-1.171 1.418-1.981 1.799-3.239 1.248-4.12 0.993-8.822 1.8-13.68 0.277-1.666 1.719-2.721 1.8-5.039 0.041-1.193-0.697-2.512-0.72-3.599-0.146-7.177 2.262-13.89 6.838-18 1.726-3.522 3.495-6.942 6.118-9.717 6.188-6.545 20.16-7.767 32.39-7.198 14.3 0.666 26.16 0.382 33.47 8.278 8.413 1.915 14.24 11.57 16.56 20.88 1.324 5.336 3.767 10.72 4.319 15.12 0.466 3.705 0.461 9.121-0.36 13.68-1.707 1.023-1.525 3.325-2.159 5.039-1.184 3.197-1.957 3.677 0.72 6.478 0.505 0.529 1.682 3.669 1.8 5.039 0.443 5.182-1.408 8.315-1.8 14.04-6.086 3.392-7.004 11.95-13.32 15.12-1.248 0.288-1.384-0.537-2.52-0.36-0.13 14-4.685 29.45-3.239 43.91 6.478 4.319 9.192 12.4 11.16 21.23 5.013 4.724 11.49 7.25 16.56 11.88 4.872 4.455 9.727 9.014 14.04 14.04-0.339 0.234-1.815-0.038-2.879 0.359-3.949-5.408-9.774-8.941-14.04-14.04-5.097-2.101-8.655-5.74-12.96-8.638-2.028 6.01-4.643 11.43-6.118 18-2.107 1.013-0.322 5.916-3.959 5.399 1.604-4.16 3.2-9.475 4.679-14.4 1.284-4.276 3.136-6.781 2.52-12.6-0.39-3.673-2.539-7.541-3.959-11.16-0.96-2.441-1.823-5.355-3.959-6.479-0.812 0.268-0.141 2.02-0.36 2.879-0.819 2.231-2.51 4.439-3.239 6.839-0.161 0.532 0.214 1.288 0 1.8-1.263 3.02-3.864 7.186-5.398 10.8-1.685 3.965-2.683 7.742-4.318 11.88-0.496 1.254-1.368 2.414-1.8 3.599-0.804 2.209-0.386 6.638-3.959 6.839 0.197-2.203 1.661-3.139 1.8-5.399-0.143-1.297-1.781-1.099-2.52-1.8-0.923 1.4-2.459 5.473-1.079 6.838-3.122 0.838-7.797 0.123-11.52 0.361-1.83-1.289-1.635-4.604-2.879-6.479-1.715 1.644-2.671 4.047-3.6 6.479-4.193 0.674-6.416-2.544-10.08-5.76-4.772-4.191-8.756-8.051-12.6-13.32-3.875-5.312-7.636-11.47-6.478-20.51-1.447 1.883-2.534 4.167-3.959 6.479-1.312 2.129-3.141 4.055-4.319 6.117-0.465 0.814-0.538 2.312-1.079 3.24-0.844 1.443-2.104 1.921-2.16 4.318-0.144 6.256 4.783 13.03 7.198 18.36 0.055 0.666 1.219 0.221 1.439 0.719-0.154 0.805-1.773 0.146-2.519 0.361-2.912-5.967-7.511-10.25-7.559-19.08-3.641 0.691-7.462 1.905-11.16 3.24-5.715 2.064-11.45 4.279-17.28 6.478-4.919 1.857-11.54 4.288-14.76 8.638-1.225 0.334-2.11 1.008-3.958 0.721 2.857-2.182 4.618-5.46 8.637-6.479-2.04-2.377-5.343-2.557-7.917-3.959-1.155-0.629-2.125-1.869-3.239-2.52-3.263-1.908-7.387-3.572-10.8-5.759-4.529-2.904-8.763-5.952-12.96-8.997 0.476 3.881-0.341 7.402-0.72 11.16-0.594 5.895-0.246 12.67-2.16 16.92-0.867 0.146-0.782-0.658-1.799-0.359 0.279-3.418 2.084-8 1.08-10.44 0.832-2.465 1.755-9.568 1.799-14.4 0.028-3.023-0.187-5.772-2.159-7.198-1.792-5.335-5.152-10.15-7.918-14.76-2.734-4.557-5.538-9.449-10.08-12.24-0.71 13.79-4.234 27.35-7.198 40.31-0.744 3.253-1.363 5.602-2.159 9.357-0.283 1.334-0.92 3.3-1.44 4.679-0.55 1.461-0.945 3.49-2.879 3.239 1.561-5.157 2.88-10.56 3.958-16.2-3.766 1.993-6.466 5.051-11.52 5.76 0.27 4.229-0.492 7.426-1.08 10.8-1.567-0.602-1.807-3.602-1.08-5.398-1.095-0.814-3.574-1.794-2.879-3.24 1.249-0.288 1.383 0.537 2.519 0.36v-3.239c-1.434 1.564-4.073 1.926-4.679 4.319 3.36-0.8 0.31 0.6 0.6 2zm156.9-184.6c1.257-0.183 2.718-0.162 3.6-0.72-0.8-0.541-3.3-0.396-3.6 0.72zm25.9-0.72c-0.522 0.197-1.859-0.42-1.799 0.36 0.5-0.197 1.9 0.42 1.8-0.36zm-27 3.599c1.528-0.271 3.193-0.406 3.959-1.439 2.218-0.421 5.761 0.482 6.478-1.44-5.264 1.075-10.9 0.243-14.04 2.879 1.631 0.295 3.638-0.9 3.959-0.72-0.1 0.361-0.4 0.429-0.5 0.72zm14.4-0.72c-0.04 0.439-0.107 0.852-0.72 0.72-1.601-0.077-5.51-0.701-7.918-0.36-0.325 0.406-3.463 1.086-5.398 1.08-0.08 0.681 0.406 0.794 0.36 1.439-1.136-0.176-1.271 0.649-2.52 0.36 0.6 1.227-2.227 1.43-1.439 2.52 5.455-2.463 11.64-4.19 19.44-4.319-0.2-1.696-1.2-0.336-1.9-1.439zm0 3.598c-5.478 1.079-12.66-0.02-16.56 2.519 1.987-0.464 3.274-0.185 4.318 1.08-1.039 0.641-3.43-0.07-3.959 1.08 0.523 0.197 1.86-0.421 1.8 0.36-0.52 1.04-2.694 0.425-2.52 2.159 2.882-0.36 7.215-2.38 11.16-2.879 0.499-0.221 0.054-1.386 0.72-1.44 3.389-0.69 5.969-2.189 9.717-2.519-0.6-1.049-3.2-0.64-4.6-0.36zm-193.3 2.88c3.261-0.607 6.675 2.017 8.998 0-3.02 0.19-6.84-2.68-9 0zm190.4 0.72c1.26 0.06 2.304-0.095 2.879-0.72-1.1-0.58-2.1-0.04-2.9 0.72zm29.9 5.4c-0.472-0.006-0.459-0.999 0-1.08 2.274 0.371 3.124 4.067 5.038 3.599-0.604-1.436-1.717-2.361-1.799-4.319-3.316 0.796-0.367-4.671-2.879-4.679-1.002-0.162 0.281 1.962-0.721 1.8-0.638-0.322-0.458-1.461-1.799-1.08-1 2.07 0.8 5.53 2.2 5.76zm11.5 2.16c-0.098-2.377-2.976-3.229-1.799-5.758-1.785-0.375-2.306-2.014-3.6-2.879-0.559 0.822 0.809 2.122 1.08 3.239-1.121-0.096-1.615-2.68-2.52-1.799 1.124 1.995 1.991 4.247 2.879 6.478h1.8c-0.315-1.494-2.606-2.898-1.8-4.319 1.7 1.3 1.8 4.17 3.9 5.04zm-218.8-7.56c0.942 2.836 5.865 0.786 7.918-0.36-2.53-1.12-4.66 1.04-7.92 0.36zm213.8 7.56c0.215-2.015-1.354-2.246-1.8-3.599 0.518-1.501-0.815-3.232-1.439-4.679 0.5 3.3 0.7 6.93 3.2 8.28zm-46.4-2.52c1.664 0.807 3.421-0.543 5.038-1.08 3.224-1.07 6.344-1.697 9.358-2.519 0.936-0.255 2.461 0.486 2.879-1.08-6.4 0.99-11.9 2.82-17.3 4.68zm55 1.08c-1.36-1.644-2.679-5.234-4.679-5.039 2.1 0.97 2.5 5.43 4.7 5.04zm-236.8-3.96c0.921-0.038 1.716-0.204 2.159-0.72-0.66 0.09-2.94 0.36-2.16 0.72zm44.6-0.72c-4.148 1.01-8.81 1.508-10.8 4.679 3.22-1.667 8.225-4.928 12.6-2.16-3.696-0.565-5.438 0.447-7.558 2.16h5.399c0.475-0.901-1.423-1.127-0.36-1.44 1.548 0.042 2.851 0.936 3.239-0.72 1.333 1.067 2.546 2.253 4.319 2.879-0.201-1.838-2.916-1.163-2.519-3.599-1.9 0.13-2.2-1.18-4.2-1.8zm-27.68 1.08c-2.604-0.391-6.104 0.201-8.277 0-0.625-0.058-3.06-1.915-2.879 0-2.035 0.145-4.107-1.016-4.679 1.08 1.33 0.23 3.585-0.466 4.319 0.36-1.642 0.33-1.389 0.681-2.16 1.44-2.434-0.629-5.799 0.914-7.917 1.799 4.646 0.408 7.885-2.032 11.52-0.36-1.751 0.408-4.143 0.176-4.679 1.799 4.752-1.055 11.33-2.284 16.56-0.72-1.073 0.127-2.191 0.208-2.52 1.08 4.033-0.767 9.98 0.382 12.96-1.44-7.322 0.724-11.09-2.103-16.92-2.879 2.329-1.463 5.495-0.184 8.998-0.72-0.71-0.92-2.75-1.2-4.32-1.44zm169.2 4.32c2.398 0.239 3.793-0.526 5.399-1.08-0.363-0.004-0.453-0.631 0-0.72 2.154-0.485 4.836-0.442 6.118-1.8-4.6 0.42-9.6 0.46-11.5 3.6zm11.5-1.44c2.188-0.332 4.429-0.61 5.758-1.8-2.2 0.36-4.9 0.22-5.8 1.8zm-215.6 6.48c1.074-0.965 2.335-1.744 2.879-3.239 0.947-0.853 2.919-0.68 3.239-2.159-2.47-0.19-7.29 3.02-6.12 5.4zm238.6-2.88c-1.306-0.134-0.246-2.633-1.439-2.879-0.5 1.66 0.8 3.51 1.4 2.88zm-230.7 45.71c-1.084 0.177-2.433 0.591-4.319 1.439-0.886-1.342-2.041-0.178-2.519-1.799-2.506 0.666-3.736 0.069-6.479 1.439 0.02-1.579-1.601 0.245-2.879-0.36-1.111 0.809-1.741 2.098-3.959 1.799 0.655 4.908 3.384 9.602 2.519 15.12-0.588 3.749-2.26 8.479-1.799 12.6 0.108 0.967 0.738 4.381 1.08 5.039 1.136 2.187 2.844 6.085 3.239 8.638 0.406 2.623 0.985 2.743 1.799 4.319 0.424 0.821 0.088 1.789 1.08 2.158 0.501-0.458 0.156-1.762 1.08-1.799 0.197 0.523-0.421 1.859 0.36 1.799 0.281-5.717 1.905-10.09 5.039-12.96-0.559 2.455 0.035 4.243 0.36 5.759 0.353 1.648-0.244 3.701 1.08 4.679 1.73-2.987-2.684-9.237 0.72-12.24 0.594 0.006 0.201 0.998 0.72 1.08 0.404-0.916 0.884-1.756 1.439-2.52-0.919-0.04-1.26-0.66-1.799-1.08 0.164-4.034-0.209-8.606 2.519-10.08 1.168 2.068-1.583 7.502-0.72 10.44 1.456 0.674 3.744 1.31 4.319-0.36-1.159-0.078-1.523 0.637-2.879 0.36-1.094-1.401-0.125-2.649 1.8-2.879 2.167 0.712 2.59 3.167 4.679 3.959 1.018-0.567-0.813-1.928 0.36-2.52 1.523 1.718 3.977 4.012 7.558 2.52 1.041 0.878 2.333 1.507 4.319 1.439 2.031 1.36 3.92 1.989 5.039 3.599 1.208 1.738 2.367 3.117 3.239 4.68 1.559 2.793 2.428 6.714 5.399 7.197 1.915-0.311 5.581-3.586 6.838-1.08-0.113 0.848-1.706 0.215-1.439 1.44 0.633 0.207 2.115-0.435 2.159 0.36-0.461 0.617-1.437 0.723-1.799 1.439-0.106 1.797 0.915 4.349 0.36 5.398-0.737-1.303-1.101-2.979-1.08-5.039-2.369-0.209-3.466 0.854-5.039 1.439 0.182 1.737-0.055 3.895 1.08 4.679 0.344-0.67-1.078-1.202 0-1.439-0.07 1.165 1.27 1.616 1.799 2.52 0.325 0.555-0.403 2.183 1.08 1.8 0.146-3.025-1.715-4.045-1.44-7.199 0.715 0.6 0.458-0.031 1.44 0 1.015 1.266 0.392 4.168 1.799 5.039 0.231-1.793 0.562-1.144 1.799-0.72-0.429-1.499-0.718-5.028 0-6.478 1.162 1.357 0.517 4.521 2.879 4.678-0.188-2.098-1.978-4.491-0.72-6.838 1.226 0.814 0.946 3.133 1.799 4.318 1.086-1.73-0.505-3.451-0.36-5.398 1.378 0.062 0.565 2.314 2.16 2.16 0.212-1.893-0.73-2.629-1.08-3.959 0.925-0.035 0.515-1.404 1.439-1.439 0.747 1.053 0.81 2.789 1.799 3.599 0.816-0.796-1.761-2.63-0.36-3.959 0.68 1.013 0.926 3.929 2.16 3.239 0.128-1.814-2.364-4.11-1.8-7.559 0.496-0.015 0.791 0.17 1.08 0.361 0.219-0.861-0.452-2.611 0.36-2.88 1.452 2.146 0.163 7.034 2.879 7.918 1.225-2.274-3.69-6.535 0-7.918 0.279 0.8 0.208 1.952 1.08 2.159 0.449-1.74-1.79-4.163 0-5.758 0.753 1.012 1.353-0.059 1.8 1.079 0.12 1.809 1.292 4.454 2.879 3.599-0.929-2.07-2.423-3.575-2.879-6.117 0.514 0.086 0.607 0.592 1.08 0.719-0.163-2.793-0.176-3.821-0.72-6.479 2.239 0.416-0.259-1.673 1.439-1.799 0.677 1.242 0.859 2.98 1.8 3.959 0.613-0.965-0.885-2.307-0.72-3.959 0.916-0.392 1.396 1.686 1.439 0 0.41-2.01-2.06-4.022-0.72-4.679 0.963 0.356 0.446 2.192 1.799 2.159-0.408-1.871-0.722-3.837-1.08-5.758 0.894-0.468 1.494 1.056 1.799 0-0.224-1.192-2.133-3.385-0.72-3.959 1.309 0.971 2.03 2.529 3.599 3.239 0.079-1.159-0.637-1.523-0.36-2.879-1.139-0.494-1.203-0.078-2.52 0 0.443-1.354 3.39-3.236 1.8-4.319-0.856 1.053-2.054 3.314-3.239 2.879 0.571-1.52 1.337-2.311 1.439-3.599 0.214-2.696-2.326-3.625-2.519-5.398 0.927 0.083 1.729 1.856 2.159 0.36-1.298-1.221-2.899-2.14-3.599-3.959 0.821-0.494 1.353 0.928 1.44 0-1.34-1.779-2.747-3.492-3.239-6.118 0.46-0.02 0.499-0.461 1.08-0.36 0.956 0.723 0.873 2.486 2.16 2.879 0.081-0.279 0.01-0.71 0.36-0.72 1.463 0.937 2.03 2.769 3.599 3.599 0.468-0.894-1.056-1.494 0-1.799 2.268 0.735 4.439 3.473 6.478 3.239-0.871-2.611-4.626-4.248-4.319-6.838 2.928 1.391 4.092 4.545 7.558 5.398-0.124-2.515-2.674-2.604-2.879-5.039 2.713 0.646 3.543 3.175 5.398 4.679 0.278-2.516-2.979-6.301-5.758-5.758-0.992-1.407-1.909-2.89-3.239-3.959 0.559 1.131 2.003 3.261 1.8 3.959-3.456-0.263-5.037-2.402-7.558-3.599-0.909 1.134 2.337 1.943 0.36 3.239 0.631 0.363 1.93 0.622 1.08 1.439-3.032-0.746-5.468-3.4-4.679-6.838-0.668-0.667-2.041-2.497-1.08-3.599 1.466 0.462 1.322 4.425 2.879 3.599-1.332-2.267-2.213-4.985-3.959-6.838 0.25-0.71 2.008 0.088 2.159-0.72-1.68-1.444-4.431-3.722-3.959-6.119 2.519 1.2 3.053 4.385 5.759 5.398-0.881-4.059-6.134-5.594-6.479-8.998 2.753 0.606 3.147 3.571 5.398 4.679-1.515-4.603-5.548-6.688-9.357-8.998 2.003-1.401 3.786 2.12 5.759 0.72-1.489-0.791-2.871-1.688-3.959-2.879 1.406-0.499-0.375-1.02 0.36-1.439 4.334-0.462 6.119 3.434 8.638 3.599-1.956-2.843-5.254-4.344-9.357-5.039-0.462-0.473-0.462-1.327 0-1.799-1.51-0.614-2.463 0.353-3.239-0.72 1.5-1.259 4.693-0.825 7.198-1.08 0.316-1.155-0.933-0.746-1.08-1.439-5.616 1.981-10.73 1.204-16.56 0.72-1.193 0.115 1.403 1.114 0 1.44-0.523-0.557-1.843-0.317-2.879-0.36 0.538 1.44 2.59 0.756 3.959 1.08 1.086 0.256 2.14 0.894 3.239 1.08 2.377 0.402 5.354-0.241 6.838 1.439-7.692 1.022-13.12-3.021-19.44-2.519-3.533 0.281-6.762 2.695-11.16 1.799-0.849 0.111-0.669 1.25-1.799 1.08-4.937-0.181-10.78-1.472-11.16-4.319 5.636 5.322 17.09 2.529 22.31-1.439 4.42-2.495 11.84 0.2 15.84-2.52-2.599-0.108-4.804 0.292-8.278 0.72v-1.08c-4.13 0.43-8.648 2.386-12.6 1.799 1.678-0.482 2.877-1.442 4.679-1.799-3.51-0.861-7.322 0.417-10.08 1.439-0.142 0.619 0.534 0.922 0 1.08-1.905 0.734-4.92 0.358-6.118 1.799h5.398c-0.02 0.46-0.461 0.499-0.36 1.08 1.046 0.062 2.542-1.265 3.239-0.36-5.724 2.702-16.56 1.141-15.48-6.479-2.309 1.676-0.435 3.749-1.08 5.758-0.845 2.635-3.963 4.424-6.479 7.198-0.905 0.998-1.054 2.194-1.799 2.879-2.64 2.425-5.465 4.055-7.558 6.118-2.042 2.013-1.921 2.253-2.52 5.398-0.267 1.405-1.21 2.743-1.439 3.959-1.045 5.538-0.683 13.16-1.08 17.64 0.334-0.706 0.748-1.515 1.439-2.159 1.958-1.824 6.316-4.522 8.278-4.679 0.863-0.069 1.623 1.111 2.52 0.36 0.016 0.495-0.169 0.79-0.36 1.08 2.431-0.788 3.125-0.366 5.398-0.36v1.439c3.916-0.317 5.778 1.419 7.918 2.879-3.178-0.3-6.013 3.18-8.278 1.439 1.06-1.16 4.99-2.18 2.78-1.81zm59.77-45.71c0.466-1.335-2.131-1.43-2.52-0.72 0.7 0.39 1.4 1.72 2.5 0.72zm-67.33 12.24c1.668-2.533 5.106-5.207 5.398-7.918-0.812 0.571-2.485 0.816-2.879 1.08 0.548-0.892 0.739-2.141 1.8-2.52-1.151-1.855 1.692-2.801 0-3.599-1.77 4.02-5.57 9.13-4.32 12.96zm61.23-12.24c-2.598 0.641-6.194 0.284-7.558 2.159 1.58-0.208 3.628-1.211 5.398-1.08 1.792 0.133 3.211 1.51 4.679 1.08-1.1-0.52-1.7-1.43-2.5-2.16zm11.1 7.92c-0.539 0.062-1.328-0.128-1.439 0.36 1.479 0.801 2.062 2.496 3.959 2.879 0.68-0.04 0.25-1.19 1.08-1.08-1.078-2.761-4.285-3.394-6.119-5.398-0.5 2.3 1.6 2.08 2.4 3.24zm5.4 1.44c1.717 0.922 2.532 2.747 4.319 3.599-0.396-1.163-0.971-2.147-1.439-3.239-2.603-0.757-2.649-4.069-5.398-4.679 0.2 2.02 3.8 1.9 2.5 4.32zm-18-2.52c2.483-0.673 3.647 1.858 5.039 1.08-1.363-0.613 0.782-0.592 0.72-1.08-2.1-0.01-4.6-2-5.7 0zm16.6 0.36c-0.941-0.259-1.104-1.296-2.159-1.439-0.1 1.06 1.6 2.19 2.2 1.44zm8.6 7.55c-0.366-3.353-2.556-4.882-3.599-7.558-0.423 0.056-1.021-0.062-1.08 0.36 2.1 1.9 2.8 5.13 4.7 7.2zm-21.2-2.51c-1.506-0.303-3.135-2.37-4.679-1.439 1.58 0.23 2.98 2.45 4.68 1.44zm10 6.11c-0.521-3.438-3.314-4.604-5.758-6.119 1.6 1.33 2.7 4.66 5.8 6.12zm185-3.96c0.115-0.835-0.058-1.382-0.359-1.8h-1.08c0.1 1.06 0.2 2.03 1.5 1.8zm-195.4 1.44c0.21-0.964-1.48-1.833-1.799-1.08 1 0 0.8 1.14 1.8 1.08zm183.9 7.2c0.631 0.099 1.796-1.014 2.159 0-0.571 0.988-1.457 1.662-1.8 2.879 1.249-0.289 1.384 0.536 2.52 0.36 0.743-2.696 1.626-3.076 2.159-5.758-0.894-0.468-1.493 1.056-1.799 0-0.382-2.513 1.711-4.977 0-5.758-1.1 2.75-2.3 5.41-3.3 8.28zm-257-6.12c0.04-0.68 1.19-0.25 1.08-1.08-0.42-0.87-2.26 0.48-1.08 1.08zm257.6 0c-2-0.12 1.2 0.08 0 0zm-164.8 6.84c-0.797-2.322-1.023-5.215-3.599-5.758 0.8 2.33 1.5 4.73 3.6 5.76zm178.2 0v-1.8c-2.185 0.16-0.36-1.346-0.36-2.159-0.732-0.107-0.958-0.721-1.439-1.08 0.1 2.13 0.3 4.19 1.8 5.04zm-188.6 4.32c0.295-0.988-0.609-2.715-1.439-3.959-0.762-1.142-2.052-2.728-2.879-2.52 0.6 2.98 2.5 4.61 4.3 6.48zm5.4-3.96c2.491-0.692 1.075 2.524 2.879 2.52 0.084-2.124-0.938-3.141-1.08-5.039-1.369-0.529-0.071 1.609-1.44 1.08-0.6-1.65 0.1 0.82-0.4 1.44zm179.2-2.16c-1 1.83 1.3 1.34 0 0zm2.5 10.08c-0.132-3.347-0.721-6.237-2.52-7.918 0.6 2.83 0.2 6.76 2.5 7.92zm-273.2-4.68c0.204 1.632 2.061-2.062 0.36-0.36-0.17 0.17-0.41-0.07-0.36 0.36zm274.6 1.8c0.018-1.097-0.327-1.833-1.08-2.159-0.7 0.76 0.1 2 1.1 2.16zm-4.7 1.8c1.393-0.329 1.055-2.515-0.36-2.879 0.2 0.86-0.4 2.61 0.4 2.88zm-190.8-0.72c0.154-0.908-1.126-2.188-1.44-1.439 0.6 0.33 0.6 1.33 1.4 1.44zm183.9 2.52c0.197 1.122 1.091 1.548 1.439 2.52 1.34-1.01 0.416-3.339-0.72-3.959 0 0.67-0.2 1.2-0.7 1.44zm-172 2.88c0.571-0.538 0.526-2.052-0.72-1.799-0.6 0.54-0.5 2.05 0.7 1.8zm-6.5 2.16c-0.048-0.936-1.46-2.347-1.8-1.799 0.3 0.34 0.4 1.75 1.8 1.8zm12.6 4.32c-1.305-2.174-2.249-4.709-5.039-5.398 1.2 2.23 2.8 4.12 5 5.4zm180.3 14.75c0.68-6.016 1.357-10.24-3.959-13.68-4.89 0.629-6.897 4.139-10.8 5.758-0.234 2.549-0.434 5.302-0.72 6.838-0.753-0.207-1.027-0.892-2.159-0.72-0.322 2.602 2.484 2.074 2.52 4.319-1.767-0.457-1.687 1.877-1.08 3.239h-1.08c0.686 1.474 0.604 2.218 1.439 3.959-0.484 0.714-2.512-0.114-2.519 1.08 2.443 0.835 1.352 3.387 2.519 5.039-0.249 0.709-2.008-0.09-2.159 0.719 1.053 1.127 1.718 2.826 3.239 2.52v1.8c4.768 1.726 6.785-4.126 8.638-7.558-0.781 0.203-2.947 0.859-3.599 0 0.26-1.42 1.807-1.553 3.599-1.439 1.938-1.421 3.875-2.843 5.759-4.319 0.5-2.79 0.4-5.35 0.6-7.56zm-262-11.87c1.108-0.452 2.728-0.392 3.239-1.44-1.51 0.05-2.47 0.65-3.24 1.44zm169.5 5.03c0.686 1.173 1.709 1.061 2.88 0.36-0.263-0.818 0.648-2.808-0.72-2.52 0 2.19-1.4 1.08-2.2 2.16zm-100.4-1.08c-0.567-0.032-0.282-0.917-1.08-0.72-0.5 1 1 1.62 1.1 0.72zm6.5 4.68c-0.53-2.234-2.53-4.901-4.679-4.319 2.6 0.42 2.2 3.8 4.7 4.32zm91.1-2.52h1.439c0.053-0.893 0.067-1.747-0.72-1.799-0.4 0.44-1 0.66-0.7 1.8zm-96.1 2.52c-0.668-0.785-2.395-2.386-3.599-1.44 1.5-0.03 2.7 3.04 3.6 1.44zm6.4 28.82c0.435-1.613 1.895-2.445 1.08-2.879-0.979 0.592-2.973 2.049-4.319 1.08 2.034-2.026 7.19-4.269 7.918-8.278 0.313-1.724 0.234-7.563-2.52-6.838 0.79 3.689 1.622 8.103-1.439 9.718-0.855 0.45-2.358 0.303-3.599 0 0.437-2.193 3.557-2.824 3.959-5.039 0.302-1.666-0.843-2.592-1.08-4.679 1.825-3.933 4.646-6.871 7.558-9.717 0.34 0.74 1.416 0.744 1.44 1.799-0.751 1.049-2.099 1.501-2.879 2.52 0.045 2.61 0.738 5.776 0.72 8.278-0.009 1.276-1.416 2.864 0 3.599 1.287-1.258 0.13-2.554 0.36-4.318 0.745-5.723 4.843-13.13 0.36-15.84-3.789 1.37-4.973 5.344-8.278 7.198-0.601 1.438-1.192 2.886-3.599 2.519-0.491-1.244 1.617-1.696 0.36-2.519-0.811 1.639-0.708 0.481-1.8 0-0.738 0.582-0.907 1.732-1.439 2.519 4.068 1.925-0.221 8.371 0.36 11.16-1.404-0.276-0.344-3.016-2.159-2.88-0.301 2.341 1.21 2.868 1.439 4.679-0.799 2.762 0.821 4.473 0.36 6.838-0.43 2.209-3.649 4.19-2.52 7.918-0.697 0.982-1.5 1.859-2.879 2.16 0.175 2.455-0.676 3.883-1.08 5.758-0.734 0.723-0.706-0.158-1.44-0.359-0.005 0.954 0.2 2.119-0.72 2.159-0.862 0.143 0.2-1.64-1.08-1.079-0.026 1.773 0.305 3.903-1.44 3.959-0.892-0.429-0.007-2.633-1.439-2.52v3.238c-0.224 0.977-1.503 0.896-1.439 2.16 0.172 3.891-2.963 4.475-3.599 7.558-0.473 0.366-1.327 0.353-1.799 0.72-0.117 1.322-0.888 1.991-1.08 3.239-1.048 0.271-1.785 0.854-2.519 1.439-0.125 1.344-0.657 2.735-1.44 3.599-0.524 0.578-1.782 0.527-2.879 1.439-1.224 1.02-1.39 2.74-3.239 2.52-0.959 2.599-2.88 5.479-5.039 5.759-0.914 2.206-2.388 3.851-3.599 5.759-0.867 0.146-0.782-0.658-1.799-0.36-0.798 1.962-2.58 2.938-4.679 3.599 1.114 2.086 2.53 4.098 3.959 6.119 2.103 2.976 4.508 6.59 7.558 7.918 4.749-5.449 7.58-12.81 11.88-18.72 1.101 0.261 1.059-0.621 2.159-0.36 5.475-5.202 10.78-10.57 15.48-16.56 0.816-10.07 1.649-20.49 3.239-28.79 0.355-1.855 0.57-4.242 2.159-5.398 0.27 1.169 0.652 2.228 1.08 3.239 4.3 0.8 4.3-1.8 5.1-4.9zm-6.1-27.38c-1.1 1.22 1.4 1.09 0 0zm171.7 29.18c-0.038-0.922-0.204-1.716-0.72-2.159 0 1-0.2 2.1 0.7 2.2zm-227.5 3.6c0.192-1.248-0.535-3.414 0.72-3.599-0.024 1.464 1.141 1.737 1.08 3.239 1.276-0.146 0.711-1.574 2.159-0.721-0.151 2.072 0.414 3.426 1.8 3.959-0.263-1.701 0.211-2.668 1.439-2.879 0.847 1.543-0.721 3.52 0.36 5.039 0.5-2.218 1.466-4.37 0.72-7.559-1.416-0.576-0.125 1.555-1.08 1.439-1.144-0.15-1.625-0.68-3.239-0.359-0.599-0.48-0.12-2.039-0.72-2.52-2.459 0.087-3.424-1.067-4.679-1.08 0.34 1.1 0.15 4.1 1.44 5.2zm169.6-4c-0.001 1.201 1.171 1.229 1.08 2.52-0.708 0.107-0.714-0.486-1.08-0.72-0.399 1.474 1.497 3.458 2.879 4.319 0.405 1.166 1.9 3.121 2.88 2.519-1.062-1.261-4.323-3.608-2.16-5.759 1.651 1.229 2.076 3.683 4.319 4.319-1.325-3.593-3.877-5.961-6.479-8.278-0.329 1.666 2.063 2.475 1.439 3.24-1-0.5-1.3-1.8-2.8-2zm-181.4 0.4c0.908 0.891 0.238 3.36 1.799 3.599-0.017-1.697 0.632-2.727 0.72-4.318-0.46-0.02-0.498-0.461-1.08-0.36-0.32 0.5-0.29 1.4-1.44 1.1zm2.88-0.7c-0.146 1.533 0.348 3.707-0.36 4.678 1.445-0.602 2.166-3.82 1.8-5.038-0.07 0.4-0.87 0.2-1.44 0.3zm55.75 5.4c-0.142-1.741-2.35-4.975-2.159-4.679 0.5 1.8 0.5 4.2 2.2 4.7zm3.6-1.5c-0.854-0.945-0.303-3.297-2.159-3.239 0.3 1.3 1.4 3.7 2.2 3.2zm118.1 0.7c-0.421-1.857-1.093-3.465-2.879-3.958-0.4 1.5 1.1 3.7 2.9 4zm-173.1-1.8c-0.297-1.018 0.507-0.932 0.36-1.799-1.33-0.3-1.43 1.8-0.36 1.8zm-7.2 4.4c-0.243-2.211 1.207-4.498-1.08-5.038-0.79 1.5 0.24 3.9 1.08 5zm191.1-4c0.36 0 0.428 0.292 0.72 0.36-0.034-0.565 0.048-1.247-0.72-1.079v0.7zm-22 2.2c0.497-0.582 1.273-0.887 1.079-2.16-1.1 0-2.4 1.9-1.1 2.2zm23.4 3.9c0.141-1.098-0.946-1.832 0.359-2.16 1.195 1.205 0.884 3.916 2.52 4.68 0.16-1.82-0.598-5.244-2.52-6.119-1.164-0.444-0.274 1.165-1.439 0.721-0.638-1.521-1.32-2.999-3.239-3.24 1.5 1.9 1.9 5 4.2 6.1zm-186.4-0.7c2.291-0.49 2.181 1.42 3.959 1.44 0.636-0.323 1.051-0.869 1.8-1.08-1.092-1.667-1.87-3.648-3.239-5.038-0.49 1.9-1.75 3.1-2.52 4.7zm235.4 0c0.462-2.096 1.044-3.893-1.079-4.678 0.2 1.8-0.1 3.9 1.1 4.7zm-67.3-0.4c1.575 0.889 2.366 0.322 4.679 0.359 0.084-1.268-1.913-3.287-3.239-4.318-0.3 1.6-1.2 2.4-1.5 3.9zm-178.6 1.5c1.085-0.729 0.785-3.096-0.36-3.599 0.83 1.2-1.22 2.6 0.36 3.6zm26.63-3.6c-1.808 0.7-1.432 5.767 0.36 6.118v-1.08c-0.021-0.219-0.054-0.426-0.36-0.359-0.081 0.279-0.01 0.71-0.36 0.72 0.58-1.3 0.3-3.5 0.36-5.3zm218.4 6.8c0.917-1.269-0.28-2.911-0.72-3.959-0.424 0.057-1.021-0.062-1.08 0.36 0.9 0.9 0.9 2.8 1.8 3.6zm-247.6 1.5c1.252-0.883 1.584-4.221 0-5.039 0.02 1.4-0.99 3.7 0 5zm35.63-1.5c0.274-0.415 0.314-3.657-1.08-3.599 0.08 1.5-0.29 3.4 1.08 3.6zm-28.43-1.1c1.308 2.713 6.669 3.806 8.278 1.439 1.891 3.154 8.641 2.434 10.44-0.36-1.488-1.031-2.333-2.705-5.039-2.519-3.29 4.9-10.62-2.2-13.68 1.5zm48.95 2.9c0.239-1.559-0.41-2.229-1.08-2.879 0.25 1.1 0.09 2.6 1.08 2.9zm-50.75 3.6c-0.899-2.901 3.067-4.088 0.72-6.119-0.84 1.2-3.34 4.9-0.72 6.1zm204.1-1.8c0.544-1.705-1.435-3.135-2.52-4.318 0.3 1.9 1.3 3.3 2.5 4.3zm-180.3-1.1c1.576 1.543 2.109 4.129 4.319 5.038-0.379-1.9-1.828-2.73-1.799-5.038-1.659 0.317-2.395-1.736-4.679-1.8-0.11 1.5 0.69 2 2.16 1.8zm12.24-0.3c-0.84 0.309-1.551-1.258-1.8-0.359 0.42 0.1 1.36 1.5 1.8 0.4zm196.9 2.5c-0.79-1.129-1.347-2.492-3.239-2.52 0.4 1.2 1.9 3.3 3.2 2.5zm-31.3 1.8c0.394-1.516 0.527-3.536-1.439-3.599 0 1.6 0 3.3 1.4 3.6zm-205.9-1.8c1.13 0.171 1.47-0.449 1.799-1.08-0.487-0.113-0.688-0.512-1.439-0.359 0.03 0.7-0.08 1.2-0.36 1.5zm6.84 1.1c-0.141-1.098 0.946-1.832-0.36-2.16-0.59 0.6-0.16 1.7 0.36 2.2zm28.07 3.2c-0.598-1.682-0.894-3.664-1.439-5.398h-1.439c0.06 1.4 1.4 4.3 2.88 5.4zm-0.36-3.6c2.213-0.414 0.819 2.779 2.52 2.879v-2.52c0.496 0.016 0.791-0.17 1.08-0.359 0.994-0.154 0.338 1.342 1.08 1.439-0.027-0.627 0.08-1.12 0.359-1.439-1.494-0.666-3.067-1.252-5.039-1.44v1.4zm-14.76 1.5c0.086-0.514 0.593-0.607 0.72-1.08h-1.08c0.06 0.4-0.06 1 0.36 1.1zm216.7 1c-0.938-0.239-1.7-2.914-2.52-1.079 0.4 0.5 1.8 2 2.5 1.1zm-215.3 2.5c1.134-0.927-0.898-1.717-0.36-3.239-0.423 0.057-1.021-0.062-1.08 0.359 0.9 0.5-0.07 2.9 1.44 2.8zm193 0c0.838-0.884 0.736-2.834-0.721-3.239-0.1 1.4 0 2.6 0.7 3.2zm-188.3-0.3c0.021-0.219 0.054-0.426 0.36-0.359-0.041-0.439-0.107-0.853-0.72-0.721 0.06 0.4-0.06 1 0.36 1.1zm-0.72 6.5c-1.327-1.585 1.182-2.404 1.08-3.959-0.902-1.018-1.701-2.139-2.879-2.879 1 2.4-0.3 6.8 1.8 6.9zm25.56-4.7c0.302-0.417 0.475-0.965 0.36-1.8-0.894 0.469-1.494-1.056-1.799 0 0.97 0.1 0.64 1.5 1.44 1.8zm167 2.1c0.158 0.771-0.682 2.413 0.72 2.52 0.097-1.619 0.475-6.411-1.8-6.838-0.1 1.4 0.8 3 1.1 4.3zm-211 4.4c-0.075-1.974 1.36-4.114 1.8-6.117 0.073-0.334 0.599-2.21-0.36-2.16-0.97 2.2-2.94 5.8-1.44 8.3zm12.59-3.6c0.539 0.061 1.328-0.129 1.439 0.359 1.205 2.822 0.278 7.303 0.36 10.8 1.157 0.316 0.493-1.186 1.44-1.08-0.202-4.691 0.364-6.208-0.36-9.717-1.848-0.916-2.189-5.242-4.319-4.679 0.56 1.3 1.12 2 1.44 4.3zm11.52 8.6c0.84-2.27 0.826-6.395 0.36-8.637-1.13-0.008-0.011 2.998-1.08 3.959-1.107-0.693-0.753-2.846-2.159-3.24 0.097 1.227 0.906 2.075 1.08 3.6 0.287 2.516-1.237 5.471 0 6.118 0.56 0.4 1.58-1.3 1.8-1.9zm1.8 4.7c1.324-1.923 2.668-5.806 0.72-7.918 1.264-2.34 1.992-9.377-1.439-10.08-1.103 1.596 2.336 3.32 1.08 5.039-1.032-0.287-0.226-2.413-1.799-2.16 2.39 4.1 1.19 10.4 1.44 15.2zm-19.43-4.3c2.175-3.493-0.044-10.15 1.799-13.32h-1.08c-0.87 4-2.91 9.3-0.72 13.3zm14.39-12.3c-0.345-0.262-2.109-1.689-1.44-0.719 0.43 0.1 0.91 1.9 1.44 0.7zm145.1 0c0.099-0.49-0.223-1.404-0.359-0.719-0.1 0.5 0.2 1.4 0.4 0.7zm42.4 5.8c0.658-1.397 1.392-5.266 0-6.478-1 0.9 0 5.3 0 6.5zm7.6-5.1c0.979 1.299 0.864 3.693 2.159 4.678 0.927-1.539-0.951-3.357-0.36-5.758-0.9 0.1-1.9 0.1-1.8 1.1zm-204.8 3.6c1.042-1.301-0.474-3.112-1.08-3.959-0.17 0.7-0.3 3.8 1.08 4zm20.16 1.8c0.147 2.379-1.842 4.877-0.36 6.479 0.998-3.842 1.868-6.538 1.44-11.16-0.863 0.143 0.199-1.639-1.08-1.079-1.33 2.1-0.1 4.2 0 5.8zm-29.51 0.4c-0.051 0.498-0.578 2.334 0.72 2.52 0.517-2.842 1.558-5.16 2.159-7.918-0.08-0.28-0.301-0.418-0.72-0.359-0.29 1.5-1.97 3.9-2.16 5.8zm212.6-0.4c-0.172 1.625 0.726 4.055 1.8 3.238-1.423-0.053-0.13-0.369 0-0.719 0.575-1.549-1.305-3.748-2.159-5.398-0.487-0.941-0.039-2.318-1.439-2.16-1 2.1 1.3 3.5 1.8 5.1zm-179.9 3.3c1.486-2.185 1.062-5.988-0.72-7.558 0.22 2.6-0.58 6.1 0.72 7.6zm175.3-0.7c0.807-1.209 0.531-3.97 0-5.759-0.2 2.1-2.1 4.5 0 5.8zm-189.7-0.4c0.519-1.794 0.298-4.155-1.08-5.038-0.16 2.2 0.44 3.6 1.08 5zm-9 2.2v-5.039c-0.705-0.614-1.487-1.152-2.16-1.799-0.03 3 0.67 5.3 2.16 6.8zm212.3-2.2c0.849-0.306-0.991-0.886-0.36-2.159-0.669-0.291-1.454-0.466-1.799-1.08 0.3 1.7 1.2 2.5 2.2 3.3zm-194.3 1.8c0.477-1.455 1.082-3.047 0-4.319-0.48 1.9-1.51 2.9 0 4.3zm183.9-1.1c-0.696-0.863-0.212-2.906-1.439-3.239-0.5 1.9-0.2 3.9 1.4 3.2zm-200.8 3.3c2.121 0.321 1.48-2.119 2.159-3.239-1.177-0.383-0.943-2.176-2.159-2.52 0.15 1.9 0.67 3.8 0 5.7zm5.76 2.8c0.568-1.984 1.684-7.268-1.08-8.638 1.09 2.5 0.11 6.9 1.08 8.6zm27.36 14.4c1.659 3.02 3.113 6.245 5.039 8.997 3.268-2.971 5.928-6.548 8.638-10.08 0.899-5.459 2.307-10.41 2.879-16.2-0.076-0.403-0.399-0.561-0.72-0.72-3.9 7.7-10.31 12.4-15.9 18zm176.3-15.4c0.716 0.004 0.458 0.981 1.439 0.719 0.589-0.582 0.434-2.26-0.72-2.158 0.1 0.7-0.9 0.5-0.7 1.5zm-200.4 1.8h0.72v-0.72h-0.72v0.7zm-11.88 1.4c0.108-0.947-0.498-1.181-1.439-1.079-0.36 1.2 0.5 1.2 1.44 1.1zm12.24 0.4h0.72v-0.72h-0.72v0.7zm215.3 3.9c-6.017 10.06-14.46 17.69-22.67 25.55 2.971 3.387 6.831 5.885 10.44 8.637 3.592-12.24 9.446-22.22 13.32-34.19-0.3 0.1-0.7 0.1-1 0.1zm-235 5.8c4.037 3.76 4.4 11.2 8.638 14.76 0.731-3.588 2.53-6.107 3.599-9.357-5.764-0.234-6.223-5.774-11.16-6.838-0.741-1.059-1.087-2.512-2.52-2.88 0.18 1.7 1.62 2.2 1.44 4.3zm175.2 9.3c2.319 8.054 10.66 15.24 16.2 20.15 2.304 2.045 4.35 4.232 6.839 5.398 1.723-6.436 6.072-10.24 9.717-14.76-6.431-1.246-10.28-5.072-16.2-6.838-2.403-2.275-5.408-3.949-8.638-5.398-2.695-3.064-6.136-5.382-8.997-8.278-0.3 2.6 0.4 7.1 1.1 9.7zm-141.8 8c4.208-0.562 11.43 0.998 16.92 0-3.532-4.267-5.253-10.34-8.278-15.12-2.95 4.9-5.81 10-8.64 15.1zm-23.76 0c1.279 1.295 1.433 2.829 3.239 3.238 2.651 0.602 9.686-2.506 12.6-2.159-2.578-4.261-5.891-7.784-8.278-12.24-1.475 0.391-2.231 0.426-3.239-0.359-1.48 3.8-3.22 7.4-4.32 11.6zm41.44-2.2c-0.982-0.752 1.273-1.353-0.36-1.799-0.08 0.279-0.301 0.418-0.72 0.359-0.259 2.059 0.949 2.65 1.799 3.6 0.4-1.259 3.164-3.66 1.8-4.319-0.4 1.1-1.6 1.5-2.5 2.1zm-9.04 4.3c0.981 0.332-0.503 1.126 0 2.16 1.148 0.051 1.068 1.33 2.16 1.439 1.367-1.752 3.315-2.923 5.398-3.959-3.47 0.6-5.5-1.7-7.56 0.4zm-4.68 2.2c-0.189 1.131-0.631 2.008-1.08 2.879 1.136 0.176 1.271-0.648 2.519-0.359 0.261-1.102-0.621-1.059-0.36-2.16 1.228 1.036 1.395-2.118 0.36-2.52h-2.879c-0.38 2.4 1.06 1 1.44 2.2zm-2.16-0.4c0.058-0.252-0.126-2.096-0.36-1.08-0.32 1.4 0.19 1.8 0.36 1.1zm-10.44 2.9c-0.147-0.867 0.657-0.783 0.36-1.8-1.615-0.056-1.502 1.617-1.439 3.239 2.349-1.436 3.954-1.393 6.118-2.879-0.109-1.33-1.529-1.35-2.159-2.16-1.41 0.9-0.98 2.8-2.88 3.7zm-6.48-2.2c0.061-0.779-1.277-0.162-1.8-0.359-0.32 1 2.04 1.8 1.8 0.4zm11.16 2.6c0.21 1.908 3.646 3.133 4.679 1.08-1.356-0.277-1.72 0.439-2.879 0.359 1.003-1.395 2.311-2.487 3.599-3.599-3.03-1-4.04 0.5-5.4 2.1zm-14.04-0.4c-0.268 1.107 0.988 0.691 0.72 1.799 3.006 0.717 4.048 5.307 6.838 5.039-1.579-1.9-2.855-4.104-3.959-6.479-1.46 0.2-2.44-1.3-3.6-0.3zm195.5 1.4c-1.915 0.605-2.589 2.45-3.239 4.318 1.491 1.867 0.871 5.848 3.599 6.479-0.521-1.911-2.474-5.713-0.72-7.558 1.05-0.091 1.242 0.678 1.8 1.079 0-0.7-0.1-3.9-1.5-4.3zm-181.8 5.1c1.14-0.541 2.285-1.075 2.16-2.88h-1.8c0.43 1.5-1.18 2-0.36 2.9zm-2.52-1.5c-0.496 0.016-0.791-0.17-1.08-0.36 0.196 1.124 0.857 1.782 1.8 2.159-0.579-1.186 1.252-2.547-0.36-2.52-0.08 0.3-0.01 0.7-0.36 0.7zm4.32 3.6h1.8c0.295-1.735-0.678-2.201-1.8-2.52-0.72 0.7-0.18 1.7 0 2.5z"/>
	<path id="path65" d="m92.86 81.1c-5.353 1.366-7.17-3.848-10.8-5.399 0.076 0.976 0.06 3.843-1.439 4.319 1.862 0.446 4.697-0.821 5.039 0.36-1.106 1.652-4.57 1.36-6.838 1.08-2.182-0.27-4.284-1.312-5.398-1.8-0.209-1.289 1.065-1.094 2.16-1.08-0.043-1.037 0.196-2.356-0.36-2.879-2.687 0.432-1.613 4.625-5.398 3.959 1.241-6.209 6.938-6.278 14.4-5.758 2.073 1.766 4.048 3.629 5.758 5.758 1.09 0.35 2.93-0.05 2.88 1.44zm-14.04-5.4c-0.059 1.139 0.957 1.203 0.72 2.52-0.361-0.001-0.429 0.292-0.72 0.36-0.916 0.392-1.396-1.686-1.439 0 0.347 0.732 1.382 0.777 2.519 0.72 0.466-1.094 1.44-1.679 1.08-3.599-0.84-0.11-1.49-0.7-2.16 0z"/>
</g>
</svg>
