<?xml version="1.0" standalone="no"?>
<!DOCTYPE svg PUBLIC "-//W3C//DTD SVG 1.1//EN" "http://www.w3.org/Graphics/SVG/1.1/DTD/svg11.dtd" >
<svg xmlns="http://www.w3.org/2000/svg">
<metadata>
This is a custom SVG webfont generated by Font Squirrel.
Copyright   : Copyright c 2010 by Typemade All rights reserved
Designer    : Santiago Orozco
Foundry     : Typemade
</metadata>
<defs>
<font id="webfontzaX0BCJV" horiz-adv-x="1089" >
<font-face units-per-em="2048" ascent="1536" descent="-512" />
<missing-glyph horiz-adv-x="614" />
<glyph unicode=" "  horiz-adv-x="614" />
<glyph unicode="&#x09;" horiz-adv-x="614" />
<glyph unicode="&#xa0;" horiz-adv-x="614" />
<glyph unicode="!" horiz-adv-x="411" d="M68 115q2 18 16 29.5t29 11.5q16 0 26.5 -11.5t7.5 -29.5q-2 -16 -16 -28.5t-31 -12.5q-14 0 -24 12.5t-8 28.5zM125 340l168 1196h29l-168 -1196h-29z" />
<glyph unicode="&#x22;" horiz-adv-x="600" d="M92 967l72 508h37l-40 -254l-40 -254h-29zM365 967l71 508h37l-40 -254l-40 -254h-28z" />
<glyph unicode="#" horiz-adv-x="1169" d="M31 461q2 8 3 14t3 14h242l45 173l45 172h-238q0 8 2 14t2 14h240l60 228l61 227h28l-60 -227l-61 -228h349l60 228l60 227h29l-60 -227l-61 -228h279q0 -8 -2 -14t-2 -14h-281l-45 -172l-45 -173h277l-3.5 -14l-3.5 -14h-278l-60 -231l-59 -230h-29l60 230l59 231h-348 l-59 -231l-60 -230h-28l59 230l59 231h-239zM307 489h348l45 173l45 172h-348l-45 -172z" />
<glyph unicode="$" horiz-adv-x="1161" d="M12 131l29 205h29l-27 -184q49 -59 129 -98.5t203 -41.5l104 740q-61 18 -117.5 39.5t-98.5 55.5t-64.5 84t-16.5 128q6 68 34 134.5t77 121.5t120.5 90t164.5 37l16 123h27l-17 -123q33 0 70 -5t73.5 -15.5t70.5 -27t61 -42.5l-33 -234h-29l31 219q-35 29 -96.5 50.5 t-151.5 25.5l-90 -635l142.5 -47t123.5 -66t82 -110t16 -174q-10 -90 -53 -162t-107.5 -124t-146.5 -80.5t-170 -30.5l-16 -123h-27l17 123q-78 2 -138.5 18t-104.5 38.5t-73 47.5t-43 43zM215 1085q-10 -74 8.5 -123t57 -82.5t91 -55t111.5 -40.5l90 629q-78 -2 -140 -29.5 t-108 -73.5t-74 -105t-36 -120zM401 12q76 2 151 30t136.5 74t103.5 111.5t52 145.5q14 98 -11.5 161.5t-74.5 103.5t-116 62.5t-136 42.5z" />
<glyph unicode="%" horiz-adv-x="1486" d="M260 797q6 45 29.5 86t58.5 70.5t78 47t90 17.5q45 0 84 -17.5t65.5 -47t39 -70.5t6.5 -86q-6 -47 -31 -88t-59.5 -71t-77.5 -47.5t-88 -17.5q-47 0 -85 17.5t-64.5 47.5t-39 71t-6.5 88zM289 795q-10 -80 39 -136.5t131 -56.5q41 0 78.5 15.5t68.5 41t50.5 60.5t25.5 76 q10 80 -39 137t-131 57q-41 0 -79 -15.5t-68.5 -42t-50 -62t-25.5 -74.5zM352 0l378 512l378 512h33l-378 -512l-378 -512h-33zM803 231q6 45 29.5 86t58.5 71t78 47.5t90 17.5q45 0 84 -17.5t65.5 -47.5t39 -71t5.5 -86q-6 -47 -29.5 -88t-59.5 -70.5t-79 -47t-88 -17.5 q-47 0 -85 17.5t-64.5 47t-38.5 70.5t-6 88zM831 229q-10 -80 39.5 -136t130.5 -56q41 0 79 15.5t69 41t50.5 60t25.5 75.5q10 80 -39 137.5t-131 57.5q-41 0 -79 -15.5t-68.5 -42t-50.5 -62.5t-26 -75z" />
<glyph unicode="&#x26;" horiz-adv-x="1433" d="M162 383q10 74 45 140.5t87 118.5t117.5 87t139.5 47l-115 240q-29 61 -34 126.5t13.5 129t63.5 119t119 96.5q63 35 123.5 42t116 -3t103.5 -33t83 -47l-16 -27q-43 27 -89.5 49.5t-95.5 32.5t-102 3t-111 -40q-70 -41 -111.5 -92t-58 -107.5t-11.5 -117t32 -115.5 l393 -831q61 84 76 182l53 385h246l-4 -29h-217l-25 -178l-12 -101q-6 -50 -17.5 -99.5t-32 -96.5t-53.5 -92l95 -195l-25 -16l-90 186q-66 -74 -155 -117.5t-189 -43.5q-84 0 -151.5 30.5t-113.5 85t-67.5 126t-9.5 155.5zM190 383q-10 -78 9.5 -144.5t62.5 -116.5 t105.5 -79t140.5 -29q96 0 182 44t146 116l-273 576q-70 -8 -133 -40t-113.5 -81t-83.5 -112.5t-43 -133.5z" />
<glyph unicode="'" horiz-adv-x="301" d="M100 967l72 508h37l-40 -254l-40 -254h-29z" />
<glyph unicode="(" horiz-adv-x="806" d="M288 305q-9 139 13 293q20 154 68.5 293t113 258t138 216t147.5 165v-47q-68 -68 -137.5 -160t-130 -204.5t-105.5 -244t-65 -276.5t-12 -276.5t36.5 -244t72.5 -204.5t93 -160q-4 -12 -6 -23.5t-6 -23.5q-55 68 -102.5 165t-78 216t-39.5 258z" />
<glyph unicode=")" horiz-adv-x="819" d="M102 -287q68 68 137.5 160t130 204.5t106.5 244t67 276.5q20 145 11 276.5t-38 244t-73 204.5t-93 160q4 12 6 23.5t6 23.5q55 -68 102.5 -165t78 -216t40 -258t-11.5 -293q-23 -154 -70.5 -293t-112 -258t-138.5 -216t-148 -165v47z" />
<glyph unicode="*" horiz-adv-x="686" d="M61 1051l121 64l123 65l-103 67l-104 68l8 12l9 12l105 -66l106 -67l39 269h36q-12 -68 -22 -135l-21 -134l126 66l126 65q8 -16 11 -24l-125 -68l-125 -67l105 -66l106 -65q-4 -8 -10.5 -15.5t-12.5 -15.5l-209 135l-20 -131l-21 -131h-28l36 260l-121 -65l-122 -64z " />
<glyph unicode="+" horiz-adv-x="1112" d="M174 461l4 28h354l50 353h28l-49 -353h354l-4 -28h-354l-51 -357h-29l51 357h-354z" />
<glyph unicode="," horiz-adv-x="409" d="M25 -246l108 211l109 211h47l-118 -211l-118 -211h-28z" />
<glyph unicode="-" horiz-adv-x="614" d="M106 377l3 29h376l-2 -29h-377z" />
<glyph unicode="." horiz-adv-x="333" d="M135 41q2 16 15.5 28.5t29.5 12.5t27.5 -12.5t9.5 -28.5q-4 -16 -17.5 -28.5t-29.5 -12.5t-27.5 12.5t-7.5 28.5z" />
<glyph unicode="/" horiz-adv-x="659" d="M-74 -39l393 773l394 773h28l-393 -773l-393 -773h-29z" />
<glyph unicode="0" horiz-adv-x="1261" d="M74 670q14 98 60 216t126 221t195.5 172t269.5 69q152 0 246 -71t143 -174.5t60.5 -222t-3.5 -216.5q-20 -141 -82.5 -265.5t-150.5 -216.5t-196.5 -144t-221.5 -52t-204 54t-152.5 146.5t-85.5 216.5t-4 267zM104 672q-23 -150 4 -270.5t87.5 -206.5t147.5 -133.5 t185 -47.5t198.5 45t185.5 129t146.5 205t84.5 269q23 150 0 271.5t-80 206.5t-145.5 132t-198.5 47q-111 0 -212 -44t-183 -129t-141 -204.5t-79 -269.5z" />
<glyph unicode="1" horiz-adv-x="509" d="M43 0l4 29h164l178 1274h-231l4 28h260l-182 -1302h163l-4 -29h-356z" />
<glyph unicode="2" horiz-adv-x="1013" d="M12 0l291 251q141 124 254 241.5t186.5 227t87.5 206.5q16 115 -5 190.5t-64 120.5t-98.5 63.5t-106.5 18.5q-102 0 -172 -36t-115 -90t-68.5 -116.5t-31.5 -115.5q-20 -143 49 -234l-20 -16q-35 49 -51.5 107.5t-6.5 142.5q12 82 46 152.5t87.5 122.5t126 82t160.5 30 q80 0 141.5 -30t101.5 -83t55 -126t3 -159q-16 -119 -93 -236.5t-187.5 -232t-239.5 -228.5l-252 -224h709l32 231h29l-37 -260h-811z" />
<glyph unicode="3" horiz-adv-x="1054" d="M115 119l22 26q41 -59 107.5 -96t152.5 -37q80 0 157 31t138.5 84t102.5 124t53 148q12 80 -10.5 151t-68.5 123t-114.5 82.5t-148.5 30.5q-33 0 -66.5 -12t-64.5 -35l514 564h-559l-21 -140h-28l24 168h653l-481 -516q94 4 173 -25.5t133.5 -85t80 -134t13.5 -171.5 q-12 -86 -56.5 -161.5t-109 -132t-145.5 -89t-167 -32.5q-92 0 -164.5 37t-119.5 98z" />
<glyph unicode="4" horiz-adv-x="1034" d="M33 375l887 973l-134 -945h199l-4 -28h-199l-49 -346h170l-4 -29h-356l4 29h158l49 346h-721zM98 403h660l121 861z" />
<glyph unicode="5" horiz-adv-x="1112" d="M156 98l26 21q41 -51 103.5 -79t140.5 -28q82 0 157.5 31t137 84t102.5 124t54 148q10 80 -11.5 148.5t-67.5 121t-114 82t-149 29.5q-72 0 -134.5 -23.5t-103.5 -58.5l90 633h588l-25 -168h-28l20 140h-530l-76 -541q49 23 101 35t106 12q86 0 157.5 -32t121.5 -87 t73 -130t10 -161q-12 -86 -56 -161.5t-109.5 -132t-146.5 -89t-167 -32.5q-84 0 -152.5 30.5t-117.5 83.5z" />
<glyph unicode="6" horiz-adv-x="1064" d="M68 395q20 150 101 278t195.5 238.5t248.5 205.5l261 179q6 -14 17 -26q-150 -90 -266.5 -178t-203.5 -169t-145.5 -152t-89.5 -128q68 76 160 121t197 45q86 0 157.5 -33t120.5 -89t71.5 -131t10.5 -161t-56 -160.5t-108.5 -130t-145.5 -88t-167 -32.5t-157.5 32.5 t-121 88t-70.5 130t-9 160.5zM94 395q-12 -80 8.5 -149.5t66.5 -121.5t112.5 -82t146.5 -30t155.5 30t136 82t101.5 121.5t53 149.5q10 80 -10 149.5t-66 122t-114 83t-147 30.5q-80 0 -156 -30.5t-135.5 -83t-100.5 -122t-51 -149.5z" />
<glyph unicode="7" horiz-adv-x="960" d="M98 1163l23 168h821l-784 -1331h-37l770 1303h-746l-18 -140h-29z" />
<glyph unicode="8" horiz-adv-x="1044" d="M70 399q10 72 41.5 136.5t81 117t111 90t130.5 54.5q-82 29 -127 99.5t-31 164.5q8 59 38 111.5t76 91.5t102.5 61.5t117.5 22.5t111.5 -24t85.5 -63.5t50 -93t7 -114.5q-12 -90 -74.5 -159t-150.5 -97q68 -16 121 -53t89 -89.5t50 -117t4 -138.5q-12 -86 -56 -161.5 t-108.5 -132t-145.5 -89t-167 -32.5t-156.5 32.5t-119 89t-70.5 132t-10 161.5zM98 399q-10 -78 9.5 -148.5t63.5 -123.5t109.5 -85t145.5 -32q82 0 157.5 32t137 85t102.5 124t51 148q12 80 -9 148.5t-68 121t-115 82t-150 29.5q-80 0 -153.5 -29.5t-132 -82t-97.5 -121 t-51 -148.5zM303 1047q-8 -51 6.5 -94.5t47 -75t78.5 -49t104 -17.5q55 0 106 17.5t91 49t65.5 74.5t34.5 95q8 55 -5.5 104t-44 86t-75.5 59.5t-101 22.5q-57 0 -109 -22.5t-93 -59.5t-69 -86t-36 -104z" />
<glyph unicode="9" horiz-adv-x="1075" d="M145 885q12 86 56.5 160.5t109 130t145.5 88t167 32.5t157.5 -32.5t120.5 -88t70.5 -130t9.5 -160.5q-20 -150 -101 -278t-196 -238.5t-249 -205.5l-261 -179q-8 14 -16 26q150 90 266.5 178t203.5 169t145 152t89 128q-68 -76 -160 -121t-196 -45q-86 0 -158 33t-121 89 t-71.5 131t-10.5 161zM174 885q-10 -80 10.5 -150.5t66.5 -123t113.5 -82t147.5 -29.5t155.5 29.5t135 82t100.5 123t51 150.5q12 80 -8 149.5t-66 121.5t-113 82t-146 30q-80 0 -156 -30t-136.5 -82t-101.5 -121.5t-53 -149.5z" />
<glyph unicode=":" horiz-adv-x="358" d="M96 41q2 16 16.5 28.5t30.5 12.5t26.5 -12.5t8.5 -28.5q-4 -16 -17.5 -28.5t-29.5 -12.5t-27.5 12.5t-7.5 28.5zM168 553q4 16 17.5 28.5t29.5 12.5t27.5 -12.5t7.5 -28.5q-2 -16 -16.5 -28.5t-30.5 -12.5t-26.5 12.5t-8.5 28.5z" />
<glyph unicode=";" horiz-adv-x="411" d="M-33 -246l107 211l108 211h47l-117 -211l-116 -211h-29zM233 553q2 16 15.5 28.5t30.5 12.5q16 0 27 -12.5t9 -28.5q-4 -16 -17 -28.5t-30 -12.5q-16 0 -27.5 12.5t-7.5 28.5z" />
<glyph unicode="&#x3c;" horiz-adv-x="1392" d="M236 487l483 259l485 260l-4 -33l-456 -243l-455 -243l386 -242l388 -243l-4 -33l-412 259z" />
<glyph unicode="=" horiz-adv-x="1449" d="M174 307l4 29h1036l-4 -29h-1036zM229 705l4 28h1037l-4 -28h-1037z" />
<glyph unicode="&#x3e;" horiz-adv-x="1331" d="M162 -31l4 33l457 243l456 242l-388 243l-388 243l4 33l412 -260l414 -259l-486 -259z" />
<glyph unicode="?" horiz-adv-x="925" d="M125 1227q29 59 73 109t98 86t117.5 56.5t129.5 20.5q84 0 153.5 -31.5t115.5 -86t67.5 -127t9.5 -154.5q-16 -111 -82 -194t-168 -148q-43 -29 -80 -48.5t-66.5 -44t-49 -63.5t-29.5 -106l-23 -160h-29l29 199q8 63 38 101t72 67.5t94 59.5t107 73q72 55 110 121.5 t48 142.5q10 80 -9.5 147.5t-62.5 117.5t-107.5 77.5t-141.5 27.5q-61 0 -120 -18t-110 -51t-92 -79t-65 -101q-6 2 -13.5 3t-13.5 3zM305 92q2 18 15.5 29.5t27.5 11.5q16 0 27.5 -11t9.5 -30q-4 -16 -17.5 -28.5t-29.5 -12.5q-14 0 -25.5 12.5t-7.5 28.5z" />
<glyph unicode="@" horiz-adv-x="2027" d="M193 387q23 168 106.5 315.5t209.5 258t281.5 174t323.5 63.5t307.5 -63.5t233.5 -174t137 -259t18 -316.5q-20 -121 -55 -196.5t-80 -117.5t-95 -56.5t-101 -14.5h-160l16 111q4 33 9.5 64.5t9.5 64.5q-59 -111 -169 -181.5t-239 -70.5q-84 0 -151.5 30.5t-113.5 85 t-67.5 126t-9.5 155.5q12 82 53 155.5t102.5 127t138.5 85t161 31.5q127 0 216 -70.5t118 -181.5l20 118q10 58 23 118h20l-104 -741h145q111 0 182.5 86t102.5 272q23 162 -18.5 305.5t-132.5 250t-225 167.5t-296 61t-312.5 -61t-271 -167.5t-202.5 -250t-105 -305.5 t19.5 -304t132.5 -247.5t224 -167t296 -61.5q127 0 245.5 39t223.5 104q4 -6 7 -11t7 -11q-111 -70 -231.5 -110t-255.5 -40q-168 0 -306.5 63.5t-232.5 174t-137 258t-18 315.5zM633 385q-10 -78 9.5 -144.5t62.5 -116.5t105 -79t140 -29q76 0 147.5 29t129 79t96.5 116.5 t49 144.5q10 76 -9.5 143.5t-62.5 118.5t-106.5 80t-138.5 29q-78 0 -148.5 -29t-128 -80t-96.5 -118.5t-49 -143.5z" />
<glyph unicode="A" horiz-adv-x="1695" d="M72 0l2 29h151l417 734l415 736l208 -736l208 -734h153l-2 -29h-356l2 29h172l-86 308l-88 310h-660l-174 -310l-176 -308h172l-2 -29h-356zM625 676h635l-201 706l-10 52l-15 -29q-6 -10 -12 -23q-94 -180 -196 -354z" />
<glyph unicode="B" horiz-adv-x="1056" d="M72 0l2 29h145l195 1376h-146l4 29h443q92 0 165.5 -20.5t123 -63.5t69.5 -112q12 -40 12 -90q0 -34 -6 -73q-16 -127 -94 -223t-215 -131q61 -12 113.5 -41t90.5 -74t55 -104q11 -37 11 -81q0 -25 -4 -52q-12 -92 -58 -161t-113.5 -115t-148.5 -69.5t-165 -23.5h-479z M248 29h303q82 0 159.5 20.5t139 62.5t102.5 104.5t54 145.5q4 27 3 53q0 56 -19 101q-28 66 -85 107t-134 61.5t-163 20.5h-264zM348 733h301q82 0 150.5 25.5t122 72t87 110t44.5 140.5q5 34 5 65q0 46 -11 83q-18 61 -60.5 100t-107 57.5t-144.5 18.5h-293z" />
<glyph unicode="C" horiz-adv-x="1249" d="M174 715q20 152 97 286t189.5 233t254 157.5t293.5 58.5q104 0 194 -26.5t166 -75.5l-33 -230h-28l30 211q-145 92 -333 92q-145 0 -280.5 -56t-245 -152.5t-182.5 -225.5t-93 -274q-7 -52 -8 -102q0 -89 24 -171q37 -127 118 -222t199.5 -150.5t262.5 -55.5 q98 0 193 25.5t182 73.5l16 -25q-90 -47 -186.5 -74.5t-200.5 -27.5q-152 0 -277 57t-211 156.5t-125 232.5q-25 84 -24 176q0 53 8 109z" />
<glyph unicode="D" horiz-adv-x="1294" d="M72 0l2 29h149l195 1376h-150l4 29h430q147 0 271.5 -50.5t209.5 -143.5t124 -226q25 -84 24 -181q0 -56 -8 -116q-18 -121 -77.5 -248t-168 -231.5t-268.5 -171t-377 -66.5h-360zM252 29h201q203 0 354 64.5t253.5 163.5t161 221t74.5 239q9 60 9 115q0 91 -23 170 q-37 128 -118 217.5t-198.5 137.5t-254.5 48h-265z" />
<glyph unicode="E" horiz-adv-x="1169" d="M72 0l2 29h168l194 1376h-168l4 29h998l-45 -316h-29l41 287h-772l-94 -668h721l-5 -28h-720l-97 -680h801l41 286h29l-43 -315h-1026z" />
<glyph unicode="F" horiz-adv-x="1140" d="M72 0l2 29h168l194 1376h-168l4 29h998l-45 -316h-29l41 287h-772l-94 -668h721l-5 -28h-720l-97 -680h160l-2 -29h-356z" />
<glyph unicode="G" horiz-adv-x="1247" d="M68 711q20 152 97 285.5t190.5 233t255 158t292.5 58.5q104 0 193.5 -26.5t167.5 -76.5l-21 -24q-72 47 -159 72.5t-185 25.5q-145 0 -281.5 -56t-245 -152.5t-182 -225.5t-94.5 -274q-7 -52 -7 -102q0 -89 24 -171q37 -127 118.5 -222t200.5 -150.5t262 -55.5 q96 0 186.5 23.5t176.5 68.5l69 482h-352l2 28h381l-74 -528q-88 -47 -184 -74.5t-201 -27.5q-152 0 -276.5 57t-210.5 156.5t-125 232.5q-25 87 -25 182q0 51 7 103z" />
<glyph unicode="H" horiz-adv-x="1466" d="M72 0l2 29h157l195 1376h-158l4 29h357l-4 -29h-170l-95 -668h951l94 668h-170l4 29h356l-4 -29h-157l-195 -1376h158l-2 -29h-357l2 29h170l97 680h-951l-96 -680h170l-2 -29h-356z" />
<glyph unicode="I" horiz-adv-x="499" d="M72 0l2 29h157l195 1376h-158l4 29h357l-4 -29h-170l-195 -1376h170l-2 -29h-356z" />
<glyph unicode="J" horiz-adv-x="522" d="M-49 -291l2 29q76 4 143.5 35.5t122.5 90t93 140.5t53 186l172 1215h-351l4 29h379l-176 -1250q-16 -115 -58 -201.5t-102.5 -146t-133 -92.5t-148.5 -35z" />
<glyph unicode="K" horiz-adv-x="1404" d="M72 0l2 29h157l195 1376h-158l4 29h357l-4 -29h-170l-95 -668q-2 -16 -5 -29.5t-5 -29.5l41 41l815 686h-131l4 29h357l-4 -29h-181l-639 -537l273 -419l270 -420h180l-2 -29h-356l2 29h135l-262 409l-264 410l-242 -201l-43 -310q-20 -155 -43 -308h170l-2 -29h-356z " />
<glyph unicode="L" horiz-adv-x="1159" d="M72 0l2 29h157l195 1376h-158l4 29h357l-4 -29h-170l-195 -1376h801l41 286h28l-43 -315h-1015z" />
<glyph unicode="M" horiz-adv-x="1968" d="M72 0l2 29h157l195 1376h-158l4 29h205l215 -344l93 -149l96 -153l90 -145l80 -125l415 458l416 458h205l-4 -29h-158l-194 -1376h167l-2 -29h-356l2 29h160l182 1292l14 92q0 -2 -4 -6l-8 -8q-4 -4 -8 -10l-83 -92l-126 -139l-155 -171l-166 -184l-162 -179l-142 -157 l-298 477l-277 442l-16 27q-4 -23 -5.5 -46.5t-5.5 -45.5l-182 -1292h170l-2 -29h-356z" />
<glyph unicode="N" horiz-adv-x="1720" d="M80 0l4 29h158l192 1376h-158l5 29h211l944 -1377l30 -53l4 66l187 1335h-160l4 29h357l-5 -29h-167l-205 -1471l-989 1438l-31 41l-4 -53l-187 -1331h170l-4 -29h-356z" />
<glyph unicode="O" horiz-adv-x="1609" d="M174 715q20 152 97 286t189.5 233t254 157.5t293.5 58.5t277.5 -58.5t211.5 -157.5t125 -234q25 -88 26 -183q0 -50 -8 -102q-23 -152 -98.5 -285t-189 -232.5t-256 -156.5t-293.5 -57q-152 0 -277 57t-211 156.5t-125 232.5q-25 84 -24 176q0 53 8 109zM203 713 q-7 -52 -8 -102q0 -89 24 -171q37 -127 118 -222t199.5 -150.5t262.5 -55.5q145 0 283.5 55.5t249 150.5t185 223t95.5 274q7 51 7 100q0 90 -25 173q-38 128 -120.5 224.5t-203.5 152.5t-266 56t-280.5 -56t-245 -152.5t-182.5 -225.5t-93 -274z" />
<glyph unicode="P" horiz-adv-x="985" d="M72 0l2 29h145l195 1376h-146l4 29h433q59 0 127.5 -20.5t124 -63.5t87.5 -113q23 -48 23 -111q0 -27 -4 -57q-25 -170 -153 -270.5t-339 -100.5h-229l-94 -669h182l-2 -29h-356zM346 727h236q119 0 201.5 33t136 83t80 110.5t34.5 115.5q2 19 2 37q0 48 -15 91 q-22 60 -70 106.5t-116.5 74t-154.5 27.5h-238z" />
<glyph unicode="Q" horiz-adv-x="1654" d="M174 715q20 152 97 286t189.5 233t254 157.5t293.5 58.5t277.5 -58.5t211.5 -157.5t125 -234q25 -88 26 -183q0 -50 -8 -102q-16 -119 -67 -226.5t-128 -196.5t-174 -156.5t-208 -106.5h526l-4 -29h-629q-82 -16 -153 -16q-152 0 -277 57t-211 156.5t-125 232.5 q-25 84 -24 176q0 53 8 109zM203 713q-7 -52 -8 -102q0 -89 24 -171q37 -127 118 -222t199.5 -150.5t262.5 -55.5q145 0 283.5 55.5t249 150.5t185 223t95.5 274q7 51 7 100q0 90 -25 173q-38 128 -120.5 224.5t-203.5 152.5t-266 56t-280.5 -56t-245 -152.5t-182.5 -225.5 t-93 -274z" />
<glyph unicode="R" horiz-adv-x="1165" d="M72 0l2 29h145l195 1376h-146l4 29h433q59 0 127.5 -20.5t124 -63.5t87.5 -113q23 -48 23 -111q0 -27 -4 -57q-20 -141 -113.5 -236.5t-249.5 -123.5l224 -680h172l-2 -29h-189l-235 705q-47 -6 -99 -7h-229l-94 -669h182l-2 -29h-356zM346 727h236q119 0 201.5 33 t136 83t80 110.5t34.5 115.5q2 19 2 37q0 48 -15 91q-22 60 -70 106.5t-116.5 74t-154.5 27.5h-238z" />
<glyph unicode="S" horiz-adv-x="978" d="M115 131l28 205h29l-27 -184q51 -59 132 -99.5t208 -40.5q80 0 157 25.5t141.5 73t107.5 114t55 148.5q5 36 6 66q0 51 -15 90q-24 62 -70 102.5t-108.5 64t-129 43t-132 41t-114.5 55t-77 87.5q-23 44 -22 107q0 14 1 30q6 68 34.5 136.5t80 123.5t124 89t168.5 34 q33 0 72 -4t78 -13.5t74.5 -28t64.5 -44.5l-33 -234h-28l30 219q-35 31 -101.5 53.5t-164.5 22.5q-80 0 -143.5 -27.5t-110.5 -73.5t-75.5 -104.5t-37.5 -122.5q-4 -27 -4 -51q0 -50 18 -85q26 -52 73 -86t111 -54l132 -41q68 -20 132.5 -46t112.5 -68t73 -107 q16 -44 16 -103q0 -30 -4 -63q-10 -90 -54 -164t-111 -126t-150.5 -79.5t-174.5 -27.5q-82 0 -144 16t-107.5 39.5t-75 48.5t-45.5 43z" />
<glyph unicode="T" horiz-adv-x="1275" d="M227 1118l45 316h1133l-45 -316h-29l41 287h-524l-195 -1376h166l-2 -29h-356l2 29h162l194 1376h-522l-41 -287h-29z" />
<glyph unicode="U" horiz-adv-x="1380" d="M270 1405l4 29h357l-4 -29h-170l-131 -936q-7 -49 -8 -93q0 -55 12 -103q20 -85 69.5 -143t124 -88t168.5 -30q92 0 176 30t150.5 88t111 143t60.5 196l131 936h-170l4 29h356l-4 -29h-157l-133 -942q-16 -117 -63.5 -207t-118 -150.5t-159 -91t-186.5 -30.5t-179 30.5 t-134 91t-76 150.5q-13 52 -13 113q0 44 7 94l133 942h-158z" />
<glyph unicode="V" horiz-adv-x="1728" d="M276 1405l5 29h356l-4 -29h-156l192 -678l193 -676l10 -51l27 51l380 676l382 678h-156l4 29h357l-4 -29h-170l-414 -736l-414 -735l-210 735l-210 736h-168z" />
<glyph unicode="W" horiz-adv-x="2498" d="M276 1405l5 29h356l-4 -29h-156l189 -679l196 -675l10 -51q113 221 239 437l249 433l-75 267l-77 268h-161l4 29h356l-4 -29h-164l188 -679l197 -675l10 -51l27 51l380 676l382 678h-148l4 29h357l-4 -29h-178l-414 -736l-414 -735l-244 854l-12 46l-254 -450l-252 -450 l-210 735l-210 736h-168z" />
<glyph unicode="X" horiz-adv-x="1454" d="M72 0l2 29h182l553 708l-338 668h-203l4 29h357l-4 -29h-121l161 -313l158 -312l13 -26l20 26l487 625h-120l4 29h356l-4 -29h-203l-264 -339l-262 -337l177 -351l179 -349h178l-2 -29h-356l2 29h143l-278 542q-18 35 -34.5 72t-37.5 70l-18 -27l-258 -329l-258 -328h143 l-2 -29h-356z" />
<glyph unicode="Y" horiz-adv-x="1470" d="M268 1405l4 29h357l-4 -29h-195l184 -397l181 -398l18 -53h2l29 53l586 795h-191l4 29h356l-4 -29h-131l-320 -435l-321 -433l-71 -508h166l-3 -29h-356l2 29h162l72 508l-200 434l-200 434h-127z" />
<glyph unicode="Z" horiz-adv-x="1288" d="M72 0l2 29l1239 1376h-1010l14 100h33l-10 -71h1018l-4 -29l-1239 -1376h1075l47 327h29l-49 -356h-1145z" />
<glyph unicode="[" horiz-adv-x="692" d="M41 -305l256 1833h334l-4 -29h-301l-248 -1775h301l-4 -29h-334z" />
<glyph unicode="\" horiz-adv-x="655" d="M143 1507h29l175 -773l175 -773h-28l-176 773z" />
<glyph unicode="]" horiz-adv-x="700" d="M51 -305l4 29h301l248 1775h-301l4 29h334l-256 -1833h-334z" />
<glyph unicode="^" horiz-adv-x="962" d="M203 981l148 185l149 186l97 -186l97 -185h-32l-85 158l-85 157l-128 -157l-128 -158h-33z" />
<glyph unicode="_" horiz-adv-x="1228" d="M203 0l2 29h819l-2 -29h-819z" />
<glyph unicode="`" horiz-adv-x="409" d="M-8 1253h31l72 -136l73 -136h-33l-73 136z" />
<glyph unicode="a" d="M127 385q12 82 53 155.5t102.5 127t137.5 85t160 31.5q63 0 117.5 -18t98.5 -52t74.5 -80t44.5 -102q8 59 19.5 118t21.5 118h21l-105 -739h150l-4 -29h-178l16 111q4 33 10 64.5t11 64.5q-59 -111 -169 -181.5t-239 -70.5q-84 0 -151.5 30.5t-113.5 85t-68 125.5 q-14 46 -13 97q0 28 4 59zM156 385q-4 -28 -4 -54q0 -47 12 -90q18 -67 61 -117t105.5 -79t140.5 -29q76 0 148.5 29t130 79t96.5 116.5t49 144.5q4 26 4 51q0 48 -13 92q-19 68 -62.5 119t-108 80t-140.5 29q-78 0 -148.5 -29t-127.5 -80t-95 -118.5t-48 -143.5z" />
<glyph unicode="b" d="M72 0l4 29h149l209 1478h-149l4 29h178l-125 -879l-8 -62l-8 -63q59 111 167.5 181.5t237.5 70.5q82 0 150.5 -31.5t114.5 -85t68 -126.5q14 -47 14 -97q0 -29 -5 -59q-12 -84 -53 -155.5t-102.5 -126t-138.5 -85t-158 -30.5q-129 0 -219.5 70.5t-118.5 181.5l-9 -65 l-8 -64l-16 -111h-178zM305 385q-4 -27 -3 -52q0 -48 12 -92q19 -67 62.5 -117t106 -79t140.5 -29q76 0 147.5 29t128.5 79t96 116.5t49 144.5q4 26 4 51q0 48 -13 92q-19 68 -62 119t-106.5 80t-139.5 29q-78 0 -148.5 -29t-128 -80t-96.5 -118.5t-49 -143.5z" />
<glyph unicode="c" horiz-adv-x="792" d="M127 385q12 82 53 155.5t102.5 127t137.5 85t160 31.5q72 0 133 -23.5t106 -64.5l-24 -178h-29l22 162q-43 35 -96 55.5t-117 20.5q-78 0 -148.5 -29t-127.5 -80t-95 -118.5t-48 -143.5q-4 -28 -4 -54q0 -47 12 -90q18 -67 61 -117t105.5 -79t140.5 -29q66 0 128.5 21.5 t115.5 58.5l18 -20q-59 -41 -125.5 -64.5t-138.5 -23.5q-84 0 -151.5 30.5t-113.5 85t-68 125.5q-14 46 -13 97q0 28 4 59z" />
<glyph unicode="d" d="M127 385q12 82 53 155.5t102.5 127t137.5 85t160 31.5q129 0 218 -70.5t117 -181.5q10 61 17.5 122t17.5 122l103 731h-150l4 29h178l-213 -1507h150l-4 -29h-178l16 111q4 33 10 64.5t11 64.5q-59 -111 -169 -181.5t-239 -70.5q-84 0 -151.5 30.5t-113.5 85t-68 125.5 q-14 46 -13 97q0 28 4 59zM156 385q-4 -28 -4 -54q0 -47 12 -90q18 -67 61 -117t105.5 -79t140.5 -29q76 0 148.5 29t130 79t96.5 116.5t49 144.5q4 26 4 51q0 48 -13 92q-19 68 -62.5 119t-108 80t-140.5 29q-78 0 -148.5 -29t-127.5 -80t-95 -118.5t-48 -143.5z" />
<glyph unicode="e" horiz-adv-x="890" d="M127 385q12 82 53 155.5t102.5 127t137.5 85t160 31.5q119 0 202.5 -70.5t108.5 -183.5l-366 -140l-365 -140q27 -104 109.5 -169t201.5 -65q74 0 143.5 27t124.5 74q4 -6 8.5 -11.5t8.5 -11.5q-61 -49 -134 -77.5t-153 -28.5q-84 0 -151.5 30.5t-113.5 85t-68 125.5 q-14 46 -13 97q0 28 4 59zM154 276l352 135l350 134q-29 94 -103.5 152.5t-177.5 58.5q-92 0 -174 -42t-141 -109.5t-89 -153.5q-21 -61 -21 -123q0 -26 4 -52z" />
<glyph unicode="f" horiz-adv-x="575" d="M72 0l2 29h125l100 710h-125l4 29h125l41 293q16 113 58 201t102.5 147t134.5 91t152 36l-5 -29q-70 0 -137 -30.5t-123.5 -88t-96.5 -138.5t-54 -181l-43 -301h266l-4 -29h-266l-101 -710h203l-2 -29h-356z" />
<glyph unicode="g" horiz-adv-x="1091" d="M197 385q12 82 53 155.5t102.5 127t137 85t159.5 31.5q63 0 117.5 -18t98.5 -52t75 -80t45 -102l21 118l20 118h172l-4 -29h-152l-108 -776q-16 -115 -58 -202t-102.5 -146t-133.5 -92t-151 -35q-41 2 -84 8t-81.5 20.5t-72.5 37t-54 57.5l28 14q41 -61 117 -84.5 t150 -23.5q70 0 138 30.5t124.5 88t96.5 138.5t54 181l21 156q4 33 10 64.5t10 64.5q-59 -111 -168.5 -181.5t-238.5 -70.5q-84 0 -152 30.5t-114 85t-67 125.5q-14 46 -14 97q1 28 5 59zM225 385q-4 -27 -3 -52q0 -48 12 -92q19 -67 62.5 -117t106 -79t140.5 -29 q76 0 147.5 29t129 79t96 116.5t49.5 144.5q4 26 3 51q0 48 -13 92q-19 68 -62 119t-107.5 80t-140.5 29q-78 0 -148.5 -29t-128 -80t-95.5 -118.5t-48 -143.5z" />
<glyph unicode="h" horiz-adv-x="1069" d="M72 0l2 29h162l208 1478h-149l4 29h178l-123 -877l-20 -92q55 96 153.5 155.5t214.5 59.5q109 0 163 -63q44 -52 45 -130q0 -18 -3 -36l-73 -524h165l-2 -29h-356l2 29h162l76 538q1 12 1 23q0 59 -36 105q-43 54 -133 59q-70 0 -135.5 -22.5t-118.5 -62.5t-89 -96.5 t-46 -121.5l-60 -422h166l-2 -29h-356z" />
<glyph unicode="i" horiz-adv-x="499" d="M72 0l2 29h168l100 710h-168l4 29h197l-105 -739h160l-2 -29h-356zM356 1024q2 16 16.5 28.5t30.5 12.5t27 -12q9 -10 9 -24q0 -18 -18 -34q-13 -12 -30 -12q-16 0 -27 12q-8 9 -9 21q0 4 1 8z" />
<glyph unicode="j" horiz-adv-x="339" d="M27 -350q59 57 101 140t56 187l107 762h-168l4 29h197l-109 -782q-16 -117 -60 -206t-106 -149zM305 1024q2 16 16.5 28.5t30.5 12.5t27 -12q9 -10 8 -24q0 -18 -17 -34q-13 -12 -30 -12q-16 0 -28 12q-8 9 -8 21q0 4 1 8z" />
<glyph unicode="k" horiz-adv-x="997" d="M72 0l2 29h147l209 1478h-149l4 29h178l-166 -1176l459 379h-156l4 29h357l-5 -29h-161l-79 -67l-72 -62l-73 -61l-79 -68l133 -227l133 -225h170l-2 -29h-357l2 29h150l-130 215l-128 217l-172 -144l-41 -288h180l-2 -29h-356z" />
<glyph unicode="l" horiz-adv-x="499" d="M72 0l2 29h147l209 1478h-149l4 29h178l-213 -1507h180l-2 -29h-356z" />
<glyph unicode="m" horiz-adv-x="1638" d="M72 0l2 29h162l100 710h-154l4 29h170l-10 -109q-4 -27 -6 -46t-6 -46q55 96 153.5 155.5t214.5 59.5q100 0 154.5 -56t52.5 -148q55 92 152.5 148t210.5 56q109 0 163 -63q44 -52 44 -130q0 -18 -2 -36l-74 -524h166l-2 -29h-357l2 29h162l76 538q1 12 1 23 q0 59 -36 105q-43 54 -133 59q-68 0 -132.5 -21.5t-116.5 -60.5t-89 -92.5t-49 -116.5l-61 -434h165l-2 -29h-356l2 29h162l76 538q1 12 1 23q0 59 -36 105q-43 54 -133 59q-70 0 -135.5 -22.5t-118.5 -62.5t-89 -96.5t-46 -121.5l-60 -422h166l-2 -29h-356z" />
<glyph unicode="n" horiz-adv-x="1069" d="M72 0l2 29h162l100 710h-154l4 29h170l-10 -109q-4 -27 -6 -46t-6 -46q55 96 153.5 155.5t214.5 59.5q109 0 163 -63q44 -52 45 -130q0 -18 -3 -36l-73 -524h165l-2 -29h-356l2 29h162l76 538q1 12 1 23q0 59 -36 105q-43 54 -133 59q-70 0 -135.5 -22.5t-118.5 -62.5 t-89 -96.5t-46 -121.5l-60 -422h166l-2 -29h-356z" />
<glyph unicode="o" horiz-adv-x="944" d="M129 385q12 82 53 155.5t102.5 128t137.5 86t160 31.5q82 0 151.5 -31.5t116.5 -86t69 -127.5q14 -47 13 -97q0 -29 -4 -59q-12 -84 -53 -155.5t-103.5 -126t-140.5 -85t-160 -30.5q-84 0 -151.5 30.5t-113.5 85t-68 125.5q-14 46 -13 97q0 28 4 59zM158 385 q-4 -28 -4 -54q0 -47 12 -90q18 -67 61 -117t105.5 -79t140.5 -29q76 0 148.5 29t130 79t96.5 116.5t49 144.5q4 26 4 51q0 48 -13 92q-19 68 -62.5 119t-108 80t-139.5 29q-78 0 -149 -29t-128 -80t-95 -118.5t-48 -143.5z" />
<glyph unicode="p" d="M-4 -512l2 29h133l172 1222h-149l4 29h170q-8 -59 -13.5 -120.5t-15.5 -121.5q31 55 74 102.5t97 81t114.5 52t124.5 18.5q82 0 150.5 -30.5t114.5 -85t67 -126.5q14 -46 14 -97q0 -29 -4 -58q-12 -84 -54.5 -156.5t-104 -126t-138 -85t-158.5 -31.5q-129 0 -218 70.5 t-118 181.5l-12 -111l-86 -608h190l-2 -29h-354zM283 383q-4 -27 -4 -52q0 -48 13 -92q19 -67 62 -118t105.5 -80t140.5 -29q76 0 147.5 29t129 80t96.5 117.5t49 144.5q4 26 3 51q0 48 -12 92q-19 68 -62.5 118t-107 79t-138.5 29q-78 0 -149 -29t-128 -79t-96 -117.5 t-49 -143.5z" />
<glyph unicode="q" d="M197 383q12 82 53 154.5t102.5 127t137 85t159.5 30.5q129 0 219 -70.5t119 -183.5q8 59 19.5 121t19.5 121h170l-4 -29h-150l-172 -1222h146l-2 -29h-357l2 29h181l86 608l18 111q-59 -111 -167.5 -181.5t-237.5 -70.5q-84 0 -152 31.5t-114 85t-67 125.5q-14 46 -14 97 q1 29 5 60zM225 383q-4 -28 -3 -54q0 -47 11 -90q18 -67 61.5 -118t106 -80t140.5 -29q76 0 148.5 29t130 80t96 117.5t49.5 144.5q4 26 3 51q0 48 -13 92q-19 68 -62 118t-107.5 79t-140.5 29q-78 0 -148.5 -29t-128 -79t-95.5 -117.5t-48 -143.5z" />
<glyph unicode="r" horiz-adv-x="667" d="M72 0l2 29h162l100 710h-154l4 29h170l-10 -109q-4 -27 -6 -46t-6 -46q57 98 155.5 154.5t215.5 60.5l-5 -28q-68 -2 -131 -25.5t-114.5 -63.5t-87 -95.5t-43.5 -118.5l-60 -422h166l-2 -29h-356z" />
<glyph unicode="s" horiz-adv-x="645" d="M121 53l18 133h29l-16 -120q41 -35 96 -44.5t106 -9.5q31 0 68 12.5t70.5 36t58 58.5t31.5 82q2 16 2 30q0 42 -19 68q-25 35 -67.5 54.5t-94 33.5t-94.5 33.5t-68 54.5q-19 26 -20 69q0 14 2 29q6 49 29.5 86t56.5 64t72 40t78 13h23q24 0 55.5 -6t64.5 -18.5t51 -36.5 l-18 -133h-29l17 120q-16 18 -44 27.5t-54.5 14t-48.5 4.5h-25q-27 0 -58 -8.5t-59.5 -28t-51 -51t-28.5 -76.5q-3 -17 -3 -32q0 -37 18 -59q26 -32 69 -51.5t95 -33t95 -36t69 -60.5q18 -27 18 -69q0 -17 -3 -36q-6 -39 -25.5 -79t-53 -71.5t-80.5 -52t-109 -20.5 q-10 0 -37.5 2t-61.5 8t-67.5 20t-56.5 39z" />
<glyph unicode="t" horiz-adv-x="614" d="M174 739l4 29h182l70 500h29l-70 -500h260l-4 -29h-260l-100 -710h178l-2 -29h-207l102 739h-182z" />
<glyph unicode="u" horiz-adv-x="1060" d="M176 739l4 29h191l-80 -567q-1 -9 -1 -18q0 -62 38 -110q43 -54 131 -59q70 0 135 22.5t118.5 62.5t89.5 96.5t46 121.5l59 422h-162l5 29h190l-104 -739h157l-4 -29h-170l10 109l9 92q-55 -98 -153.5 -156.5t-213.5 -58.5q-109 0 -163 63q-46 53 -45 135q0 15 1 31 l74 524h-162z" />
<glyph unicode="v" horiz-adv-x="1208" d="M180 739l4 29h330l-4 -29h-152l130 -361l130 -362l226 353l235 370h-118l4 29h284l-4 -29h-135l-252 -393l-248 -393l-142 393l-140 393h-148z" />
<glyph unicode="w" horiz-adv-x="1761" d="M180 739l4 29h330l-4 -29h-152l130 -362l130 -361l168 265l168 264q-18 47 -35 96l-34 98h-152l4 29h330l-4 -29h-148l131 -362l130 -361l230 362l230 361h-123l5 29h284l-4 -29h-131l-252 -393l-248 -393l-200 561l-357 -561l-142 393l-140 393h-148z" />
<glyph unicode="x" horiz-adv-x="999" d="M72 0l2 29h147l153 176l152 178l-106 177l-107 179h-139l4 29h357l-5 -29h-180l197 -333l287 333h-160l4 29h356l-4 -29h-162l-307 -358l104 -176l103 -176h162l-2 -29h-357l2 29h162l-97 167l-97 162l-142 -165l-141 -164h172l-2 -29h-356z" />
<glyph unicode="y" horiz-adv-x="1208" d="M188 -512l2 29h166l153 238l153 237l-136 373l-133 374h-147l4 29h330l-5 -29h-145l127 -356l129 -354l223 350l230 360h-113l4 29h285l-4 -29h-135l-392 -611l-389 -611h152l-2 -29h-357z" />
<glyph unicode="z" horiz-adv-x="878" d="M72 0l2 29l383 355l381 355h-639l14 101h29l-11 -72h648l-5 -29l-380 -355l-383 -355h669l17 104h28l-18 -133h-735z" />
<glyph unicode="{" horiz-adv-x="557" d="M186 588l9 49q49 2 84.5 29.5t59 68.5t37 89t19.5 89l51 373q12 92 35 142.5t50.5 72t60.5 24.5t65 3h76l-4 -29h-117q-63 0 -93 -53t-46 -176l-43 -307q-14 -96 -33.5 -158t-43 -99.5t-51.5 -58t-56 -35.5q25 -16 46 -36.5t34.5 -59.5t15.5 -99.5t-10 -154.5l-43 -307 q-16 -123 -3 -176t76 -53h117l-4 -29h-76q-41 0 -72.5 4t-50 32.5t-21.5 93t13 185.5l41 299q6 41 6 89.5t-12 89t-40 68.5t-77 30z" />
<glyph unicode="|" horiz-adv-x="448" d="M203 -475l266 1909h29l-267 -1909h-28z" />
<glyph unicode="}" horiz-adv-x="655" d="M180 -303l4 29h117q63 0 93 53t46 176l54 383q10 70 30.5 117t45 78.5t51 50t47.5 28.5q-25 14 -46.5 35t-35 58.5t-16.5 99t12 158.5l43 307q16 123 2.5 176t-76.5 53h-117l4 29h76q33 0 64.5 -3t53 -24.5t29 -71t-5.5 -143.5l-41 -299l-9 -58.5t-6 -72.5t2 -77 t17.5 -68.5t40 -51t68.5 -22.5l-8 -49q-66 -4 -105 -46t-60.5 -98.5t-30.5 -114t-15 -91.5l-41 -299q-12 -94 -34.5 -144.5t-50.5 -72t-60.5 -23.5t-65.5 -2h-76z" />
<glyph unicode="~" horiz-adv-x="1001" d="M274 971q14 76 71.5 106.5t115.5 30.5q41 0 71.5 -21.5t59.5 -56.5q27 -37 49.5 -49t50.5 -12q16 0 39 5t45.5 17.5t41 34t26.5 55.5q6 -2 13 -2t13 -2q-16 -76 -72.5 -106.5t-113.5 -30.5q-41 0 -71.5 21.5t-59.5 56.5q-29 37 -51.5 49t-50.5 12q-16 0 -39 -5 t-44.5 -17.5t-41 -34t-27.5 -55.5q-6 2 -13.5 2t-11.5 2z" />
<glyph unicode="&#xa1;" horiz-adv-x="409" d="M199 -430l168 1196h28l-168 -1196h-28zM373 991q2 16 16 28.5t29 12.5q16 0 26.5 -12t8.5 -29q-4 -18 -17.5 -29.5t-29.5 -11.5q-14 0 -25.5 11.5t-7.5 29.5z" />
<glyph unicode="&#xa2;" horiz-adv-x="788" d="M145 385q12 80 50 149.5t95.5 123t129.5 86t149 38.5l17 115h28l-16 -113q72 0 134.5 -23.5t107.5 -64.5l-2 -2h2l-27 -178h-29l25 164q-43 35 -97.5 55.5t-117.5 20.5l-105 -740q66 0 129.5 21.5t116.5 58.5l17 -20q-59 -41 -127 -64.5t-140 -23.5l-16 -127h-29l17 129 q-78 6 -139.5 38.5t-103.5 85t-60.5 122t-8.5 149.5zM174 385q-10 -74 7.5 -138.5t55 -113.5t95 -79.5t129.5 -37.5l104 738q-72 -6 -138.5 -37t-118.5 -80t-88 -113.5t-46 -138.5z" />
<glyph unicode="&#xa3;" horiz-adv-x="1175" d="M53 0l2 29h90q37 0 60.5 15t39 50t28 94.5t24.5 147.5l41 301h-133l4 29h133l51 358q20 143 118.5 208.5t246.5 65.5q68 0 117 -13t83.5 -36.5t56 -57.5t36.5 -75l-23 -12q-18 49 -40.5 81t-54.5 50t-75 26.5t-104 8.5q-86 0 -146.5 -19.5t-99.5 -52.5t-59.5 -76 t-26.5 -90l-51 -366h264l-4 -29h-264l-58 -414q-10 -59 -25.5 -112.5t-50.5 -81.5h736l32 223h29l-35 -252h-942z" />
<glyph unicode="&#xa4;" horiz-adv-x="1024" d="M225 469l97 84q-59 76 -48 186q8 51 32 96.5t61 82.5q-16 20 -34 38.5t-34 38.5l23 21l67 -78q41 35 91 54.5t104 19.5q53 0 98 -20.5t76 -55.5l88 78l18 -21l-88 -78q25 -35 36 -79.5t3 -96.5q-6 -53 -32.5 -100t-63.5 -84l72 -84l-23 -20q-18 23 -36.5 42t-37.5 42 q-84 -68 -186 -68q-104 0 -170 65l-94 -83zM303 739q-6 -51 6.5 -95t41 -76.5t70.5 -52t91 -19.5t96 19.5t84 52t62.5 76.5t31.5 95q8 51 -5 95.5t-40.5 77t-69.5 52t-91 19.5t-96.5 -19.5t-84.5 -52t-62.5 -77t-33.5 -95.5z" />
<glyph unicode="&#xa5;" horiz-adv-x="1470" d="M268 1405l4 29h357l-4 -29h-195l187 -394q95 -196 178 -401l18 -53h2l29 53l586 795h-191l4 29h356l-4 -29h-131l-308 -419l-310 -419h307l-4 -28h-326l-41 -306h326l-4 -28h-326l-26 -176h166l-3 -29h-356l2 29h162l27 176h-328l4 28h328l41 306h-328l4 28h309l-385 838 h-127z" />
<glyph unicode="&#xa6;" horiz-adv-x="440" d="M209 -477l100 717h29l-100 -717h-29zM375 717l102 717h29l-103 -717h-28z" />
<glyph unicode="&#xa7;" horiz-adv-x="1024" d="M401 710q0 46 16.5 89t49.5 79.5t76 61.5q59 31 121.5 28t109.5 -34q-27 55 -50 112l-48 113q-41 100 -40 151.5t26 84.5t74 57l87 43q2 -8 11 -25l-55.5 -29.5l-55.5 -29.5q-59 -31 -60 -88t46 -164l67 -154l68 -155q18 -41 18 -86t-17.5 -88t-50 -79t-75.5 -60 q-59 -33 -121.5 -31t-110.5 35l51 -113l50 -113q41 -100 39 -151t-25 -84q-12 -16 -31.5 -31.5t-42 -28t-45.5 -22.5l-41 -18l-12 24l55.5 29.5l55.5 29.5q59 31 60 88.5t-46 163.5l-135 308q-19 41 -19 87zM432 731q-4 -51 14 -94q23 -55 74 -80t111 -20q43 4 80 25.5 t64.5 52t43 69.5t15.5 76q0 45 -17.5 79.5t-45.5 58.5t-63.5 34t-74.5 8q-59 -6 -103.5 -38t-69 -76t-28.5 -95z" />
<glyph unicode="&#xa8;" horiz-adv-x="757" d="M172 1024q4 16 17.5 28.5t29.5 12.5t27.5 -12.5t7.5 -28.5q-2 -16 -15.5 -28.5t-29.5 -12.5t-27.5 12.5t-9.5 28.5zM510 1024q4 16 17.5 28.5t29.5 12.5t27.5 -12.5t7.5 -28.5q-2 -16 -15.5 -28.5t-29.5 -12.5t-27.5 12.5t-9.5 28.5z" />
<glyph unicode="&#xa9;" horiz-adv-x="1624" d="M369 762q16 113 69.5 209t133 165.5t181 108.5t212.5 39t200.5 -39t150 -108.5t87.5 -166t10 -208.5q-16 -113 -69.5 -208t-133.5 -165t-180 -108.5t-211 -38.5t-201 38.5t-150 108.5t-87.5 165t-11.5 208zM397 760q-14 -104 12.5 -193.5t84 -156t141.5 -103.5t184 -37 q102 0 197.5 37t172.5 103.5t129 155.5t66 194q14 106 -11 197.5t-83.5 158t-143.5 103t-188 36.5q-100 0 -194 -36.5t-171 -103t-129.5 -158t-66.5 -197.5zM573 768q10 70 45 130t85.5 105.5t115 71t131.5 25.5q92 0 164 -45l-14 -105h-15l15 97q-66 41 -152 40 q-66 0 -127 -25.5t-110 -69.5t-82 -102.5t-41 -123.5q-10 -66 7 -123t53 -100t89.5 -67.5t118.5 -24.5q45 0 88 11t82 32l8 -11q-41 -23 -85 -35t-91 -12q-68 0 -125 26.5t-95 72t-56.5 105.5t-8.5 128z" />
<glyph unicode="&#xaa;" horiz-adv-x="1198" d="M210.614 904.683q8.65723 59.1426 38.2334 112.154t73.9404 91.5986q44.3643 38.5879 99.1895 61.3066q54.8242 22.7197 115.42 22.7197q45.4463 0 84.7617 -12.9824q39.3145 -12.9824 71.0547 -37.5049q31.7412 -24.5234 53.7422 -57.7002 q22.002 -33.1777 32.1016 -73.5684q5.77148 42.5537 14.0664 85.1084q8.2959 42.5537 15.5098 85.1074h15.1494l-75.7441 -533.006h108.206l-2.88574 -20.916h-128.404l11.541 80.0586q2.88574 23.8018 7.21387 46.5215q4.3291 22.7188 7.93555 46.5205 q-42.5615 -80.0586 -121.912 -130.907q-79.3516 -50.8486 -172.409 -50.8486q-60.5947 0 -109.288 21.998q-48.6924 21.999 -81.876 61.3066q-33.1826 39.3086 -49.0527 90.5176q-10.0996 33.1777 -9.37793 69.9609q0 20.1953 2.88477 42.5547zM231.534 904.683 q-2.88574 -20.1953 -2.88574 -38.9482q0 -33.8984 8.65723 -64.9121q12.9844 -48.3242 44.0039 -84.3867q31.0186 -36.0625 76.1045 -56.9795q45.0859 -20.916 101.354 -20.916q54.8242 0 107.124 20.916q52.2998 20.917 93.7783 56.9795q41.4795 36.0625 69.6133 84.0254 q28.1328 47.9639 35.3467 104.222q2.88574 18.752 2.88574 36.7832q0 34.6201 -9.37793 66.3555q-13.7061 49.0449 -45.0859 85.8291t-77.9082 57.7002t-101.354 20.916q-56.2666 0 -107.124 -20.916q-50.8564 -20.916 -91.9746 -57.7002 q-41.1191 -36.7842 -68.5312 -85.4688t-34.626 -103.499z" />
<glyph unicode="&#xab;" horiz-adv-x="1230" d="M285 489l198 165l199 165l-4 -35l-167 -147l-167 -148l125 -149l125 -150l-4 -32zM635 489l199 165l198 165l-4 -35l-167 -147l-167 -148l125 -149l125 -150l-4 -32z" />
<glyph unicode="&#xac;" horiz-adv-x="1144" d="M227 465l4 29h738l-27 -191h-29l23 162h-709z" />
<glyph unicode="&#xad;" horiz-adv-x="614" d="M106 377l3 29h376l-2 -29h-377z" />
<glyph unicode="&#xae;" horiz-adv-x="1640" d="M369 762q16 113 69.5 209t133 165.5t181 108.5t212.5 39t200.5 -39t150 -108.5t87.5 -166t10 -208.5q-16 -113 -69.5 -208t-133.5 -165t-180 -108.5t-211 -38.5t-201 38.5t-150 108.5t-87.5 165t-11.5 208zM397 760q-14 -104 12.5 -193.5t84 -156t141.5 -103.5t184 -37 q102 0 197.5 37t172.5 103.5t129 155.5t66 194q14 106 -11 197.5t-83.5 158t-143.5 103t-188 36.5q-100 0 -194 -36.5t-171 -103t-129.5 -158t-66.5 -197.5zM637 430v14h68l92 650h-68l2 14h203q29 0 61.5 -9t58 -30.5t41 -54.5t9.5 -78q-10 -68 -54 -112t-118 -58l106 -322 h80v-14h-88l-112 334q-10 -2 -22.5 -3t-23.5 -1h-108l-45 -316h86v-14h-168zM766 774h111q55 0 95 15.5t64.5 39t36.5 52t17 55.5q10 63 -38 110.5t-128 47.5h-113z" />
<glyph unicode="&#xaf;" horiz-adv-x="817" d="M174 1008l2 28h471l-2 -28h-471z" />
<glyph unicode="&#xb0;" horiz-adv-x="577" d="M145 1145q10 68 61.5 113t119.5 45q66 0 104.5 -45.5t28.5 -112.5q-10 -66 -60.5 -110t-115.5 -44q-68 0 -108 44t-30 110zM174 1147q-8 -53 24.5 -90t86.5 -37q53 0 95 37t50 90t-23.5 90t-84.5 37t-96.5 -37t-51.5 -90z" />
<glyph unicode="&#xb1;" horiz-adv-x="1073" d="M176 279l2 28h737l-2 -28h-737zM246 788l4 29h354l51 352h29l-51 -352h354l-4 -29h-354l-49 -356h-29l49 356h-354z" />
<glyph unicode="&#xb2;" horiz-adv-x="815" d="M161.945 768l144.168 123.968q69.8545 61.2432 125.837 119.276t92.3965 112.114q36.4131 54.082 43.3496 101.989q7.92676 56.7988 -2.47754 94.0879q-10.4033 37.2891 -31.707 59.5146q-21.3027 22.2256 -48.7988 31.3623t-52.7627 9.13672 q-50.5332 0 -85.2129 -17.7803t-56.9736 -44.4502q-22.2939 -26.6709 -33.9365 -57.5391q-11.6416 -30.8691 -15.6055 -57.0449q-9.9082 -70.627 24.2754 -115.572l-9.9082 -7.90234q-17.3398 24.2012 -25.5137 53.0938q-8.1748 28.8936 -3.2207 70.3809 q5.94531 40.499 22.7891 75.3193q16.8447 34.8193 43.3496 60.502t62.4238 40.499q35.918 14.8174 79.5146 14.8174q39.6338 0 70.1025 -14.8174q30.4688 -14.8164 50.2852 -40.9932q19.8174 -26.1768 27.248 -62.2305q7.43164 -36.0547 1.48633 -78.5303 q-7.92676 -58.7734 -46.0742 -116.806q-38.1475 -58.0332 -92.8916 -114.584q-54.7441 -56.5518 -118.653 -112.855l-124.847 -110.633h351.255l15.8535 114.09h14.3672l-18.3311 -128.413h-401.787z" />
<glyph unicode="&#xb3;" horiz-adv-x="858" d="M158.686 836.6l10.8447 12.8027q20.21 -29.0527 52.9883 -47.2734q32.7793 -18.2197 75.1709 -18.2197q39.4336 0 77.3887 15.2656q37.9541 15.2646 68.2686 41.3643q30.3154 26.0986 50.5244 61.0615q20.21 34.9619 26.125 72.8799q5.91504 39.3945 -5.17578 74.3574 q-11.0908 34.9619 -33.7646 60.5684q-22.6748 25.6064 -56.4395 40.626q-33.7646 15.0186 -73.1982 15.0186q-16.2666 0 -32.7793 -5.9082q-16.5137 -5.91016 -31.7939 -17.2354l253.361 277.731h-275.542l-10.3516 -68.9404h-13.8018l11.8301 82.7285h321.876 l-237.094 -254.095q46.334 1.96973 85.2754 -12.5576q38.9404 -14.5264 65.8047 -41.8564q26.8633 -27.3301 39.4336 -65.9854q12.5693 -38.6562 6.6543 -84.4521q-5.91504 -42.3496 -27.8506 -79.5283q-21.9346 -37.1787 -53.7275 -65.001 q-31.7939 -27.8223 -71.7207 -43.8262q-39.9258 -16.0039 -82.3174 -16.0039q-45.3486 0 -81.085 18.2197t-58.9043 48.2588z" />
<glyph unicode="&#xb4;" horiz-adv-x="446" d="M205 981l110 136l111 136h33l-111 -136l-110 -136h-33z" />
<glyph unicode="&#xb5;" horiz-adv-x="1067" d="M238 739l4 29h190l-78 -567q-8 -74 35 -128.5t133 -58.5q70 0 135.5 22.5t118.5 62.5t89 96.5t46 121.5l58 422h-162l4 29h190l-102 -739h158l-4 -29h-170l8 109l10 92q-55 -98 -154.5 -156.5t-214.5 -58.5q-74 0 -123 30.5t-69 83.5l-72 -512h-28l159 1151h-161z" />
<glyph unicode="&#xb6;" horiz-adv-x="1001" d="M246 1200q10 70 45 131.5t86 106.5t115.5 71.5t134.5 26.5h583l-4 -29h-221l-209 -1478h221l-2 -29h-250l211 1507h-305l-211 -1507h-28l120 866q-70 0 -127 26t-96 71t-56 106t-7 131z" />
<glyph unicode="&#xb7;" horiz-adv-x="333" d="M135 573q2 16 15.5 28.5t29.5 12.5t27.5 -12.5t9.5 -28.5q-4 -16 -17.5 -28.5t-29.5 -12.5t-27.5 12.5t-7.5 28.5z" />
<glyph unicode="&#xb8;" horiz-adv-x="925" d="M272 -338l15.5 4l15.5 4q6 -43 38 -70.5t83 -27.5q63 0 109.5 42t56.5 105q8 57 -14.5 88t-51 52.5t-52 44t-17.5 63.5l4 33h28l-2 -12q-4 -27 2.5 -45.5t16.5 -30.5t23 -21l26 -16q41 -31 56.5 -68.5t11.5 -66.5q-16 -104 -74 -150.5t-125 -46.5q-53 0 -96.5 30 t-53.5 89z" />
<glyph unicode="&#xb9;" horiz-adv-x="509" d="M130.674 821l1.83008 13.3408h75.0332l81.4375 586.067h-105.687l1.83008 12.8809h118.955l-83.2686 -598.948h74.5762l-1.83008 -13.3408h-162.877z" />
<glyph unicode="&#xba;" horiz-adv-x="960" d="M226.042 904.683q8.6543 59.1426 38.2256 112.154t73.9287 92.3203t99.1719 62.0273q54.8154 22.7197 115.4 22.7197q59.1436 0 109.271 -22.7197q50.127 -22.7188 84.0254 -62.0273q33.8994 -39.3086 49.7666 -91.96q10.0977 -33.8984 9.37598 -69.9609 q0 -20.917 -2.88477 -42.5537q-8.65527 -60.5859 -38.2266 -112.155t-74.6494 -90.8779q-45.0781 -39.3076 -101.336 -61.3066q-56.2578 -21.998 -115.4 -21.998q-60.585 0 -109.27 21.998q-48.6846 21.999 -81.8623 61.3066q-33.1777 39.3086 -49.0449 90.5176 q-10.0977 33.1777 -9.37695 69.9609q0 20.1953 2.88574 42.5547zM246.958 904.683q-2.88477 -20.1953 -2.88477 -38.9482q0 -33.8984 8.6543 -64.9121q12.9834 -48.3242 43.9971 -84.3867t76.0918 -56.9795q45.0781 -20.916 101.336 -20.916q54.8154 0 107.106 20.916 q52.29 20.917 93.7627 56.9795q41.4717 36.0625 69.6006 84.0254q28.1289 47.9639 35.3418 104.222q2.88477 18.752 2.88477 36.7832q0 34.6201 -9.37598 66.3555q-13.7041 49.0449 -45.0791 85.8291q-31.374 36.7842 -77.8945 57.7002q-46.5215 20.916 -100.615 20.916 q-56.2578 0 -107.467 -20.916t-92.3203 -57.7002t-68.5186 -85.4688q-27.4082 -48.6846 -34.6201 -103.499z" />
<glyph unicode="&#xbb;" horiz-adv-x="1230" d="M240 158l4 32l166 150l165 149l-123 148l-124 147l4 35l151 -165l152 -165zM590 158l4 32l166 150l166 149l-124 148l-124 147l4 35l152 -165l151 -165z" />
<glyph unicode="&#xbc;" horiz-adv-x="1982" d="M495 -38.9473l393 771.962l394 771.962h28l-393 -771.962l-393 -771.962h-29zM995.519 279.259l659.024 724.583l-99.5596 -703.731h147.853l-2.97168 -20.8516h-147.854l-36.4053 -257.663h126.307l-2.97266 -21.5957h-264.501l2.97168 21.5957h117.392l36.4062 257.663 h-535.689zM1043.81 300.11h490.367l89.9004 641.178zM263.474 479l2.83398 20.5674h116.224l126.145 903.558h-163.704l2.83398 19.8584h184.257l-128.979 -923.416h115.515l-2.83496 -20.5674h-252.289z" />
<glyph unicode="&#xbd;" horiz-adv-x="2189" d="M229.525 479l2.83984 20.582h116.424l126.362 904.179h-163.987l2.83984 19.8721h184.574l-129.202 -924.051h115.714l-2.83984 -20.582h-252.725zM1143.48 0l205.675 177.373q99.6572 87.626 179.524 170.659q79.8662 83.0332 131.815 160.413t61.8438 145.927 q11.3086 81.2666 -3.5332 134.619q-14.8428 53.3535 -45.2344 85.1533q-30.3926 31.7998 -69.6191 44.873t-75.2725 13.0732q-72.0928 0 -121.567 -25.4395q-49.4756 -25.4404 -81.2812 -63.5996q-31.8047 -38.1602 -48.4141 -82.3271q-16.6094 -44.166 -22.2637 -81.6191 q-14.1367 -101.054 34.6318 -165.36l-14.1357 -11.3066q-24.7373 34.627 -36.3994 75.9668t-4.59375 100.7q8.48145 57.9463 32.5117 107.766q24.0312 49.8203 61.8438 86.5664q37.8135 36.7471 89.0557 57.9473q51.2422 21.1992 113.439 21.1992q56.543 0 100.01 -21.1992 q43.4678 -21.2002 71.7393 -58.6533t38.873 -89.04q10.6025 -51.5859 2.12012 -112.359q-11.3086 -84.0938 -65.7305 -167.127q-54.4229 -83.0332 -132.522 -163.946q-78.1006 -80.9131 -169.276 -161.473l-178.109 -158.293h501.111l22.6172 163.239h20.4971 l-26.1514 -183.732h-573.204zM495 -38.9473l393 771.962l394 771.962h28l-393 -771.962l-393 -771.962h-29z" />
<glyph unicode="&#xbe;" horiz-adv-x="2613" d="M256.608 513.872l16.9512 20.0732q31.5908 -45.5508 82.8291 -74.1152q51.2393 -28.5654 117.503 -28.5654q61.6406 0 120.97 23.9326q59.3291 23.9336 106.715 64.8506q47.3867 40.918 78.9775 95.7324t40.8369 114.261q9.24609 61.7627 -8.08984 116.577 q-17.3369 54.8145 -52.7803 94.9609q-35.4434 40.1455 -88.2236 63.6924q-52.7793 23.5469 -114.42 23.5469q-25.4268 0 -51.2383 -9.26465q-25.8125 -9.26367 -49.6982 -27.0205l396.041 435.427h-430.714l-16.1807 -108.085h-21.5742l18.4922 129.702h503.142 l-370.614 -398.37q72.4277 3.08887 133.298 -19.6865q60.8701 -22.7744 102.863 -65.623q41.9922 -42.8477 61.6406 -103.452q19.6475 -60.6045 10.4014 -132.404q-9.24609 -66.3945 -43.5342 -124.683q-34.2871 -58.2891 -83.9844 -101.909 q-49.6982 -43.6191 -112.109 -68.7109q-62.4111 -25.0908 -128.675 -25.0908q-70.8867 0 -126.749 28.5654q-55.8613 28.5654 -92.0752 75.6592zM833 -39l393 773l394 773h28l-393 -773l-393 -773h-29zM1400.59 279.259l660.919 724.583l-99.8457 -703.731h148.278 l-2.98047 -20.8516h-148.278l-36.5107 -257.663h126.67l-2.98047 -21.5957h-265.262l2.98047 21.5957h117.729l36.5107 257.663h-537.229zM1449.02 300.11h491.777l90.1592 641.178z" />
<glyph unicode="&#xbf;" horiz-adv-x="839" d="M795.008 -122.925q-28.998 -58.9971 -72.9961 -108.993q-43.9971 -49.9971 -97.9941 -85.9951q-53.9961 -35.998 -117.492 -56.4971q-63.4961 -20.498 -129.492 -20.498q-83.9951 0 -153.49 31.498q-69.4961 31.498 -115.493 85.9941q-45.9971 54.4971 -67.4961 126.992 q-21.499 72.4961 -9.49902 154.491q15.999 110.993 81.9941 193.988q65.9961 82.9941 167.99 147.99q42.9971 28.999 79.9951 48.4971q36.998 19.499 66.4961 43.998q29.498 24.498 48.9971 63.4961q19.498 38.9971 29.498 105.993l22.998 159.99h28.999l-28.999 -198.988 q-7.99902 -62.9961 -37.9971 -100.993q-29.998 -37.998 -71.9961 -67.4961q-41.9971 -29.498 -93.9941 -59.4961t-106.993 -72.9961q-71.9961 -54.9961 -109.993 -121.492q-37.998 -66.4961 -47.9971 -142.491q-10 -79.9951 9.49902 -147.491t62.4961 -117.493 q42.998 -49.9971 107.494 -77.4951q64.4951 -27.498 141.491 -27.498q60.9961 0 119.992 17.999t109.993 50.9971t91.9951 78.9951q40.9971 45.9971 64.9961 100.993q5.99902 -2 13.499 -3q7.49902 -0.999023 13.499 -2.99902zM615.019 1012.01q-2 -17.999 -15.499 -29.498 q-13.499 -11.5 -27.498 -11.5q-15.999 0 -27.499 11q-11.499 10.999 -9.49902 29.998q4 15.999 17.499 28.498t29.498 12.499q13.999 0 25.499 -12.499q11.499 -12.499 7.49902 -28.498z" />
<glyph unicode="&#xc0;" horiz-adv-x="1695" d="M72 0l2 29h151l417 734l415 736l208 -736l208 -734h153l-2 -29h-356l2 29h172l-86 308l-88 310h-660l-174 -310l-176 -308h172l-2 -29h-356zM625 676h635l-201 706l-10 52l-15 -29q-6 -10 -12 -23q-94 -180 -196 -354zM893 1808h31l72 -136l73 -136h-33l-73 136z" />
<glyph unicode="&#xc1;" horiz-adv-x="1695" d="M1055 1536l110 136l111 136h33l-111 -136l-110 -136h-33zM72 0l2 29h151l417 734l415 736l208 -736l208 -734h153l-2 -29h-356l2 29h172l-86 308l-88 310h-660l-174 -310l-176 -308h172l-2 -29h-356zM625 676h635l-201 706l-10 52l-15 -29q-6 -10 -12 -23 q-94 -180 -196 -354z" />
<glyph unicode="&#xc2;" horiz-adv-x="1695" d="M811 1536l148 185l149 186l97 -186l97 -185h-32l-85 158l-85 157l-128 -157l-128 -158h-33zM72 0l2 29h151l417 734l415 736l208 -736l208 -734h153l-2 -29h-356l2 29h172l-86 308l-88 310h-660l-174 -310l-176 -308h172l-2 -29h-356zM625 676h635l-201 706l-10 52 l-15 -29q-6 -10 -12 -23q-94 -180 -196 -354z" />
<glyph unicode="&#xc3;" horiz-adv-x="1695" d="M768 1561q14 76 71.5 106.5t115.5 30.5q41 0 71.5 -21.5t59.5 -56.5q27 -37 49.5 -49t50.5 -12q16 0 39 5t45.5 17.5t41 34t26.5 55.5q6 -2 13 -2t13 -2q-16 -76 -72.5 -106.5t-113.5 -30.5q-41 0 -71.5 21.5t-59.5 56.5q-29 37 -51.5 49t-50.5 12q-16 0 -39 -5 t-44.5 -17.5t-41 -34t-27.5 -55.5q-6 2 -13.5 2t-11.5 2zM72 0l2 29h151l417 734l415 736l208 -736l208 -734h153l-2 -29h-356l2 29h172l-86 308l-88 310h-660l-174 -310l-176 -308h172l-2 -29h-356zM625 676h635l-201 706l-10 52l-15 -29q-6 -10 -12 -23 q-94 -180 -196 -354z" />
<glyph unicode="&#xc4;" horiz-adv-x="1695" d="M854 1618q4 16 17.5 28.5t29.5 12.5t27.5 -12.5t7.5 -28.5q-2 -16 -15.5 -28.5t-29.5 -12.5t-27.5 12.5t-9.5 28.5zM1192 1618q4 16 17.5 28.5t29.5 12.5t27.5 -12.5t7.5 -28.5q-2 -16 -15.5 -28.5t-29.5 -12.5t-27.5 12.5t-9.5 28.5zM72 0l2 29h151l417 734l415 736 l208 -736l208 -734h153l-2 -29h-356l2 29h172l-86 308l-88 310h-660l-174 -310l-176 -308h172l-2 -29h-356zM625 676h635l-201 706l-10 52l-15 -29q-6 -10 -12 -23q-94 -180 -196 -354z" />
<glyph unicode="&#xc5;" horiz-adv-x="1695" d="M72 0l2 29h151l417 734l415 736l208 -736l208 -734h153l-2 -29h-356l2 29h172l-86 308l-88 310h-660l-174 -310l-176 -308h172l-2 -29h-356zM625 676h635l-201 706l-10 52l-15 -29q-6 -10 -12 -23q-94 -180 -196 -354zM942 1708q8 55 50 92t98 37q55 0 86.5 -37t23.5 -92 t-49 -92t-96 -37t-88 37t-25 92zM971 1708q-4 -41 20.5 -70.5t65.5 -29.5t75.5 29.5t38.5 70.5q6 41 -19.5 70.5t-66.5 29.5t-74.5 -29.5t-39.5 -70.5z" />
<glyph unicode="&#xc6;" horiz-adv-x="1587" d="M72 0l2 29h157l398 701l395 704h664l-46 -316h-28l41 287h-606l-95 -668h555l-4 -28h-555l-96 -680h635l41 286h29l-43 -315h-693l90 647h-301l-174 -310l-176 -308h168l-2 -29h-356zM629 676h289l96 688l-190 -345z" />
<glyph unicode="&#xc7;" horiz-adv-x="1249" d="M236 715q20 152 97 286t189.5 233t254 157.5t292.5 58.5q104 0 194.5 -26.5t166.5 -75.5l-50 -357h-28l47 338q-145 92 -334 92q-145 0 -280.5 -56t-245 -152.5t-182 -225.5t-93.5 -274q-20 -145 16.5 -272.5t117.5 -222.5t201 -150.5t263 -55.5q98 0 192.5 25.5 t180.5 73.5l16 -25q-90 -47 -186 -74.5t-201 -27.5q-4 -18 0 -27q4 -35 26 -51l42 -31q41 -31 56.5 -68.5t10.5 -66.5q-16 -104 -73.5 -150.5t-124.5 -46.5q-53 0 -96 30t-54 89l31 8q6 -43 38 -70.5t83 -27.5q63 0 109 42t57 105q8 57 -14.5 88t-51.5 52.5t-52.5 44 t-16.5 63.5l2 19q-145 6 -265 64.5t-202 156.5t-117.5 229.5t-15.5 278.5z" />
<glyph unicode="&#xc8;" horiz-adv-x="1169" d="M72 0l2 29h168l194 1376h-168l4 29h998l-45 -316h-29l41 287h-772l-94 -668h721l-5 -28h-720l-97 -680h801l41 286h29l-43 -315h-1026zM639 1808h31l72 -136l73 -136h-33l-73 136z" />
<glyph unicode="&#xc9;" horiz-adv-x="1169" d="M72 0l2 29h168l194 1376h-168l4 29h998l-45 -316h-29l41 287h-772l-94 -668h721l-5 -28h-720l-97 -680h801l41 286h29l-43 -315h-1026zM819 1536l110 136l111 136h33l-111 -136l-110 -136h-33z" />
<glyph unicode="&#xca;" horiz-adv-x="1169" d="M72 0l2 29h168l194 1376h-168l4 29h998l-45 -316h-29l41 287h-772l-94 -668h721l-5 -28h-720l-97 -680h801l41 286h29l-43 -315h-1026zM570 1536l148 185l149 186l97 -186l97 -185h-32l-85 158l-85 157l-128 -157l-128 -158h-33z" />
<glyph unicode="&#xcb;" horiz-adv-x="1169" d="M72 0l2 29h168l194 1376h-168l4 29h998l-45 -316h-29l41 287h-772l-94 -668h721l-5 -28h-720l-97 -680h801l41 286h29l-43 -315h-1026zM604 1618q4 16 17.5 28.5t29.5 12.5t27.5 -12.5t7.5 -28.5q-2 -16 -15.5 -28.5t-29.5 -12.5t-27.5 12.5t-9.5 28.5zM942 1618 q4 16 17.5 28.5t29.5 12.5t27.5 -12.5t7.5 -28.5q-2 -16 -15.5 -28.5t-29.5 -12.5t-27.5 12.5t-9.5 28.5z" />
<glyph unicode="&#xcc;" horiz-adv-x="499" d="M72 0l2 29h157l195 1376h-158l4 29h357l-4 -29h-170l-195 -1376h170l-2 -29h-356zM275 1808h31l72 -136l73 -136h-33l-73 136z" />
<glyph unicode="&#xcd;" horiz-adv-x="499" d="M72 0l2 29h157l195 1376h-158l4 29h357l-4 -29h-170l-195 -1376h170l-2 -29h-356zM451 1536l110 136l111 136h33l-111 -136l-110 -136h-33z" />
<glyph unicode="&#xce;" horiz-adv-x="499" d="M72 0l2 29h157l195 1376h-158l4 29h357l-4 -29h-170l-195 -1376h170l-2 -29h-356zM219 1536l148 185l149 186l97 -186l97 -185h-32l-85 158l-85 157l-128 -157l-128 -158h-33z" />
<glyph unicode="&#xcf;" horiz-adv-x="493" d="M72 0l2 29h157l195 1376h-158l4 29h357l-4 -29h-170l-195 -1376h170l-2 -29h-356zM272 1618q4 16 17.5 28.5t29.5 12.5t27.5 -12.5t7.5 -28.5q-2 -16 -15.5 -28.5t-29.5 -12.5t-27.5 12.5t-9.5 28.5zM610 1618q4 16 17.5 28.5t29.5 12.5t27.5 -12.5t7.5 -28.5 q-2 -16 -15.5 -28.5t-29.5 -12.5t-27.5 12.5t-9.5 28.5z" />
<glyph unicode="&#xd0;" horiz-adv-x="1294" d="M72 0l2 29h149l96 680h-131l5 28h131l94 668h-150l4 29h430q147 0 271.5 -50.5t209.5 -143.5t124 -226t16 -297q-18 -121 -77.5 -248t-168 -231.5t-268.5 -171t-377 -66.5h-360zM254 31h201q203 0 353 63.5t253.5 163.5t161 221t73.5 238q23 158 -14 285.5t-118 217 t-198.5 137.5t-254.5 48h-265l-94 -668h459l-4 -28h-459z" />
<glyph unicode="&#xd1;" horiz-adv-x="1642" d="M80 0l4 29h158l192 1376h-158l5 29h211l944 -1377l30 -53l4 66l187 1335h-160l4 29h357l-5 -29h-167l-205 -1471l-989 1438l-31 41l-4 -53l-187 -1331h170l-4 -29h-356zM768 1571q14 76 71.5 106.5t115.5 30.5q41 0 71.5 -21.5t59.5 -56.5q27 -37 49.5 -49t50.5 -12 q16 0 39 5t45.5 17.5t41 34t26.5 55.5q6 -2 13 -2t13 -2q-16 -76 -72.5 -106.5t-113.5 -30.5q-41 0 -71.5 21.5t-59.5 56.5q-29 37 -51.5 49t-50.5 12q-16 0 -39 -5t-44.5 -17.5t-41 -34t-27.5 -55.5q-6 2 -13.5 2t-11.5 2z" />
<glyph unicode="&#xd2;" horiz-adv-x="1609" d="M174 715q20 152 97 286t189.5 233t254 157.5t293.5 58.5t277.5 -58.5t211.5 -157.5t125 -234q25 -88 26 -183q0 -50 -8 -102q-23 -152 -98.5 -285t-189 -232.5t-256 -156.5t-293.5 -57q-152 0 -277 57t-211 156.5t-125 232.5q-25 84 -24 176q0 53 8 109zM203 713 q-7 -52 -8 -102q0 -89 24 -171q37 -127 118 -222t199.5 -150.5t262.5 -55.5q145 0 283.5 55.5t249 150.5t185 223t95.5 274q7 51 7 100q0 90 -25 173q-38 128 -120.5 224.5t-203.5 152.5t-266 56t-280.5 -56t-245 -152.5t-182.5 -225.5t-93 -274zM883 1808h31l72 -136 l73 -136h-33l-73 136z" />
<glyph unicode="&#xd3;" horiz-adv-x="1609" d="M174 715q20 152 97 286t189.5 233t254 157.5t293.5 58.5t277.5 -58.5t211.5 -157.5t125 -234q25 -88 26 -183q0 -50 -8 -102q-23 -152 -98.5 -285t-189 -232.5t-256 -156.5t-293.5 -57q-152 0 -277 57t-211 156.5t-125 232.5q-25 84 -24 176q0 53 8 109zM203 713 q-7 -52 -8 -102q0 -89 24 -171q37 -127 118 -222t199.5 -150.5t262.5 -55.5q145 0 283.5 55.5t249 150.5t185 223t95.5 274q7 51 7 100q0 90 -25 173q-38 128 -120.5 224.5t-203.5 152.5t-266 56t-280.5 -56t-245 -152.5t-182.5 -225.5t-93 -274zM1022 1536l110 136l111 136 h33l-111 -136l-110 -136h-33z" />
<glyph unicode="&#xd4;" horiz-adv-x="1609" d="M174 715q20 152 97 286t189.5 233t254 157.5t293.5 58.5t277.5 -58.5t211.5 -157.5t125 -234q25 -88 26 -183q0 -50 -8 -102q-23 -152 -98.5 -285t-189 -232.5t-256 -156.5t-293.5 -57q-152 0 -277 57t-211 156.5t-125 232.5q-25 84 -24 176q0 53 8 109zM203 713 q-7 -52 -8 -102q0 -89 24 -171q37 -127 118 -222t199.5 -150.5t262.5 -55.5q145 0 283.5 55.5t249 150.5t185 223t95.5 274q7 51 7 100q0 90 -25 173q-38 128 -120.5 224.5t-203.5 152.5t-266 56t-280.5 -56t-245 -152.5t-182.5 -225.5t-93 -274zM776 1536l148 185l149 186 l97 -186l97 -185h-32l-85 158l-85 157l-128 -157l-128 -158h-33z" />
<glyph unicode="&#xd5;" horiz-adv-x="1609" d="M174 715q20 152 97 286t189.5 233t254 157.5t293.5 58.5t277.5 -58.5t211.5 -157.5t125 -234q25 -88 26 -183q0 -50 -8 -102q-23 -152 -98.5 -285t-189 -232.5t-256 -156.5t-293.5 -57q-152 0 -277 57t-211 156.5t-125 232.5q-25 84 -24 176q0 53 8 109zM203 713 q-7 -52 -8 -102q0 -89 24 -171q37 -127 118 -222t199.5 -150.5t262.5 -55.5q145 0 283.5 55.5t249 150.5t185 223t95.5 274q7 51 7 100q0 90 -25 173q-38 128 -120.5 224.5t-203.5 152.5t-266 56t-280.5 -56t-245 -152.5t-182.5 -225.5t-93 -274zM729 1641q14 76 71.5 106.5 t115.5 30.5q41 0 71.5 -21.5t59.5 -56.5q27 -37 49.5 -49t50.5 -12q16 0 39 5t45.5 17.5t41 34t26.5 55.5q6 -2 13 -2t13 -2q-16 -76 -72.5 -106.5t-113.5 -30.5q-41 0 -71.5 21.5t-59.5 56.5q-29 37 -51.5 49t-50.5 12q-16 0 -39 -5t-44.5 -17.5t-41 -34t-27.5 -55.5 q-6 2 -13.5 2t-11.5 2z" />
<glyph unicode="&#xd6;" horiz-adv-x="1609" d="M174 715q20 152 97 286t189.5 233t254 157.5t293.5 58.5t277.5 -58.5t211.5 -157.5t125 -234q25 -88 26 -183q0 -50 -8 -102q-23 -152 -98.5 -285t-189 -232.5t-256 -156.5t-293.5 -57q-152 0 -277 57t-211 156.5t-125 232.5q-25 84 -24 176q0 53 8 109zM203 713 q-7 -52 -8 -102q0 -89 24 -171q37 -127 118 -222t199.5 -150.5t262.5 -55.5q145 0 283.5 55.5t249 150.5t185 223t95.5 274q7 51 7 100q0 90 -25 173q-38 128 -120.5 224.5t-203.5 152.5t-266 56t-280.5 -56t-245 -152.5t-182.5 -225.5t-93 -274zM813 1618q4 16 17.5 28.5 t29.5 12.5t27.5 -12.5t7.5 -28.5q-2 -16 -15.5 -28.5t-29.5 -12.5t-27.5 12.5t-9.5 28.5zM1151 1618q4 16 17.5 28.5t29.5 12.5t27.5 -12.5t7.5 -28.5q-2 -16 -15.5 -28.5t-29.5 -12.5t-27.5 12.5t-9.5 28.5z" />
<glyph unicode="&#xd7;" horiz-adv-x="1024" d="M268 20l143 126l142 126l-213 248l25 21l213 -248l143 125l143 125q4 -4 8.5 -10.5t8.5 -10.5l-144 -125l-143 -125l108 -126l109 -126l-23 -20l-109 126l-108 126l-142 -126l-142 -126l-9.5 10z" />
<glyph unicode="&#xd8;" horiz-adv-x="1609" d="M168 0l85 87l85 87q-98 100 -142 239.5t-22 301.5q20 152 97 286t189.5 233t254 157.5t293.5 58.5q127 0 234.5 -41t193.5 -113l147 154l16 -16l-74 -76l-73 -76q109 -102 160 -248.5t28 -318.5q-23 -152 -98.5 -285t-189 -232.5t-256 -156.5t-293.5 -57q-135 0 -250 46 t-201 128l-84 -87l-84 -87l-8 8zM203 713q-23 -156 19 -289t134 -229l528 539l527 540q-80 70 -183.5 108.5t-223.5 38.5q-145 0 -280.5 -56t-245 -152.5t-182.5 -225.5t-93 -274zM373 178q82 -78 189.5 -122t236.5 -44q145 0 283.5 55.5t249 150.5t185 223t95.5 274 q23 164 -28.5 305t-156.5 240l-527 -541z" />
<glyph unicode="&#xd9;" horiz-adv-x="1380" d="M270 1405l4 29h357l-4 -29h-170l-131 -936q-7 -49 -8 -93q0 -55 12 -103q20 -85 69.5 -143t124 -88t168.5 -30q92 0 176 30t150.5 88t111 143t60.5 196l131 936h-170l4 29h356l-4 -29h-157l-133 -942q-16 -117 -63.5 -207t-118 -150.5t-159 -91t-186.5 -30.5t-179 30.5 t-134 91t-76 150.5q-13 52 -13 113q0 44 7 94l133 942h-158zM756 1808h31l72 -136l73 -136h-33l-73 136z" />
<glyph unicode="&#xda;" horiz-adv-x="1380" d="M270 1405l4 29h357l-4 -29h-170l-131 -936q-7 -49 -8 -93q0 -55 12 -103q20 -85 69.5 -143t124 -88t168.5 -30q92 0 176 30t150.5 88t111 143t60.5 196l131 936h-170l4 29h356l-4 -29h-157l-133 -942q-16 -117 -63.5 -207t-118 -150.5t-159 -91t-186.5 -30.5t-179 30.5 t-134 91t-76 150.5q-13 52 -13 113q0 44 7 94l133 942h-158zM895 1536l110 136l111 136h33l-111 -136l-110 -136h-33z" />
<glyph unicode="&#xdb;" horiz-adv-x="1380" d="M270 1405l4 29h357l-4 -29h-170l-131 -936q-7 -49 -8 -93q0 -55 12 -103q20 -85 69.5 -143t124 -88t168.5 -30q92 0 176 30t150.5 88t111 143t60.5 196l131 936h-170l4 29h356l-4 -29h-157l-133 -942q-16 -117 -63.5 -207t-118 -150.5t-159 -91t-186.5 -30.5t-179 30.5 t-134 91t-76 150.5q-13 52 -13 113q0 44 7 94l133 942h-158zM662 1536l148 185l149 186l97 -186l97 -185h-32l-85 158l-85 157l-128 -157l-128 -158h-33z" />
<glyph unicode="&#xdc;" horiz-adv-x="1380" d="M270 1405l4 29h357l-4 -29h-170l-131 -936q-7 -49 -8 -93q0 -55 12 -103q20 -85 69.5 -143t124 -88t168.5 -30q92 0 176 30t150.5 88t111 143t60.5 196l131 936h-170l4 29h356l-4 -29h-157l-133 -942q-16 -117 -63.5 -207t-118 -150.5t-159 -91t-186.5 -30.5t-179 30.5 t-134 91t-76 150.5q-13 52 -13 113q0 44 7 94l133 942h-158zM704 1620q4 16 17.5 28.5t29.5 12.5t27.5 -12.5t7.5 -28.5q-2 -16 -15.5 -28.5t-29.5 -12.5t-27.5 12.5t-9.5 28.5zM1042 1620q4 16 17.5 28.5t29.5 12.5t27.5 -12.5t7.5 -28.5q-2 -16 -15.5 -28.5t-29.5 -12.5 t-27.5 12.5t-9.5 28.5z" />
<glyph unicode="&#xdd;" horiz-adv-x="1470" d="M268 1405l4 29h357l-4 -29h-195l184 -397l181 -398l18 -53h2l29 53l586 795h-191l4 29h356l-4 -29h-131l-320 -435l-321 -433l-71 -508h166l-3 -29h-356l2 29h162l72 508l-200 434l-200 434h-127zM971 1536l110 136l111 136h33l-111 -136l-110 -136h-33z" />
<glyph unicode="&#xde;" horiz-adv-x="985" d="M72 0l2 29h145l195 1376h-146l4 29h357l-4 -29h-183l-43 -309h258q59 0 128 -20.5t124.5 -63.5t88 -113t18.5 -168q-25 -170 -153 -270.5t-339 -100.5h-229l-47 -331h182l-2 -29h-356zM299 389h236q119 0 201.5 33t136 83t80 110.5t34.5 115.5q8 68 -13.5 128.5 t-69.5 106.5t-116.5 73.5t-154.5 27.5h-238z" />
<glyph unicode="&#xdf;" horiz-adv-x="1110" d="M74 0l4 29h170l102 729h-133l4 28h133l11 86q16 113 59 201t102.5 147.5t133 91t151.5 36.5q59 -2 108.5 -26t83 -63.5t48 -93t6.5 -112.5q-12 -90 -74.5 -159t-151.5 -97q66 -16 119.5 -53t89 -89.5t51 -117t5.5 -138.5q-12 -86 -56.5 -161.5t-109 -132t-145 -89 t-167.5 -32.5q-119 0 -208 61l14 23q82 -57 192 -58q82 0 158 32t137.5 85t103.5 124t52 148q10 78 -10.5 146.5t-66.5 121t-112.5 83t-146.5 30.5q0 4 1 7.5t1 7.5l2 16q53 0 102.5 17.5t89.5 49t66.5 74.5t32.5 95q8 53 -4 102t-42 87t-74 60.5t-99 22.5q-70 0 -137.5 -31 t-124 -88t-96 -138t-54.5 -181l-123 -881h-198z" />
<glyph unicode="&#xe0;" d="M127 385q12 82 53 155.5t102.5 127t137.5 85t160 31.5q63 0 117.5 -18t98.5 -52t74.5 -80t44.5 -102q8 59 19.5 118t21.5 118h21l-105 -739h150l-4 -29h-178l16 111q4 33 10 64.5t11 64.5q-59 -111 -169 -181.5t-239 -70.5q-84 0 -151.5 30.5t-113.5 85t-68 125.5 q-14 46 -13 97q0 28 4 59zM156 385q-4 -28 -4 -54q0 -47 12 -90q18 -67 61 -117t105.5 -79t140.5 -29q76 0 148.5 29t130 79t96.5 116.5t49 144.5q4 26 4 51q0 48 -13 92q-19 68 -62.5 119t-108 80t-140.5 29q-78 0 -148.5 -29t-127.5 -80t-95 -118.5t-48 -143.5zM441 1253 h31l72 -136l73 -136h-33l-73 136z" />
<glyph unicode="&#xe1;" d="M127 385q12 82 53 155.5t102.5 127t137.5 85t160 31.5q63 0 117.5 -18t98.5 -52t74.5 -80t44.5 -102q8 59 19.5 118t21.5 118h21l-105 -739h150l-4 -29h-178l16 111q4 33 10 64.5t11 64.5q-59 -111 -169 -181.5t-239 -70.5q-84 0 -151.5 30.5t-113.5 85t-68 125.5 q-14 46 -13 97q0 28 4 59zM156 385q-4 -28 -4 -54q0 -47 12 -90q18 -67 61 -117t105.5 -79t140.5 -29q76 0 148.5 29t130 79t96.5 116.5t49 144.5q4 26 4 51q0 48 -13 92q-19 68 -62.5 119t-108 80t-140.5 29q-78 0 -148.5 -29t-127.5 -80t-95 -118.5t-48 -143.5zM666 981 l110 136l111 136h33l-111 -136l-110 -136h-33z" />
<glyph unicode="&#xe2;" d="M127 385q12 82 53 155.5t102.5 127t137.5 85t160 31.5q63 0 117.5 -18t98.5 -52t74.5 -80t44.5 -102q8 59 19.5 118t21.5 118h21l-105 -739h150l-4 -29h-178l16 111q4 33 10 64.5t11 64.5q-59 -111 -169 -181.5t-239 -70.5q-84 0 -151.5 30.5t-113.5 85t-68 125.5 q-14 46 -13 97q0 28 4 59zM156 385q-4 -28 -4 -54q0 -47 12 -90q18 -67 61 -117t105.5 -79t140.5 -29q76 0 148.5 29t130 79t96.5 116.5t49 144.5q4 26 4 51q0 48 -13 92q-19 68 -62.5 119t-108 80t-140.5 29q-78 0 -148.5 -29t-127.5 -80t-95 -118.5t-48 -143.5zM420 981 l148 185l149 186l97 -186l97 -185h-32l-85 158l-85 157l-128 -157l-128 -158h-33z" />
<glyph unicode="&#xe3;" d="M127 385q12 82 53 155.5t102.5 127t137.5 85t160 31.5q63 0 117.5 -18t98.5 -52t74.5 -80t44.5 -102q8 59 19.5 118t21.5 118h21l-105 -739h150l-4 -29h-178l16 111q4 33 10 64.5t11 64.5q-59 -111 -169 -181.5t-239 -70.5q-84 0 -151.5 30.5t-113.5 85t-68 125.5 q-14 46 -13 97q0 28 4 59zM156 385q-4 -28 -4 -54q0 -47 12 -90q18 -67 61 -117t105.5 -79t140.5 -29q76 0 148.5 29t130 79t96.5 116.5t49 144.5q4 26 4 51q0 48 -13 92q-19 68 -62.5 119t-108 80t-140.5 29q-78 0 -148.5 -29t-127.5 -80t-95 -118.5t-48 -143.5zM317 971 q14 76 71.5 106.5t115.5 30.5q41 0 71.5 -21.5t59.5 -56.5q27 -37 49.5 -49t50.5 -12q16 0 39 5t45.5 17.5t41 34t26.5 55.5q6 -2 13 -2t13 -2q-16 -76 -72.5 -106.5t-113.5 -30.5q-41 0 -71.5 21.5t-59.5 56.5q-29 37 -51.5 49t-50.5 12q-16 0 -39 -5t-44.5 -17.5t-41 -34 t-27.5 -55.5q-6 2 -13.5 2t-11.5 2z" />
<glyph unicode="&#xe4;" d="M127 385q12 82 53 155.5t102.5 127t137.5 85t160 31.5q63 0 117.5 -18t98.5 -52t74.5 -80t44.5 -102q8 59 19.5 118t21.5 118h21l-105 -739h150l-4 -29h-178l16 111q4 33 10 64.5t11 64.5q-59 -111 -169 -181.5t-239 -70.5q-84 0 -151.5 30.5t-113.5 85t-68 125.5 q-14 46 -13 97q0 28 4 59zM156 385q-4 -28 -4 -54q0 -47 12 -90q18 -67 61 -117t105.5 -79t140.5 -29q76 0 148.5 29t130 79t96.5 116.5t49 144.5q4 26 4 51q0 48 -13 92q-19 68 -62.5 119t-108 80t-140.5 29q-78 0 -148.5 -29t-127.5 -80t-95 -118.5t-48 -143.5zM434 1024 q4 16 17.5 28.5t29.5 12.5t27.5 -12.5t7.5 -28.5q-2 -16 -15.5 -28.5t-29.5 -12.5t-27.5 12.5t-9.5 28.5zM772 1024q4 16 17.5 28.5t29.5 12.5t27.5 -12.5t7.5 -28.5q-2 -16 -15.5 -28.5t-29.5 -12.5t-27.5 12.5t-9.5 28.5z" />
<glyph unicode="&#xe5;" d="M127 385q12 82 53 155.5t102.5 127t137.5 85t160 31.5q63 0 117.5 -18t98.5 -52t74.5 -80t44.5 -102q8 59 19.5 118t21.5 118h21l-105 -739h150l-4 -29h-178l16 111q4 33 10 64.5t11 64.5q-59 -111 -169 -181.5t-239 -70.5q-84 0 -151.5 30.5t-113.5 85t-67.5 126 t-9.5 155.5zM156 385q-10 -78 8 -144.5t61 -116.5t105.5 -79t140.5 -29q76 0 148.5 29t130 79t96.5 116.5t49 144.5q10 76 -9.5 143.5t-62.5 118.5t-107.5 80t-140.5 29q-78 0 -148.5 -29t-127.5 -80t-95 -118.5t-48 -143.5zM504 1106q8 55 49 92t96 37t88 -37t25 -92 q-10 -55 -51 -92t-97 -37q-55 0 -87.5 37t-22.5 92zM532 1106q-6 -41 20 -70.5t66 -29.5q41 0 75 29.5t40 70.5q4 41 -21.5 70.5t-66.5 29.5t-75 -29.5t-38 -70.5z" />
<glyph unicode="&#xe6;" horiz-adv-x="1187" d="M100 197q8 55 40 92t78 60.5t103.5 32.5t116.5 9h299l15 107q8 63 5 111t-30 80t-82 47.5t-149 15.5q-29 0 -63 -6.5t-65.5 -16.5t-59 -23.5t-46.5 -25.5l-24 25q20 16 52 29.5t67.5 23.5t73.5 16t71 6q147 0 211 -35q82 35 168 35q119 0 202.5 -70.5t108.5 -183.5 l-216 -83l-214 -83l-14 -98q-10 -80 -36 -132t-79 -89q63 -29 141 -29q74 0 142.5 27t125.5 74l7.5 -11.5l7.5 -11.5q-59 -49 -133 -77.5t-154 -28.5q-94 0 -168 36q-82 -41 -209 -40q-72 0 -130 10t-97 34.5t-56.5 67t-9.5 105.5zM131 199q-8 -59 15.5 -97.5t63.5 -58.5 t91 -27.5t98 -7.5q51 0 103.5 9.5t95.5 33t73.5 63.5t41.5 101l20 147h-192q-33 0 -97.5 1.5t-131 -12t-120 -48t-61.5 -104.5zM739 725q37 -33 45.5 -89t-4.5 -142l-14 -103l196 75l195 75q-29 94 -103.5 152.5t-176.5 58.5q-37 0 -71 -7.5t-67 -19.5z" />
<glyph unicode="&#xe7;" horiz-adv-x="792" d="M102 385q12 82 53.5 155.5t102.5 127t137 85t160 31.5q72 0 133.5 -23.5t106.5 -64.5l-25 -180h-29l23 164q-43 35 -96.5 55.5t-116.5 20.5q-78 0 -148.5 -29t-128 -80t-95.5 -118.5t-48 -143.5q-10 -78 8.5 -144.5t61.5 -116.5t105.5 -79t139.5 -29q66 0 128.5 21.5 t115.5 58.5l17 -20q-2 -2 -21.5 -11.5t-46.5 -20.5l-58 -26q-32 -14 -57.5 -23t-43 -14.5t-17.5 -0.5q-4 -45 21.5 -67t47.5 -38q41 -31 55.5 -68.5t10.5 -66.5q-14 -104 -72.5 -150.5t-126.5 -46.5q-37 0 -67 13q-31 14 -52.5 39.5t-29.5 66.5l33 8q6 -45 38.5 -71.5 t81.5 -26.5q63 0 108.5 42t55.5 105q8 57 -14.5 88t-51 52.5t-52 44t-17.5 63.5l2 21q-80 2 -146.5 32.5t-111.5 85t-65.5 126t-8.5 153.5z" />
<glyph unicode="&#xe8;" horiz-adv-x="890" d="M127 385q12 82 53 155.5t102.5 127t137.5 85t160 31.5q119 0 202.5 -70.5t108.5 -183.5l-366 -140l-365 -140q27 -104 109.5 -169t201.5 -65q74 0 143.5 27t124.5 74q4 -6 8.5 -11.5t8.5 -11.5q-61 -49 -134 -77.5t-153 -28.5q-84 0 -151.5 30.5t-113.5 85t-68 125.5 q-14 46 -13 97q0 28 4 59zM154 276l352 135l350 134q-29 94 -103.5 152.5t-177.5 58.5q-92 0 -174 -42t-141 -109.5t-89 -153.5q-21 -61 -21 -123q0 -26 4 -52zM348 1253h31l72 -136l73 -136h-33l-73 136z" />
<glyph unicode="&#xe9;" horiz-adv-x="890" d="M127 385q12 82 53 155.5t102.5 127t137.5 85t160 31.5q119 0 202.5 -70.5t108.5 -183.5l-366 -140l-365 -140q27 -104 109.5 -169t201.5 -65q74 0 143.5 27t124.5 74q4 -6 8.5 -11.5t8.5 -11.5q-61 -49 -134 -77.5t-153 -28.5q-84 0 -151.5 30.5t-113.5 85t-68 125.5 q-14 46 -13 97q0 28 4 59zM154 276l352 135l350 134q-29 94 -103.5 152.5t-177.5 58.5q-92 0 -174 -42t-141 -109.5t-89 -153.5q-21 -61 -21 -123q0 -26 4 -52zM588 981l110 136l111 136h33l-111 -136l-110 -136h-33z" />
<glyph unicode="&#xea;" horiz-adv-x="890" d="M127 385q12 82 53 155.5t102.5 127t137.5 85t160 31.5q119 0 202.5 -70.5t108.5 -183.5l-366 -140l-365 -140q27 -104 109.5 -169t201.5 -65q74 0 143.5 27t124.5 74q4 -6 8.5 -11.5t8.5 -11.5q-61 -49 -134 -77.5t-153 -28.5q-84 0 -151.5 30.5t-113.5 85t-68 125.5 q-14 46 -13 97q0 28 4 59zM154 276l352 135l350 134q-29 94 -103.5 152.5t-177.5 58.5q-92 0 -174 -42t-141 -109.5t-89 -153.5q-21 -61 -21 -123q0 -26 4 -52zM373 981l148 185l149 186l97 -186l97 -185h-32l-85 158l-85 157l-128 -157l-128 -158h-33z" />
<glyph unicode="&#xeb;" horiz-adv-x="890" d="M127 385q12 82 53 155.5t102.5 127t137.5 85t160 31.5q119 0 202.5 -70.5t108.5 -183.5l-366 -140l-365 -140q27 -104 109.5 -169t201.5 -65q74 0 143.5 27t124.5 74q4 -6 8.5 -11.5t8.5 -11.5q-61 -49 -134 -77.5t-153 -28.5q-84 0 -151.5 30.5t-113.5 85t-68 125.5 q-14 46 -13 97q0 28 4 59zM154 276l352 135l350 134q-29 94 -103.5 152.5t-177.5 58.5q-92 0 -174 -42t-141 -109.5t-89 -153.5q-21 -61 -21 -123q0 -26 4 -52zM274 1024q4 16 17.5 28.5t29.5 12.5t27.5 -12.5t7.5 -28.5q-2 -16 -15.5 -28.5t-29.5 -12.5t-27.5 12.5 t-9.5 28.5zM612 1024q4 16 17.5 28.5t29.5 12.5t27.5 -12.5t7.5 -28.5q-2 -16 -15.5 -28.5t-29.5 -12.5t-27.5 12.5t-9.5 28.5z" />
<glyph unicode="&#xec;" horiz-adv-x="499" d="M72 0l2 29h168l100 710h-168l4 29h197l-105 -739h160l-2 -29h-356zM215 1253h31l72 -136l73 -136h-33l-72 136z" />
<glyph unicode="&#xed;" horiz-adv-x="499" d="M72 0l2 29h168l100 710h-168l4 29h197l-105 -739h160l-2 -29h-356zM383 981l111 136l110 136h33l-111 -136l-110 -136h-33z" />
<glyph unicode="&#xee;" horiz-adv-x="499" d="M72 0l2 29h168l100 710h-168l4 29h197l-105 -739h160l-2 -29h-356zM117 981l148 185l149 186l97 -186l97 -185h-33l-85 158l-84 157l-128 -157l-128 -158h-33z" />
<glyph unicode="&#xef;" horiz-adv-x="499" d="M72 0l2 29h168l100 710h-168l4 29h197l-105 -739h160l-2 -29h-356zM164 1024q4 16 17.5 28.5t29.5 12.5t27.5 -12.5t7.5 -28.5q-2 -16 -15.5 -28.5t-29.5 -12.5t-27.5 12.5t-9.5 28.5zM502 1024q4 16 17 28.5t30 12.5q16 0 27.5 -12.5t7.5 -28.5q-2 -16 -15.5 -28.5 t-29.5 -12.5t-27.5 12.5t-9.5 28.5z" />
<glyph unicode="&#xf0;" horiz-adv-x="940" d="M127 385q12 82 53 155.5t102.5 127t137.5 85t160 31.5q104 0 185 -49t124 -131q-10 117 -71.5 292t-205.5 374l-87 -83l-89 -83q-4 6 -14 16l90 84l90 84l-80 93q-41 46 -88 87q6 6 15 19q90 -76 172 -182q41 41 82.5 78.5t82.5 78.5l8 -7l7 -7l-85 -80l-83 -80 q70 -98 130 -210.5t101 -229.5t57.5 -234.5t2.5 -228.5q-12 -84 -53.5 -155.5t-102.5 -126t-139 -85t-160 -30.5q-84 0 -151.5 30.5t-113.5 85t-67.5 126t-9.5 155.5zM156 385q-10 -78 8 -144.5t61 -116.5t105.5 -79t140.5 -29q76 0 148.5 29t130 79t96.5 116.5t49 144.5 q10 76 -9.5 143.5t-62.5 118.5t-107.5 80t-140.5 29q-78 0 -148.5 -29t-127.5 -80t-95 -118.5t-48 -143.5z" />
<glyph unicode="&#xf1;" horiz-adv-x="1069" d="M72 0l2 29h162l100 710h-154l4 29h170l-10 -109q-4 -27 -6 -46t-6 -46q55 96 153.5 155.5t214.5 59.5q109 0 163 -63q44 -52 45 -130q0 -18 -3 -36l-73 -524h165l-2 -29h-356l2 29h162l76 538q1 12 1 23q0 59 -36 105q-43 54 -133 59q-70 0 -135.5 -22.5t-118.5 -62.5 t-89 -96.5t-46 -121.5l-60 -422h166l-2 -29h-356zM378 948q14 76 71.5 106.5t115.5 30.5q41 0 71.5 -21.5t59.5 -56.5q27 -37 49.5 -49t50.5 -12q16 0 39 5t45.5 17.5t41 34t26.5 55.5q6 -2 13 -2t13 -2q-16 -76 -72.5 -106.5t-113.5 -30.5q-41 0 -71.5 21.5t-59.5 56.5 q-29 37 -51.5 49t-50.5 12q-16 0 -39 -5t-44.5 -17.5t-41 -34t-27.5 -55.5q-6 2 -13.5 2t-11.5 2z" />
<glyph unicode="&#xf2;" horiz-adv-x="944" d="M129 385q12 82 53 155.5t102.5 128t137.5 86t160 31.5q82 0 151.5 -31.5t116.5 -86t69 -127.5q14 -47 13 -97q0 -29 -4 -59q-12 -84 -53 -155.5t-103.5 -126t-140.5 -85t-160 -30.5q-84 0 -151.5 30.5t-113.5 85t-68 125.5q-14 46 -13 97q0 28 4 59zM158 385 q-4 -28 -4 -54q0 -47 12 -90q18 -67 61 -117t105.5 -79t140.5 -29q76 0 148.5 29t130 79t96.5 116.5t49 144.5q4 26 4 51q0 48 -13 92q-19 68 -62.5 119t-108 80t-139.5 29q-78 0 -149 -29t-128 -80t-95 -118.5t-48 -143.5zM438 1253h31l72 -136l73 -136h-33l-73 136z" />
<glyph unicode="&#xf3;" horiz-adv-x="944" d="M129 385q12 82 53 155.5t102.5 128t137.5 86t160 31.5q82 0 151.5 -31.5t116.5 -86t69 -127.5q14 -47 13 -97q0 -29 -4 -59q-12 -84 -53 -155.5t-103.5 -126t-140.5 -85t-160 -30.5q-84 0 -151.5 30.5t-113.5 85t-68 125.5q-14 46 -13 97q0 28 4 59zM158 385 q-4 -28 -4 -54q0 -47 12 -90q18 -67 61 -117t105.5 -79t140.5 -29q76 0 148.5 29t130 79t96.5 116.5t49 144.5q4 26 4 51q0 48 -13 92q-19 68 -62.5 119t-108 80t-139.5 29q-78 0 -149 -29t-128 -80t-95 -118.5t-48 -143.5zM615 981l110 136l111 136h33l-111 -136l-110 -136 h-33z" />
<glyph unicode="&#xf4;" horiz-adv-x="944" d="M129 385q12 82 53 155.5t102.5 128t137.5 86t160 31.5q82 0 151.5 -31.5t116.5 -86t69 -127.5q14 -47 13 -97q0 -29 -4 -59q-12 -84 -53 -155.5t-103.5 -126t-140.5 -85t-160 -30.5q-84 0 -151.5 30.5t-113.5 85t-68 125.5q-14 46 -13 97q0 28 4 59zM158 385 q-4 -28 -4 -54q0 -47 12 -90q18 -67 61 -117t105.5 -79t140.5 -29q76 0 148.5 29t130 79t96.5 116.5t49 144.5q4 26 4 51q0 48 -13 92q-19 68 -62.5 119t-108 80t-139.5 29q-78 0 -149 -29t-128 -80t-95 -118.5t-48 -143.5zM381 981l148 185l149 186l97 -186l97 -185h-32 l-85 158l-85 157l-128 -157l-128 -158h-33z" />
<glyph unicode="&#xf5;" horiz-adv-x="944" d="M129 385q12 82 53 155.5t102.5 128t137.5 86t160 31.5q82 0 151.5 -31.5t116.5 -86t69 -127.5q14 -47 13 -97q0 -29 -4 -59q-12 -84 -53 -155.5t-103.5 -126t-140.5 -85t-160 -30.5q-84 0 -151.5 30.5t-113.5 85t-68 125.5q-14 46 -13 97q0 28 4 59zM158 385 q-4 -28 -4 -54q0 -47 12 -90q18 -67 61 -117t105.5 -79t140.5 -29q76 0 148.5 29t130 79t96.5 116.5t49 144.5q4 26 4 51q0 48 -13 92q-19 68 -62.5 119t-108 80t-139.5 29q-78 0 -149 -29t-128 -80t-95 -118.5t-48 -143.5zM317 971q14 76 71.5 106.5t115.5 30.5 q41 0 71.5 -21.5t59.5 -56.5q27 -37 49.5 -49t50.5 -12q16 0 39 5t45.5 17.5t41 34t26.5 55.5q6 -2 13 -2t13 -2q-16 -76 -72.5 -106.5t-113.5 -30.5q-41 0 -71.5 21.5t-59.5 56.5q-29 37 -51.5 49t-50.5 12q-16 0 -39 -5t-44.5 -17.5t-41 -34t-27.5 -55.5q-6 2 -13.5 2 t-11.5 2z" />
<glyph unicode="&#xf6;" horiz-adv-x="944" d="M129 385q12 82 53 155.5t102.5 128t137.5 86t160 31.5q82 0 151.5 -31.5t116.5 -86t69 -127.5q14 -47 13 -97q0 -29 -4 -59q-12 -84 -53 -155.5t-103.5 -126t-140.5 -85t-160 -30.5q-84 0 -151.5 30.5t-113.5 85t-68 125.5q-14 46 -13 97q0 28 4 59zM158 385 q-4 -28 -4 -54q0 -47 12 -90q18 -67 61 -117t105.5 -79t140.5 -29q76 0 148.5 29t130 79t96.5 116.5t49 144.5q4 26 4 51q0 48 -13 92q-19 68 -62.5 119t-108 80t-139.5 29q-78 0 -149 -29t-128 -80t-95 -118.5t-48 -143.5zM401 1024q4 16 17.5 28.5t29.5 12.5t27.5 -12.5 t7.5 -28.5q-2 -16 -15.5 -28.5t-29.5 -12.5t-27.5 12.5t-9.5 28.5zM739 1024q4 16 17.5 28.5t29.5 12.5t27.5 -12.5t7.5 -28.5q-2 -16 -15.5 -28.5t-29.5 -12.5t-27.5 12.5t-9.5 28.5z" />
<glyph unicode="&#xf7;" horiz-adv-x="1026" d="M139 430l2 29h738l-2 -29h-738zM436 186q2 16 16.5 28.5t30.5 12.5t26.5 -12t8.5 -29q-4 -16 -17.5 -28.5t-29.5 -12.5t-27.5 12.5t-7.5 28.5zM508 698q4 16 17.5 28.5t29.5 12.5t27.5 -12t7.5 -29q-2 -16 -16.5 -28.5t-30.5 -12.5t-26.5 12.5t-8.5 28.5z" />
<glyph unicode="&#xf8;" horiz-adv-x="937" d="M115 0l46 48l46 48q-49 53 -70.5 128t-9.5 161q12 82 53 155.5t102.5 127t137.5 85t160 31.5q66 0 123 -20.5t102 -54.5l38 37q19 19 36 38l8 -8l8 -8q-16 -18 -36 -38l-38 -38q59 -53 87 -134t16 -173q-12 -84 -53.5 -155.5t-102.5 -126t-139 -85t-160 -30.5 q-74 0 -136.5 24.5t-109.5 67.5l-46 -48l-46 -48l-8 8zM156 385q-10 -78 9 -146.5t64 -119.5l277 283l276 284q-41 33 -94 51.5t-113 18.5q-78 0 -148.5 -29t-127.5 -80t-95 -118.5t-48 -143.5zM246 102q90 -86 227 -86q76 0 147.5 29t129 79t96.5 116.5t49 144.5 q12 86 -14.5 159.5t-79.5 125.5l-278 -284z" />
<glyph unicode="&#xf9;" horiz-adv-x="1060" d="M176 739l4 29h191l-80 -567q-1 -9 -1 -18q0 -62 38 -110q43 -54 131 -59q70 0 135 22.5t118.5 62.5t89.5 96.5t46 121.5l59 422h-162l5 29h190l-104 -739h157l-4 -29h-170l10 109l9 92q-55 -98 -153.5 -156.5t-213.5 -58.5q-109 0 -163 63q-46 53 -45 135q0 15 1 31 l74 524h-162zM447 1253h31l72 -136l73 -136h-33l-73 136z" />
<glyph unicode="&#xfa;" horiz-adv-x="1060" d="M176 739l4 29h191l-80 -567q-1 -9 -1 -18q0 -62 38 -110q43 -54 131 -59q70 0 135 22.5t118.5 62.5t89.5 96.5t46 121.5l59 422h-162l5 29h190l-104 -739h157l-4 -29h-170l10 109l9 92q-55 -98 -153.5 -156.5t-213.5 -58.5q-109 0 -163 63q-46 53 -45 135q0 15 1 31 l74 524h-162zM633 981l110 136l111 136h33l-111 -136l-110 -136h-33z" />
<glyph unicode="&#xfb;" horiz-adv-x="1060" d="M176 739l4 29h191l-80 -567q-1 -9 -1 -18q0 -62 38 -110q43 -54 131 -59q70 0 135 22.5t118.5 62.5t89.5 96.5t46 121.5l59 422h-162l5 29h190l-104 -739h157l-4 -29h-170l10 109l9 92q-55 -98 -153.5 -156.5t-213.5 -58.5q-109 0 -163 63q-46 53 -45 135q0 15 1 31 l74 524h-162zM424 981l148 185l149 186l97 -186l97 -185h-32l-85 158l-85 157l-128 -157l-128 -158h-33z" />
<glyph unicode="&#xfc;" horiz-adv-x="1060" d="M176 739l4 29h191l-80 -567q-1 -9 -1 -18q0 -62 38 -110q43 -54 131 -59q70 0 135 22.5t118.5 62.5t89.5 96.5t46 121.5l59 422h-162l5 29h190l-104 -739h157l-4 -29h-170l10 109l9 92q-55 -98 -153.5 -156.5t-213.5 -58.5q-109 0 -163 63q-46 53 -45 135q0 15 1 31 l74 524h-162zM463 1024q4 16 17.5 28.5t29.5 12.5t27.5 -12.5t7.5 -28.5q-2 -16 -15.5 -28.5t-29.5 -12.5t-27.5 12.5t-9.5 28.5zM801 1024q4 16 17.5 28.5t29.5 12.5t27.5 -12.5t7.5 -28.5q-2 -16 -15.5 -28.5t-29.5 -12.5t-27.5 12.5t-9.5 28.5z" />
<glyph unicode="&#xfd;" horiz-adv-x="1208" d="M188 -512l2 29h166l153 238l153 237l-136 373l-133 374h-147l4 29h330l-5 -29h-145l127 -356l129 -354l223 350l230 360h-113l4 29h285l-4 -29h-135l-392 -611l-389 -611h152l-2 -29h-357zM801 981l110 136l111 136h33l-111 -136l-110 -136h-33z" />
<glyph unicode="&#xfe;" horiz-adv-x="1019" d="M-111 -512l5 29h155l281 1990h-158l4 29h356l-4 -29h-170l-120 -850q-4 -33 -10.5 -65.5t-10.5 -65.5q31 55 74 102.5t97 81t114.5 52t124.5 18.5q82 0 150.5 -30.5t114.5 -85t67.5 -127t9.5 -154.5q-12 -84 -54.5 -156.5t-103.5 -126t-138 -85t-159 -31.5 q-129 0 -218 70.5t-116 181.5q-4 -29 -7 -55.5t-7 -55.5l-86 -608h168l-4 -29h-355zM201 383q-10 -78 9 -144.5t62 -117.5t105.5 -80t140.5 -29q76 0 147.5 29t129 80t96.5 117.5t49 144.5q10 76 -9.5 143.5t-62.5 117.5t-106.5 79t-138.5 29q-78 0 -149 -29t-128 -79 t-96 -117.5t-49 -143.5z" />
<glyph unicode="&#xff;" horiz-adv-x="1208" d="M188 -512l2 29h166l153 238l153 237l-136 373l-133 374h-147l4 29h330l-5 -29h-145l127 -356l129 -354l223 350l230 360h-113l4 29h285l-4 -29h-135l-392 -611l-389 -611h152l-2 -29h-357zM621 1024q4 16 17.5 28.5t29.5 12.5t27.5 -12.5t7.5 -28.5q-2 -16 -15.5 -28.5 t-29.5 -12.5t-27.5 12.5t-9.5 28.5zM959 1024q4 16 17.5 28.5t29.5 12.5t27.5 -12.5t7.5 -28.5q-2 -16 -15.5 -28.5t-29.5 -12.5t-27.5 12.5t-9.5 28.5z" />
<glyph unicode="&#x152;" horiz-adv-x="2779" d="M1682 0l2 29h168l194 1376h-168l4 29h998l-45 -316h-29l41 287h-772l-94 -668h721l-5 -28h-720l-97 -680h801l41 286h29l-43 -315h-1026zM174 715q20 152 97 286t189.5 233t254 157.5t293.5 58.5t277.5 -58.5t211.5 -157.5t125 -234q25 -88 26 -183q0 -50 -8 -102 q-23 -152 -98.5 -285t-189 -232.5t-256 -156.5t-293.5 -57q-152 0 -277 57t-211 156.5t-125 232.5q-25 84 -24 176q0 53 8 109zM203 713q-7 -52 -8 -102q0 -89 24 -171q37 -127 118 -222t199.5 -150.5t262.5 -55.5q145 0 283.5 55.5t249 150.5t185 223t95.5 274q7 51 7 100 q0 90 -25 173q-38 128 -120.5 224.5t-203.5 152.5t-266 56t-280.5 -56t-245 -152.5t-182.5 -225.5t-93 -274z" />
<glyph unicode="&#x153;" horiz-adv-x="1835" d="M1071 385q12 82 53 155.5t102.5 127t137.5 85t160 31.5q119 0 202.5 -70.5t108.5 -183.5l-366 -140l-365 -140q27 -104 109.5 -169t201.5 -65q74 0 143.5 27t124.5 74q4 -6 8.5 -11.5t8.5 -11.5q-61 -49 -134 -77.5t-153 -28.5q-84 0 -151.5 30.5t-113.5 85t-68 125.5 q-14 46 -13 97q0 28 4 59zM1098 276l352 135l350 134q-29 94 -103.5 152.5t-177.5 58.5q-92 0 -174 -42t-141 -109.5t-89 -153.5q-21 -61 -21 -123q0 -26 4 -52zM129 385q12 82 53 155.5t102.5 128t137.5 86t160 31.5q82 0 151.5 -31.5t116.5 -86t69 -127.5q14 -47 13 -97 q0 -29 -4 -59q-12 -84 -53 -155.5t-103.5 -126t-140.5 -85t-160 -30.5q-84 0 -151.5 30.5t-113.5 85t-68 125.5q-14 46 -13 97q0 28 4 59zM158 385q-4 -28 -4 -54q0 -47 12 -90q18 -67 61 -117t105.5 -79t140.5 -29q76 0 148.5 29t130 79t96.5 116.5t49 144.5q4 26 4 51 q0 48 -13 92q-19 68 -62.5 119t-108 80t-139.5 29q-78 0 -149 -29t-128 -80t-95 -118.5t-48 -143.5z" />
<glyph unicode="&#x178;" horiz-adv-x="1470" d="M752 1614q4 16 17.5 28.5t29.5 12.5t27.5 -12.5t7.5 -28.5q-2 -16 -15.5 -28.5t-29.5 -12.5t-27.5 12.5t-9.5 28.5zM1090 1614q4 16 17.5 28.5t29.5 12.5t27.5 -12.5t7.5 -28.5q-2 -16 -15.5 -28.5t-29.5 -12.5t-27.5 12.5t-9.5 28.5zM268 1405l4 29h357l-4 -29h-195 l184 -397l181 -398l18 -53h2l29 53l586 795h-191l4 29h356l-4 -29h-131l-320 -435l-321 -433l-71 -508h166l-3 -29h-356l2 29h162l72 508l-200 434l-200 434h-127z" />
<glyph unicode="&#x2c6;" horiz-adv-x="962" d="M203 981l148 185l149 186l97 -186l97 -185h-32l-85 158l-85 157l-128 -157l-128 -158h-33z" />
<glyph unicode="&#x2000;" horiz-adv-x="952" />
<glyph unicode="&#x2001;" horiz-adv-x="1906" />
<glyph unicode="&#x2002;" horiz-adv-x="952" />
<glyph unicode="&#x2003;" horiz-adv-x="1906" />
<glyph unicode="&#x2004;" horiz-adv-x="634" />
<glyph unicode="&#x2005;" horiz-adv-x="475" />
<glyph unicode="&#x2006;" horiz-adv-x="317" />
<glyph unicode="&#x2007;" horiz-adv-x="317" />
<glyph unicode="&#x2008;" horiz-adv-x="237" />
<glyph unicode="&#x2009;" horiz-adv-x="380" />
<glyph unicode="&#x200a;" horiz-adv-x="104" />
<glyph unicode="&#x2010;" horiz-adv-x="614" d="M106 377l3 29h376l-2 -29h-377z" />
<glyph unicode="&#x2011;" horiz-adv-x="614" d="M106 377l3 29h376l-2 -29h-377z" />
<glyph unicode="&#x2012;" horiz-adv-x="614" d="M106 377l3 29h376l-2 -29h-377z" />
<glyph unicode="&#x2013;" horiz-adv-x="1042" d="M205 367l2 28h616l-2 -28h-616z" />
<glyph unicode="&#x2014;" horiz-adv-x="1433" d="M203 367l2 28h1028l-2 -28h-1028z" />
<glyph unicode="&#x2018;" horiz-adv-x="335" d="M107.5 1299.5q-15.5 74.5 13.5 156.5l18 -7l19 -7q-23 -72 -12.5 -132.5t47.5 -101.5q-4 -10 -8.5 -18t-8.5 -19q-53 54 -68.5 128.5z" />
<glyph unicode="&#x2019;" horiz-adv-x="335" d="M125 1208q49 41 76.5 101.5t23.5 132.5q10 4 20.5 7t20.5 7q6 -82 -30.5 -156.5t-102.5 -128.5q-4 10 -5 18.5t-3 18.5z" />
<glyph unicode="&#x201a;" horiz-adv-x="299" d="M45 -59q49 41 77 101t23 132q10 4 20.5 7t20.5 7q6 -82 -30.5 -156.5t-102.5 -127.5q-4 10 -5 18.5t-3 18.5z" />
<glyph unicode="&#x201c;" horiz-adv-x="509" d="M89 1299.5q-15 74.5 13 156.5l19 -7l18 -7q-23 -72 -12.5 -132.5t47.5 -101.5q-4 -10 -8 -18t-8 -19q-54 54 -69 128.5zM302 1299.5q-15 74.5 13 156.5l19 -7l18 -7q-23 -72 -12.5 -132.5t47.5 -101.5q-4 -10 -8 -18t-8 -19q-54 54 -69 128.5z" />
<glyph unicode="&#x201d;" horiz-adv-x="507" d="M94 1208q49 41 77 101.5t24 132.5q10 4 20 7t21 7q6 -82 -31 -156.5t-103 -128.5q-4 10 -5 18.5t-3 18.5zM307 1208q49 41 77 101.5t24 132.5q10 4 20 7t21 7q6 -82 -31 -156.5t-103 -128.5q-4 10 -5 18.5t-3 18.5z" />
<glyph unicode="&#x201e;" horiz-adv-x="479" d="M45 -59q49 41 77 101t23 132q10 4 20.5 7t20.5 7q6 -82 -30.5 -156.5t-102.5 -127.5q-4 10 -5 18.5t-3 18.5zM258 -59q49 41 76.5 101t23.5 132q10 4 20.5 7t20.5 7q6 -82 -30.5 -156.5t-102.5 -127.5q-4 10 -5 18.5t-3 18.5z" />
<glyph unicode="&#x2022;" horiz-adv-x="980" d="M375 614q8 57 52 96.5t99 39.5q57 0 91 -39t26 -97q-8 -55 -52 -94t-102 -39q-55 0 -88.5 39t-25.5 94z" />
<glyph unicode="&#x2026;" horiz-adv-x="1001" d="M803 41q2 16 15.5 28.5t29.5 12.5t27.5 -12.5t9.5 -28.5q-4 -16 -17.5 -28.5t-29.5 -12.5t-27.5 12.5t-7.5 28.5zM469 41q2 16 15.5 28.5t29.5 12.5t27.5 -12.5t9.5 -28.5q-4 -16 -17.5 -28.5t-29.5 -12.5t-27.5 12.5t-7.5 28.5zM135 41q2 16 15.5 28.5t29.5 12.5 t27.5 -12.5t9.5 -28.5q-4 -16 -17.5 -28.5t-29.5 -12.5t-27.5 12.5t-7.5 28.5z" />
<glyph unicode="&#x202f;" horiz-adv-x="380" />
<glyph unicode="&#x2039;" horiz-adv-x="802" d="M285 489l198 165l199 165l-4 -35l-167 -147l-167 -148l125 -149l125 -150l-4 -32z" />
<glyph unicode="&#x203a;" horiz-adv-x="802" d="M240 158l4 32l166 150l165 149l-123 148l-124 147l4 35l151 -165l152 -165z" />
<glyph unicode="&#x205f;" horiz-adv-x="475" />
<glyph unicode="&#x2122;" horiz-adv-x="3244" d="M1348 0l2 29h157l195 1376h-158l4 29h205l215 -344l93 -149l96 -153l90 -145l80 -125l415 458l416 458h205l-4 -29h-158l-194 -1376h167l-2 -29h-356l2 29h160l182 1292l14 92q0 -2 -4 -6l-8 -8q-4 -4 -8 -10l-83 -92l-126 -139l-155 -171l-166 -184l-162 -179l-142 -157 l-298 477l-277 442l-16 27q-4 -23 -5.5 -46.5t-5.5 -45.5l-182 -1292h170l-2 -29h-356zM227 1118l45 316h1133l-45 -316h-29l41 287h-524l-195 -1376h166l-2 -29h-356l2 29h162l194 1376h-522l-41 -287h-29z" />
<glyph unicode="&#xe000;" horiz-adv-x="770" d="M0 770h770v-770h-770v770z" />
<glyph unicode="&#xfb01;" horiz-adv-x="1075" d="M647 0l2 29h168l100 710h-168l4 29h197l-105 -739h160l-2 -29h-356zM931 1024q2 16 16.5 28.5t30.5 12.5t27 -12q9 -10 9 -24q0 -18 -18 -34q-13 -12 -30 -12q-16 0 -27 12q-8 9 -9 21q0 4 1 8zM72 0l2 29h125l100 710h-125l4 29h125l41 293q16 113 58 201t102.5 147 t134.5 91t152 36l-5 -29q-70 0 -137 -30.5t-123.5 -88t-96.5 -138.5t-54 -181l-43 -301h266l-4 -29h-266l-101 -710h203l-2 -29h-356z" />
<glyph unicode="&#xfb02;" horiz-adv-x="1075" d="M647 0l2 29h147l209 1478h-149l4 29h178l-213 -1507h180l-2 -29h-356zM72 0l2 29h125l100 710h-125l4 29h125l41 293q16 113 58 201t102.5 147t134.5 91t152 36l-5 -29q-70 0 -137 -30.5t-123.5 -88t-96.5 -138.5t-54 -181l-43 -301h266l-4 -29h-266l-101 -710h203 l-2 -29h-356z" />
<glyph unicode="&#xfb03;" horiz-adv-x="1650" d="M1223 0l2 29h168l100 710h-168l4 29h197l-105 -739h160l-2 -29h-356zM1507 1024q2 16 16.5 28.5t30.5 12.5t27 -12q9 -10 9 -24q0 -18 -18 -34q-13 -12 -30 -12q-16 0 -27 12q-8 9 -9 21q0 4 1 8zM647 0l2 29h125l100 710h-125l4 29h125l41 293q16 113 58 201t102.5 147 t134.5 91t152 36l-5 -29q-70 0 -137 -30.5t-123.5 -88t-96.5 -138.5t-54 -181l-43 -301h266l-4 -29h-266l-101 -710h203l-2 -29h-356zM72 0l2 29h125l100 710h-125l4 29h125l41 293q16 113 58 201t102.5 147t134.5 91t152 36l-5 -29q-70 0 -137 -30.5t-123.5 -88 t-96.5 -138.5t-54 -181l-43 -301h266l-4 -29h-266l-101 -710h203l-2 -29h-356z" />
<glyph unicode="&#xfb04;" horiz-adv-x="1650" d="M1223 0l2 29h147l209 1478h-149l4 29h178l-213 -1507h180l-2 -29h-356zM647 0l2 29h125l100 710h-125l4 29h125l41 293q16 113 58 201t102.5 147t134.5 91t152 36l-5 -29q-70 0 -137 -30.5t-123.5 -88t-96.5 -138.5t-54 -181l-43 -301h266l-4 -29h-266l-101 -710h203 l-2 -29h-356zM72 0l2 29h125l100 710h-125l4 29h125l41 293q16 113 58 201t102.5 147t134.5 91t152 36l-5 -29q-70 0 -137 -30.5t-123.5 -88t-96.5 -138.5t-54 -181l-43 -301h266l-4 -29h-266l-101 -710h203l-2 -29h-356z" />
</font>
</defs>
</svg>
