<?xml version="1.0" encoding="UTF-8" standalone="no"?>
<!-- Created with Inkscape (http://www.inkscape.org/) -->
<svg id="svg19176" xmlns:rdf="http://www.w3.org/1999/02/22-rdf-syntax-ns#" xmlns="http://www.w3.org/2000/svg" height="550" width="550" version="1.0" xmlns:cc="http://creativecommons.org/ns#" xmlns:xlink="http://www.w3.org/1999/xlink" xmlns:dc="http://purl.org/dc/elements/1.1/">
 <defs id="defs19178">
  <filter id="filter5770" height="1.4459" width="1.4459" y="-.22297" x="-.22297">
   <feGaussianBlur id="feGaussianBlur5772" stdDeviation="20"/>
  </filter>
  <filter id="filter3244">
   <feGaussianBlur id="feGaussianBlur3246" stdDeviation="5"/>
  </filter>
  <linearGradient id="linearGradient2240" y2="546.5" gradientUnits="userSpaceOnUse" x2="311.86" y1="330.67" x1="100.89">
   <stop id="stop3253" stop-color="#00112b" offset="0"/>
   <stop id="stop3255" stop-color="rgba(0,0,0,0)" offset="1"/>
  </linearGradient>
  <filter id="filter3670">
   <feGaussianBlur id="feGaussianBlur3672" stdDeviation="5.4681466"/>
  </filter>
 </defs>
 <metadata id="metadata19181">
  <rdf:RDF>
   <cc:Work rdf:about="">
    <dc:format>image/svg+xml</dc:format>
    <dc:type rdf:resource="http://purl.org/dc/dcmitype/StillImage"/>
    <cc:license rdf:resource="http://creativecommons.org/licenses/publicdomain/"/>
    <dc:title>Red Planet</dc:title>
    <dc:date>2009-03-25</dc:date>
    <dc:creator>
     <cc:Agent>
      <dc:title>Thorsten Panknin</dc:title>
     </cc:Agent>
    </dc:creator>
    <dc:subject>
     <rdf:Bag>
      <rdf:li>planet</rdf:li>
      <rdf:li>red</rdf:li>
      <rdf:li>mars</rdf:li>
      <rdf:li>mysterious</rdf:li>
      <rdf:li>scifi</rdf:li>
      <rdf:li>science fiction</rdf:li>
     </rdf:Bag>
    </dc:subject>
    <dc:description>A mysterious red planet in space.</dc:description>
   </cc:Work>
   <cc:License rdf:about="http://creativecommons.org/licenses/publicdomain/">
    <cc:permits rdf:resource="http://creativecommons.org/ns#Reproduction"/>
    <cc:permits rdf:resource="http://creativecommons.org/ns#Distribution"/>
    <cc:permits rdf:resource="http://creativecommons.org/ns#DerivativeWorks"/>
   </cc:License>
  </rdf:RDF>
 </metadata>
 <g id="layer1">
  <rect id="rect2823" fill-opacity="0" height="450" width="450" y="0" x="0"/>
  <g id="g5780" transform="matrix(.59734 0 0 .59880 -220.35 -13.7)">
   <path id="path3198" d="m340 445.43a147.14 147.14 0 1 1 -294.29 0 147.14 147.14 0 1 1 294.29 0z" transform="matrix(-2.7084 0 0 -2.7084 1395 1698.6)" filter="url(#filter3244)" fill="url(#linearGradient2240)"/>
   <path id="path5321" d="m340 445.43a147.14 147.14 0 1 1 -294.29 0 147.14 147.14 0 1 1 294.29 0z" fill-opacity=".34812" transform="matrix(1.13 0 0 -1.13 543.93 845.07)" filter="url(#filter5770)" fill="#241f1c"/>
   <path id="path5774" d="m340 445.43a147.14 147.14 0 1 1 -294.29 0 147.14 147.14 0 1 1 294.29 0z" fill-opacity=".34812" transform="matrix(.84306 0 0 -.84306 451.48 970.6)" filter="url(#filter5770)" fill="#241f1c"/>
  </g>
 </g>
</svg>
