<?xml version="1.0" encoding="UTF-8" standalone="no"?>
<!-- Created with Inkscape (http://www.inkscape.org/) --><svg height="19.700000cm" id="svg2" inkscape:version="0.42" sodipodi:docbase="/home/dan/pictures/vectored planets" sodipodi:docname="venus.svg" sodipodi:version="0.32" width="21.000000cm" xmlns="http://www.w3.org/2000/svg" xmlns:cc="http://web.resource.org/cc/" xmlns:dc="http://purl.org/dc/elements/1.1/" xmlns:inkscape="http://www.inkscape.org/namespaces/inkscape" xmlns:rdf="http://www.w3.org/1999/02/22-rdf-syntax-ns#" xmlns:sodipodi="http://inkscape.sourceforge.net/DTD/sodipodi-0.dtd" xmlns:svg="http://www.w3.org/2000/svg" xmlns:xlink="http://www.w3.org/1999/xlink">
  <metadata>
    <rdf:RDF xmlns:cc="http://web.resource.org/cc/" xmlns:dc="http://purl.org/dc/elements/1.1/" xmlns:rdf="http://www.w3.org/1999/02/22-rdf-syntax-ns#">
      <cc:Work rdf:about="">
        <dc:title>Venus</dc:title>
        <dc:description>The Cloud-Covered Planet Venus</dc:description>
        <dc:subject>
          <rdf:Bag>
            <rdf:li>astronomy</rdf:li>
            <rdf:li>planet</rdf:li>
            <rdf:li>venus</rdf:li>
            <rdf:li>space</rdf:li>
          </rdf:Bag>
        </dc:subject>
        <dc:publisher>
          <cc:Agent rdf:about="http://www.openclipart.org/">
            <dc:title>Open Clip Art Library</dc:title>
          </cc:Agent>
        </dc:publisher>
        <dc:creator>
          <cc:Agent>
            <dc:title>Dan Gerhards</dc:title>
          </cc:Agent>
        </dc:creator>
        <dc:rights>
          <cc:Agent>
            <dc:title>Dan Gerhards</dc:title>
          </cc:Agent>
        </dc:rights>
        <dc:date>September 2005</dc:date>
        <dc:format>image/svg+xml</dc:format>
        <dc:type rdf:resource="http://purl.org/dc/dcmitype/StillImage"/>
        <cc:license rdf:resource="http://web.resource.org/cc/PublicDomain"/>
        <dc:language>en</dc:language>
      </cc:Work>
      <cc:License rdf:about="http://web.resource.org/cc/PublicDomain">
        <cc:permits rdf:resource="http://web.resource.org/cc/Reproduction"/>
        <cc:permits rdf:resource="http://web.resource.org/cc/Distribution"/>
        <cc:permits rdf:resource="http://web.resource.org/cc/DerivativeWorks"/>
      </cc:License>
    </rdf:RDF>
  </metadata>
  <defs id="defs4">
    <linearGradient id="linearGradient7777">
      <stop id="stop7779" offset="0.0000000" style="stop-color:#ffffff;stop-opacity:0.46391755;"/>
      <stop id="stop7783" offset="0.50000000" style="stop-color:#91918f;stop-opacity:0.0000000;"/>
      <stop id="stop7785" offset="0.68971896" style="stop-color:#5a5a57;stop-opacity:0.19587630;"/>
      <stop id="stop7787" offset="0.86538464" style="stop-color:#3f3e3b;stop-opacity:0.45360824;"/>
      <stop id="stop7781" offset="1.0000000" style="stop-color:#171715;stop-opacity:0.74226797;"/>
    </linearGradient>
    <linearGradient id="linearGradient6023">
      <stop id="stop6025" offset="0.0000000" style="stop-color:#dfba49;stop-opacity:1.0000000;"/>
      <stop id="stop6027" offset="1.0000000" style="stop-color:#e4c873;stop-opacity:0.65306121;"/>
    </linearGradient>
    <linearGradient id="linearGradient5931">
      <stop id="stop5933" offset="0.0000000" style="stop-color:#daa02f;stop-opacity:0.44705883;"/>
      <stop id="stop5935" offset="1.0000000" style="stop-color:#bc9624;stop-opacity:0.29591838;"/>
    </linearGradient>
    <linearGradient id="linearGradient5914">
      <stop id="stop5916" offset="0.0000000" style="stop-color:#d9ab26;stop-opacity:1.0000000;"/>
      <stop id="stop5918" offset="1.0000000" style="stop-color:#d2a028;stop-opacity:0.65490198;"/>
    </linearGradient>
    <linearGradient id="linearGradient4436">
      <stop id="stop4438" offset="0.0000000" style="stop-color:#cc9223;stop-opacity:0.77647060;"/>
      <stop id="stop4440" offset="1.0000000" style="stop-color:#c29e33;stop-opacity:0.52941179;"/>
    </linearGradient>
    <linearGradient id="linearGradient4418">
      <stop id="stop4420" offset="0.0000000" style="stop-color:#e2c05b;stop-opacity:1.0000000;"/>
      <stop id="stop4422" offset="1.0000000" style="stop-color:#e4c873;stop-opacity:0.65306121;"/>
    </linearGradient>
    <linearGradient id="linearGradient4347">
      <stop id="stop4349" offset="0.0000000" style="stop-color:#f7eed4;stop-opacity:1.0000000;"/>
      <stop id="stop4351" offset="1" style="stop-color:#f8f1dc;stop-opacity:0;"/>
    </linearGradient>
    <linearGradient id="linearGradient4322">
      <stop id="stop4324" offset="0.0000000" style="stop-color:#ffffff;stop-opacity:1.0000000;"/>
      <stop id="stop4326" offset="1" style="stop-color:#f8f1dc;stop-opacity:0;"/>
    </linearGradient>
    <radialGradient cx="566.58740" cy="1112.5737" fx="566.58740" fy="1112.5737" gradientTransform="matrix(0.321661,0.602103,-0.516262,0.275802,958.7179,-281.8280)" gradientUnits="userSpaceOnUse" id="radialGradient4331" inkscape:collect="always" r="207.65597" xlink:href="#linearGradient4322"/>
    <radialGradient cx="336.27261" cy="122.71932" fx="336.27261" fy="122.71932" gradientTransform="matrix(1.505209,-0.323589,5.287274e-2,0.245942,-176.3762,201.3517)" gradientUnits="userSpaceOnUse" id="radialGradient4333" inkscape:collect="always" r="207.65597" xlink:href="#linearGradient4322"/>
    <radialGradient cx="307.26144" cy="801.80664" fx="307.26144" fy="801.80664" gradientTransform="matrix(1.310467,-0.288056,0.159009,0.723390,-223.1215,-199.4319)" gradientUnits="userSpaceOnUse" id="radialGradient4339" inkscape:collect="always" r="207.65597" xlink:href="#linearGradient4322"/>
    <radialGradient cx="273.41547" cy="1176.9749" fx="273.41547" fy="1176.9749" gradientTransform="matrix(0.244022,3.268460e-2,-1.365773e-2,0.101968,222.7710,253.0544)" gradientUnits="userSpaceOnUse" id="radialGradient4341" inkscape:collect="always" r="207.65597" xlink:href="#linearGradient4322"/>
    <radialGradient cx="194.12976" cy="1632.9476" fx="194.12976" fy="1632.9476" gradientTransform="matrix(1.767119,0.380124,-0.143843,0.668695,85.96779,-671.5904)" gradientUnits="userSpaceOnUse" id="radialGradient4343" inkscape:collect="always" r="207.65597" xlink:href="#linearGradient4322"/>
    <radialGradient cx="260.61557" cy="1995.5389" fx="260.61557" fy="1995.5389" gradientTransform="matrix(1.008901,0.278994,-6.590188e-2,0.238314,124.8449,31.64674)" gradientUnits="userSpaceOnUse" id="radialGradient4345" inkscape:collect="always" r="207.65597" xlink:href="#linearGradient4347"/>
    <radialGradient cx="48.570953" cy="1501.6678" fx="48.570953" fy="1501.6678" gradientTransform="matrix(0.839444,-0.254133,7.350131e-2,0.242787,-37.73429,-80.89279)" gradientUnits="userSpaceOnUse" id="radialGradient4353" inkscape:collect="always" r="207.65597" xlink:href="#linearGradient4347"/>
    <radialGradient cx="418.47516" cy="1807.3854" fx="418.47516" fy="1807.3854" gradientTransform="matrix(0.438649,4.097118e-2,-3.858412e-2,0.413089,324.5856,-225.2632)" gradientUnits="userSpaceOnUse" id="radialGradient4355" inkscape:collect="always" r="207.65597" xlink:href="#linearGradient4347"/>
    <radialGradient cx="423.63354" cy="1287.8252" fx="423.63354" fy="1287.8252" gradientTransform="matrix(0.299159,-5.584989e-2,2.367693e-2,0.126825,365.4732,128.1100)" gradientUnits="userSpaceOnUse" id="radialGradient4412" inkscape:collect="always" r="207.65597" xlink:href="#linearGradient4347"/>
    <radialGradient cx="393.96121" cy="1548.5298" fx="393.96121" fy="1548.5298" gradientTransform="matrix(0.154171,1.542934e-2,-5.388742e-2,0.538446,476.8363,-444.9566)" gradientUnits="userSpaceOnUse" id="radialGradient4414" inkscape:collect="always" r="207.65597" xlink:href="#linearGradient4347"/>
    <radialGradient cx="771.32190" cy="1448.4443" fx="771.32190" fy="1448.4443" gradientTransform="matrix(3.094837e-2,3.314703e-2,-0.151999,0.141917,713.9893,115.7276)" gradientUnits="userSpaceOnUse" id="radialGradient4416" inkscape:collect="always" r="207.65597" xlink:href="#linearGradient4347"/>
    <radialGradient cx="374.82452" cy="1533.6655" fx="374.82452" fy="1533.6655" gradientTransform="matrix(0.843856,0.652145,-0.939011,1.215055,1574.388,-1731.229)" gradientUnits="userSpaceOnUse" id="radialGradient4424" inkscape:collect="always" r="207.65597" xlink:href="#linearGradient6023"/>
    <radialGradient cx="158.98811" cy="1406.5156" fx="158.98811" fy="1406.5156" gradientTransform="matrix(1.092406e-2,0.124507,-0.749642,6.577231e-2,1401.774,79.75977)" gradientUnits="userSpaceOnUse" id="radialGradient4426" inkscape:collect="always" r="207.65597" xlink:href="#linearGradient4418"/>
    <radialGradient cx="678.49969" cy="1448.1531" fx="678.49969" fy="1448.1531" gradientTransform="matrix(2.381204e-2,0.122696,-0.722124,0.140145,1353.179,-26.71438)" gradientUnits="userSpaceOnUse" id="radialGradient4428" inkscape:collect="always" r="207.65597" xlink:href="#linearGradient4418"/>
    <radialGradient cx="1969.1726" cy="1585.3480" fx="1969.1726" fy="1585.3480" gradientTransform="matrix(0.122801,2.326305e-2,-2.093068e-2,0.110489,26.20736,208.2349)" gradientUnits="userSpaceOnUse" id="radialGradient4430" inkscape:collect="always" r="207.65597" xlink:href="#linearGradient4418"/>
    <radialGradient cx="1641.7333" cy="1760.1962" fx="1641.7333" fy="1760.1962" gradientTransform="matrix(0.122801,2.326305e-2,-2.093068e-2,0.110489,26.20736,208.2349)" gradientUnits="userSpaceOnUse" id="radialGradient4432" inkscape:collect="always" r="207.65597" xlink:href="#linearGradient4418"/>
    <radialGradient cx="3351.6338" cy="1456.2902" fx="3351.6338" fy="1456.2902" gradientTransform="matrix(0.122801,2.326305e-2,-2.093068e-2,0.110489,26.20736,208.2349)" gradientUnits="userSpaceOnUse" id="radialGradient4434" inkscape:collect="always" r="207.65597" xlink:href="#linearGradient4436"/>
    <radialGradient cx="2793.8560" cy="1289.2784" fx="2793.8560" fy="1289.2784" gradientTransform="matrix(0.122801,2.326305e-2,-2.093068e-2,0.110489,26.20736,208.2349)" gradientUnits="userSpaceOnUse" id="radialGradient4442" inkscape:collect="always" r="207.65597" xlink:href="#linearGradient4436"/>
    <radialGradient cx="3383.3589" cy="72.615036" fx="3383.3589" fy="72.615036" gradientTransform="matrix(0.397726,-9.336652e-2,1.165638e-2,4.965408e-2,-906.3300,607.2522)" gradientUnits="userSpaceOnUse" id="radialGradient4444" inkscape:collect="always" r="207.65597" xlink:href="#linearGradient4436"/>
    <radialGradient cx="4795.0430" cy="-728.98163" fx="4795.0430" fy="-728.98163" gradientTransform="matrix(0.153759,-6.062851e-2,4.125068e-2,0.104615,-76.90753,606.2165)" gradientUnits="userSpaceOnUse" id="radialGradient4446" inkscape:collect="always" r="207.65597" xlink:href="#linearGradient4436"/>
    <radialGradient cx="4144.9312" cy="1670.6855" fx="4144.9312" fy="1670.6855" gradientTransform="matrix(0.105022,1.451579e-2,-1.036425e-2,7.245137e-2,78.67695,305.2352)" gradientUnits="userSpaceOnUse" id="radialGradient4448" inkscape:collect="always" r="207.65597" xlink:href="#linearGradient4436"/>
    <radialGradient cx="5263.6245" cy="484.89380" fx="5263.6245" fy="484.89380" gradientTransform="matrix(1.306962e-2,-0.351766,9.258122e-2,3.439745e-3,550.9936,2241.009)" gradientUnits="userSpaceOnUse" id="radialGradient4450" inkscape:collect="always" r="207.65597" xlink:href="#linearGradient4436"/>
    <radialGradient cx="3020.4219" cy="1497.6819" fx="3020.4219" fy="1497.6819" gradientTransform="matrix(-1.174024e-2,0.124536,-0.934797,-8.812592e-2,1779.079,309.6059)" gradientUnits="userSpaceOnUse" id="radialGradient5906" inkscape:collect="always" r="207.65597" xlink:href="#linearGradient4418"/>
    <radialGradient cx="3315.8777" cy="3110.4795" fx="3315.8777" fy="3110.4795" gradientTransform="matrix(0.642014,0.223057,-3.392673e-2,9.764972e-2,-1574.569,-591.2604)" gradientUnits="userSpaceOnUse" id="radialGradient5929" inkscape:collect="always" r="207.65597" xlink:href="#linearGradient5931"/>
    <radialGradient cx="3315.8777" cy="3110.4795" fx="3315.8777" fy="3110.4795" gradientTransform="matrix(0.642014,0.223057,-3.392673e-2,9.764972e-2,-1574.569,-591.2604)" gradientUnits="userSpaceOnUse" id="radialGradient5938" inkscape:collect="always" r="207.65597" xlink:href="#linearGradient5931"/>
    <radialGradient cx="3383.3589" cy="72.615036" fx="3383.3589" fy="72.615036" gradientTransform="matrix(0.397726,-9.336652e-2,1.165638e-2,4.965408e-2,-906.3300,607.2522)" gradientUnits="userSpaceOnUse" id="radialGradient5940" inkscape:collect="always" r="207.65597" xlink:href="#linearGradient4436"/>
    <radialGradient cx="3383.3589" cy="72.615036" fx="3383.3589" fy="72.615036" gradientTransform="matrix(0.397726,-9.336652e-2,1.165638e-2,4.965408e-2,-906.3300,607.2522)" gradientUnits="userSpaceOnUse" id="radialGradient5943" inkscape:collect="always" r="207.65597" xlink:href="#linearGradient4436"/>
    <radialGradient cx="3351.6338" cy="1456.2902" fx="3351.6338" fy="1456.2902" gradientTransform="matrix(0.122801,2.326305e-2,-2.093068e-2,0.110489,26.20736,208.2349)" gradientUnits="userSpaceOnUse" id="radialGradient5950" inkscape:collect="always" r="207.65597" xlink:href="#linearGradient4436"/>
    <radialGradient cx="3351.6338" cy="1456.2902" fx="3351.6338" fy="1456.2902" gradientTransform="matrix(0.122801,2.326305e-2,-2.093068e-2,0.110489,26.20736,208.2349)" gradientUnits="userSpaceOnUse" id="radialGradient5953" inkscape:collect="always" r="207.65597" xlink:href="#linearGradient4436"/>
    <radialGradient cx="3351.6338" cy="1456.2902" fx="3351.6338" fy="1456.2902" gradientTransform="matrix(0.122801,2.326305e-2,-2.093068e-2,0.110489,26.20736,208.2349)" gradientUnits="userSpaceOnUse" id="radialGradient5956" inkscape:collect="always" r="207.65597" xlink:href="#linearGradient4436"/>
    <radialGradient cx="3351.6338" cy="1456.2902" fx="3351.6338" fy="1456.2902" gradientTransform="matrix(0.122801,2.326305e-2,-2.093068e-2,0.110489,26.20736,208.2349)" gradientUnits="userSpaceOnUse" id="radialGradient5959" inkscape:collect="always" r="207.65597" xlink:href="#linearGradient4436"/>
    <radialGradient cx="3351.6338" cy="1456.2902" fx="3351.6338" fy="1456.2902" gradientTransform="matrix(0.122801,2.326305e-2,-2.093068e-2,0.110489,26.20736,208.2349)" gradientUnits="userSpaceOnUse" id="radialGradient5962" inkscape:collect="always" r="207.65597" xlink:href="#linearGradient4436"/>
    <radialGradient cx="3351.6338" cy="1456.2902" fx="3351.6338" fy="1456.2902" gradientTransform="matrix(0.122801,2.326305e-2,-2.093068e-2,0.110489,26.20736,208.2349)" gradientUnits="userSpaceOnUse" id="radialGradient5965" inkscape:collect="always" r="207.65597" xlink:href="#linearGradient4436"/>
    <radialGradient cx="3351.6338" cy="1456.2902" fx="3351.6338" fy="1456.2902" gradientTransform="matrix(0.122801,2.326305e-2,-2.093068e-2,0.110489,26.20736,208.2349)" gradientUnits="userSpaceOnUse" id="radialGradient5968" inkscape:collect="always" r="207.65597" xlink:href="#linearGradient4436"/>
    <radialGradient cx="3351.6338" cy="1456.2902" fx="3351.6338" fy="1456.2902" gradientTransform="matrix(0.122801,2.326305e-2,-2.093068e-2,0.110489,26.20736,208.2349)" gradientUnits="userSpaceOnUse" id="radialGradient5971" inkscape:collect="always" r="207.65597" xlink:href="#linearGradient4436"/>
    <radialGradient cx="5263.6245" cy="484.89380" fx="5263.6245" fy="484.89380" gradientTransform="matrix(1.306962e-2,-0.351766,9.258122e-2,3.439745e-3,550.9936,2241.009)" gradientUnits="userSpaceOnUse" id="radialGradient6002" inkscape:collect="always" r="207.65597" xlink:href="#linearGradient4436"/>
    <radialGradient cx="3020.4219" cy="1497.6819" fx="3020.4219" fy="1497.6819" gradientTransform="matrix(-1.174024e-2,0.124536,-0.934797,-8.812592e-2,1779.079,309.6059)" gradientUnits="userSpaceOnUse" id="radialGradient6005" inkscape:collect="always" r="207.65597" xlink:href="#linearGradient4418"/>
    <radialGradient cx="3020.4219" cy="1497.6819" fx="3020.4219" fy="1497.6819" gradientTransform="matrix(-1.174024e-2,0.124536,-0.934797,-8.812592e-2,1779.079,309.6059)" gradientUnits="userSpaceOnUse" id="radialGradient6008" inkscape:collect="always" r="207.65597" xlink:href="#linearGradient4418"/>
    <radialGradient cx="501.55704" cy="1501.5052" fx="501.55704" fy="1501.5052" gradientTransform="matrix(0.126472,5.570594e-2,-9.438445e-2,0.214285,665.9857,70.58062)" gradientUnits="userSpaceOnUse" id="radialGradient6012" inkscape:collect="always" r="207.65597" xlink:href="#linearGradient4418"/>
    <radialGradient cx="3420.9866" cy="1146.8718" fx="3420.9866" fy="1146.8718" gradientTransform="matrix(0.349515,-0.198720,7.381132e-2,0.129821,-698.7382,817.3251)" gradientUnits="userSpaceOnUse" id="radialGradient6017" inkscape:collect="always" r="207.65597" xlink:href="#linearGradient5931"/>
    <radialGradient cx="3351.6338" cy="1456.2902" fx="3351.6338" fy="1456.2902" gradientTransform="matrix(0.171072,-8.921504e-3,8.027016e-3,0.153920,-177.6446,252.5097)" gradientUnits="userSpaceOnUse" id="radialGradient6019" inkscape:collect="always" r="207.65597" xlink:href="#linearGradient4436"/>
    <radialGradient cx="2793.8560" cy="1289.2784" fx="2793.8560" fy="1289.2784" gradientTransform="matrix(0.161261,3.061749e-2,-2.748589e-2,0.145419,-72.40881,142.9461)" gradientUnits="userSpaceOnUse" id="radialGradient6021" inkscape:collect="always" r="207.65597" xlink:href="#linearGradient4436"/>
    <radialGradient cx="565.63556" cy="1049.4110" fx="565.63556" fy="1049.4110" gradientTransform="matrix(-0.106271,-0.194771,0.544932,-0.297324,122.6551,642.4028)" gradientUnits="userSpaceOnUse" id="radialGradient6031" inkscape:collect="always" r="207.65597" xlink:href="#linearGradient4418"/>
    <radialGradient cx="365.71429" cy="359.50504" fx="365.71429" fy="359.50504" gradientUnits="userSpaceOnUse" id="radialGradient7775" inkscape:collect="always" r="304.28571" xlink:href="#linearGradient7777"/>
  </defs>
  <sodipodi:namedview bordercolor="#666666" borderopacity="1.0" id="base" inkscape:current-layer="layer1" inkscape:cx="400.67189" inkscape:cy="346.74095" inkscape:document-units="px" inkscape:pageopacity="0.0" inkscape:pageshadow="2" inkscape:window-height="703" inkscape:window-width="1017" inkscape:window-x="0" inkscape:window-y="0" inkscape:zoom="0.49497475" pagecolor="#ffffff" showborder="false"/>
  <g id="layer1" inkscape:groupmode="layer" inkscape:label="Layer 1">
    <g id="g6033">
      <path d="M 670.00000 359.50504 A 304.28571 304.28571 0 1 1  61.428589,359.50504 A 304.28571 304.28571 0 1 1  670.00000 359.50504 z" id="path1379" sodipodi:cx="365.71429" sodipodi:cy="359.50504" sodipodi:rx="304.28571" sodipodi:ry="304.28571" sodipodi:type="arc" style="opacity:1.0000000;color:#000000;fill:#e8d794;fill-opacity:1.0000000;fill-rule:evenodd;stroke:none;stroke-width:1.9883709;stroke-linecap:butt;stroke-linejoin:miter;marker:none;marker-start:none;marker-mid:none;marker-end:none;stroke-miterlimit:4.0000000;stroke-dasharray:none;stroke-dashoffset:0.0000000;stroke-opacity:1.0000000;visibility:visible;display:inline;overflow:visible" transform="matrix(1.007019,0.000000,0.000000,1.004679,-0.424076,-3.110860)"/>
      <path d="M 522.05358,622.27289 C 527.35209,619.32647 529.71227,617.75144 533.21428,615.57647 C 528.59129,613.49079 522.14784,606.29325 517.14286,603.79075 C 511.11872,600.77869 510.16752,597.31796 508.57143,590.93361 C 507.36583,586.11121 521.11628,586.64790 525.71429,586.64790 C 535.96801,586.64790 525.19175,576.12536 524.28571,575.21933 C 521.98957,572.92319 508.52144,571.99254 504.28571,570.93361 C 496.82124,569.06749 492.48805,568.07647 484.28571,568.07647 C 475.35943,568.07647 472.83319,569.55295 470.00000,575.21933 C 467.66897,579.88138 467.66346,588.46383 465.71429,592.36218 C 463.46124,596.86828 447.09425,592.70717 445.71429,592.36218 C 440.53507,591.06738 432.12617,585.02824 428.57143,582.36218 C 422.54011,577.83869 417.25365,575.24702 411.42857,573.79075 C 404.39146,572.03148 397.45026,567.23559 392.85714,563.79075 C 389.50709,561.27821 379.31624,558.97696 375.71429,558.07647 C 369.05062,556.41055 363.45387,556.64790 355.71429,556.64790 C 350.22411,556.64790 340.58687,555.36604 334.28571,553.79075 C 324.19974,551.26926 314.16220,551.97416 304.28571,549.50504 C 296.63735,547.59295 288.13074,545.21933 280.00000,545.21933 C 272.19502,545.21933 261.70905,539.93230 254.28571,538.07647 C 248.30261,536.58069 239.76545,531.11484 235.71429,528.07647 C 231.61872,525.00480 224.00861,522.93792 220.00000,520.93361 C 215.18648,518.52685 206.77560,519.50504 200.00000,519.50504 C 192.67040,519.50504 187.03208,518.04877 181.42857,516.64790 C 175.70710,515.21753 171.65885,511.16389 168.57143,508.07647 C 164.56881,504.07385 169.83575,494.44776 170.00000,493.79075 C 170.30217,492.58206 182.49905,490.93740 184.28571,483.79075 C 186.46906,475.05736 196.23028,484.82274 197.14286,486.64790 C 199.94389,492.24997 209.63798,487.98596 215.71429,489.50504 C 221.18685,490.87318 222.74352,497.96284 225.71429,500.93361 C 231.56691,506.78624 228.08631,498.58838 230.00000,490.93361 C 230.86714,487.46504 244.81071,488.07647 248.57143,488.07647 C 253.76790,488.07647 263.05637,489.91199 267.14286,490.93361 C 277.32343,493.47875 277.77118,485.73355 292.85714,489.50504 C 299.56881,491.18296 303.22335,496.38231 310.00000,498.07647 C 319.81427,500.53004 321.65343,496.87276 327.14286,502.36218 C 332.30389,507.52322 329.11457,513.24761 337.14286,505.21933 C 343.54237,498.81981 340.46832,502.80687 342.85714,512.36218 C 344.85508,520.35394 353.41828,510.37247 355.71429,508.07647 C 359.97346,503.81729 350.00000,519.19594 350.00000,525.21933 C 350.00000,527.63875 364.19496,530.17395 365.71429,530.93361 C 369.42600,532.78947 369.49928,542.93647 368.57143,546.64790 C 366.00447,556.91573 370.55609,554.94128 375.71429,552.36218 C 381.68502,549.37681 379.79158,541.52851 378.57143,536.64790 C 376.98538,530.30372 375.52872,525.96160 377.14286,519.50504 C 377.82552,516.77439 382.46963,529.62653 381.42857,533.79075 C 378.61969,545.02629 387.31074,542.32021 392.85714,540.93361 C 393.59861,540.74824 392.85714,521.44029 392.85714,519.50504 C 392.85714,517.12409 398.57143,521.40980 398.57143,523.79075 C 398.57143,525.18246 414.99768,515.93594 404.28571,526.64790 C 396.23861,534.69500 408.15731,531.14067 411.42857,529.50504 C 416.97219,526.73323 417.00480,530.79556 421.42857,535.21933 C 423.66131,537.45206 422.03391,515.20322 421.42857,513.79075 C 420.52277,511.67722 410.10935,506.75725 408.57143,505.21933 C 404.64029,501.28819 400.32947,499.83450 395.71429,495.21933 C 388.37598,487.88102 387.86581,493.06780 385.71429,495.21933 C 381.87512,499.05850 394.73226,501.38015 398.57143,505.21933 C 401.51360,508.16150 412.17535,513.79075 400.00000,513.79075 C 396.26695,513.79075 388.27160,507.92656 385.71429,506.64790 C 380.64223,504.11187 381.25618,495.95834 380.00000,490.93361 C 378.24398,483.90954 378.33609,477.13510 377.14286,472.36218 C 374.88199,463.31869 379.99147,456.65643 372.85714,463.79075 C 371.56509,465.08280 376.33908,479.14709 377.14286,482.36218 C 378.70024,488.59170 377.14286,497.33152 377.14286,503.79075 C 377.14286,514.40913 370.77242,496.88042 370.00000,493.79075 C 368.29092,486.95445 367.14286,482.62938 367.14286,475.21933 C 367.14286,468.23658 363.62465,463.89720 361.42857,459.50504 C 358.52390,453.69569 358.44514,449.37875 354.28571,445.21933 C 353.77403,444.70764 356.68427,460.52782 357.14286,462.36218 C 358.67955,468.50894 361.23597,473.02036 362.85714,479.50504 C 364.28891,485.23212 365.71429,489.55500 365.71429,498.07647 C 365.71429,510.48869 360.99730,502.92821 358.57143,498.07647 C 356.11350,493.16060 353.17065,488.38998 350.00000,485.21933 C 343.90730,479.12662 353.83439,473.67792 342.85714,470.93361 C 335.27041,469.03693 337.07312,465.91618 328.57143,463.79075 C 324.13850,462.68252 335.01019,453.06628 335.71429,452.36218 C 342.97513,445.10133 317.55869,446.43998 331.42857,439.50504 C 338.88083,435.77891 324.04101,430.09697 322.85714,429.50504 C 321.93458,429.04376 314.28571,410.06351 314.28571,425.21933 C 314.28571,433.55937 313.97281,432.51864 305.71429,436.64790 C 301.85018,438.57995 307.14286,449.30452 307.14286,453.79075 C 307.14286,462.01500 310.30958,464.10033 314.28571,468.07647 C 320.33930,474.13005 320.27866,481.36042 312.85714,479.50504 C 307.10914,478.06804 303.47025,475.21933 294.28571,475.21933 C 285.62549,475.21933 291.80628,466.64790 281.42857,466.64790 C 272.80532,466.64790 270.24071,468.19682 264.28571,465.21933 C 256.83007,461.49150 258.51927,455.42798 260.00000,449.50504 C 262.24424,440.52809 254.47123,440.97999 248.57143,439.50504 C 240.98988,437.60965 235.84819,440.93361 228.57143,440.93361 C 222.30228,440.93361 222.46548,450.28837 220.00000,455.21933 C 219.12422,456.97089 208.05148,461.77788 205.71429,462.36218 C 201.33158,463.45786 194.36064,456.68536 191.42857,455.21933 C 186.04711,452.52860 177.82069,453.79075 171.42857,453.79075 C 166.72338,453.79075 158.99160,447.82437 154.28571,446.64790 C 145.74951,444.51385 140.72424,449.48513 138.57143,453.79075 C 134.80648,461.32065 136.50224,463.39678 130.00000,466.64790 C 125.20077,469.04751 112.94988,465.95679 110.00000,465.21933 C 104.25965,463.78424 100.23913,459.74417 97.142857,456.64790 C 92.772232,452.27727 90.184609,449.55119 84.285714,448.07647 C 73.906782,445.48173 75.221585,448.91491 76.964285,454.50504 C 86.492027,485.06760 104.15258,516.33620 120.17857,538.25504 C 122.46447,541.38147 153.27849,536.03895 155.71429,536.64790 C 162.22270,538.27500 168.62191,538.81600 175.71429,542.36218 C 181.72631,545.36820 189.84608,545.85665 194.28571,548.07647 C 201.88047,551.87384 206.72270,555.82857 215.71429,558.07647 C 223.30633,559.97448 228.37227,559.35567 234.28571,563.79075 C 238.21925,566.74090 251.22423,569.45395 257.14286,570.93361 C 264.26906,572.71516 271.30619,575.18873 277.14286,576.64790 C 285.48419,578.73323 296.33398,586.95774 301.42857,589.50504 C 308.29172,592.93662 317.39305,594.98365 325.71429,596.64790 C 334.60116,598.42527 341.65068,600.93361 351.42857,600.93361 C 359.26541,600.93361 369.53517,606.17455 377.14286,608.07647 C 379.91469,608.76943 379.16316,614.62759 377.14286,616.64790 C 375.78018,618.01057 391.86742,622.11475 392.85714,622.36218 C 399.82659,624.10455 407.41374,623.50133 414.28571,625.21933 C 420.51523,626.77670 429.25506,625.21933 435.71429,625.21933 C 442.85714,625.21933 450.00000,625.21933 457.14286,625.21933 C 466.66667,625.21933 476.19048,625.21933 485.71429,625.21933 C 494.34127,625.21933 498.45718,623.81932 504.28571,622.36218 C 510.51523,620.80480 515.59435,622.27289 522.05358,622.27289 z " id="path2836" sodipodi:nodetypes="ccsssssssssssssssssssssssssssssssssssssssssssssssssssssssssssssssssssssssssssssssssssssssssssssssssssssssssssssssssssssc" style="fill:url(#radialGradient4343);fill-opacity:1.0000000;fill-rule:evenodd;stroke:none;stroke-width:1.0000000px;stroke-linecap:butt;stroke-linejoin:miter;stroke-opacity:1.0000000;opacity:1.0000000;color:#000000;marker:none;marker-start:none;marker-mid:none;marker-end:none;stroke-miterlimit:4.0000000;stroke-dasharray:none;stroke-dashoffset:0;visibility:visible;display:inline;overflow:visible"/>
      <path d="M 649.28571,382.36218 C 652.78344,392.75878 652.92507,405.02317 647.74208,414.87630 C 643.56845,416.93777 639.77950,418.38746 641.18650,424.47019 C 636.60438,431.43748 642.68607,438.14852 645.25856,444.51046 C 648.66167,449.10999 652.64308,462.90120 642.45175,459.38763 C 639.84768,453.95029 634.83060,449.87254 630.69317,456.84957 C 627.28609,464.54324 628.78960,473.83719 636.87016,477.50571 C 640.70949,485.36958 624.06016,482.76519 627.85714,492.36218 C 630.11252,500.35259 620.52525,507.73941 615.16169,500.20584 C 614.10240,493.55603 608.39648,492.74117 606.42857,499.50504 C 605.62735,511.70666 594.76178,500.85356 593.94691,494.27944 C 591.75781,486.41439 581.50602,486.61602 578.93595,479.33367 C 578.07891,472.17036 575.07537,462.55151 565.99664,463.76084 C 556.69259,467.67489 561.78679,479.45413 566.84435,484.89236 C 570.98557,492.02509 577.01730,497.12522 583.69771,501.66257 C 587.83438,505.63950 599.76221,514.88815 592.42814,520.10841 C 582.88261,518.59665 575.83281,510.14793 570.14601,502.86532 C 564.30653,494.21975 555.02857,488.45250 549.29851,479.72304 C 545.59430,470.57624 550.35112,461.87824 549.89455,452.71460 C 547.27553,445.51629 551.63185,436.86189 560.00497,441.40502 C 565.36133,441.96999 571.24633,433.78598 574.59936,442.61343 C 576.53666,449.73902 589.82669,454.59261 583.89997,462.14766 C 578.05764,469.60442 587.08150,469.74888 592.14286,467.36218 C 598.69907,466.90817 608.16542,469.54240 612.51884,463.62998 C 612.28921,456.34077 614.47746,448.17468 621.28940,444.34336 C 626.45809,439.71187 625.50162,429.10532 620.58651,424.40220 C 612.91261,419.13528 618.34999,409.27973 615.24859,402.16653 C 613.27101,396.34851 625.98190,389.60872 616.75818,385.46807 C 607.31909,388.85680 608.29366,374.99884 602.07435,374.63052 C 598.16029,380.86626 588.24069,377.62537 586.42857,386.64790 C 578.87422,391.66166 567.97575,390.04798 564.48920,380.84492 C 559.53250,369.68255 554.91716,385.05695 557.93713,390.56279 C 561.67837,400.08961 549.90114,398.97214 545.71272,401.52234 C 546.04370,407.85592 544.74113,415.40408 536.45268,411.81519 C 526.76740,408.45438 536.22327,395.90020 534.36927,391.42678 C 526.61998,390.72540 513.06190,392.24087 512.48641,381.33851 C 517.04670,373.00562 527.58966,372.37644 535.94978,371.75786 C 539.07026,368.07915 540.84244,363.83361 546.17747,366.56344 C 553.67513,362.38705 553.16758,354.00320 546.92445,349.09417 C 546.74747,344.56226 545.81824,334.96294 548.73531,333.23146 C 553.49585,334.53852 554.75980,348.04476 558.82541,344.06365 C 556.61278,337.76754 556.45578,326.40251 565.78588,332.96947 C 566.73148,338.35263 565.07638,349.85368 574.34219,345.52398 C 580.99740,340.16777 593.95855,342.41312 588.92706,352.85850 C 583.27009,356.95615 580.96023,371.71777 591.72885,368.87190 C 600.07833,369.57432 605.05421,357.27088 613.88177,361.41284 C 619.41782,368.52810 625.46342,375.82658 635.64476,374.23209 C 640.77791,375.68551 644.62173,379.89477 649.28571,382.36218 z " id="path2851" style="fill:url(#radialGradient4331);fill-opacity:1.0000000;fill-rule:evenodd;stroke:none;stroke-width:1.0000000px;stroke-linecap:butt;stroke-linejoin:miter;stroke-opacity:1.0000000;opacity:1.0000000;color:#000000;marker:none;marker-start:none;marker-mid:none;marker-end:none;stroke-miterlimit:4.0000000;stroke-dasharray:none;stroke-dashoffset:0;visibility:visible;display:inline;overflow:visible"/>
      <path d="M 238.57143,266.64789 C 247.76353,268.15443 256.30688,262.76053 265.26894,261.60496 C 277.31146,260.04824 289.74675,262.28726 301.50356,258.41438 C 308.85991,256.93530 314.44068,251.12680 321.93155,249.96642 C 328.54296,246.72363 336.06794,247.58484 342.80500,245.14827 C 349.42632,241.49979 356.78527,239.95432 364.02512,238.06593 C 370.74093,235.73504 377.15393,232.45829 384.36607,231.81594 C 392.26994,229.52196 400.92188,230.15576 408.60782,232.50278 C 402.70756,238.55570 395.06903,242.39230 388.09950,246.99897 C 380.22938,253.04563 375.44277,262.24496 373.13007,271.73951 C 370.54752,277.18740 365.74180,282.22660 359.79649,283.79309 C 345.46533,286.82194 330.56219,283.60330 316.25412,287.06211 C 305.05132,288.77345 293.67562,287.60058 282.42084,288.56469 C 274.58763,289.03041 269.29939,282.39876 262.42165,280.08542 C 255.71707,279.27862 247.76461,279.75993 243.32562,273.47093 C 241.50493,271.37223 240.00296,269.02182 238.57143,266.64789 z " id="path4361" style="fill:url(#radialGradient4428);fill-opacity:1.0000000;fill-rule:evenodd;stroke:none;stroke-width:1.0000000px;stroke-linecap:butt;stroke-linejoin:miter;stroke-opacity:1.0000000;opacity:1.0000000;color:#000000;marker:none;marker-start:none;marker-mid:none;marker-end:none;stroke-miterlimit:4.0000000;stroke-dasharray:none;stroke-dashoffset:0.0000000;visibility:visible;display:inline;overflow:visible"/>
      <path d="M 437.14286,232.36218 C 439.98013,232.36218 453.41907,233.93124 458.57143,235.21933 C 467.56567,237.46788 449.06975,243.79075 445.71429,243.79075 C 439.13680,243.79075 432.39423,245.21933 424.28571,245.21933 C 415.73471,245.21933 411.63198,246.23990 404.28571,248.07647 C 396.69743,249.97354 390.29484,252.92905 385.71429,255.21933 C 378.47810,258.83742 373.60383,261.27455 368.57143,263.79075 C 363.40698,266.37298 360.45332,270.48029 357.14286,273.79075 C 349.27138,281.66224 357.08961,281.66121 360.00000,280.93361 C 365.80445,279.48250 369.24353,275.97579 372.85714,272.36218 C 376.72118,268.49814 383.12291,267.22930 387.14286,265.21933 C 393.41760,262.08195 398.84472,260.86529 404.28571,259.50504 C 410.67003,257.90896 414.70151,256.90109 421.42857,255.21933 C 427.41902,253.72171 431.86596,252.36218 440.00000,252.36218 C 448.15686,252.36218 451.50660,251.68691 458.57143,255.21933 C 465.52487,258.69605 474.69815,256.18765 461.42857,259.50504 C 454.07176,261.34424 447.24698,260.16727 442.85714,262.36218 C 437.58883,264.99634 442.73639,275.34007 438.57143,279.50504 C 433.08896,284.98751 432.39387,286.64790 422.85714,286.64790 C 415.97429,286.64790 413.16264,282.43856 407.14286,280.93361 C 403.80379,280.09884 397.21514,288.04032 394.28571,289.50504 C 388.01288,292.64146 384.41962,292.22828 380.00000,296.64790 C 376.57273,300.07516 374.48094,307.68601 372.85714,310.93361 C 369.52897,317.58995 366.95191,321.31551 364.28571,326.64790 C 361.47533,332.26867 351.42857,331.01044 351.42857,323.79075 C 351.42857,316.69293 355.71429,313.27731 355.71429,305.21933 C 355.71429,298.76304 360.35180,293.43895 352.85714,300.93361 C 349.04762,304.74313 350.95238,314.26694 347.14286,318.07647 C 341.88316,323.33616 334.12604,309.97982 330.00000,303.79075 C 328.13223,300.98909 326.22432,310.93361 322.85714,310.93361 C 313.64079,310.93361 321.82839,294.81951 311.42857,305.21933 C 308.83780,307.81010 315.71429,317.85059 315.71429,322.36218 C 315.71429,331.52604 314.80321,333.30424 307.14286,335.21933 C 300.17126,336.96222 299.04888,336.88662 292.85714,333.79075 C 288.07251,331.39844 282.84104,327.35413 278.57143,325.21933 C 272.26286,322.06504 265.77670,321.67910 261.42857,319.50504 C 255.85164,316.71657 248.02376,317.93955 242.85714,316.64790 C 234.16103,314.47387 229.05941,317.58849 224.28571,322.36218 C 218.24692,328.40098 218.34164,327.24729 225.71429,330.93361 C 234.35249,335.25271 227.36353,340.10899 222.85714,342.36218 C 216.32417,345.62867 208.39673,346.69157 202.85714,348.07647 C 196.62763,349.63385 187.88780,348.07647 181.42857,348.07647 C 175.87250,348.07647 167.96054,354.81048 164.28571,356.64790 C 155.61005,360.98573 166.11768,368.47986 168.57143,370.93361 C 173.68963,376.05181 175.45259,376.12450 178.57143,382.36218 C 180.88506,386.98944 179.02638,398.46769 180.00000,402.36218 C 182.01708,410.43052 189.69453,411.14030 191.42857,418.07647 C 193.22326,425.25524 179.67171,423.79075 174.28571,423.79075 C 168.70644,423.79075 161.70204,414.06422 160.00000,412.36218 C 156.42857,408.79075 155.00000,403.07647 151.42857,399.50504 C 148.00757,396.08404 136.40083,398.61912 132.85714,399.50504 C 123.39618,401.87028 122.94817,394.15485 121.42857,388.07647 C 120.25254,383.37235 125.50473,375.63843 127.14286,372.36218 C 130.50735,365.63320 131.78061,359.48463 130.00000,352.36218 C 127.77697,343.47007 130.86645,339.07181 135.71429,336.64790 C 141.59295,333.70856 148.61954,334.48098 152.85714,332.36218 C 159.76584,328.90783 160.61423,325.78005 168.57143,323.79075 C 178.14853,321.39648 182.07440,321.20743 180.00000,329.50504 C 178.54930,335.30784 170.52939,339.50504 182.85714,339.50504 C 191.74484,339.50504 193.01892,336.64790 201.42857,336.64790 C 207.19221,336.64790 207.14286,324.91407 207.14286,323.79075 C 207.14286,318.21689 200.00000,318.34226 200.00000,309.50504 C 200.00000,304.49614 209.38273,300.93361 214.28571,300.93361 C 222.89540,300.93361 224.82105,298.61180 230.00000,303.79075 C 233.70309,307.49385 237.10828,315.08103 234.28571,303.79075 C 231.74111,293.61235 237.87468,293.96494 244.28571,292.36218 C 254.30377,289.85767 248.44805,285.96446 240.00000,288.07647 C 228.65180,290.91352 237.01469,279.56912 240.00000,278.07647 C 244.97279,275.59007 257.14369,278.07647 262.85714,278.07647 C 269.04772,278.07647 272.81340,282.35125 278.57143,283.79075 C 286.71847,285.82751 289.28758,280.93361 297.14286,280.93361 C 303.82543,280.93361 306.53104,275.01439 308.57143,270.93361 C 309.19458,269.68730 326.87813,268.49979 328.57143,268.07647 C 333.87866,266.74966 338.53530,262.39831 341.42857,259.50504 C 344.32813,256.60548 353.35951,253.79075 358.57143,253.79075 C 364.47258,253.79075 369.04088,247.95911 374.28571,246.64790 C 378.58270,245.57365 384.22208,242.37809 390.00000,240.93361 C 397.55803,239.04410 400.99412,235.32794 407.14286,233.79075 C 413.98177,232.08103 420.91414,232.59072 425.71429,233.79075 C 428.72870,234.54436 435.17805,232.75514 437.14286,232.36218 z " id="path2856" style="fill:url(#radialGradient4339);fill-opacity:1.0000000;fill-rule:evenodd;stroke:none;stroke-width:1.0000000px;stroke-linecap:butt;stroke-linejoin:miter;stroke-opacity:1.0000000;opacity:1.0000000;color:#000000;marker:none;marker-start:none;marker-mid:none;marker-end:none;stroke-miterlimit:4.0000000;stroke-dasharray:none;stroke-dashoffset:0;visibility:visible;display:inline;overflow:visible"/>
      <path d="M 264.28571,375.21933 C 270.90016,376.87294 251.10372,370.93361 244.28571,370.93361 C 236.98627,370.93361 229.65519,371.01981 224.28571,372.36218 C 216.04737,374.42177 212.89639,379.34807 211.42857,385.21933 C 208.78373,395.79871 221.28720,388.82610 224.28571,388.07647 C 231.81199,386.19490 234.48332,382.66992 241.42857,380.93361 C 248.37428,379.19718 253.01537,384.58415 257.14286,386.64790 C 263.15091,389.65192 266.55680,391.08013 272.85714,389.50504 C 279.20132,387.91900 283.54344,386.46233 290.00000,388.07647 C 296.16148,389.61684 305.93914,387.66311 310.00000,386.64790 C 319.53861,384.26324 301.21035,378.37905 300.00000,378.07647 C 290.74995,375.76396 289.92105,377.01882 284.28571,369.50504 C 282.46859,367.08220 273.36939,362.61830 270.00000,360.93361 C 263.07656,357.47189 258.71693,354.08175 262.85714,362.36218 C 266.67712,370.00213 269.51699,362.14114 264.28571,375.21933 z " id="path2858" style="fill:url(#radialGradient4341);fill-opacity:1.0000000;fill-rule:evenodd;stroke:none;stroke-width:1.0000000px;stroke-linecap:butt;stroke-linejoin:miter;stroke-opacity:1.0000000;opacity:1.0000000;color:#000000;marker:none;marker-start:none;marker-mid:none;marker-end:none;stroke-miterlimit:4.0000000;stroke-dasharray:none;stroke-dashoffset:0;visibility:visible;display:inline;overflow:visible"/>
      <path d="M 428.57143,488.07647 C 431.62054,494.17468 415.18587,482.13714 408.57143,483.79075 C 404.02153,484.92823 410.09091,494.55050 414.28571,496.64790 C 420.71259,499.86133 425.39167,501.48659 430.00000,503.79075 C 435.27177,506.42664 439.83209,508.70680 444.28571,510.93361 C 452.93704,515.25927 443.50808,522.36218 437.14286,522.36218 C 432.67660,522.36218 434.29104,530.91231 432.85714,536.64790 C 430.99708,544.08817 426.70355,543.79075 418.57143,543.79075 C 411.06075,543.79075 411.87376,538.56816 404.28571,542.36218 C 398.91608,545.04700 396.28301,548.93632 392.85714,552.36218 C 389.13665,556.08268 407.63351,556.64790 410.00000,556.64790 C 423.08004,556.64790 436.17045,558.07647 447.14286,558.07647 C 456.76439,558.07647 459.78665,558.28982 464.28571,553.79075 C 471.92603,546.15044 456.82593,543.79075 452.85714,543.79075 C 446.45771,543.79075 442.59534,537.02926 441.42857,532.36218 C 440.42330,528.34110 453.90045,526.12625 455.71429,525.21933 C 456.58530,524.78382 450.35678,510.21860 450.00000,509.50504 C 447.37080,504.24664 440.23848,498.31494 437.14286,495.21933 C 433.55824,491.63471 436.24015,494.21145 428.57143,488.07647 z " id="path2860" style="fill:url(#radialGradient4355);fill-opacity:1.0000000;fill-rule:evenodd;stroke:none;stroke-width:1.0000000px;stroke-linecap:butt;stroke-linejoin:miter;stroke-opacity:1.0000000;opacity:1.0000000;color:#000000;marker:none;marker-start:none;marker-mid:none;marker-end:none;stroke-miterlimit:4.0000000;stroke-dasharray:none;stroke-dashoffset:0.0000000;visibility:visible;display:inline;overflow:visible"/>
      <path d="M 65.714286,306.29076 C 71.249999,274.14790 83.203644,240.40056 94.285715,220.21932 C 92.510643,212.18095 108.17931,226.25578 112.85714,230.93361 C 118.69332,236.76979 109.77977,242.47230 107.14286,243.79075 C 101.45171,246.63633 120.16390,246.64790 122.85714,246.64790 C 130.95238,246.64790 139.04762,246.64790 147.14286,246.64790 C 155.92336,246.64790 163.66344,245.21933 172.85714,245.21933 C 179.87824,245.21933 187.91944,245.02518 192.85714,243.79075 C 199.46057,242.13990 204.05072,239.56379 210.00000,238.07647 C 216.02483,236.57026 221.48388,233.77693 227.14286,232.36218 C 235.61830,230.24332 244.61732,230.13642 252.85714,228.07647 C 261.08047,226.02064 271.62270,225.52794 278.57143,223.79075 C 285.55276,222.04542 295.41484,222.36218 301.42857,222.36218 C 309.68070,222.36218 288.78963,231.74711 285.71429,232.36218 C 274.05127,234.69478 262.56975,235.84823 251.42857,238.07647 C 240.57379,240.24742 233.39409,247.22794 224.28571,249.50504 C 214.87582,251.85751 209.50266,255.70080 200.00000,258.07647 C 191.95035,260.08888 182.76133,266.70539 175.71429,270.93361 C 168.62104,275.18956 160.96688,277.10959 155.71429,282.36218 C 151.01419,287.06228 140.29416,286.57436 134.28571,288.07647 C 125.30333,290.32206 117.10336,290.95336 108.57143,295.21933 C 100.79714,299.10647 94.005791,299.64500 88.571429,302.36218 C 83.105710,305.09504 77.435375,305.14620 71.428571,306.64790 C 70.042654,306.99438 67.142858,306.29076 65.714286,306.29076 z " id="path2864" sodipodi:nodetypes="ccsssssssssssssssssssssc" style="fill:url(#radialGradient4353);fill-opacity:1.0000000;fill-rule:evenodd;stroke:none;stroke-width:1.0000000px;stroke-linecap:butt;stroke-linejoin:miter;stroke-opacity:1.0000000;opacity:1.0000000;color:#000000;marker:none;marker-start:none;marker-mid:none;marker-end:none;stroke-miterlimit:4.0000000;stroke-dasharray:none;stroke-dashoffset:0.0000000;visibility:visible;display:inline;overflow:visible"/>
      <path d="M 543.92857,107.71933 C 521.39123,91.845143 490.31618,76.613493 475.17857,71.647896 C 470.04096,72.932299 446.39985,81.305113 438.57143,85.219325 C 432.88669,88.061692 421.58728,89.108220 414.28571,90.933611 C 404.37071,93.412361 394.22717,94.659605 384.28571,96.647896 C 374.33379,98.638282 365.84926,100.33519 355.71429,102.36218 C 345.62526,104.37999 334.82926,103.79075 324.28571,103.79075 C 314.28571,103.79075 304.28571,103.79075 294.28571,103.79075 C 286.19048,103.79075 278.09524,103.79075 270.00000,103.79075 C 262.38095,103.79075 254.76190,103.79075 247.14286,103.79075 C 239.57900,103.79075 232.99984,103.82643 227.14286,102.36218 C 210.97971,98.321397 201.09523,101.09804 194.28571,105.93361 C 164.10081,127.36851 143.10439,149.07923 129.46428,166.11218 C 123.31519,172.81704 152.33097,172.36218 161.42857,172.36218 C 171.87146,172.36218 182.10526,173.79075 192.85714,173.79075 C 202.23020,173.79075 211.68203,172.36218 221.42857,172.36218 C 230.47619,172.36218 239.52381,172.36218 248.57143,172.36218 C 263.40376,172.36218 277.09109,169.50504 291.42857,169.50504 C 302.92571,169.50504 313.95151,166.64790 325.71429,166.64790 C 334.37407,166.64790 344.36750,160.19888 352.85714,158.07647 C 366.05003,154.77825 377.42459,151.22032 390.00000,148.07647 C 399.08009,145.80645 409.59551,143.79075 418.57143,143.79075 C 427.99973,143.79075 440.92393,140.34549 450.00000,138.07647 C 462.03472,135.06779 476.30485,134.20976 485.71429,129.50504 C 492.19097,126.26670 501.17308,123.03581 510.00000,119.50504 C 516.94899,116.72544 522.21347,117.16596 530.00000,115.21932 C 535.38712,113.87255 540.75162,109.30780 543.92857,107.71933 z " id="path2866" sodipodi:nodetypes="ccsssssssssscsssssssssssssc" style="fill:url(#radialGradient4333);fill-opacity:1.0;fill-rule:evenodd;stroke:none;stroke-width:1.0000000px;stroke-linecap:butt;stroke-linejoin:miter;stroke-opacity:1.0000000"/>
      <path d="M 234.28571,479.50504 C 230.99780,485.31981 233.20230,493.05250 237.14286,500.93361 C 240.39808,507.44405 243.39576,510.04366 248.57143,515.21933 C 253.01403,519.66193 354.44883,549.40819 358.57143,558.07647 C 362.12537,565.54907 345.59934,563.79075 341.42857,563.79075 C 332.38095,563.79075 148.40341,532.36218 141.42857,532.36218 C 134.28571,532.36218 117.14146,534.04085 120.17857,538.07647 C 238.26681,694.98822 426.75697,682.73369 525.00000,620.75504 C 527.07844,619.44381 510.97593,612.85015 510.00000,612.36218 C 504.56560,609.64498 502.38305,602.84257 500.00000,598.07647 C 497.68836,593.45318 495.54893,584.55789 494.28571,579.50504 C 492.74977,573.36127 488.11898,569.39193 482.85714,568.07647 C 476.59201,566.51018 472.69244,564.90336 465.71429,566.64790 C 458.75021,568.38892 455.15981,569.50504 447.14286,569.50504 C 442.32066,569.50504 434.03163,570.93361 427.14286,570.93361 C 420.00000,570.93361 412.85714,570.93361 405.71429,570.93361 C 397.58002,570.93361 393.02394,569.90388 385.71429,568.07647 C 379.72144,566.57826 374.93855,563.40288 370.00000,560.93361 C 362.13123,556.99923 364.51668,555.87587 372.85714,553.79075 C 380.21041,551.95244 387.83764,554.85243 391.42857,556.64790 C 396.53226,559.19974 403.15278,559.57895 408.57143,560.93361 C 414.80094,562.49099 423.54077,560.93361 430.00000,560.93361 C 443.52447,560.93361 429.48927,543.28002 425.71429,539.50504 C 421.69326,535.48402 420.13689,517.15579 387.14286,513.79075 C 380.41553,513.10463 375.64899,512.20254 370.00000,509.50504 C 338.92113,494.66426 243.40011,475.67106 234.28571,479.50504 z " id="path2868" sodipodi:nodetypes="cssssssssssssssssssssssssc" style="fill:url(#radialGradient4345);fill-opacity:1.0000000;fill-rule:evenodd;stroke:none;stroke-width:1.0000000px;stroke-linecap:butt;stroke-linejoin:miter;stroke-opacity:1.0000000;opacity:1.0000000;color:#000000;marker:none;marker-start:none;marker-mid:none;marker-end:none;stroke-miterlimit:4.0000000;stroke-dasharray:none;stroke-dashoffset:0;visibility:visible;display:inline;overflow:visible"/>
      <path d="M 487.14285,149.50504 C 470.12016,150.12701 456.76119,162.64910 441.24913,168.20255 C 429.54897,172.14048 417.31064,174.65191 404.91072,173.79075 C 387.98882,173.63713 371.02074,174.46698 354.18226,172.42356 C 341.64754,172.02790 329.18221,170.29379 316.60714,170.93361 C 298.97863,171.63692 280.20771,168.19920 263.85174,176.63187 C 250.76878,181.00232 236.81454,182.80425 224.65561,189.74151 C 218.87274,191.16213 214.70827,198.04670 223.91772,196.31048 C 230.25468,196.36531 240.54913,195.07520 244.19645,200.01976 C 239.89643,201.62306 226.79072,204.37666 237.96758,207.48302 C 253.07816,213.01390 269.17133,209.00047 284.76565,209.17371 C 299.83490,208.11647 314.92732,207.59319 330.00000,206.64790 C 344.25205,207.19292 357.94551,202.82978 371.90438,201.00570 C 388.86454,199.92714 407.21401,203.79678 422.69576,194.77266 C 431.91169,191.94942 439.77354,186.48786 448.22552,182.13153 C 459.98855,177.08609 471.91414,172.39736 483.51908,167.00866 C 491.95445,162.82228 497.22303,155.83986 487.14285,149.50504 z " id="path4357" style="fill:url(#radialGradient4426);fill-opacity:1.0000000;fill-rule:evenodd;stroke:none;stroke-width:1.0000000px;stroke-linecap:butt;stroke-linejoin:miter;stroke-opacity:1.0000000;opacity:1.0000000;color:#000000;marker:none;marker-start:none;marker-mid:none;marker-end:none;stroke-miterlimit:4.0000000;stroke-dasharray:none;stroke-dashoffset:0.0000000;visibility:visible;display:inline;overflow:visible"/>
      <path d="M 656.42857,460.93361 C 684.16588,383.96443 681.10539,293.78084 638.57143,215.04076 C 626.75176,215.05068 598.64168,225.25430 602.85714,243.79075 C 595.88139,244.85074 588.73161,227.32288 581.29816,240.93362 C 571.47796,253.78925 550.25731,242.87785 565.68236,230.67401 C 585.75535,228.76362 567.96137,181.23095 560.00000,210.93361 C 559.40346,232.85290 529.69400,220.89321 525.60699,238.70471 C 520.32859,258.89205 490.50008,230.31141 491.84365,254.37747 C 488.25194,270.35464 463.83359,264.72287 462.85714,283.79075 C 445.97836,290.31830 425.12276,283.11940 410.26638,293.51489 C 397.80751,304.07424 380.77931,311.60480 379.72553,330.47794 C 371.28680,341.37513 390.33429,359.18098 366.94075,351.60019 C 350.89804,344.65181 339.92205,345.65774 322.62611,341.81787 C 303.40355,351.83213 333.74919,359.11867 343.29711,358.64178 C 352.58632,362.89014 335.86806,371.00213 316.26763,366.48806 C 309.34693,364.84751 283.10226,344.04601 291.42857,360.93361 C 308.08135,373.60155 339.30804,377.19961 349.26116,384.82627 C 359.30585,398.99344 349.63360,381.53721 331.48435,390.98230 C 318.77786,404.86418 337.11419,422.11768 349.71077,428.31322 C 363.99290,437.19116 371.13281,454.37030 388.06614,459.25240 C 402.15653,471.35028 422.19699,482.09248 437.14286,463.79075 C 457.32611,454.13949 463.44050,483.75304 480.66127,488.47996 C 497.42076,491.84928 509.19755,505.19395 524.28571,512.36218 C 547.21675,519.98651 525.15547,539.64045 510.75179,539.04740 C 494.65597,541.78853 479.12316,532.67849 464.90817,526.25005 C 446.90853,527.08069 436.23681,510.62246 421.65705,502.83357 C 404.53967,489.66887 426.20769,512.40855 431.19669,515.86231 C 443.34457,527.42502 463.59978,527.46175 471.08166,542.66777 C 480.31932,559.21488 501.54644,548.97586 516.10786,550.00846 C 528.80010,540.13315 565.06472,558.17309 580.12319,569.20276 C 595.69231,560.38263 598.95832,531.85525 587.47005,523.79905 C 586.89539,513.18067 537.93888,468.15284 529.95043,487.65608 C 523.38922,504.64423 507.49981,480.75028 511.96653,472.12017 C 496.93984,469.16095 493.85245,457.52727 504.98203,447.09651 C 510.83540,442.44439 512.92908,422.04172 504.28571,438.07647 C 499.10742,449.24726 479.73163,448.54031 494.28571,436.64790 C 501.24336,430.11664 514.67315,411.65404 514.19219,430.78639 C 521.67473,431.54176 536.95984,429.63266 529.30072,441.15479 C 536.91534,448.37454 557.04498,430.81639 537.14286,430.93361 C 533.44353,424.27311 544.69156,409.00075 527.16528,412.72876 C 519.64381,409.74593 517.31554,397.71327 510.14095,410.96874 C 505.67474,417.01575 486.17772,427.32436 487.18870,425.32297 C 497.59473,423.70095 494.07426,392.25164 502.29726,402.84886 C 506.61767,426.98421 516.02289,379.26947 502.85714,382.36218 C 486.17200,394.32764 475.63587,355.80545 498.57143,360.93361 C 500.28013,346.85452 515.64784,360.90311 522.85714,348.07647 C 531.32613,348.55480 520.90121,379.24263 533.85390,362.95408 C 542.38890,351.21112 533.44756,341.28627 532.85714,328.07647 C 547.00618,322.09466 546.07119,305.95472 551.58245,295.09583 C 551.53035,304.89214 554.42243,323.76450 564.73886,306.77847 C 575.41806,290.79011 576.61364,323.12053 574.80894,330.14536 C 580.79441,338.05860 596.00965,327.02298 599.70241,341.54376 C 622.36643,351.24126 595.78429,321.76963 602.85714,310.93361 C 606.49964,297.01948 629.69846,299.98865 622.87446,281.15554 C 616.41668,263.39468 641.22458,247.51468 651.42857,263.79075 C 655.79811,278.22955 656.74111,296.36036 648.86487,309.70454 C 640.06123,324.81736 630.50047,340.40743 626.02259,357.41657 C 625.55187,373.71704 657.38807,372.09396 652.76359,392.97260 C 652.42000,408.67301 639.07459,422.57162 645.02840,439.60138 C 648.37710,447.26151 649.94126,455.40279 656.42857,460.93361 z " id="path4359" sodipodi:nodetypes="cccccccccccccccccccccccccccccccccccccccccccccccccccccccccccc" style="fill:url(#radialGradient4424);fill-opacity:1.0000000;fill-rule:evenodd;stroke:none;stroke-width:1.0000000px;stroke-linecap:butt;stroke-linejoin:miter;stroke-opacity:1.0000000;opacity:1.0000000;color:#000000;marker:none;marker-start:none;marker-mid:none;marker-end:none;stroke-miterlimit:4.0000000;stroke-dasharray:none;stroke-dashoffset:0.0000000;visibility:visible;display:inline;overflow:visible"/>
      <path d="M 521.42859,499.50504 C 511.65123,492.08488 502.50129,483.86508 493.37785,475.68835 C 489.62109,466.61192 479.82163,464.02332 474.14563,456.56234 C 467.73323,449.20480 457.27471,448.96991 448.87008,445.23768 C 440.60076,443.69532 432.20064,447.41442 423.76861,445.43834 C 413.93500,445.09727 403.22321,445.80767 394.88974,439.52598 C 387.05506,434.90192 381.66102,426.94614 372.85714,423.79075 C 367.95897,420.91711 358.77479,417.78848 354.90237,420.52040 C 364.25842,427.03435 375.96810,430.13217 383.78877,438.87627 C 391.84816,444.00942 396.66415,453.09287 405.38245,457.16720 C 414.40162,461.94972 426.10775,456.24432 434.02893,463.70177 C 440.45545,468.00314 442.90205,477.52837 451.41191,478.40137 C 460.20522,479.81851 469.17445,479.89611 477.82429,482.23691 C 491.97700,483.35868 501.76903,495.06970 510.12165,505.27959 C 515.68372,512.11813 527.16574,510.95041 530.73529,519.84678 C 533.10142,528.37523 541.49189,531.22424 548.73854,534.61141 C 554.48534,539.67905 568.00742,539.50512 563.63627,528.77571 C 559.91049,521.98084 551.73392,519.09636 547.91565,512.15840 C 542.45571,501.99619 529.26483,506.07453 521.42857,499.50504 L 521.42859,499.50504 z " id="path5910" style="opacity:1.0000000;color:#000000;fill:url(#radialGradient5938);fill-opacity:1.0000000;fill-rule:evenodd;stroke:none;stroke-width:1.0000000px;stroke-linecap:butt;stroke-linejoin:miter;marker:none;marker-start:none;marker-mid:none;marker-end:none;stroke-miterlimit:4.0000000;stroke-dasharray:none;stroke-dashoffset:0.0000000;stroke-opacity:1.0000000;visibility:visible;display:inline;overflow:visible"/>
      <path d="M 188.57143,432.36218 C 181.67299,432.36218 175.71429,424.51502 175.71429,439.50504 C 175.71429,441.81546 187.29932,446.80435 188.57143,448.07647 C 192.26621,451.77125 199.83881,452.04534 204.28571,450.93361 C 209.69297,449.58180 202.51261,439.16050 198.57143,435.21933 C 196.08736,432.73526 192.12865,433.07363 188.57143,432.36218 z " id="path4363" style="fill:url(#radialGradient4432);fill-opacity:1.0000000;fill-rule:evenodd;stroke:none;stroke-width:1.0000000px;stroke-linecap:butt;stroke-linejoin:miter;stroke-opacity:1.0000000;opacity:1.0000000;color:#000000;marker:none;marker-start:none;marker-mid:none;marker-end:none;stroke-miterlimit:4.0000000;stroke-dasharray:none;stroke-dashoffset:0.0000000;visibility:visible;display:inline;overflow:visible"/>
      <path d="M 224.28571,426.64790 C 218.39844,420.76062 211.40664,429.59277 210.00000,435.21933 C 208.26992,442.13964 218.47175,442.36218 224.28571,442.36218 C 229.99522,442.36218 233.57828,438.07647 241.42857,438.07647 C 250.51743,438.07647 252.84315,439.49104 257.14286,443.79075 C 260.57816,447.22606 263.90293,454.83654 264.28571,455.21933 C 266.88615,457.81976 268.57143,440.97618 268.57143,438.07647 C 268.57143,431.84480 262.87931,428.80184 258.57143,426.64790 C 253.03771,423.88104 248.17817,422.26387 242.85714,420.93361 C 236.67806,419.38884 235.10490,414.00056 232.85714,409.50504 C 230.02449,403.83973 238.76509,404.19631 225.71429,400.93361 C 220.32681,399.58674 216.81605,393.70905 211.42857,392.36218 C 206.51774,391.13447 217.84922,400.21140 221.42857,403.79075 C 225.39281,407.75499 224.28571,418.97421 224.28571,426.64790 z " id="path4365" style="fill:url(#radialGradient4430);fill-opacity:1.0000000;fill-rule:evenodd;stroke:none;stroke-width:1.0000000px;stroke-linecap:butt;stroke-linejoin:miter;stroke-opacity:1.0000000;opacity:1.0000000;color:#000000;marker:none;marker-start:none;marker-mid:none;marker-end:none;stroke-miterlimit:4.0000000;stroke-dasharray:none;stroke-dashoffset:0.0000000;visibility:visible;display:inline;overflow:visible"/>
      <path d="M 665.71429,429.50504 C 671.52761,404.47810 674.87508,378.76270 674.33647,353.04019 C 673.92180,349.19969 674.54546,343.37210 673.08057,340.78589 C 671.91195,341.46706 669.64045,341.31825 671.96679,340.33116 C 668.98322,340.53206 667.84262,347.44775 665.51492,342.74336 C 663.99751,338.90331 658.44694,339.15751 658.49122,343.72573 C 658.28350,347.27571 660.29654,350.47468 657.75752,353.60384 C 655.76579,357.53545 659.40231,359.91616 661.23720,362.64140 C 662.84523,367.08745 654.86344,368.91581 658.61413,373.46332 C 661.09066,377.23010 666.54019,377.31110 669.09146,381.05392 C 670.91173,384.41556 668.06069,388.03500 668.51354,391.60246 C 669.19670,397.32543 665.83464,402.76256 666.98348,408.47337 C 666.70941,413.43428 660.43898,412.46564 657.68862,415.12619 C 654.69245,417.75313 653.67051,423.30073 656.58819,426.28656 C 659.52090,427.81722 662.87375,427.42465 665.71429,429.50504 z " id="path4390" style="opacity:1.0000000;color:#000000;fill:url(#radialGradient6002);fill-opacity:1.0000000;fill-rule:evenodd;stroke:none;stroke-width:1.0000000px;stroke-linecap:butt;stroke-linejoin:miter;marker:none;marker-start:none;marker-mid:none;marker-end:none;stroke-miterlimit:4.0000000;stroke-dasharray:none;stroke-dashoffset:0.0000000;stroke-opacity:1.0000000;visibility:visible;display:inline;overflow:visible"/>
      <path d="M 609.39095,169.85166 C 603.39538,169.07145 605.30747,176.57030 597.41769,180.51519 C 590.09597,184.17605 586.53394,188.09992 578.84627,191.94376 C 571.19644,195.76867 564.91791,202.47937 557.41769,206.22948 C 550.71878,209.57893 545.55374,213.59002 540.27484,216.22948 C 533.03557,219.84911 529.72824,219.63321 524.56055,224.80090 C 520.21320,229.14826 509.75304,232.43135 505.98912,233.37233 C 502.50693,234.24288 497.78485,243.83517 495.98912,246.22948 C 492.29432,251.15588 489.88963,254.14275 487.41769,259.08662 C 484.77476,264.37248 481.15155,267.33319 478.84627,271.94376 C 475.90767,277.82096 470.65096,280.96636 480.27484,283.37233 C 486.50435,284.92971 495.24418,283.37233 501.70341,283.37233 C 505.98897,283.37233 513.11686,276.23326 518.84627,274.80090 C 523.45361,273.64907 529.39441,270.37815 534.56055,269.08662 C 541.07504,267.45800 547.95253,267.52434 553.13198,266.22948 C 559.36149,264.67210 568.10132,266.22948 574.56055,266.22948 C 581.70341,266.22948 588.84627,266.22948 595.98912,266.22948 C 602.45380,266.22948 606.98345,269.08662 614.56055,269.08662 C 621.70341,269.08662 628.84627,269.08662 635.98912,269.08662 C 641.23885,269.08662 650.48485,279.63790 652.60460,283.87741 C 655.62005,289.90831 657.46261,294.44970 661.17603,298.16313 C 664.92596,301.91305 670.28086,309.31663 669.74746,305.55851 C 662.43340,254.02696 631.99312,197.88339 609.39095,169.85166 z " id="path6029" sodipodi:nodetypes="csssssssssssssssssssssc" style="opacity:1.0000000;color:#000000;fill:url(#radialGradient6031);fill-opacity:1.0000000;fill-rule:evenodd;stroke:none;stroke-width:1.0000000px;stroke-linecap:butt;stroke-linejoin:miter;marker:none;marker-start:none;marker-mid:none;marker-end:none;stroke-miterlimit:4.0000000;stroke-dasharray:none;stroke-dashoffset:0.0000000;stroke-opacity:1.0000000;visibility:visible;display:inline;overflow:visible"/>
      <path d="M 481.42856,303.07648 C 488.66135,303.51398 496.47295,301.68061 503.13345,305.34379 C 508.10643,306.91182 509.00359,313.04989 513.98110,314.80077 C 516.71686,316.61047 520.84305,321.98689 514.71481,321.73315 C 509.61717,322.98517 507.55057,317.47863 504.94561,314.35061 C 500.07904,310.48627 494.14004,315.46300 488.63672,314.50342 C 484.16943,314.11644 478.22723,315.28470 475.31299,311.04250 C 472.44903,306.82239 476.08547,300.50284 471.30524,297.36506 C 463.45784,293.27736 454.40004,295.28988 445.95094,295.26041 C 441.50260,295.79124 436.05471,295.23162 432.66510,298.68267 C 430.01490,303.11394 425.85582,306.07987 420.88335,307.47756 C 414.40286,310.11195 410.56705,316.40102 404.71648,320.01178 C 401.54490,323.19894 399.14814,326.75383 394.48825,327.64116 C 392.72591,329.84315 394.01642,337.06455 389.51837,332.96006 C 384.85935,330.42430 383.01029,325.30324 383.57123,320.22368 C 383.75408,313.12239 392.42686,322.34575 394.25432,317.42232 C 395.95402,313.40234 394.18838,308.30517 396.91501,304.78509 C 401.03140,301.48076 404.99206,306.79130 408.21573,307.69315 C 410.45567,301.97859 415.01114,297.52953 417.14286,291.64790 C 420.31906,288.04866 425.75055,290.05704 429.96113,289.51908 C 434.15227,284.89049 441.90932,283.84460 445.60426,289.86815 C 449.46879,292.10096 454.48492,291.89188 458.64201,290.61965 C 461.74831,286.84521 468.57542,281.08626 472.17250,287.42640 C 471.14328,292.08726 471.28093,296.79468 476.50500,298.93900 C 478.01042,300.48067 479.74027,301.74572 481.42856,303.07648 z " id="path4393" style="opacity:1.0000000;color:#000000;fill:url(#radialGradient5943);fill-opacity:1.0000000;fill-rule:evenodd;stroke:none;stroke-width:1.0000000px;stroke-linecap:butt;stroke-linejoin:miter;marker:none;marker-start:none;marker-mid:none;marker-end:none;stroke-miterlimit:4.0000000;stroke-dasharray:none;stroke-dashoffset:0.0000000;stroke-opacity:1.0000000;visibility:visible;display:inline;overflow:visible"/>
      <path d="M 636.42857,226.64790 C 637.57664,227.79596 638.86312,232.65387 640.71429,234.50504 C 643.73922,237.52998 643.65454,237.99336 641.42857,240.21932 C 639.43887,242.20903 633.64301,240.59436 632.14286,240.21932 C 628.11545,239.21247 627.14286,236.72036 627.14286,245.93361 C 627.14286,247.99151 623.11738,250.67337 622.14286,251.64790 C 620.63802,253.15274 618.09463,244.74068 617.85714,243.79075 C 616.69543,239.14389 618.99892,238.07647 622.85714,238.07647 C 627.83002,238.07647 629.28571,239.07622 629.28571,233.79075 C 629.28571,228.45596 630.96794,227.74002 636.42857,226.64790 z " id="path4395" style="fill:url(#radialGradient4446);fill-opacity:1.0000000;fill-rule:evenodd;stroke:none;stroke-width:1.0000000px;stroke-linecap:butt;stroke-linejoin:miter;stroke-opacity:1.0000000;opacity:1.0000000;color:#000000;marker:none;marker-start:none;marker-mid:none;marker-end:none;stroke-miterlimit:4.0000000;stroke-dasharray:none;stroke-dashoffset:0.0000000;visibility:visible;display:inline;overflow:visible"/>
      <path d="M 485.08109,464.69841 C 485.08109,460.95394 483.71820,474.07605 487.12542,475.75064 C 490.94858,477.62964 490.19192,483.14550 490.19192,487.80759 C 490.19192,493.28143 493.11129,494.80467 497.34709,495.84558 C 503.33090,497.31604 505.24648,493.10455 507.56874,490.82184 C 511.43306,487.02337 502.48908,481.79443 500.41358,480.77436 C 496.02562,478.61778 494.12583,477.45592 492.23626,473.74113 C 489.92358,469.19463 490.46854,467.87580 485.08109,464.69841 z " id="path4397" style="opacity:1.0000000;color:#000000;fill:url(#radialGradient4448);fill-opacity:1.0000000;fill-rule:evenodd;stroke:none;stroke-width:1.0000000px;stroke-linecap:butt;stroke-linejoin:miter;marker:none;marker-start:none;marker-mid:none;marker-end:none;stroke-miterlimit:4.0000000;stroke-dasharray:none;stroke-dashoffset:0.0000000;stroke-opacity:1.0000000;visibility:visible;display:inline;overflow:visible"/>
      <path d="M 347.16347,403.14577 C 344.95260,398.71410 353.39452,395.35613 355.60538,390.92445 C 358.78884,384.54320 351.42853,384.68523 349.03945,385.28383 C 345.15676,386.25669 343.07287,388.27383 339.65954,389.98434 C 337.56251,391.03522 333.80222,394.32975 331.21763,395.62495 C 326.93527,397.77096 330.35257,404.23206 331.21763,405.96608 C 333.74528,411.03277 329.69960,406.46098 331.21763,412.54679 C 331.34095,413.04122 339.25595,417.37839 340.59754,420.06760 C 343.59921,426.08447 338.35800,427.40624 344.34949,430.40873 C 348.10246,432.28943 349.75213,426.64831 354.66739,426.64831 C 358.23876,426.64831 360.33697,431.12424 364.98528,432.28893 C 370.65776,433.71024 373.07108,429.82555 375.30319,427.58842 C 379.09073,423.79234 375.64129,420.74534 374.36519,418.18740 C 373.90187,417.25866 365.51267,413.28112 364.04730,412.54679 C 362.89780,411.97074 359.38315,418.41596 356.54337,419.12751 C 355.31970,419.43412 352.19294,410.40704 351.85341,409.72648 C 350.99303,408.00184 347.76217,404.14586 347.16347,403.14577 z " id="path4399" style="opacity:1.0000000;color:#000000;fill:url(#radialGradient6021);fill-opacity:1.0000000;fill-rule:evenodd;stroke:none;stroke-width:1.0000000px;stroke-linecap:butt;stroke-linejoin:miter;marker:none;marker-start:none;marker-mid:none;marker-end:none;stroke-miterlimit:4.0000000;stroke-dasharray:none;stroke-dashoffset:0.0000000;stroke-opacity:1.0000000;visibility:visible;display:inline;overflow:visible"/>
      <path d="M 398.10922,430.24262 C 397.30759,422.99703 383.09987,415.67298 386.13364,428.04674 C 385.66581,437.16327 370.35444,430.46606 372.78664,441.60054 C 373.69383,454.52451 387.95568,451.62200 396.75627,453.58879 C 407.18318,455.84543 407.84546,467.44880 412.33976,474.85456 C 421.03139,478.89320 427.27228,466.31721 433.43872,461.51225 C 441.60561,458.64726 443.62130,443.08869 431.85332,448.77679 C 423.13391,452.21815 416.15063,443.10810 426.38068,439.01785 C 424.59468,434.41182 415.08976,438.54232 412.29202,431.99312 C 408.34419,427.96327 402.85984,431.28100 398.10922,430.24262 z " id="path4401" style="opacity:1.0000000;color:#000000;fill:url(#radialGradient6019);fill-opacity:1.0000000;fill-rule:evenodd;stroke:none;stroke-width:1.0000000px;stroke-linecap:butt;stroke-linejoin:miter;marker:none;marker-start:none;marker-mid:none;marker-end:none;stroke-miterlimit:4.0000000;stroke-dasharray:none;stroke-dashoffset:0.0000000;stroke-opacity:1.0000000;visibility:visible;display:inline;overflow:visible"/>
      <path d="M 529.28571,250.93361 C 528.77973,242.58357 544.69718,239.54710 548.95058,246.69994 C 551.23380,256.03509 556.82323,264.24844 558.57288,273.38735 C 560.82301,284.76890 545.45385,280.09062 542.14286,273.79075 C 537.00104,267.93345 530.18090,266.94893 524.40484,271.93690 C 519.05267,270.86463 509.73758,275.63311 514.28455,280.53065 C 522.78146,280.00723 530.64871,284.90624 531.97694,293.64414 C 531.48726,300.52988 518.26233,303.76211 513.39082,297.77176 C 503.70193,296.27023 510.49921,282.15072 500.71429,279.50504 C 494.76904,273.70823 500.38300,265.22259 508.24597,266.97133 C 514.09755,261.76889 525.05839,264.65112 527.20647,255.52428 C 527.82533,253.96315 528.41941,252.38044 529.28571,250.93361 z " id="path4403" style="fill:url(#radialGradient4412);fill-opacity:1.0000000;fill-rule:evenodd;stroke:none;stroke-width:1.0000000px;stroke-linecap:butt;stroke-linejoin:miter;stroke-opacity:1.0000000;opacity:1.0000000;color:#000000;marker:none;marker-start:none;marker-mid:none;marker-end:none;stroke-miterlimit:4.0000000;stroke-dasharray:none;stroke-dashoffset:0.0000000;visibility:visible;display:inline;overflow:visible"/>
      <path d="M 447.85715,335.93362 C 443.94629,332.10616 434.78446,327.96779 432.85714,336.64790 C 432.20578,342.37943 443.64162,337.26818 440.54368,345.16869 C 439.66717,351.91999 440.81809,358.26441 448.86533,355.28488 C 453.73791,361.85317 448.04979,372.44030 457.14286,376.64790 C 457.35673,385.35411 463.99905,389.06143 469.83070,394.33573 C 476.82718,398.82049 471.27511,412.54282 462.85714,410.21932 C 457.00409,407.67849 444.70111,409.86084 444.98673,401.40701 C 444.99736,396.06049 446.44474,383.13112 438.37556,385.60127 C 430.36648,392.91935 443.01155,401.67036 436.98301,408.81748 C 431.01245,415.81989 443.62627,422.32093 442.33653,430.04461 C 438.18184,436.46634 442.82984,442.73311 450.14527,439.74799 C 456.26219,439.40449 457.22275,431.03782 460.47833,429.97694 C 468.40473,436.39451 464.12515,417.53792 473.22130,418.72513 C 479.73564,415.05455 474.76025,403.75074 482.95576,399.97299 C 487.87916,394.27960 487.18564,384.04798 480.25578,380.24112 C 473.77779,376.92756 472.89766,367.61011 465.53663,366.88597 C 455.87921,364.74571 458.28101,351.28348 449.28571,348.07647 C 445.03692,344.31840 452.04160,339.83656 447.85715,335.93362 z " id="path4405" style="fill:url(#radialGradient4414);fill-opacity:1.0000000;fill-rule:evenodd;stroke:none;stroke-width:1.0000000px;stroke-linecap:butt;stroke-linejoin:miter;stroke-opacity:1.0000000;opacity:1.0000000;color:#000000;marker:none;marker-start:none;marker-mid:none;marker-end:none;stroke-miterlimit:4.0000000;stroke-dasharray:none;stroke-dashoffset:0.0000000;visibility:visible;display:inline;overflow:visible"/>
      <path d="M 538.57141,326.64789 C 530.27983,325.12324 521.91042,329.35145 519.20191,337.52978 C 516.54076,344.99764 506.43134,346.75798 505.43153,355.10050 C 501.93654,361.90440 513.56120,372.75214 517.13180,364.24410 C 517.97472,357.00450 519.37973,349.51824 524.28571,343.79075 C 529.54923,339.21089 541.37078,344.73968 543.39770,335.88763 C 544.13737,331.51406 543.81866,327.69046 538.57141,326.64789 z " id="path4407" style="fill:url(#radialGradient4416);fill-opacity:1.0000000;fill-rule:evenodd;stroke:none;stroke-width:1.0000000px;stroke-linecap:butt;stroke-linejoin:miter;stroke-opacity:1.0000000;opacity:1.0000000;color:#000000;marker:none;marker-start:none;marker-mid:none;marker-end:none;stroke-miterlimit:4.0000000;stroke-dasharray:none;stroke-dashoffset:0.0000000;visibility:visible;display:inline;overflow:visible"/>
      <path d="M 250.00000,519.50507 C 266.21083,527.37007 282.28500,536.46000 300.06513,540.21225 C 308.00065,541.44958 316.01705,542.69973 323.48263,545.72587 C 331.92531,546.68887 340.18479,548.38024 348.21571,551.11901 C 363.03811,553.78989 378.17441,551.65308 393.13170,552.30781 C 413.42964,552.47464 433.76000,552.80074 453.98133,550.75155 C 459.30164,551.68552 470.12645,547.24953 472.58969,550.72117 C 460.86512,554.73927 448.31297,555.82679 436.11045,557.30930 C 426.13642,557.38744 416.25470,559.22723 406.26770,558.79179 C 397.08364,559.78741 387.95445,561.79350 378.66334,560.89530 C 358.29127,560.81902 337.05637,563.06371 317.66124,555.35224 C 311.07041,550.52596 304.13188,546.22656 296.49498,543.32142 C 287.12230,538.88991 276.74277,537.26936 267.22141,533.22794 C 256.93527,532.37089 252.91720,517.78667 241.42857,520.93359" id="path5904" style="opacity:1.0000000;color:#000000;fill:url(#radialGradient6008);fill-opacity:1.0000000;fill-rule:evenodd;stroke:none;stroke-width:1.0000000px;stroke-linecap:butt;stroke-linejoin:miter;marker:none;marker-start:none;marker-mid:none;marker-end:none;stroke-miterlimit:4.0000000;stroke-dasharray:none;stroke-dashoffset:0.0000000;stroke-opacity:1.0000000;visibility:visible;display:inline;overflow:visible"/>
      <path d="M 580.00000,395.21933 C 586.15151,393.68145 589.93538,391.19210 591.42857,385.21933 C 593.23618,377.98890 601.01653,380.72759 604.28571,382.36218 C 610.16936,385.30401 609.85309,391.52127 608.57143,396.64790 C 606.68732,404.18434 604.64469,405.57831 610.00000,410.93361 C 614.12084,415.05445 615.71429,421.95029 615.71429,428.07647 C 615.71429,432.81482 608.85551,437.50831 607.14286,440.93361 C 603.89721,447.42491 601.84105,449.50504 592.85714,449.50504 C 587.61394,449.50504 582.86049,443.79411 580.00000,440.93361 C 576.13596,437.06957 569.73423,435.80073 565.71429,433.79075 C 558.24627,430.05675 556.25648,432.01799 552.85714,425.21933 C 550.94537,421.39577 558.02162,416.31894 560.00000,412.36218 C 563.11216,406.13786 573.77028,396.77675 580.00000,395.21933 z " id="path6010" sodipodi:nodetypes="cssssssssssss" style="fill:url(#radialGradient6012);fill-opacity:1.0000000;fill-rule:evenodd;stroke:none;stroke-width:1.0000000px;stroke-linecap:butt;stroke-linejoin:miter;stroke-opacity:1.0000000;opacity:1.0000000;color:#000000;marker:none;marker-start:none;marker-mid:none;marker-end:none;stroke-miterlimit:4.0000000;stroke-dasharray:none;stroke-dashoffset:0.0000000;visibility:visible;display:inline;overflow:visible"/>
      <path d="M 621.42859,232.36218 C 610.93717,239.05793 606.98735,251.36901 600.06004,261.07720 C 597.85181,267.81205 591.32846,271.89700 584.28571,270.93361 C 576.14532,270.35159 570.07119,276.47074 563.09603,279.53384 C 557.81965,285.20188 553.31338,291.50717 544.42124,291.38714 C 537.61760,291.61034 533.08982,296.74175 528.01524,300.45819 C 521.17955,302.00130 511.93102,305.78855 516.64677,314.66005 C 522.77120,315.26026 529.69223,311.77831 534.53704,307.75790 C 541.69224,300.96455 551.84411,299.11316 561.36756,299.29348 C 568.54293,299.02340 572.86224,289.22553 580.41651,292.45537 C 586.28709,295.80923 596.09084,301.44772 592.36574,309.61232 C 589.38872,313.91906 583.13970,325.90746 593.78761,322.27864 C 601.99155,320.67875 602.90991,311.03360 602.89223,304.21990 C 604.26079,297.30409 606.03197,290.12957 603.03613,283.30809 C 600.45417,274.90419 607.11990,267.72754 611.03274,260.95404 C 614.85363,254.99630 619.80716,249.92213 624.45330,244.64411 C 627.30103,240.50567 623.26516,235.95910 621.42859,232.36218 z " id="path6014" style="fill:url(#radialGradient6017);fill-opacity:1.0000000;fill-rule:evenodd;stroke:none;stroke-width:1.0000000px;stroke-linecap:butt;stroke-linejoin:miter;stroke-opacity:1.0000000;opacity:1.0000000;color:#000000;marker:none;marker-start:none;marker-mid:none;marker-end:none;stroke-miterlimit:4.0000000;stroke-dasharray:none;stroke-dashoffset:0.0000000;visibility:visible;display:inline;overflow:visible"/>
    </g>
    <path d="M 670.00000 359.50504 A 304.28571 304.28571 0 1 1  61.428589,359.50504 A 304.28571 304.28571 0 1 1  670.00000 359.50504 z" id="path7041" sodipodi:cx="365.71429" sodipodi:cy="359.50504" sodipodi:rx="304.28571" sodipodi:ry="304.28571" sodipodi:type="arc" style="opacity:1.0000000;color:#000000;fill:url(#radialGradient7775);fill-opacity:1.0;fill-rule:evenodd;stroke:none;stroke-width:1.9883709;stroke-linecap:butt;stroke-linejoin:miter;marker:none;marker-start:none;marker-mid:none;marker-end:none;stroke-miterlimit:4.0000000;stroke-dasharray:none;stroke-dashoffset:0.0000000;stroke-opacity:1.0000000;visibility:visible;display:inline;overflow:visible" transform="matrix(1.007019,0.000000,0.000000,1.004679,-0.424076,-3.110860)"/>
  </g>
</svg>
