<?xml version="1.0" standalone="no"?>
<!DOCTYPE svg PUBLIC "-//W3C//DTD SVG 1.1//EN" "http://www.w3.org/Graphics/SVG/1.1/DTD/svg11.dtd" >
<svg xmlns="http://www.w3.org/2000/svg">
<metadata>
This is a custom SVG webfont generated by Font Squirrel.
Copyright   : httpwwwdaaamsfrst
Designer    : httpwwwdaaamsfrst
Foundry     : httpwwwdaaamsfrst
Foundry URL : httpwwwdaaamsfrst
</metadata>
<defs>
<font id="webfontqxwHPxLV" horiz-adv-x="1024" >
<font-face units-per-em="2048" ascent="1638" descent="-410" />
<missing-glyph horiz-adv-x="500" />
<glyph unicode=" " />
<glyph unicode="!" d="M555 1481q6 37 28.5 56t49 20.5t50.5 -15t34 -53.5q10 -129 13 -282.5t2 -311.5t-3 -311.5t-4 -282.5q-2 -43 -25.5 -65.5t-52.5 -23.5t-54.5 18.5t-29.5 62.5q0 129 3 282.5t3 312.5t-3 312.5t-11 280.5zM573 66q6 37 29 56t49.5 20t50 -15t33.5 -53v-92 q-2 -43 -25.5 -65.5t-52 -24t-54 18t-30.5 62.5v93z" />
<glyph unicode="&#x22;" d="M432 1294q-4 43 15.5 69t48 32t56.5 -9.5t40 -56.5q10 -70 11 -98.5t0 -50t-2 -50t5 -98.5q-2 -43 -25.5 -65.5t-52 -23.5t-54 18.5t-30.5 62.5q-6 66 -6 92.5t2 44t1 42.5t-9 91zM760 1294q-4 43 15.5 69t48 32t56 -9.5t40.5 -56.5q10 -70 11 -98.5t0 -50t-2 -50 t5 -98.5q-2 -43 -25.5 -65.5t-52.5 -23.5t-54.5 18.5t-29.5 62.5q-6 66 -6 92.5t2 44t1 42.5t-9 91z" />
<glyph unicode="#" horiz-adv-x="1343" d="M582 1409q23 37 54.5 45t57 -4t37.5 -42t-2 -71q-51 -139 -92 -308t-77 -347t-66.5 -351t-61.5 -317q-14 -41 -44 -54t-57.5 -5t-46 35.5t-10.5 68.5q31 147 64 324.5l69.5 358t79 353.5t95.5 314zM1012 1409q23 37 54.5 45t57 -4t38 -42t-2.5 -71q-51 -139 -92 -308 t-77 -347t-66.5 -351t-61.5 -317q-14 -41 -44 -54t-57.5 -5t-46 35.5t-9.5 68.5q31 147 63.5 324.5t69 358t79 353.5t95.5 314zM57 834q-43 4 -62.5 29.5t-18.5 54t24 52t66 25.5q633 -2 1269 -37q37 -10 53.5 -33.5t15.5 -50t-20.5 -49t-56.5 -28.5q-633 33 -1270 37z M170 354q-43 4 -62.5 30t-18.5 54.5t23.5 52t65.5 25.5l536 -57q265 -29 537 -45q37 -10 53.5 -34t15.5 -50.5t-20.5 -49t-56.5 -28.5q-270 16 -535 45z" />
<glyph unicode="$" horiz-adv-x="1380" d="M1051 1124q14 -39 5 -66.5t-33 -39.5t-55.5 -7t-58.5 31q-8 12 -24 42l-36 64q-19 34 -37.5 61.5t-31.5 37.5q-18 16 -44.5 21.5t-54.5 4.5t-53.5 -7t-43.5 -13q-59 -23 -126 -61.5t-124.5 -90.5t-96 -116.5t-44.5 -134.5q-2 -18 6 -35.5t12 -36.5q43 -20 107.5 -28.5 t141.5 -8.5t160 5l163 11q81 5 156 7t132 -2q39 -4 89 -11.5t100.5 -24.5t91.5 -46t61 -72q18 -37 16 -79t-2 -83q2 -31 -9 -61.5t-30.5 -59t-43 -53t-46.5 -43.5q-70 -59 -155.5 -102t-179 -70.5t-189.5 -41t-186 -15.5q-53 -2 -108.5 6t-110.5 12q-49 4 -103.5 28 t-100.5 60.5t-77 86t-29 108.5q4 55 29 106.5t43 104.5q20 33 48 44t52.5 4t42 -31.5t15.5 -61.5l-29 -82l-29 -82q10 -16 14.5 -35.5t20.5 -31.5q68 -51 168.5 -66.5t209 -6.5t209.5 34.5t171 56.5q76 33 141.5 80t98.5 125q6 16 2 34.5t-6 36.5q-14 10 -27.5 23.5 t-30.5 19.5q-90 31 -190.5 36t-203.5 -1t-205.5 -16t-194.5 -10q-29 0 -82.5 3t-106.5 14t-98 33.5t-58 63.5q-10 41 -25 79t-13 79q2 70 36.5 141.5t89 139t124 127t146.5 101.5t152.5 62.5t143.5 12.5q41 -4 77.5 -17.5t73.5 -29.5q31 -29 62 -72t56.5 -85t43 -74 t21.5 -36zM188 1526q6 37 29 56.5t49.5 20.5t50 -15.5t33.5 -53.5q8 -106 32 -213t54.5 -212t65.5 -209.5t65 -207.5l149 -479l148 -479q12 -41 -3 -70t-41.5 -39t-57.5 1.5t-51 47.5l-148 480l-149 479l-69 219q-36 111 -67.5 222.5t-55.5 224t-34 227.5zM434 1608 q6 37 28.5 56t49.5 20.5t50.5 -15t33.5 -53.5q8 -106 31.5 -213t54.5 -212.5t65.5 -209.5t65.5 -207l149 -479l148 -479q12 -41 -3 -70t-42 -39t-57.5 1t-51.5 48l-147 480l-150 479l-68 219q-36 111 -67.5 222.5t-55.5 224t-34 227.5z" />
<glyph unicode="%" horiz-adv-x="1167" d="M1020 1333q29 25 58.5 26t50 -14.5t28.5 -44t-4 -63.5l-241 -354l-215 -327q-103 -163 -200.5 -335t-199.5 -381q-25 -29 -53.5 -35t-51 6.5t-36 38t-6.5 62.5q104 211 203.5 387t203.5 341l218 332zM334 1171q43 2 67.5 -20.5t27.5 -51t-15.5 -55t-61.5 -34.5 q-33 -6 -46 -40t-12 -71t17.5 -62.5t42.5 -15.5q41 16 60.5 52t22.5 72t-8 60.5t-32 16.5l-37 -16q-18 -8 -36 -19q-37 -6 -62.5 7.5t-38 36t-6.5 51t35 53.5q29 14 56.5 29.5t56.5 19.5q63 12 110 -7.5t76 -60.5t40 -95t5 -109.5t-28.5 -105.5t-61.5 -83q-20 -18 -44 -31.5 t-50 -25.5q-23 -10 -48.5 -9.5t-52.5 -1.5q-53 0 -90 29t-58.5 76t-26.5 105.5t6.5 113.5t37 101t68.5 71q16 10 45 14t41 6zM950 567q37 2 61.5 -15t32 -42t-4 -52.5t-44.5 -47.5l-50 -9.5t-42 -25.5q-20 -20 -36.5 -51t-22.5 -65t1 -65.5t34 -52.5q39 29 67.5 75t44 91 t17.5 78t-11 35q-16 4 -32.5 4t-32.5 2q-33 18 -45.5 45t-7 52.5t28 44t59.5 18.5l14 -1q14 -1 32.5 -3t36 -5.5t27.5 -7.5q53 -25 73.5 -77t17.5 -117.5t-26.5 -134t-60.5 -126t-82 -96t-90 -41.5q-76 -4 -126 27t-74.5 82t-25.5 116.5t19.5 130t60.5 120t97 90.5 q6 4 20.5 9t30 8l26.5 5t13 2z" />
<glyph unicode="&#x26;" horiz-adv-x="1300" d="M1305 139q31 -23 40 -50.5t-1.5 -52t-36 -39.5t-62.5 -11q-182 55 -329.5 147t-274.5 240q-55 66 -111.5 142.5t-91.5 154.5q-33 74 -59.5 161t-27.5 173t32 163.5t119 132.5q55 35 113.5 45.5t111.5 -1t97 -42t67.5 -74.5t22.5 -101.5t-35 -122.5q-31 -59 -99.5 -114.5 t-149.5 -107.5l-161 -98q-80 -47 -135 -90q-35 -27 -73 -60.5t-68.5 -73.5t-48 -85t-9.5 -96q18 -106 77.5 -170t140.5 -87.5t172 -10t173 58.5q47 27 92.5 62.5t82 78.5t60 94t30.5 109q4 41 -4.5 82t-12.5 82q6 37 28.5 56t49.5 20t50.5 -15t33.5 -53q6 -51 11 -100.5 t4 -97.5t-14 -95t-46 -94l-56 -84q-28 -43 -69 -74q-104 -80 -221 -136.5t-233.5 -65.5t-227.5 38t-203 174q-61 86 -79.5 165t-3 150.5t58.5 137t101 124t127 108.5l134 93l48 29l86 54.5t98.5 69.5t85 74t43 66.5t-24.5 48.5q-63 35 -115.5 3.5t-81.5 -93.5 q-20 -41 -20 -87t11 -92t30.5 -91t38.5 -82q117 -227 297 -372.5t418 -217.5z" />
<glyph unicode="'" horiz-adv-x="358" d="M147 1290q6 37 29 56.5t49.5 20.5t50 -15.5t33.5 -53.5q0 -6 1 -13t1 -10t-2 4t-4 30q-4 25 -1 21.5t7 -20.5l10 -40q5 -23 7 -37q4 -37 -3.5 -77t-17.5 -75q-25 -92 -67 -179l-86 -173q-25 -29 -53.5 -35t-51 6.5t-36 38t-7.5 62.5l98 200q49 100 62 211 q-6 20 -10.5 37.5t-8.5 40.5z" />
<glyph unicode="(" horiz-adv-x="546" d="M453 1477q37 2 61.5 -15.5t31.5 -42t-4.5 -52.5t-43.5 -48q-29 -6 -71 -49t-82 -106.5t-72.5 -136.5t-45.5 -136q-23 -131 -35 -246t-2.5 -223.5t42 -216t100.5 -225.5l43 -69t38.5 -52.5t44.5 -49.5l56 -63q25 -35 19.5 -66.5t-27 -50t-54 -18.5t-63.5 31 q-145 162 -228 318.5t-115 321t-19.5 345t59.5 387.5q12 55 46 129t83 142.5t109.5 122t128.5 69.5z" />
<glyph unicode=")" horiz-adv-x="516" d="M63 -389q-37 0 -60 17.5t-30.5 42t4 52t43.5 48.5q29 6 71 49t83 104.5t75 134t46 136.5q25 131 38 245.5t5 223t-40 217t-97 227.5q-23 41 -41.5 69.5t-39 53l-43.5 50.5l-57 62q-25 35 -18.5 67t28 50.5t53.5 17.5t62 -32q143 -164 225.5 -320.5t113 -322.5t15 -345 t-64.5 -386q-12 -55 -47 -128t-84 -142.5t-110.5 -123t-129.5 -67.5z" />
<glyph unicode="*" horiz-adv-x="632" d="M47 854q-4 37 11.5 62.5t40 36t52 1t50.5 -40.5q8 -14 8 -15t-3 2t-5 8t0 3l-62 -4l-61 -4q4 6 11 18.5t3 6.5l-6 -11.5l-7 -13.5t-4 -9t-1 1q6 31 22.5 70t35.5 79l38 81l31 71q23 53 38 106l31 105q2 4 0 -5t-4 -13q4 10 5 20t5 21q16 27 40 40t46.5 10t42 -20.5 t29.5 -48.5q2 -152 33 -287t96 -272q12 -41 -3 -69.5t-41.5 -39t-57.5 1t-51 48.5q-72 154 -104 306t-36 318q41 -8 81 -15t81 -18q-41 -147 -90 -294.5t-129 -278.5q-49 -59 -119 -25q-16 14 -26 32zM98 1104q-43 4 -62.5 29.5t-18.5 54.5t23.5 52.5t65.5 25.5 q113 -6 224.5 -31t226.5 -25q37 -10 53.5 -33.5t15.5 -50t-20.5 -49t-56.5 -28.5q-57 0 -112.5 7t-112 17t-113 18.5t-113.5 12.5z" />
<glyph unicode="+" horiz-adv-x="950" d="M471 1206q8 43 34.5 61.5t55.5 15.5t51.5 -27.5t20.5 -67.5q-25 -125 -16.5 -253t18.5 -255l25 -286q13 -142 24 -285q-2 -43 -25.5 -66t-52 -24t-54.5 18.5t-30 62.5q-10 145 -24.5 286.5t-24.5 285.5q-10 135 -18.5 269t16.5 265zM78 598q-37 20 -48.5 51t-1 57.5 t39 42t69.5 3.5q14 -4 43 -3t58.5 3t54 4t31.5 2q162 14 320.5 33.5t320.5 31.5q43 2 67.5 -20.5t27.5 -51t-15.5 -55t-61.5 -34.5q-160 -12 -319.5 -32t-321.5 -34q-66 -4 -132 -10t-132 12z" />
<glyph unicode="," d="M692 68q-29 -33 -60.5 -36t-55 14t-31.5 49t14 69q4 2 5 4t3 4q57 49 121 6q23 -23 34 -51.5t19 -56.5q29 -90 21 -178.5t-42 -171t-87 -158.5t-111 -142q-33 -18 -62.5 -15t-48 21.5t-21.5 48t16 62.5q49 53 93 116.5t70.5 132.5t29.5 142.5t-34 145.5q35 2 68 3t67 1 q-2 -2 -3 -4t-5 -6z" />
<glyph unicode="-" d="M78 598q-37 20 -48.5 51t-1 57.5t39 42t69.5 3.5q14 -4 43 -3t58.5 3t54 4t31.5 2q162 14 320.5 33.5t320.5 31.5q43 2 67.5 -20.5t27.5 -51t-15.5 -55t-61.5 -34.5q-160 -12 -319.5 -32t-321.5 -34q-66 -4 -132 -10t-132 12z" />
<glyph unicode="." horiz-adv-x="692" d="M293 164q6 37 28.5 56.5t49 20.5t50 -15.5t34.5 -53.5q0 -29 3 -57.5t7 -57.5q0 -37 -18.5 -59.5t-44 -27.5t-52 7.5t-45.5 45.5l-8 70q-4 36 -4 71z" />
<glyph unicode="/" d="M897 1405q20 33 48 44t52.5 4t42 -31.5t15.5 -61.5q-29 -88 -71 -168t-79 -166l-254 -570l-266 -569q-25 -29 -53.5 -35t-51 6.5t-36 38t-6.5 62.5l266 568l254 571q35 78 74.5 152.5t64.5 154.5z" />
<glyph unicode="0" horiz-adv-x="995" d="M266 1229q29 25 58.5 25.5t50 -14.5t29 -44t-4.5 -63q-23 -29 -47 -54.5t-43 -58.5q-45 -78 -74.5 -169t-46 -187.5t-17.5 -193.5t11 -185q4 -25 12.5 -57.5t22.5 -63.5t32.5 -58.5t45.5 -42.5q33 -18 78 -20t90 9t85 34t62 51l85 105q36 43 62.5 85t45 92t31.5 126 q8 59 1.5 128.5t-29 139.5t-60 131.5t-89 103.5t-116 55t-142.5 -13q-43 -14 -80.5 -44t-78.5 -55q-37 -23 -59.5 -21.5t-29 18t5 42t44.5 53.5q27 16 44 46l33 59q15 29 34.5 51.5t49.5 24.5q59 4 119 9t113 -20l49.5 -19t49 -19.5t46 -23.5t37.5 -32q37 -41 77 -80t60 -90 q23 -55 49.5 -108.5t28.5 -112.5q6 -121 0 -219t-34.5 -186.5t-84 -171t-145.5 -171.5q-43 -43 -109.5 -78.5t-140.5 -53t-146.5 -11.5t-127.5 47q-45 33 -73 69t-47.5 74.5t-31.5 84.5l-26 96q-25 92 -21 203.5t26.5 226.5t58.5 222.5t73 191.5q18 41 47.5 71.5t56.5 65.5z " />
<glyph unicode="1" horiz-adv-x="905" d="M37 768q-27 27 -31 56.5t9.5 51t41 33t62.5 0.5l18 -12q25 6 64 25.5t82 48t86 63.5t77.5 71t57 69.5t24.5 62.5q23 -23 42.5 -45.5t41.5 -44.5l19 7l18 7q4 4 8.5 9.5t8.5 9.5q6 23 7 20.5t0 -14.5t-4 -28.5t-3 -22.5q0 -248 10 -493t51 -488q0 -37 -18.5 -59.5t-44 -28 t-52 7t-45.5 45.5q-37 233 -46 463.5t-17 466.5q0 37 -2 82t7 83.5t34.5 65.5t77.5 27q72 -20 69 -97q-6 -47 -36.5 -99t-78 -105.5t-106.5 -102.5t-119.5 -88t-119 -62.5t-103.5 -25.5q-27 0 -48.5 14.5t-41.5 26.5zM373 -137q-37 -6 -62.5 7t-38 35.5t-6.5 51.5t35 53 l164 79l129 66l128 65l161 81q41 14 70.5 2t42 -37.5t4 -57.5t-45.5 -54l-160 -81l-128 -66l-129 -65z" />
<glyph unicode="2" horiz-adv-x="1005" d="M254 926q-37 -23 -68.5 -14.5t-49 32t-14.5 55t36 60.5q45 35 113.5 75t144.5 68.5t150.5 36.5t133.5 -18q20 -10 44 -38t34 -38q16 -18 22.5 -41t7.5 -47.5t-2 -50t-7 -45.5q-16 -80 -71.5 -168t-124.5 -176l-138 -168q-70 -82 -115 -150q-55 -84 -90 -113.5 t-29.5 -32.5t57.5 11t173 20q154 8 285 28.5t270 29.5q43 2 67.5 -20.5t27.5 -51.5t-15.5 -55.5t-61.5 -34.5q-166 -10 -331.5 -30.5t-333.5 -37.5q-61 -6 -123 -9t-123 -7q-33 -2 -55.5 7t-44.5 32q-4 4 3 -3l11 -12q-23 25 -30 44.5t-1 52.5q45 86 107 155l123 142 l185 221q93 111 161 235q53 94 57 142.5t-22.5 61.5t-74.5 1t-103.5 -38.5t-106.5 -58.5t-82 -54z" />
<glyph unicode="3" horiz-adv-x="1189" d="M283 1102q-35 -23 -66 -14.5t-47 31t-13 53t33 57.5q27 18 65 24.5t78 6.5t80 -3.5t68 -3.5q66 -2 135.5 7.5t140 17.5t140.5 10t135 -12q55 -14 66 -68q4 -31 -22.5 -69.5t-70.5 -78.5t-99 -80l-102 -73l-85 -56l-47 -30q-37 -27 -73 -57l-73 -64l-25 -21 q-13 -11 -26 -26q-4 -4 -13 -12t-5 -4q4 6 12 14l-29 59q-14 30 -30 58q25 -4 50 0t52 12l52 16q26 7 50 9q223 23 418 -80q70 -37 118 -113.5t64.5 -165t-4 -173.5t-90.5 -138q-135 -104 -270 -156.5t-307 -68.5q-35 -4 -89.5 -4t-112.5 5t-111.5 18.5t-84.5 37.5l-57 46 q-29 24 -51 53q-10 12 -12 22t-5 27q0 37 -4 75.5t9 73.5q31 88 98 146.5t143 99.5q39 14 67.5 2t41 -36.5t4.5 -54.5t-43 -52l-69 -41q-30 -18 -50 -43t-29.5 -56.5t-9.5 -81.5l25 -25q12 -13 28 -24q72 -31 158 -38t174 4.5t172 37t152 60.5q53 27 97 70.5t65.5 95 t14.5 106.5t-56 109q-29 31 -76 54.5t-100.5 38.5t-107.5 20.5t-93 -5.5l-124 -33q-62 -16 -128 -6q-35 20 -45 45t-4 62q10 25 45 59.5t82 73.5t101 79l102 75l86 61q38 27 55 37l34 24l20 16l21 15l33 25q10 10 19.5 18t17.5 19q4 4 9.5 11t0.5 1q-2 -6 -6 -11t-8 -14 q-6 -12 -6 -22t2 -16.5t5 -5.5t3 12q14 -12 26.5 -25.5t28.5 -28.5q-57 12 -121.5 11.5t-131 -8l-132 -15.5t-122.5 -10q-47 -2 -93.5 0t-93.5 -2q-8 0 -22.5 -3l-26.5 -5.5t-18.5 -2.5t0.5 5q12 8 25.5 11t27.5 7q4 2 -1 -1t-9 -7z" />
<glyph unicode="4" horiz-adv-x="937" d="M600 1276q29 25 58.5 26t50 -14.5t28.5 -44.5t-4 -63l-155 -194q-88 -108 -171 -223.5t-150 -235t-91 -230.5q-6 23 -13.5 34t3.5 1q-20 6 -40 11l-42 11q139 20 274 60.5t268 74.5q49 14 97.5 26.5t97.5 23.5q10 2 29 5l38 6q19 3 36.5 5t27.5 2l53 -63q2 -2 2 -7 q-2 -33 -12 -51t-39 -35q-14 -6 -31.5 -8t-33.5 -6q-166 -35 -327 -81t-327 -87q-27 -6 -62.5 -15t-66.5 -11q-35 0 -57 20q-31 31 -36 67.5t4 76.5t27 78l32 69q14 31 28.5 58.5l30.5 55.5l75 125q40 66 81 121l156 208zM604 731q29 25 58.5 26t50 -14.5t29 -44t-4.5 -63.5 q-2 -4 0 7t6 15q2 4 0 -3t-2 -11q-4 -16 -5 -29.5t-3 -29.5l-6 -44q-2 -15 -4 -28.5t-4 -30t-4 -47.5q-12 -113 -9 -220.5t54 -211.5q12 -41 -3.5 -69.5t-42 -39t-57 1t-51.5 48.5q-12 29 -19 42t-12.5 25.5t-9.5 27.5t-10 46q-8 39 -11 130t2 193.5t19 193.5t39 130z" />
<glyph unicode="5" horiz-adv-x="1017" d="M180 1139q-43 4 -62.5 29.5t-18.5 54t23.5 52t65.5 25.5q49 0 125 -1t158 0t156.5 7.5t122.5 18.5q37 2 61.5 -15.5t31.5 -42t-4.5 -52t-43.5 -48.5q-53 -16 -135 -21t-169.5 -7t-171.5 -1t-139 1zM82 1198q-4 43 15.5 68.5t48 32t56 -9t40.5 -56.5q14 -72 12 -143.5 t-6 -143.5t-2 -143.5t24 -140.5q-35 6 -69.5 13t-69.5 13q23 23 43.5 54.5l36.5 54.5q33 43 73 85t84 77.5t94 61.5t105 38q111 25 194 -6t140 -96.5t91 -157.5t47.5 -190.5t8 -196t-25.5 -172.5q-6 -20 -21.5 -49t-32 -55.5l-29.5 -46t-13 -21.5q-25 -41 -65 -68t-85 -43 t-93 -27.5t-89 -19.5q-61 -14 -136 -6t-147.5 32.5t-135 64.5t-101.5 93q-23 33 -39 69l-33 73q-8 18 -8 38.5t4 42t9 43t7 41.5q8 43 35 61.5t55.5 15.5t51 -27.5t20.5 -67.5q-4 -29 -10 -54.5t-2 -54.5q8 -59 49 -100t99.5 -65.5t127 -31.5t136 0t126 30.5t93.5 60.5 q39 41 62.5 110.5t30.5 149.5t-3.5 164t-39 151.5t-77.5 111.5t-121 46q-74 2 -129 -31.5t-101 -85t-86 -110t-83 -101.5q-41 -25 -76 -13.5t-57 52.5q-23 74 -26 146.5t0 146.5t5 146.5t-12 146.5z" />
<glyph unicode="6" horiz-adv-x="991" d="M860 1343q33 12 60.5 5t43 -27.5t14.5 -49t-26 -57.5q-39 -23 -79 -38l-79 -32q-40 -15 -80 -34.5t-77 -46.5q-100 -74 -194.5 -178.5t-159 -225t-87 -253t22.5 -263.5q29 -80 88.5 -106.5t129 -19t138 39t113.5 68.5q53 43 90 97t56 120q14 53 -1.5 88t-49 56.5 t-77.5 28.5t-88 5q-100 -4 -201.5 -49t-166.5 -119q-27 -29 -45.5 -63.5t-40.5 -67.5q-27 -31 -51.5 -29.5t-40 24t-16.5 57t22 71.5q12 18 17 31.5t8 26t8.5 25.5t17.5 30q39 55 94.5 94t117.5 63.5t130 39t129 24.5q90 14 169 -6.5t134 -71.5t81 -127t7 -168 q-10 -45 -33 -86l-43 -82q-23 -41 -55.5 -73.5t-68.5 -61.5q-74 -63 -161 -98t-174 -41t-166 17.5t-137.5 76.5t-91 137t-26.5 201q16 279 151.5 507t356.5 390q49 35 92 60.5t96 41.5q35 14 66.5 22.5t62.5 26.5z" />
<glyph unicode="7" horiz-adv-x="915" d="M12 1278q6 37 31 54.5t50.5 14t45 -23.5t17.5 -59v-13l-21 41l-20 43q27 -16 60.5 -18t62.5 -6q86 -6 154.5 -7t133 6t131 22.5t148.5 39.5q16 8 33 21q33 12 59.5 1.5t41.5 -32t15 -50t-20 -52.5q-25 -23 -47.5 -39.5t-44.5 -40.5q-90 -100 -168 -252t-135.5 -321 t-90 -337t-30.5 -303q-2 -39 -26.5 -59.5t-55.5 -23.5t-57.5 14.5t-30.5 54.5q-4 170 30.5 349t98 353t150.5 336t190 297q29 37 66.5 63.5t74.5 55.5l33 -66q16 -33 37 -65q-156 -94 -340.5 -128t-360.5 -20q-47 6 -100 15.5t-96 36.5q-14 16 -15.5 41.5t-5.5 48.5q0 2 1 3 t1 3v2zM252 567q-37 -6 -61.5 15.5t-31.5 52.5t5 61.5t49 42.5q121 27 239.5 25t241.5 2q31 -10 46.5 -35.5t13.5 -55.5t-19.5 -53.5t-50.5 -29.5q-106 -4 -216 -1t-216 -24z" />
<glyph unicode="8" horiz-adv-x="1128" d="M795 1231q31 -23 31.5 -46.5t-17.5 -42t-52 -29.5t-71 -7q-98 41 -191.5 22.5t-172.5 -96.5q-10 -8 -21.5 -23.5t-20 -33t-9.5 -35.5t12 -33q45 -55 137 -97t196 -81l206 -78q101 -39 167 -88q33 -25 73 -49.5t60 -62.5q18 -33 39 -65t25 -69q10 -90 -28 -161.5 t-107.5 -122.5t-159.5 -85t-183.5 -48.5t-179.5 -11.5t-147 26q-47 16 -99.5 29.5t-93.5 48.5q-37 31 -67 59q-27 25 -51.5 51.5t-28.5 44.5q-14 47 -30.5 93.5t-14.5 93.5q4 106 46 194t106.5 162t143.5 138l152 124q31 25 66 49.5t67.5 52t60.5 59.5t46 69q23 37 54.5 45 t57 -4.5t38 -42t-2.5 -70.5q-37 -78 -99 -138.5t-135 -115.5l-146 -107q-74 -52 -136.5 -114t-104.5 -136.5t-48 -170.5q-4 -55 19.5 -98.5t63.5 -75t89 -52t92 -30.5q70 -16 151.5 -18.5t161.5 13t148.5 53.5t111.5 103q25 37 20 70t-26.5 59.5t-52.5 48t-57 37.5 q-37 23 -103 49l-144 58l-161 63q-82 33 -153.5 70t-123 76t-65.5 82q-41 115 -2 203.5t120 148t187.5 88.5t202.5 20q14 0 35.5 -9l43.5 -19l42 -21z" />
<glyph unicode="9" horiz-adv-x="911" d="M199 -172q-33 -16 -60.5 -10t-43 25.5t-16.5 48t21 59.5q37 25 76 43l79 37q40 18 78 38.5t75 49.5q94 80 183 189.5t146.5 233.5t72.5 258t-36 263q-35 78 -96.5 100.5t-130 11t-135 -47t-109.5 -74.5q-102 -90 -133 -224q-12 -55 5.5 -89.5t52 -53t79.5 -24t88 -0.5 q100 12 198.5 61t160.5 127q25 33 41 67.5t36 69.5q25 33 50.5 33t41 -20.5t18.5 -56.5t-17 -73q-10 -18 -14.5 -32.5t-6.5 -26.5t-6 -25.5t-16 -31.5q-37 -57 -90.5 -98.5t-115 -70t-127 -47t-126.5 -30.5q-90 -20 -170 -4t-137.5 63t-87 121t-17.5 168q8 47 28.5 90 t37.5 84q18 41 51 76t68 63q70 68 154.5 108t170.5 51t166 -7t142.5 -68.5t98.5 -132.5t36 -198q2 -279 -121 -515.5t-334 -410.5q-47 -37 -88 -65.5t-92 -47.5q-35 -16 -67.5 -25.5t-61.5 -29.5z" />
<glyph unicode=":" d="M596 954q23 37 54.5 45.5t57 -4t38 -42t-2.5 -70.5q-2 -4 -4 -10.5t-2 -2.5q-2 6 1 10.5t5 8.5q2 18 3.5 13t2.5 -17.5t1 -26.5v-16q-2 -43 -26 -65.5t-52.5 -23.5t-54 18.5t-29.5 62.5q0 35 -4 63t12 57zM598 152q-4 37 11.5 62.5t40 35.5t52 1t50.5 -40 q10 -27 14 -53.5t6 -55.5q-2 -43 -25.5 -65.5t-52 -23.5t-54.5 18.5t-30 62.5q-2 10 -2 17.5t-2 15.5v12l6 -23q4 -15 -2 -10q-8 8 -8 22t-4 24z" />
<glyph unicode=";" d="M496 868q-4 37 11 62.5t39.5 36t52.5 1t50 -39.5q14 -39 11 -72t-9 -74q-12 -35 -37.5 -50t-51 -12t-47 23.5t-26.5 57.5l5 24l4 23q2 4 2 12zM551 63q-16 33 -10 62t25.5 45t49 17t60.5 -19q18 -20 39.5 -39.5t32.5 -46.5q33 -82 26.5 -160t-37 -150.5t-78.5 -142.5 l-92 -133q-29 -33 -60.5 -36t-55 14.5t-31.5 49.5t14 68l63 86q38 53 69.5 111.5t46 117t-12.5 101.5q-10 16 -23.5 28.5t-25.5 26.5z" />
<glyph unicode="&#x3c;" horiz-adv-x="1058" d="M918 1126q37 2 61.5 -15t31.5 -42t-4.5 -52.5t-43.5 -47.5q-86 -20 -163 -72.5t-153 -97.5q-66 -39 -134 -74l-136 -72l-93 -50q-34 -17 -53.5 -28.5l-27.5 -16.5t-17 -13l11.5 51.5t9.5 48.5q4 -4 8 -9t0 -3l-39 39q-2 2 4 0t16 -7l18 -11q9 -5 15 -9l102 -53l101 -53 l327 -169q161 -85 312 -196q20 -31 19.5 -60.5t-17 -49t-45.5 -25.5t-61 10q-141 102 -291 181l-303 157l-64 29l-94 45q-49 25 -91 51.5t-56 48.5q-14 29 -13.5 51.5t17.5 49.5q31 31 65.5 48t69.5 38l170 92l170 90q92 51 180.5 110t190.5 86z" />
<glyph unicode="=" horiz-adv-x="1236" d="M133 829q-43 4 -62.5 29t-18.5 54.5t23.5 53t65.5 25.5q111 -16 245 -20t272 -4h273q134 0 245 -6q37 -10 53 -34t15 -50.5t-20.5 -49t-56.5 -28.5q-113 -6 -246 -5t-270 5t-271 12t-247 18zM133 471q-43 4 -62.5 28.5t-18.5 54.5t23.5 53.5t65.5 25.5q111 -16 245 -20.5 t272 -4.5h273q134 0 245 -6q37 -10 53 -33.5t15 -50t-20.5 -49.5t-56.5 -29q-113 -6 -246 -5t-270 5t-271 12.5t-247 18.5z" />
<glyph unicode="&#x3e;" horiz-adv-x="1017" d="M203 1126q102 -27 190 -86t180 -110l170 -90l170 -92q35 -20 70 -38t66 -48q16 -27 17 -49.5t-13 -51.5q-14 -23 -56.5 -49.5t-91.5 -50.5l-94 -45l-63 -29l-304 -157q-150 -79 -290 -181q-35 -16 -63 -10t-44 25.5t-17 49t19 60.5q152 111 312 196l327 169l102 53 l101 53q12 8 33.5 19.5t19.5 7.5l-39 -39q-4 -2 0 3t8 9q4 -25 9.5 -49.5l11.5 -50.5q-8 8 -16.5 13l-28 16.5t-52.5 28.5l-94 50l-136 72q-69 35 -134 74q-76 45 -152.5 97t-162.5 73q-33 20 -44.5 47.5t-4 52.5t32 42t61.5 15z" />
<glyph unicode="?" horiz-adv-x="962" d="M313 1073q35 -25 41 -56.5t-8 -57t-45 -36t-70 8.5q-4 4 -13 8t-5 2q20 -8 29 -14q4 -4 -9.5 3t-42.5 17q-27 12 -54 28.5t-46 41.5q-53 72 -57 140.5t55 139.5q33 37 91.5 68t131 51.5t152.5 29.5t154.5 4t137 -25.5t101.5 -57.5q47 -47 61.5 -96t6 -97.5t-34 -96.5 t-58.5 -95q-23 -33 -61 -76l-85 -91l-93 -99q-47 -51 -86 -101.5t-64.5 -97.5t-25.5 -86q0 -16 8 -31.5t12 -31.5q12 -41 -3 -70t-41.5 -39t-57.5 1t-51 48q0 2 -5 18l-12 34q-6 19 -11 41t-5 34q2 78 40 150.5t90 138.5t111.5 124t106.5 112q14 16 44 45.5t58.5 65.5t48 72 t15.5 66q-2 16 -13.5 27.5t-26.5 20t-30.5 12.5t-25.5 6q-43 10 -114 11t-141.5 -11t-129 -40t-80.5 -75q6 -12 11 -24.5t11 -24.5l45.5 -19.5t42.5 -19.5zM358 133q6 37 29 56.5t49.5 20.5t50 -15.5t33.5 -53.5q2 -27 0 -25.5t-3 9.5t-1 13t6 -13q8 -10 15.5 -17.5 t15.5 -17.5q25 -35 19.5 -66.5t-27 -50t-54 -18.5t-63.5 31q-31 35 -48.5 67.5t-21.5 79.5z" />
<glyph unicode="@" horiz-adv-x="2213" d="M1405 1030q20 -31 19 -60.5t-17 -49t-45 -25.5t-62 10q-20 14 -49.5 16.5t-60.5 -4t-58.5 -17.5t-44.5 -19q-66 -35 -116.5 -90.5t-87.5 -123t-61.5 -141t-33.5 -143.5q-4 -29 -3 -61.5t9.5 -63.5t29 -53.5t57.5 -28.5q61 -10 113.5 10.5t97.5 62.5t81.5 97t65.5 114.5 t49.5 116t32.5 101.5q20 68 29.5 136.5t11.5 137.5q0 6 -2 21.5t-2 28t2 16.5t8 -12q35 2 68.5 3t68.5 3q-16 -18 -24 -45t-13.5 -55.5t-9.5 -57.5t-8 -53q-12 -68 -27.5 -139.5t-22.5 -145.5t-1 -145.5t39 -139.5q10 -16 28.5 -23t34.5 -18q29 6 56.5 9.5t52.5 15.5 q104 55 189 144.5t145.5 197t92 227t29.5 234.5q0 43 -5 90t-17 93t-34.5 86t-59.5 69q-49 39 -115 59.5t-135.5 28.5t-137 6t-122.5 -8q-147 -16 -282.5 -70.5t-260.5 -132.5q-125 -80 -236.5 -183.5t-200.5 -226t-152.5 -261t-90.5 -285.5q-18 -100 -19 -200.5t26.5 -189 t92 -156t175.5 -102.5q113 -35 232.5 -33.5t239 26t233.5 67.5t214 94q47 25 87 58l81 67q6 4 -2 -3l-19 -16l-21 -17q-9 -7 -3 -3l144 121q71 59 153 106q41 14 70.5 2t42 -37.5t4 -57.5t-44.5 -54q-55 -33 -106 -75l-100 -85l-103 -84q-52 -41 -111 -69 q-127 -61 -288 -114.5t-328 -75t-327.5 3t-289.5 118.5q-43 33 -74 77t-65 85q-18 25 -29.5 52.5t-18 58t-10.5 62.5t-12 60q-20 86 -13 180.5t33 178.5l43 150q20 75 52 147q61 135 163.5 280.5t231.5 271.5t275.5 221t291.5 132l151 39l148 35q68 16 154 17t174 -14.5 t169 -46t140 -79.5q78 -61 120 -167t53 -224.5t-4 -233.5t-54 -194l-58 -120l-33 -72q-13 -28 -24.5 -45t-31.5 -41l-50 -59l-82 -100q-23 -27 -36 -40t-31 -25l-46 -30q-28 -17 -77 -52q-90 -63 -177 -59t-155 55t-105.5 137t-27.5 184q10 94 21.5 187.5l23.5 185.5 q4 37 10 83t16.5 94t26 90t37.5 71q57 49 121 4q25 -31 33 -76t7 -93t-9 -95l-15 -80q-10 -57 -31.5 -133t-54 -157t-77 -159.5t-97.5 -142t-116.5 -105.5t-135.5 -49q-47 -4 -81.5 -6t-66.5 3.5t-64.5 19.5t-71.5 43q-35 25 -54.5 69t-27.5 93t-7 97t9 85 q29 119 69.5 225.5t104 192.5t155 147.5t218.5 89.5q61 14 119.5 0t107.5 -49z" />
<glyph unicode="A" horiz-adv-x="1783" d="M342 -137q-8 -27 -36 -35q-15 -4 -31 -4q-14 0 -30 3q-34 7 -72 25.5t-67.5 43t-47.5 53.5q-13 21 -12 42q0 7 1 15q16 57 44 108.5t44 108.5q94 311 205 608l233 596q33 52 76 52q28 0 60 -23q18 -20 26 -46t13.5 -53.5t9.5 -55t10 -52.5l29 -94q12 -39 27.5 -76 t34 -75.5t46.5 -90.5q147 -272 353 -498.5t448 -414.5q20 -29 19 -58q0 -31 -17 -52q-16 -19 -45 -25t-61 10q-258 201 -464 437.5t-374 516.5q-53 90 -88 180.5t-64 188.5q-2 6 -5 25.5t-8 42t-9 43.5l-6 30q-2 10 -8.5 18.5t-0.5 14.5t8.5 -7t6.5 -22q2 -2 -1 2.5t-5 6.5 q18 0 43.5 -38t52.5 -83t52.5 -83t41.5 -38zM174 348q-1 8 -1 15q0 27 12 48q15 26 40 36t52.5 0.5t50.5 -39.5q2 -4 5 -13.5t5 -14.5t-1 -1t-15 27q-2 4 2 -1.5t6 -9.5l-26 13l-25 12q4 0 12 1t4 -1q-12 -4 -25.5 -6t-29.5 -4q-6 -2 6 3t18 9q33 27 72 35q53 12 110.5 18 t110.5 14l411 67l410 62q4 0 7 1q38 0 61 -21q28 -26 28 -59q0 -24 -16 -47q-18 -27 -61 -35q-258 -39 -513 -82t-515 -78q-46 -37 -89 -37q-12 0 -24 3q-53 13 -82 85z" />
<glyph unicode="B" horiz-adv-x="1396" d="M117 1135q-37 -6 -62.5 7t-38 35.5t-6.5 51t35 53.5q72 33 150.5 61.5t158.5 44.5q67 13 134 12h27q81 -3 159 -32q45 -16 88 -42t73.5 -61.5t46.5 -79.5q9 -26 9 -57q0 -20 -4 -43q-16 -78 -81 -145.5t-149 -125.5t-174 -104l-155 -79q-16 37 -35 74l-37 73 q109 47 217.5 88t222.5 64q90 16 176 20q22 1 44 1q65 0 131 -9q96 -12 166.5 -55t115.5 -106.5t66.5 -142.5t21.5 -162t-21.5 -165t-62.5 -153q-57 -98 -145 -179t-195 -129q-109 -47 -242 -58q-42 -4 -85 -3q-92 0 -182 16q-132 25 -248.5 86.5t-192.5 159.5 q-18 25 -25.5 57.5t-17.5 61.5q-1 8 -1 15q0 27 12 47q15 26 40 36.5t52.5 1t50.5 -40.5q18 -51 37.5 -88t47 -63.5t68.5 -47t101 -38.5q82 -25 173 -34q41 -4 81 -4q49 0 98 6q88 11 169 44t146 94q57 53 106.5 133t68.5 167q11 47 11 94q0 39 -8 77q-16 84 -90 148 q-41 37 -95 53t-112 20q-19 1 -38 1q-38 0 -77 -5q-58 -6 -108 -16q-102 -18 -206.5 -55t-196.5 -84q-37 -6 -62.5 6t-38 35.5t-6.5 52.5t35 53l73 39l94 50l100 58.5t92 63.5t71 64.5t35 62.5t-14.5 52.5t-51 33.5t-63.5 18.5t-51 8.5q-40 6 -78 5q-74 0 -141 -21 q-103 -31 -207 -78zM174 1307q23 37 79 54q48 15 95 15q8 0 17 -1q55 -3 92 -24q27 -15 26 -41q0 -10 -4 -22q-14 -29 -24.5 -68.5t-16.5 -81.5t-10 -82t-4 -71q0 -195 34 -395.5t109 -380.5l28 -68l37 -90l37 -90l27 -67q3 -9 3 -18q0 -28 -31 -42q-37 -17 -87 -16h-12 q-57 2 -113.5 23.5t-76.5 58.5q-29 76 -67 144.5t-64 145.5q-70 199 -96 406q-20 158 -21 318q0 49 2 98q4 78 5 151.5t36 143.5z" />
<glyph unicode="C" horiz-adv-x="1443" d="M1122 975q-14 -41 -43.5 -54.5t-57.5 -5t-46 35.5q-13 19 -13 45q0 11 3 24q8 39 25.5 74.5t39 69.5t45 67t41.5 65q-109 -6 -191.5 -16t-150 -40t-125 -86t-114.5 -155q-35 -59 -58.5 -148t-27.5 -184q-1 -15 -1 -31q0 -79 18 -154q22 -89 77 -148q39 -41 73.5 -60.5 t71.5 -22.5q8 -1 16 -1q30 0 62 9q41 11 90 30q111 41 181.5 69.5t127 61.5t113.5 76t141 114q21 7 40 8q12 0 24 -4q29 -8 44 -28q14 -19 14 -47q0 -32 -25 -62q-92 -78 -201 -151.5t-228.5 -133t-245.5 -97.5t-249 -42q-61 -2 -101 -2t-74 5t-70 15.5l-93 28.5 q-35 14 -64.5 41t-60.5 49q-61 49 -92 126t-38 162q-3 30 -3 60q0 55 9 110q13 85 40 151q53 133 144.5 237.5t206 182t245.5 130t266 81.5q33 8 89.5 19t115.5 14q10 1 21 1q48 0 89 -12q50 -14 70 -57q13 -28 14 -57q0 -24 -10 -49q-20 -54 -56 -108l-73 -107 q-37 -52 -45 -99z" />
<glyph unicode="D" horiz-adv-x="1564" d="M590 1047q-13 -145 -14 -271q0 -9 1 -18q1 -133 16 -261t46 -258t78 -280l-73 10q-44 6 -95 11.5t-101.5 9.5t-87.5 6q-49 160 -71.5 309.5t-26.5 297.5q-1 42 -1 85q0 107 7 216q10 153 25 319zM35 1384q-31 31 -31 64t18.5 54.5t50.5 26.5q5 1 11 1q27 0 55 -21 q72 -55 148 -98l153 -88l269 -151q145 -81 285.5 -176t262 -204.5t197.5 -232.5q68 -109 90 -215q10 -48 10 -93q0 -55 -15 -107q-28 -93 -105.5 -166.5t-212.5 -116.5t-277 -59q-92 -10 -185 -10q-49 0 -99 3q-142 8 -282 37t-274 74q-37 20 -48 51t-0.5 57.5t38.5 41.5 q16 9 36 9q16 0 34 -6q37 -12 84 -20t76 -31q4 -4 -3.5 -2l-15.5 4t-15 4t-3 2q190 -37 372 -49q58 -4 115 -4q123 0 242 19q283 45 355 184q22 43 22 93q0 113 -113 265q-78 104 -189.5 196.5t-236.5 173.5t-254 153l-242 135l-167 95q-80 48 -156 107z" />
<glyph unicode="E" horiz-adv-x="1077" d="M903 1444h7q38 0 61 -21q25 -23 27.5 -51.5t-15.5 -55t-61 -34.5q-70 -12 -129 -28l-117 -30q-57 -15 -117.5 -28.5t-130.5 -24.5q-16 -4 -41 -5t-35 -23q-23 -49 -30 -128q-7 -63 -7 -130v-34q2 -85 9 -166l10 -136q2 -27 7 -79t14.5 -107.5t23.5 -103.5t35 -64 q8 -6 26.5 -3t37 9t32.5 12l14 6l111 48l86 36l86 35l111 43q22 8 40 8q16 0 30 -6q30 -12 42 -38q7 -15 8 -33q0 -12 -4 -24q-8 -32 -45 -55l-166 -60q-84 -30 -166 -64q-53 -25 -113.5 -57t-123 -56.5t-126.5 -33.5q-20 -3 -40 -3q-44 0 -88 14q-39 12 -63.5 52.5 t-40 93.5t-22.5 114.5t-10 120t-4 106.5t-3 75q-6 84 -13.5 166.5t-9.5 166.5q0 35 -2 83q-1 16 -1 33q0 33 3 67q4 51 16.5 97t38.5 77q33 39 72 56t80 24.5t85 9.5t91 10q133 25 260 60.5t260 58.5zM170 557q-13 -3 -24 -2q-26 0 -45 12q-28 18 -35 46q-3 11 -4 22 q0 18 9 36q13 30 54 44q68 20 135 37l135 31q68 15 135.5 34t133.5 43q22 8 40 8q16 0 30 -6q30 -12 42 -38q7 -15 8 -33q0 -12 -4 -24q-8 -32 -45 -54q-137 -53 -280.5 -82t-284.5 -74z" />
<glyph unicode="F" horiz-adv-x="976" d="M258 1339q-2 -43 -23.5 -75.5t-48 -46t-50 -3t-27.5 53.5q0 14 -3 20q20 -2 65 -7l93 -11q49 -6 93 -12.5t65 -8.5q-6 -51 -6 -104q0 -93 18 -192q29 -155 82 -308t123 -298.5t135 -266.5q2 -7 2 -14q0 -25 -30 -42q-38 -22 -92 -28q-20 -2 -41 -2q-34 0 -69 6 q-56 10 -83 37q-72 131 -143.5 284.5t-124 316.5t-78.5 328q-16 97 -16 191q0 65 7 129q8 37 45 54q34 16 74 17h4q43 -1 80 -19.5t47 -55.5l4 -49zM98 1260q-28 -16 -54 -16h-8q-30 3 -48 22q-22 22 -22 56q0 26 16 54q6 6 14 19q20 16 34.5 21t39.5 5q59 -4 120.5 -21.5 t120.5 -29.5q78 -14 173.5 -19t193.5 -5t192.5 4t173.5 10h9q37 0 59 -18q29 -23 30 -54q0 -21 -15 -41q-17 -25 -60 -33l-161 -13q-89 -7 -181 -12t-181 -5t-161 10q-51 8 -105 18l-108 21l-53 12l-56 12q-4 2 -10 3.5t-2 1.5q10 0 31 -5q4 0 -5 1.5t-16 1.5l36 20l36 20 l-15.5 -20t-17.5 -20zM186 735q-33 18 -45 45q-9 19 -8 37q0 8 1 16q5 26 27.5 44t59.5 18q41 -9 83 -9h8q46 1 90 8t90 18l90 22h7q32 0 54 -15q25 -17 32 -42q3 -10 3 -20q0 -16 -7 -33q-11 -28 -44 -48l-110 -24q-54 -12 -108.5 -20.5t-110 -8.5t-112.5 12z" />
<glyph unicode="G" horiz-adv-x="1191" d="M909 993q10 -35 -1 -62.5t-32.5 -40.5t-51 -9t-56.5 30q-24 41 -24 83q0 43 17 89q15 43 37.5 84t41.5 82q-41 -8 -83 -31.5t-77 -48.5q-94 -63 -175 -143t-126 -176q-40 -86 -41 -186q0 -11 1 -23q5 -113 83 -242q53 -88 115.5 -133t124.5 -49h12q55 0 108 32 q59 36 107 111q33 55 33 106q0 39 -17 62q-18 27 -50 28h-2q-31 0 -65 -38q-28 -16 -53 -16q-4 0 -9 1q-30 3 -48 21q-22 22 -22 57q0 26 16 54q66 70 145 79q17 2 33 2q61 0 114 -28q67 -35 105 -105q26 -48 26 -106q0 -27 -5 -57q-23 -117 -103 -206t-187.5 -142.5 t-230.5 -66.5q-35 -4 -69 -4q-84 0 -160 24q-86 27 -137 71.5t-109 112.5q-31 39 -50 91t-24 101l-4 73q-4 72 -4 78q0 109 57 217q58 112 144 212t186.5 183t184.5 139q33 23 80 50t98 47.5t102 27.5q13 2 26 2q36 0 66 -15q49 -23 61 -60q7 -22 6 -46q0 -17 -3 -35 q-8 -43 -28.5 -86l-35.5 -76l-9 -16q-9 -16 -18 -37t-16.5 -40.5t-3.5 -25.5zM641 449q-13 -3 -24 -3q-26 0 -45 13q-28 18 -35 46q-3 11 -4 21q0 18 9 36q13 30 54 44q43 23 83 49.5t81 49.5q113 61 230.5 107t240.5 83h7q32 0 54 -15q25 -17 32 -42q3 -10 3 -20 q0 -16 -7 -33q-11 -28 -44 -48q-111 -33 -227.5 -72.5t-214.5 -105.5l-93 -61q-45 -31 -100 -49z" />
<glyph unicode="H" horiz-adv-x="1021" d="M51 1313q20 33 66 44q28 7 56 7q18 0 36 -3q47 -7 82 -31q33 -22 33 -56q0 -8 -11 -155l-10 -150q-1 -29 -1 -58q0 -220 70 -417q79 -223 232 -418q12 -17 12 -35t-13 -37q-26 -37 -73 -60.5t-100 -27.5h-12q-45 0 -72 27q-88 111 -150.5 237.5t-103.5 264t-59 280.5 q-17 129 -17 256v29zM848 1255q-25 -29 -53.5 -35t-51 6.5t-36 38t-7.5 62.5q8 18 10.5 15t0.5 -9t-4 -8t-2 16q6 37 28.5 56.5t48.5 20.5h3q25 0 48 -15q24 -16 33 -53q0 -176 4 -338t22.5 -319.5t58.5 -315.5t112 -324q5 -18 5 -34q0 -20 -8 -35q-15 -29 -42 -39 q-13 -5 -26 -5q-15 0 -31 6q-31 11 -52 48q-74 172 -115.5 336t-61 328.5t-23.5 332.5t-4 350q6 37 28.5 56.5t48.5 20.5h3q25 0 48 -15q24 -16 33 -53q0 -29 -3 -48.5t-15 -46.5zM190 561q-12 -2 -22 -2q-23 0 -40 9q-26 13 -38 36q-8 15 -8 33q0 9 2 18q6 29 35 54 q74 31 154.5 43t163.5 13h33l133 -3l161 -8q37 -10 53 -34q15 -22 16 -47q0 -28 -21 -52q-19 -23 -56 -29q-68 2 -139.5 7t-145.5 5t-146 -9t-135 -34z" />
<glyph unicode="I" horiz-adv-x="450" d="M66 1264q20 33 60 44q26 7 52 7l28 -2q40 -6 69.5 -29.5t27.5 -60.5q0 -158 4 -298.5t25.5 -274.5t65.5 -266t122 -273q3 -10 3 -20q0 -23 -17 -44q-25 -29 -63 -42q-31 -11 -65 -11q-8 0 -16 1q-43 3 -69 30q-86 156 -134 303t-69.5 297.5t-24.5 307.5l-2 137 q1 95 3 194zM59 1671q20 33 62 42q20 5 41 5l41 -5q41 -9 71.5 -35.5t28.5 -63.5q-16 -33 -17 -81q0 -10 -1 -19q0 -36 4 -64q0 -37 -31 -53q-27 -15 -62 -15h-9q-40 2 -78.5 20.5t-57.5 51.5q-9 67 -9 116t17 101z" />
<glyph unicode="J" horiz-adv-x="1099" d="M303 1223q-43 4 -62.5 29.5t-18.5 54t23.5 52t65.5 25.5q87 -8 173 -7q91 0 181 8q173 17 351 47h7q38 0 60 -21q25 -23 28 -51.5t-15.5 -55t-61.5 -34.5q-182 -29 -363 -46q-93 -9 -188 -9q-90 0 -180 8zM756 1360q16 -12 49 -69.5t75 -140.5t87 -183l88 -199l78 -185 l55 -143l35 -100q20 -59 29 -122q5 -31 5 -61t-5 -59q-9 -57 -52 -94q-20 -16 -63 -24.5t-96.5 -8.5t-112 5.5t-112.5 12.5t-97 14t-66 13l-82 21l-82 20l-114.5 34t-140 48.5t-133 66.5t-94.5 85q-25 37 -25 82q0 12 2 24q8 59 77 131q33 35 70 62l72 53q21 7 39 7 q12 0 24 -3q29 -8 44.5 -28.5t14.5 -50t-26 -58.5l-40 -26q-24 -15 -46.5 -32.5t-39.5 -38t-21 -42.5q25 -25 81 -52.5t127.5 -53t151.5 -45t152 -30.5q60 -9 109 -8h20q57 2 84 23q12 31 14 71q1 10 0 21q0 31 -4 62q-6 42 -17.5 81t-23.5 64l-92 193l-101 212l-91 206 q-42 99 -62 173q4 25 12 38t27 30q12 6 43.5 10t65.5 4t65 -3t43 -7z" />
<glyph unicode="K" horiz-adv-x="1134" d="M8 1334q0 38 33 67q37 33 85 48q30 10 59 10q17 0 33 -4q44 -9 56 -50q9 -41 9 -86v-19q-2 -55 -7.5 -112.5l-11.5 -116.5q-4 -36 -3 -70q0 -23 1 -45q16 -244 105.5 -480t214.5 -445q2 -8 2 -16q0 -27 -26 -53q-34 -34 -84 -54.5t-102 -22.5h-8q-47 0 -71 25 q-117 197 -191.5 403.5t-95.5 436.5q-7 98 -7 191v24q1 104 5 215v34v49v50q0 25 2 41q0 2 1 -3t1 -12v-12v3v4zM131 588q-33 18 -45 45q-9 19 -9 37q0 8 2 15q5 26 27.5 44.5t59.5 18.5q18 -2 41.5 12t45 33.5t39.5 37.5l25 27q127 131 238 276.5t190 307.5q23 37 55 45 q13 3 24 3q18 0 33 -7q26 -12 38 -42q6 -14 6 -30q0 -19 -8 -41q-86 -174 -205 -330.5t-254 -296.5l-70 -72q-32 -32 -66 -52.5t-74 -28.5q-23 -5 -50 -5q-20 0 -43 3zM410 713q-37 20 -49 51q-6 16 -5 31q0 14 4 26q10 27 39 42q16 9 36 9q16 0 34 -6q20 -6 40.5 -27.5 t38 -48t32 -51l22.5 -37.5l76 -107l74 -108q94 -131 198.5 -240.5t239.5 -195.5q35 -25 41 -56q2 -10 2 -19q0 -21 -10 -38q-14 -26 -45 -36q-11 -4 -23 -4q-22 0 -47 12q-104 66 -189 144.5t-160 165.5t-144 182l-138 196l-38 52l-38 52q-8 16 -12 23q-2 4 -8 11t-2 3 l22 -17q13 -9 9 -9z" />
<glyph unicode="L" horiz-adv-x="956" d="M209 1262q6 37 47 55t90 18t91 -18.5t52 -54.5q-8 -303 -50 -589t-120 -579q-14 -41 -65 -53q-28 -7 -57 -7q-24 0 -49 5q-54 10 -94 39q-33 24 -33 56q0 7 2 13q74 279 126 553.5t60 561.5zM35 16q-31 31 -31 64t18.5 54.5t50.5 26.5q5 1 11 1q27 0 55 -21q8 -6 1 -5 t-20 5l-29 10q-15 5 -23 9q-4 2 6 1t14 -1l32 5q19 3 30 5q47 10 89 17.5t89 11.5q57 3 114 3q228 0 451 -46q41 -12 56 -40q11 -20 11 -40q0 -8 -2 -17q-6 -29 -31 -48q-21 -16 -54 -16q-7 0 -15 1q-147 29 -289 30h-21q-131 0 -272 -12q-25 -4 -56.5 -11t-64.5 -10 q-14 -1 -29 -1q-19 0 -37 2q-31 4 -54 22z" />
<glyph unicode="M" horiz-adv-x="1519" d="M324 -115q-10 -41 -63 -53q-28 -7 -58 -7q-25 0 -51 5q-57 10 -101 40q-35 24 -35 55q0 7 2 16l129 1319q6 27 33 24.5t61.5 -25t72.5 -58.5t69 -77t48 -81q13 -30 13 -51q0 -8 -2 -15zM158 1196q-15 24 -15 45q0 12 4 23q12 31 39 46t60 10t55 -42l594 -999 q13 -24 13 -46q0 -12 -4 -23q-11 -32 -37.5 -47.5t-60.5 -9t-54 43.5zM893 201q-23 -37 -55.5 -43t-59 9t-39.5 47q-4 11 -4 23q0 22 15 46l190 1106q20 37 54 42t60.5 -10.5t38.5 -46.5q4 -11 4 -22q0 -21 -14 -45zM942 1311q-15 24 -14 45q0 12 4 22q12 31 39 46 q20 12 43 12q8 0 16 -1q33 -5 55 -42l551 -1547q13 -23 13 -43q0 -12 -4 -24q-12 -31 -40 -46q-20 -11 -43 -11q-9 0 -18 2q-33 6 -51 40z" />
<glyph unicode="N" horiz-adv-x="1169" d="M461 256q0 -37 -38 -68.5t-86 -49.5q-41 -15 -80 -15q-7 0 -14 1q-46 3 -65 36q-29 180 -79 351t-111 343q-4 29 23.5 59.5t65.5 55t80 38.5q26 8 46 8q12 0 22 -3q25 -10 69 -53.5t88 -93.5l81 -95l49 -59l83 -94l47 -53l41 -44l65 -69l119 -128l120 -128 q16 -14 28.5 -29.5t28.5 -30.5q4 -4 12.5 -5t4.5 -3q-14 -4 -27.5 -7t-29.5 -3q-4 0 -1 3t8 6t9 4t2 -1q-6 -14 -14.5 -29.5t-24.5 -19.5q-8 -2 -5 6t9 19l13 24q7 12 8 21v12q0 30 -8.5 58t-8.5 57v12q2 63 2 114v107q0 55 -1 125t-3 172l-8 288q-1 26 -1 51q0 117 15 234 q8 43 35 62q23 16 47 16q4 0 8 -1q29 -3 51.5 -27.5t20.5 -67.5q-16 -123 -16 -249q0 -21 1 -42q1 -63 1 -126q0 -84 -2 -169q2 -86 5 -158l6 -138q3 -67 7 -132t10 -137q2 -20 2 -40q0 -46 -10 -89q-18 -80 -55 -104q-23 -15 -49 -14q-16 0 -34 5q-46 14 -95 54t-94.5 86.5 t-79.5 88.5l-52 60l-79 86l-80 86l-156 174l-78 88l-80 86q-12 14 -23 30l-24 32q-4 4 -8 9t-10 9q-2 4 -8 8t-2 2q8 -4 15 -7t13 -9q4 -4 -5 1t-13 7l49 58l49 57q12 -35 28.5 -69t28.5 -68q20 -57 34 -116.5t30 -119.5q2 -6 -1 3t-6 21.5l-5 21.5t0 3q35 -96 54.5 -196.5 t35.5 -198.5z" />
<glyph unicode="O" horiz-adv-x="1202" d="M741 1196q-37 -14 -67.5 -33.5t-60 -50.5t-57.5 -74t-58 -104q-37 -74 -60.5 -133.5t-39 -118.5t-23.5 -124.5t-15 -147.5q10 -53 33 -98.5t53.5 -74t68.5 -36.5q11 -2 22 -3q28 0 59 15q92 45 178 115.5t152.5 158.5t107.5 189.5t41 210.5q0 41 -16.5 84t-40.5 76 q-51 70 -102.5 104.5t-105.5 38.5q-8 1 -17 1q-47 0 -98 -20q-60 -23 -130 -65q-37 -6 -62.5 7t-37.5 35.5t-6 51.5t35 53q94 57 181 83q60 18 118 18q26 0 51 -3q82 -11 156.5 -59.5t142.5 -140.5q41 -53 67.5 -121.5t28.5 -136.5v-18q0 -122 -51 -243 q-55 -130 -145.5 -244t-203 -206t-223.5 -147q-51 -25 -111.5 -46.5t-122.5 -32.5q-46 -8 -92 -8l-33 1q-62 4 -118 31q-74 35 -119 93t-67.5 128.5t-25.5 149.5q-1 16 0 32q0 63 10 126q12 79 34.5 151.5t53.5 132.5q59 117 139 222t180 187q35 29 109.5 67t159.5 65.5 t165 32.5q9 1 18 1q67 0 107 -35z" />
<glyph unicode="P" d="M412 1217q-12 -74 -12 -147q0 -76 13 -149q26 -144 83 -282.5t139 -269.5t170 -254q10 -14 10 -30q0 -22 -20 -47q-35 -42 -92.5 -73t-119.5 -40q-14 -2 -27 -2q-42 0 -67 24q-88 123 -153.5 260t-109.5 282.5t-65 295.5q-20 137 -20 276v26zM90 1032q-25 -29 -53.5 -35 t-51 6.5t-35.5 37.5q-9 18 -9 41q0 11 2 22q33 63 111.5 119.5t174 96.5t190.5 62q81 19 140 19h21q68 -4 133 -18.5t125 -45.5q106 -51 166.5 -122.5t75.5 -153.5q5 -27 5 -54q0 -57 -21 -117q-32 -89 -112 -173q-59 -63 -131.5 -112.5t-150.5 -94.5l-428 -172 q-13 -3 -24 -3q-26 0 -45 13q-28 18 -36 46t5.5 57.5t54.5 44.5q154 41 294 106.5t269 159.5q29 20 59.5 49t55 61.5t38.5 69.5q11 29 12 59q0 9 -1 17q-4 41 -27 72.5t-55.5 56t-70.5 42t-73 28.5q-54 20 -116 20q-13 0 -26 -1q-77 -5 -157 -30.5t-156.5 -66.5t-142.5 -88 q-4 -4 -5 -9.5t-5 -9.5z" />
<glyph unicode="Q" horiz-adv-x="1284" d="M813 1235q16 -25 16 -49q0 -6 -1 -12q-5 -31 -26.5 -53.5t-53.5 -30.5q-11 -3 -22 -3l-44 11q-8 8 5 10t31 2h30q12 0 4 6q-15 10 -34 11q-14 0 -30 -7q-37 -14 -71.5 -40.5t-62.5 -58.5t-38 -48q-49 -78 -74.5 -133.5t-36 -110.5t-11.5 -121v-47q0 -51 1 -117 q0 -29 18.5 -78t61.5 -84.5t117 -36.5h2q73 0 182 66q102 66 186.5 158t139.5 199q37 72 55 151q10 44 10 83q0 32 -7 62q-15 65 -73 101q-43 28 -117 28q-25 0 -52 -3q-78 -10 -154 -35t-154 -47q-12 -2 -22 -3q-26 0 -45 15q-27 20 -35 50t6 61.5t55 46.5q45 12 88 27.5 t87 27.5t89 19q24 4 48 4q21 0 43 -3q59 -8 122.5 -11t116.5 -30q86 -41 126 -118.5t45 -169.5q1 -15 1 -31q0 -77 -21 -153q-26 -91 -69 -154q-39 -59 -74.5 -121t-89.5 -109l-209 -178q-49 -41 -133 -79t-180 -62.5t-191 -28.5q-12 -1 -24 0q-81 0 -141 25q-70 29 -116 82 t-71.5 120.5t-34.5 144.5q-6 49 -6 99q0 27 1 55q5 77 22.5 148.5t42.5 128.5q35 80 84 152.5t106 138.5q39 45 102.5 95t137.5 86t151 47q21 3 40 3q54 0 102 -22q12 -4 21.5 -16.5t15.5 -26t9 -23.5zM713 569q4 0 7 1q32 0 54 -16q25 -17 32 -42t-4 -52.5t-44 -47.5 q-6 0 -8 -2q10 10 20 18l21 16q-4 -6 -3.5 0.5t3 12.5t4.5 8t0 -12q8 -176 69.5 -322.5t157.5 -294.5q5 -17 5 -31q0 -16 -6 -31q-11 -28 -33 -41q-16 -10 -38 -10q-7 0 -13 1q-30 4 -56 30q-90 135 -153.5 274.5t-88.5 303.5q-4 31 -7 67l-2 32q0 21 3 40q4 35 22.5 61.5 t57.5 36.5z" />
<glyph unicode="R" horiz-adv-x="1325" d="M37 1223q20 33 69.5 56.5t99.5 32.5q23 4 43 4q25 0 46 -6q39 -11 37 -48q-25 -82 -25 -206t14.5 -256t39 -254t49.5 -196l59 -169q31 -87 74 -163q2 -8 2 -15q0 -27 -27 -56q-35 -37 -86 -60.5t-104 -28.5q-9 -1 -17 -1q-41 0 -63 22q-23 39 -39 82t-29 88l-24 90 q-12 45 -27 88q-29 88 -57.5 219.5t-46 272.5t-17.5 275.5t29 228.5zM37 1100q-29 -33 -60.5 -36t-55 14.5t-32.5 48.5q-2 8 -2 18q0 24 17 51q2 2 10 14.5t19 25.5l24 27q12 13 23 19q68 39 126 61.5t136 36.5q51 10 117 15q33 2 67.5 2t69.5 -2q70 -4 138 -20.5 t123.5 -48.5t92.5 -81t45 -121q3 -22 3 -44q0 -38 -9 -73q-14 -56 -43 -107.5t-69 -96.5t-83 -82t-93 -70t-101 -61l-49 -26q-18 -9 -35 -16l-35 -16l-49 -22q-70 -31 -116 -36q-8 -1 -14 -1q-37 0 -61 25q-34 34 -34 69q0 37 23 71q22 32 57.5 55.5t70.5 33.5q59 17 118 17 l95 -11q59 -10 116.5 -38.5t104.5 -63.5q66 -47 119 -104.5t100 -120.5q57 -76 108.5 -152t107 -147.5t119 -136t145.5 -115.5q35 -25 41 -57q2 -10 1 -18q0 -21 -10 -39q-14 -26 -45 -36q-11 -4 -23 -4q-22 0 -46 12q-115 74 -191 154t-138 166l-125 177q-62 91 -148 187 q-39 45 -90.5 87t-108.5 68t-119 28h-7q-58 0 -114 -31q-4 -4 -6 -9l-3 -7.5t1 4.5l8 24v14l-9 21.5t-11 21.5q-4 4 -17 13q-4 0 -7 1t-7 1h-6l95 44q56 26 117.5 59.5t120 74.5t103.5 87t69 96q17 37 17 78q0 14 -2 28q-6 35 -26.5 57.5t-49 36.5t-61.5 21.5t-62 11.5 q-59 8 -129 9h-9q-65 0 -129 -12q-69 -13 -129 -43t-99 -81z" />
<glyph unicode="S" horiz-adv-x="1228" d="M944 1120q5 -18 6 -34q0 -20 -9 -35q-15 -29 -42 -39.5t-57.5 1t-50.5 48.5q-10 27 -18.5 54.5t-21 52t-31 44t-48.5 29.5q-23 8 -44 8t-40 -8q-39 -16 -67.5 -53t-46 -87t-17.5 -103.5t17.5 -102.5t57.5 -82q25 -10 44.5 -11t38 3t37 10t42.5 12q88 23 151.5 42.5 t119 19.5t110.5 -29t129 -104q16 -16 26.5 -45t16.5 -63t7 -66q0 -11 1 -21q0 -19 -2 -33q-12 -115 -89 -214t-184.5 -175t-230 -122t-223.5 -56q-66 -6 -143 -8h-17q-69 0 -134 14q-73 16 -130 59.5t-84 127.5q-12 39 -12 78q0 12 1 25q3 29 3 58q0 23 -2 47 q6 37 28.5 56.5t49.5 20.5t50.5 -15t33.5 -53q2 -23 2 -47q0 -17 -1 -34q-1 -9 -1 -19q0 -31 8 -62q14 -47 42 -69.5t64 -28.5q20 -3 39 -4q17 0 33 3q37 5 70 11q72 14 142.5 33.5t126 55.5t90 92t38.5 147q0 9 1 17q0 101 -44 151q-37 43 -86 43q-13 0 -26 -3 q-43 -8 -95.5 -25.5t-108.5 -32.5t-112 -21q-17 -2 -32 -2q-37 0 -71 10q-48 14 -84 54t-52 118q-6 33 -7 69q0 33 6 67q11 73 41.5 144.5t78 138t104.5 118t121.5 81t132.5 29.5q2 0 20.5 1t41 1t46 -3t37.5 -9q53 -25 84 -51.5t51.5 -58.5t35.5 -73t38 -92z" />
<glyph unicode="T" horiz-adv-x="980" d="M387 1245q6 37 46 62.5t88 33.5q20 3 39 4q26 0 50 -7q41 -11 52 -48q8 -311 64 -616t167 -598q3 -10 3 -19q0 -29 -30 -54q-39 -32 -94 -46q-35 -9 -70 -9q-20 0 -39 3q-54 8 -75 45q-113 305 -154 615t-47 634zM33 1108q-13 -3 -24 -3q-26 0 -45 13q-28 18 -36 46 q-3 11 -3 22q0 18 8 36q13 30 55 44q264 92 529 127q167 22 339 22q101 0 205 -8q37 -10 53 -34q15 -22 16 -47q0 -28 -21 -52q-19 -23 -56 -29q-96 7 -190 7q-167 0 -326 -21q-250 -33 -504 -123z" />
<glyph unicode="U" horiz-adv-x="1251" d="M520 1253q20 -14 23 -64v-19q0 -43 -7 -93q-9 -61 -25.5 -122.5t-31.5 -96.5q-27 -61 -54.5 -140t-52 -165t-43 -173t-26.5 -167q20 -18 35.5 -29.5t34 -16.5t47.5 -3t80 10q115 20 228.5 31.5t227.5 27.5l38 5.5t47.5 7.5t44 13t30.5 24q12 18 2 58t-30.5 83t-43 82 t-30.5 55q-43 84 -68.5 164t-40 160t-19.5 164t-9 176q6 37 28.5 56t49 20.5t50 -15t33.5 -53.5q2 -63 5.5 -127t9.5 -126t19 -123.5t38 -121.5q27 -59 67 -125.5t69.5 -136.5t38.5 -140q2 -14 2 -28q0 -56 -30 -110q-18 -35 -52 -56.5t-73.5 -35t-80.5 -20.5t-76 -11 q-100 -14 -199.5 -23.5t-202.5 -25.5l-167 -30q-84 -15 -170 -24q-35 -2 -84.5 -2t-96.5 10.5t-86 34t-53 68.5q-6 20 -6 56q0 21 2 47q6 71 23.5 164t44 199.5t57.5 213t64.5 206t64.5 175.5t57.5 122t42.5 48z" />
<glyph unicode="V" d="M-6 918q-7 14 -7 29q0 27 21 59q33 49 85 86.5t107 50.5q14 3 26 3q34 0 53 -26q31 -47 68 -115l65 -120q27 -49 52 -89l51 -78l52 -78l56 -85l33 -51q11 -16 21.5 -27.5t25.5 -24.5l47 -42q-6 2 -19.5 -14.5t-29.5 -44.5l-33 -59l-34 -59q-15 -27 -28.5 -44t-19.5 -15 q14 2 9 -3t-16.5 -11l-22.5 -11.5t-7 -1.5q16 53 24.5 107.5t20.5 107.5q27 102 60 201l69 197q51 135 115.5 260t115.5 258q23 37 55 45q13 3 24 3q18 0 33 -7q26 -12 38 -42q6 -14 6 -30q0 -19 -8 -41q-53 -135 -118.5 -264t-117.5 -268q-33 -88 -62.5 -176t-51.5 -181 q-8 -35 -13.5 -83t-17.5 -94t-35.5 -83t-71.5 -45q-5 -1 -10 0q-27 0 -50 17q-28 20 -46 43l-49 67l-31.5 47.5t-32.5 46.5l-31 50l-39 62l-39 63l-32 49l-81 130q-40 65 -75 130q-27 51 -49 102.5t-55 98.5z" />
<glyph unicode="W" horiz-adv-x="1454" d="M-90 965q-4 37 34 62.5t89 35.5q27 5 53 5q24 0 48 -4q50 -9 73 -40q37 -102 63.5 -207.5t48 -212t41 -214t43.5 -214.5q-8 14 -18 25.5t-27 7.5q-12 -4 -25.5 -5t-27.5 -5q-12 -2 -12 -7.5t2 -5.5q55 137 88 277.5t76 281.5q8 23 15 50.5t19.5 53t31 44t46.5 25.5 q25 2 39.5 -2.5t34.5 -20.5q31 -33 48.5 -70t28.5 -76.5t20.5 -80.5t21.5 -82l44 -139l46 -138q16 -47 28.5 -78.5t35.5 -76.5q14 -29 24 -46.5t29 -39.5q4 -2 10 -7.5t2 -3.5q-4 4 -14.5 11.5t-5.5 3.5q-25 0 -27 1t1 1t3 -1t-18 -7q-4 -4 -9.5 -14.5t-13.5 -6.5 q-10 6 6.5 17.5t20.5 21.5q10 23 12 45.5t12 44.5q2 4 1 -3t-3 -17.5t-3 -18.5t-1 -2q18 82 30.5 162t31.5 162q63 270 165.5 511.5t253.5 471.5q29 25 59 25h3q27 0 47 -14q20 -15 29 -44q3 -11 3 -24q0 -19 -7 -40q-84 -129 -155 -259t-126 -275q-37 -98 -64.5 -197.5 t-50.5 -201.5q-16 -63 -26.5 -123l-22.5 -123q-10 -66 -33 -127q-23 -59 -54.5 -91t-68.5 -35h-8q-33 0 -67 21q-39 25 -72 76q-35 55 -61.5 117.5t-49.5 124.5q-16 45 -27 81t-28 81l-22 75l-23 80l-28 121q-13 59 -56 107q27 -10 51.5 -17.5t48.5 -17.5q-2 0 7.5 12 t25.5 21q2 0 -5 -15.5t-5 -9.5q-27 -78 -46 -155l-40 -156q-6 -27 -11 -45.5l-9.5 -36t-10.5 -36.5l-14 -44l-16 -52q-8 -26 -19 -53q-10 -23 -17 -44t-20 -42q-14 -27 -58 -40t-94 -15h-17q-41 0 -80 8q-46 10 -64 33t-35.5 91.5t-31 145t-22.5 143.5t-14 87q-4 16 -9 45 t-12 60l-13 58q-6 28 -11 44l-16 59q-6 23 -12 42.5t-15 40.5z" />
<glyph unicode="X" d="M47 920q-16 16 -16 40q0 6 1 13q5 33 27.5 67.5t56.5 68.5t70.5 56.5t71.5 30.5t57 -8q131 -96 244 -211t219 -236l214 -240q108 -120 231 -227q9 -13 9 -30q0 -22 -15 -51q-27 -51 -74 -98.5t-102 -76.5q-35 -18 -60 -18q-15 0 -27 6q-123 106 -230 226l-214 241 q-106 121 -219 236t-244 211zM295 66q-2 -43 -25.5 -66t-52.5 -24h-3q-27 0 -51 19q-26 19 -30 62v11q0 33 10 61q12 33 31 61.5t40.5 57t39.5 59.5l39 66l37 65q158 270 358.5 496.5t439.5 423.5q21 7 40 7q12 0 24 -3q29 -8 44 -29q14 -19 14 -46q0 -32 -25 -62 q-444 -362 -748 -858q-23 -35 -42 -72t-42 -74q-8 -16 -24.5 -34.5t-33 -39t-28.5 -41t-12 -40.5z" />
<glyph unicode="Y" horiz-adv-x="1396" d="M381 1333q33 27 90 31q13 1 25 1q44 0 84 -11q51 -14 77 -41q13 -13 13.5 -28t-13.5 -32q-39 -47 -73.5 -95t-65.5 -101q-6 -10 -29.5 -54.5t-46 -95.5t-37 -95t-2.5 -54q10 -10 42 -7t67 11t66.5 18.5t42.5 14.5q68 20 109.5 30.5t78.5 13.5t79 3t113 2q37 -10 53.5 -34 t15.5 -50.5t-20.5 -49t-56.5 -28.5q-86 -2 -171 -8t-171 -29t-169 -52.5t-175 -39.5q-24 -3 -44 -3q-61 0 -99 22q-51 30 -70 82q-13 36 -13 80q0 19 3 40q8 68 37 137q20 47 42.5 92.5t47.5 88.5q37 66 80 125t90 116zM950 1219q-33 18 -45 44.5t-7 52t27.5 44t59.5 18.5 q6 0 8 -2q72 -20 70 -96q-10 -60 -10 -116q0 -74 17 -141q30 -118 84 -227.5t118.5 -219t113.5 -232.5q20 -53 39 -112.5t25 -119.5q2 -24 2 -49q0 -36 -5 -71q-9 -59 -40 -115q-18 -35 -50 -60.5t-61 -54.5q-23 -20 -68.5 -34.5t-97 -24.5t-97.5 -16l-70 -9 q-159 -18 -319 -17q-60 0 -119 2q-218 9 -431 73q-25 8 -53.5 23.5t-52 36t-41 46t-19.5 54.5t-5 55q-5 45 -5 61q0 46 32 89q34 46 83 86t100 71t86 49q18 6 40 7q27 0 58 -10q57 -17 102.5 -49t63.5 -69q6 -12 6 -23q0 -21 -24 -36l-73 -39q-38 -20 -68.5 -45t-48.5 -58 q-14 -27 -14 -64q0 -8 1 -17q59 -27 85 -41.5t45.5 -21.5t45 -9t84.5 -6q50 -2 103 -2t109 2q112 4 210 14l85 9q46 5 90 17.5t83 34t62 60.5q29 48 28 103q0 60 -20 127q-18 60 -46 118l-50 101l-77 142l-78 141q-38 71 -68.5 144.5t-49.5 153.5q-10 47 -15 96.5t-5 98.5 q2 27 4 49t6 45q0 2 2 8t4 13.5t4 12.5t2 3q2 -8 -1 -15.5t-5 -17.5q-2 -4 0 4t2 12q16 -20 29.5 -40.5t30.5 -42.5q-5 2 -11 2z" />
<glyph unicode="Z" horiz-adv-x="1277" d="M193 1174q-33 18 -45.5 44.5t-7.5 52t27.5 44t59.5 18.5q45 -9 96 -8q33 0 67 3q89 9 184.5 28.5t194.5 42t193 35.5q75 10 143 9h35q85 -3 152 -34q51 -25 62 -59q4 -15 4 -30q0 -22 -8 -45q-14 -40 -46 -82t-66 -77t-62.5 -59.5t-36.5 -32.5q-6 -6 -23 -20l-34 -30 l-32 -30q-15 -14 -24 -20q-63 -59 -120 -121l-111 -127q-6 -6 2 3l18 21l19 22q8 9 2 3l-173 -201q-97 -111 -205 -217t-219.5 -194t-215.5 -136q-15 -3 -28 -2q-14 0 -25 3q-19 7 -44 30l17 -16q-35 35 -35 73q0 30 22 62q41 55 105.5 78.5t128.5 30.5q29 3 57.5 3t58.5 -3 q58 -6 114.5 -18.5t113.5 -27t113 -24.5q111 -20 218 -24q29 -1 59 -1q79 0 159 6q4 0 7 1q38 0 60 -21q25 -23 28 -51.5t-15.5 -55t-61.5 -34.5q-82 -7 -163 -7q-199 0 -394 39q-53 12 -107.5 26.5t-109.5 23.5q-44 7 -88 6h-22q-54 -2 -107 -27q-4 -4 -14.5 -13 t-17.5 -17.5t-7 -7.5t16 20q4 12 7 16l-109 -59q-14 2 -31.5 -1t-36 6t-35 36.5t-26.5 93.5l175 167l209 209l212 219l182 199q78 86 163 164l173 152q18 16 55 31l76 29q39 15 74 30.5t51 34.5q-4 -8 -8 -15q0 -18 -3 -30.5t-3 -20.5t5 -12t17 -8l29 -12q18 -7 8 -5 q-23 2 -44 10.5t-44 10.5q-29 4 -58.5 3t-60.5 -5q-102 -8 -210 -31l-215 -44q-108 -22 -214 -32q-38 -4 -75 -3q-66 0 -131 12z" />
<glyph unicode="[" horiz-adv-x="659" d="M545 1440q37 2 61.5 -15.5t31.5 -42t-4 -52t-44 -48.5q-47 -14 -93 -9t-90.5 9t-87.5 0t-81 -35q10 14 17 26.5t15 24.5q-6 -49 -5 -99t5 -100l9 -102q4 -51 2 -100q-10 -330 -15.5 -659.5t-17.5 -661.5q0 -4 1 -10t-1 -4q-18 31 -19.5 40t-1.5 10t-6 2t-37 15h-18 q-27 -10 -15.5 -6t37 11.5t52 16.5t30.5 9q61 10 123 11t123 -5q37 -10 53.5 -33.5t15.5 -50t-20.5 -49t-56.5 -29.5q-45 4 -90 5.5t-92 -5.5q-45 -6 -88 -20t-77 -13t-54.5 28.5t-20.5 103.5v161q0 49 1 88l2 73l2 74q1 38 1 87q8 209 20.5 415t6.5 412q0 37 -6.5 103.5 t-9.5 137.5t1.5 131.5t22.5 82.5q35 41 86 52.5t108.5 10.5t116 -4t107.5 13z" />
<glyph unicode="\" horiz-adv-x="815" d="M172 1405q25 -80 64.5 -154.5t74.5 -152.5l254 -571l266 -568q6 -37 -7 -62.5t-35.5 -38t-51 -6t-53.5 34.5l-266 569l-254 570q-37 86 -79 166t-71 168q-2 37 15.5 61.5t42 31.5t52.5 -4t48 -44z" />
<glyph unicode="]" horiz-adv-x="632" d="M129 1440q49 -16 107.5 -13t116 4t108.5 -10.5t86 -52.5q18 -23 22 -83t1 -131t-9 -137.5t-6 -103.5q-6 -207 6 -412.5t21 -414.5q0 -49 1 -87l2 -74l2 -73q1 -38 1 -88v-161q0 -76 -20.5 -103.5t-54.5 -28.5t-77 13t-88 20q-47 6 -92 5t-90 -5q-37 6 -56.5 29 t-20.5 49.5t15.5 50t53.5 33.5q61 6 122.5 5t122.5 -11q4 0 31 -9t52.5 -16.5t37 -11.5t-15.5 6h-19q-31 -14 -38 -15t-7 -2v-10q0 -9 -18 -40q-2 -2 -1 4t1 10q-12 332 -17.5 661.5t-15.5 659.5q-2 49 2 100l8 102q4 50 5.5 100t-5.5 99l15.5 -24l17.5 -27q-41 31 -83 35 t-86 0t-90 -9t-93 9q-33 20 -44 48t-4 52.5t31.5 42t61.5 15.5z" />
<glyph unicode="^" d="M246 664q-37 20 -48.5 50.5t-1 57.5t39 42t69.5 3l11.5 -4l11.5 -4q-29 -6 -54.5 -13.5t-54.5 -13.5q35 39 83 114t95 157t84 159.5t49 126.5q8 31 26.5 54.5t53.5 29.5q33 2 52.5 -7t37.5 -38q12 -31 19.5 -65.5t17.5 -67.5q-2 2 -4 10l-4 17q-2 8 -2 14q0 8 2 2 t5 -18.5t6 -27.5t8 -23q8 -29 13 -41l19 -45q37 -88 86 -157t117 -134q20 -31 19 -60.5t-17 -49t-45 -26t-61 10.5q-94 92 -161 190.5t-114 220.5q-16 47 -27.5 96.5t-29.5 94.5q23 -14 42 -28.5t42 -28.5q-12 -2 -10 -3.5t10 -1.5t19.5 4.5t19.5 14.5q16 18 17 19t-1 -2 t-3 -1t9 27q4 4 1 -4t-5 -12q-2 -23 -14 -50q-10 -29 -29 -65l-33 -64l-122 -234q-62 -116 -148 -216q-23 -12 -37 -16.5t-41 -0.5z" />
<glyph unicode="_" d="M229 -473q-43 4 -62.5 29.5t-18 54.5t24 52.5t65.5 25.5q221 -2 450.5 7t448.5 -7q37 -10 53 -34t15 -50.5t-20.5 -49t-56.5 -28.5q-219 16 -448.5 7t-450.5 -7z" />
<glyph unicode="`" d="M483 1284q-37 -6 -62.5 7.5t-37.5 36t-6 51t35 53.5q2 2 3 2t3 2q31 10 52.5 8t47.5 -21q35 -31 54.5 -81t41.5 -89q37 -59 76 -113l78 -112q25 -35 19.5 -66.5t-27 -50t-54 -18.5t-63.5 31l-84 122l-84 123l-30 56l-27 55q-4 12 -13.5 24.5t-5.5 8.5q8 -4 13.5 -10.5 t9.5 -12.5q2 -4 -2 1t-8 7l38.5 -4t38.5 -6q-2 -2 -3 -2t-3 -2z" />
<glyph unicode="a" horiz-adv-x="1462" d="M102 -39q-14 -41 -43.5 -54t-57.5 -5t-46 36q-13 19 -13 44q0 11 3 24q16 57 43.5 108.5t44.5 108.5q94 311 204.5 608t233.5 596q33 52 75 52q28 0 60 -23q18 -20 26.5 -46t13.5 -53.5t9 -55t11 -52.5l28 -94q12 -39 27.5 -76t34 -75.5t47.5 -90.5q147 -272 353 -498.5 t448 -414.5q20 -29 19 -58q0 -31 -17 -52q-16 -19 -45 -25q-8 -2 -16 -2q-22 0 -46 12q-258 201 -464 437.5t-373 516.5q-53 90 -88 180.5t-64 188.5q-2 6 -5 25.5t-8 42l-10 43.5l-6 30q-2 10 -8 18.5t0 14.5t8 -7t6 -22q2 -2 -1 2.5t-5 6.5q35 2 69 3t68 3 q-27 -96 -68 -188l-81 -183l-56 -146l-59 -151q-2 -6 2 5.5l8.5 24.5t8.5 23.5t2 4.5q-51 -141 -96 -284l-89 -288q-25 -80 -61 -151q-12 -18 -23 -45l-6 -19q-4 -12 -2 -6q4 8 5 16.5t6 14.5q4 6 0 -6zM72 348q-1 8 -1 15q0 27 12 48q15 26 39.5 36t52.5 0.5t50 -39.5 q2 -4 5 -13.5t5.5 -14.5t-1 -1t-15.5 27q-2 4 2 -1.5t6 -9.5l-25 13l-26 12q4 0 12.5 1t4.5 -1q-12 -4 -25.5 -6t-30.5 -4q-6 -2 6.5 3t18.5 9q33 27 71 35q53 12 110.5 18t111.5 14l410 67l411 62q4 0 7 1q38 0 60 -21q28 -26 29 -59q0 -24 -16 -47q-18 -27 -62 -35 q-258 -39 -513 -82t-515 -78q-46 -37 -89 -37q-12 0 -23 3q-53 13 -82 85z" />
<glyph unicode="b" horiz-adv-x="1396" d="M285 1319q20 33 47.5 44t52.5 4t42 -31.5t15 -61.5q-36 -145 -36 -302q0 -163 28 -331q27 -162 74 -318.5t102 -297.5q5 -18 6 -34q0 -20 -9 -36q-15 -29 -41.5 -39t-57.5 1t-51 48q-61 156 -110.5 325t-77.5 343q-27 168 -26 335v12q1 173 42 339zM117 1135 q-37 -6 -62.5 7t-38 35.5t-6.5 51t35 53.5q72 33 150.5 61.5t158.5 44.5q67 13 134 12h27q81 -3 159 -32q45 -16 88 -42t73.5 -61.5t46.5 -79.5q9 -26 9 -57q0 -20 -4 -43q-16 -78 -81 -145.5t-149 -125.5t-174 -104l-155 -79q-16 37 -35 74l-37 73q109 47 217.5 88 t222.5 64q90 16 176 20q22 1 44 1q65 0 131 -9q96 -12 166.5 -55t115.5 -106.5t66.5 -142.5t21.5 -162t-21.5 -165t-62.5 -153q-57 -98 -145 -179t-195 -129q-109 -47 -242 -58q-42 -4 -85 -3q-92 0 -182 16q-132 25 -248.5 86.5t-192.5 159.5q-18 25 -25.5 57.5t-17.5 61.5 q-1 8 -1 15q0 27 12 47q15 26 40 36.5t52.5 1t50.5 -40.5q18 -51 37.5 -88t47 -63.5t68.5 -47t101 -38.5q82 -25 173 -34q41 -4 81 -4q49 0 98 6q88 11 169 44t146 94q57 53 106.5 133t68.5 167q11 47 11 94q0 39 -8 77q-16 84 -90 148q-41 37 -95 53t-112 20q-19 1 -38 1 q-38 0 -77 -5q-58 -6 -108 -16q-102 -18 -206.5 -55t-196.5 -84q-37 -6 -62.5 6t-38 35.5t-6.5 52.5t35 53l73 39l94 50l100 58.5t92 63.5t71 64.5t35 62.5t-14.5 52.5t-51 33.5t-63.5 18.5t-51 8.5q-40 6 -78 5q-74 0 -141 -21q-103 -31 -207 -78z" />
<glyph unicode="c" horiz-adv-x="1443" d="M1122 975q-14 -41 -43.5 -54.5t-57.5 -5t-46 35.5q-13 19 -13 45q0 11 3 24q8 39 25.5 74.5t39 69.5t45 67t41.5 65q-109 -6 -233.5 -36.5t-242.5 -85t-217 -131t-157 -175.5q-35 -59 -64.5 -129.5t-40.5 -145.5q-5 -32 -5 -63q0 -42 9 -84q15 -72 71 -131 q39 -41 87 -63.5t101 -31.5q44 -8 88 -7h19q54 2 108 10q223 39 416.5 141.5t363.5 245.5q21 7 40 8q12 0 24 -4q29 -8 44 -28q14 -19 14 -47q0 -32 -25 -62q-92 -78 -201 -151.5t-228.5 -133t-245.5 -97.5t-249 -42q-61 -2 -101 -2t-74 5t-70 15.5l-93 28.5 q-35 14 -64.5 41t-60.5 49q-61 49 -92 126t-38 162q-3 30 -3 60q0 55 9 110q13 85 40 151q53 133 144.5 237.5t206 182t245.5 130t266 81.5q33 8 89.5 19t115.5 14q10 1 21 1q48 0 89 -12q50 -14 70 -57q13 -28 14 -57q0 -24 -10 -49q-20 -54 -56 -108l-73 -107 q-37 -52 -45 -99z" />
<glyph unicode="d" horiz-adv-x="1564" d="M360 1229q8 43 35 61.5t55.5 15.5t51.5 -28q21 -23 20 -61q0 -48 -6.5 -142.5t-6.5 -141.5q0 -166 19 -325q35 -291 127 -590q5 -18 6 -34q0 -20 -9 -35q-15 -29 -41.5 -39t-57.5 1t-51 48q-98 319 -134 629q-20 172 -20 350q-1 144 12 291zM35 1384q-31 31 -31 64 t18.5 54.5t50.5 26.5q5 1 11 1q27 0 55 -21q72 -55 148 -98l153 -88l269 -151q145 -81 285.5 -176t262 -204.5t197.5 -232.5q68 -109 90 -215q10 -48 10 -93q0 -55 -15 -107q-28 -93 -105.5 -166.5t-212.5 -116.5t-277 -59q-92 -10 -185 -10q-49 0 -99 3q-142 8 -282 37 t-274 74q-37 20 -48 51t-0.5 57.5t38.5 41.5q16 9 36 9q16 0 34 -6q37 -12 84 -20t76 -31q4 -4 -3.5 -2t-15.5 5t-15 5t-3 0q172 -55 363 -58h40q170 0 326 24q283 45 355 184q22 43 22 93q0 113 -113 265q-78 104 -189.5 196.5t-236.5 173.5t-254 153l-242 135l-167 95 q-80 48 -156 107z" />
<glyph unicode="e" horiz-adv-x="1040" d="M903 1444h7q38 0 61 -21q25 -23 27.5 -51.5t-15.5 -55t-61 -34.5q-139 -25 -273.5 -63.5t-275.5 -59.5q-8 -2 -36 -3t-59.5 -4t-57 -8t-32.5 -18q-23 -49 -27 -127q-3 -43 -3 -88q0 -36 2 -72q4 -83 13 -163t13 -135q2 -27 3 -89.5t5.5 -130t13.5 -125t30 -73.5 q8 -6 33.5 0t52 16.5l48.5 19.5l21 9l261 110l264 103q22 8 40 8q16 0 30 -6q30 -12 42 -38q7 -15 8 -33q0 -12 -4 -24q-8 -32 -45 -55l-166 -60q-84 -30 -166 -64q-53 -25 -113.5 -57t-123 -56.5t-126.5 -33.5q-20 -3 -40 -3q-44 0 -88 14q-39 12 -63.5 52.5t-40 93.5 t-22.5 114.5t-10 120t-4 106.5t-3 75q-6 84 -13.5 166.5t-9.5 166.5q0 35 -2 83q-1 16 -1 33q0 33 3 67q4 51 16.5 97t38.5 77q33 39 72 56t80 24.5t85 9.5t91 10q133 25 260 60.5t260 58.5zM170 557q-13 -3 -24 -2q-26 0 -45 12q-28 18 -35 46q-3 11 -4 22q0 18 9 36 q13 30 54 44q68 20 135 37l135 31q68 15 135.5 34t133.5 43q22 8 40 8q16 0 30 -6q30 -12 42 -38q7 -15 8 -33q0 -12 -4 -24q-8 -32 -45 -54q-137 -53 -280.5 -82t-284.5 -74z" />
<glyph unicode="f" horiz-adv-x="976" d="M270 1276q-2 -43 -25.5 -65.5t-52 -23.5t-54 18.5t-29.5 62.5q0 14 -3 20q41 -4 82 -7t82 -7q-6 -55 -6 -112q0 -89 16 -182q26 -153 76 -304.5t115.5 -293.5t130.5 -263q10 -35 -1 -62.5t-33 -41.5q-16 -10 -37 -10q-7 0 -14 1q-30 4 -56 31q-72 131 -143.5 284.5 t-124 316.5t-78.5 328q-16 97 -16 191q0 65 7 129q8 37 31 56.5t49.5 20.5t50 -16.5t33.5 -54.5v-16zM98 1260q-28 -16 -54 -16h-8q-30 3 -48 22q-22 22 -22 56q0 26 16 54q6 6 14 19q20 16 34.5 21t39.5 5q59 -4 120.5 -21.5t120.5 -29.5q158 -29 311 -35q57 -2 115 -2 q97 0 197 6q4 0 7 1q38 0 60 -21q28 -26 29 -59q0 -24 -16 -48q-18 -27 -62 -34q-110 -8 -219 -8h-65q-141 3 -285 24q-51 8 -105 18l-108 21l-53 12l-56 12q-4 2 -10 3.5t-2 1.5q10 0 31 -5q4 0 -5 1.5t-16 1.5l36 20l36 20l-15.5 -20t-17.5 -20zM186 735q-33 18 -45 45 q-9 19 -8 37q0 8 1 16q5 26 27.5 44t59.5 18q41 -9 83 -9h8q46 1 90 8t90 18l90 22h7q32 0 54 -15q25 -17 32 -42q3 -10 3 -20q0 -16 -7 -33q-11 -28 -44 -48l-110 -24q-54 -12 -108.5 -20.5t-110 -8.5t-112.5 12z" />
<glyph unicode="g" horiz-adv-x="1191" d="M909 993q10 -35 -1 -62.5t-32.5 -40.5t-51 -9t-56.5 30q-24 41 -24 83q0 43 17 89q15 43 37.5 84t41.5 82q-41 -8 -83 -31.5t-77 -48.5q-63 -43 -135 -99t-139.5 -123.5t-123 -144.5t-83.5 -159q-25 -72 -25 -146v-22q4 -86 55 -172q53 -88 146 -118q64 -21 130 -20 q30 0 60 4q98 13 187.5 64.5t136.5 126.5q33 55 33 106q0 39 -17 62q-18 27 -50 28h-2q-31 0 -65 -38q-28 -16 -53 -16q-4 0 -9 1q-30 3 -48 21q-22 22 -22 57q0 26 16 54q66 70 145 79q17 2 33 2q61 0 114 -28q67 -35 105 -105q26 -48 26 -106q0 -27 -5 -57 q-23 -117 -103 -206t-187.5 -142.5t-230.5 -66.5q-35 -4 -69 -4q-84 0 -160 24q-86 27 -137 71.5t-109 112.5q-31 39 -50 91t-24 101l-4 73q-4 72 -4 78q0 109 57 217q58 112 144 212t186.5 183t184.5 139q33 23 80 50t98 47.5t102 27.5q13 2 26 2q36 0 66 -15 q49 -23 61 -60q7 -22 6 -46q0 -17 -3 -35q-8 -43 -28.5 -86l-35.5 -76l-9 -16q-9 -16 -18 -37t-16.5 -40.5t-3.5 -25.5zM641 449q-13 -3 -24 -3q-26 0 -45 13q-28 18 -35 46q-3 11 -4 21q0 18 9 36q13 30 54 44q43 23 83 49.5t81 49.5q113 61 230.5 107t240.5 83h7 q32 0 54 -15q25 -17 32 -42q3 -10 3 -20q0 -16 -7 -33q-11 -28 -44 -48q-111 -33 -227.5 -72.5t-214.5 -105.5l-93 -61q-45 -31 -100 -49z" />
<glyph unicode="h" horiz-adv-x="1021" d="M203 1249q-14 -41 -44 -54t-57.5 -5t-46.5 36q-13 19 -12 44q0 11 2 24l6 19q20 33 48 44t52.5 4t42.5 -32q16 -22 15 -54q0 -48 -15 -132q-11 -61 -16 -125q-1 -28 -1 -56q0 -98 17 -198q22 -129 64.5 -253t104 -238.5t139.5 -211.5q20 -29 20 -55q0 -6 -1 -11 q-5 -32 -26.5 -50.5t-54 -18.5t-63.5 31q-176 221 -271 495q-90 262 -90 534v24q0 72 13.5 140.5t17.5 139.5q41 -4 81 -9t81 -11q-2 -4 -3 -10.5t-3 -10.5zM848 1255q-25 -29 -53.5 -35t-51 6.5t-36 38t-7.5 62.5q8 18 10.5 15t0.5 -9t-4 -8t-2 16q6 37 28.5 56.5 t48.5 20.5h3q25 0 48 -15q24 -16 33 -53q0 -176 4 -338t22.5 -319.5t58.5 -315.5t112 -324q5 -18 5 -34q0 -20 -8 -35q-15 -29 -42 -39q-13 -5 -26 -5q-15 0 -31 6q-31 11 -52 48q-74 172 -115.5 336t-61 328.5t-23.5 332.5t-4 350q6 37 28.5 56.5t48.5 20.5h3q25 0 48 -15 q24 -16 33 -53q0 -29 -3 -48.5t-15 -46.5zM190 561q-12 -2 -22 -2q-23 0 -40 9q-26 13 -38 36q-8 15 -8 33q0 9 2 18q6 29 35 54q74 31 154.5 43t163.5 13h33l133 -3l161 -8q37 -10 53 -34q15 -22 16 -47q0 -28 -21 -52q-19 -23 -56 -29q-68 2 -139.5 7t-145.5 5t-146 -9 t-135 -34z" />
<glyph unicode="i" horiz-adv-x="450" d="M66 1264q20 33 47.5 44t52 4t42 -32t15.5 -61q-4 -20 -3 -41q0 -14 1 -29q4 -37 4 -72q0 -141 7.5 -262t29 -235.5t63.5 -229t109 -244.5q5 -17 5 -31q0 -16 -6 -31q-11 -28 -33 -41q-16 -10 -37 -10q-7 0 -14 1q-30 4 -56 31q-74 137 -119 261t-69.5 247.5t-33 255 t-8.5 282.5q0 49 -4 97q-1 14 -1 28q1 34 8 68zM57 1677q20 33 48 44q17 7 33 7q10 0 20 -3q25 -7 42 -31.5t15 -61.5l-8 -27q-4 -13 -6 -30l4 -40l4 -40q0 -37 -18.5 -59.5t-44.5 -27.5q-8 -2 -15 -2q-18 0 -37 9q-27 12 -45 45q-9 67 -9 116t17 101z" />
<glyph unicode="j" horiz-adv-x="1099" d="M303 1223q-43 4 -62.5 29.5t-18.5 54t23.5 52t65.5 25.5q87 -8 173 -7q91 0 181 8q173 17 351 47h7q38 0 60 -21q25 -23 28 -51.5t-15.5 -55t-61.5 -34.5q-182 -29 -363 -46q-93 -9 -188 -9q-90 0 -180 8zM631 1362q31 -23 40 -50.5t-1.5 -52t-35.5 -39.5 q-20 -12 -48 -13q-7 0 -15 1q-2 2 -6 2q12 2 24 2h23l25 44l25 44q2 -61 22.5 -119.5t48 -114.5t59.5 -112l60 -106l113 -211q55 -106 96 -221l33 -97q18 -55 25 -111q3 -22 3 -43q0 -34 -7 -67q-11 -53 -54 -90q-31 -27 -86 -32q-25 -2 -51 -2q-31 0 -65 3 q-60 6 -116.5 18.5t-89.5 20.5l-82 21l-82 20l-114.5 34t-140 48.5t-133 66.5t-94.5 85q-25 37 -25 82q0 12 2 24q8 59 77 131q33 35 70 62l72 53q21 7 39 7q12 0 24 -3q29 -8 44.5 -28.5t14.5 -50t-26 -58.5l-40 -26q-24 -15 -46.5 -32.5t-39.5 -38t-21 -42.5 q25 -25 84 -53.5t136 -55t163 -51.5t166.5 -42t146.5 -26q37 -5 65 -4q21 0 37 2q7 18 7 42q0 18 -4 40q-9 51 -29.5 104.5t-43 102.5l-34.5 74q-41 88 -97 184l-111 198q-54 101 -93 202.5t-45 199.5q4 25 12 38t27 30q27 14 47 15h3q20 0 42 -9z" />
<glyph unicode="k" horiz-adv-x="1134" d="M8 1325q-1 7 -1 14q0 33 17 55q19 26 47.5 32t56.5 -9.5t40 -56.5q9 -45 9 -99v-11q-1 -60 -6 -124l-10 -128q-3 -36 -3 -68q0 -26 2 -51q16 -244 82.5 -460t191.5 -427q10 -35 -1 -62.5t-33 -41.5q-16 -10 -37 -10q-7 0 -14 1q-30 4 -56 31q-117 197 -191.5 403.5 t-95.5 436.5q-7 98 -7 191v24q1 104 5 215v34v49v50q0 25 2 41q0 2 1 -3t1 -12v-12q0 -6 0 -2zM131 588q-33 18 -45 45q-9 19 -9 37q0 8 2 15q5 26 27.5 44.5t59.5 18.5q18 -2 41.5 12t45 33.5t39.5 37.5l25 27q127 131 238 276.5t190 307.5q23 37 55 45q13 3 24 3 q18 0 33 -7q26 -12 38 -42q6 -14 6 -30q0 -19 -8 -41q-86 -174 -205 -330.5t-254 -296.5l-70 -72q-32 -32 -66 -52.5t-74 -28.5q-23 -5 -50 -5q-20 0 -43 3zM410 713q-37 20 -49 51q-6 16 -5 31q0 14 4 26q10 27 39 42q16 9 36 9q16 0 34 -6q20 -6 40.5 -27.5t38 -48t32 -51 l22.5 -37.5l76 -107l74 -108q94 -131 198.5 -240.5t239.5 -195.5q35 -25 41 -56q2 -10 2 -19q0 -21 -10 -38q-14 -26 -45 -36q-11 -4 -23 -4q-22 0 -47 12q-104 66 -189 144.5t-160 165.5t-144 182l-138 196l-38 52l-38 52q-8 16 -12 23q-2 4 -8 11t-2 3l22 -17q13 -9 9 -9z " />
<glyph unicode="l" horiz-adv-x="956" d="M209 1262q6 37 28.5 56t49.5 20h3q25 0 47 -15q24 -16 34 -53q-8 -303 -60.5 -589t-130.5 -579q-14 -41 -44 -54t-57.5 -5t-45.5 36q-13 19 -13 45q0 11 3 23q74 279 126 553.5t60 561.5zM35 16q-31 31 -31 64t18.5 54.5t50.5 26.5q5 1 11 1q27 0 55 -21q8 -6 1 -5t-20 5 l-29 10q-15 5 -23 9q-4 2 6 1t14 -1l32 5q19 3 30 5q47 10 89 17.5t89 11.5q57 3 114 3q228 0 451 -46q41 -12 56 -40q11 -20 11 -40q0 -8 -2 -17q-6 -29 -31 -48q-21 -16 -54 -16q-7 0 -15 1q-147 29 -292 38q-62 4 -125 4q-84 0 -171 -7q-25 -4 -56.5 -13.5t-63 -15.5 t-62 -5t-53.5 19z" />
<glyph unicode="m" horiz-adv-x="1544" d="M178 -96q-10 -41 -39.5 -56.5t-59.5 -8.5t-50 34q-14 18 -14 42q0 12 3 26l129 1319q10 41 40 56t59.5 8t50.5 -34q14 -18 14 -42q0 -12 -4 -25zM158 1196q-15 24 -15 45q0 12 4 23q12 31 39 46t60 10t55 -42l594 -999q13 -24 13 -46q0 -12 -4 -23q-11 -32 -37.5 -47.5 t-60.5 -9t-54 43.5zM893 201q-23 -37 -55.5 -43t-59 9t-39.5 47q-4 11 -4 23q0 22 15 46l190 1106q20 37 54 42t60.5 -10.5t38.5 -46.5q4 -11 4 -22q0 -21 -14 -45zM942 1311q-15 24 -14 45q0 12 4 22q12 31 39 46q20 12 43 12q8 0 16 -1q33 -5 55 -42l551 -1547 q13 -23 13 -43q0 -12 -4 -24q-12 -31 -40 -46q-20 -11 -43 -11q-9 0 -18 2q-33 6 -51 40z" />
<glyph unicode="n" horiz-adv-x="1032" d="M324 256q0 -37 -18.5 -59.5t-44 -27.5t-52.5 7t-45 45q-29 180 -79 351t-112 343q-1 9 -1 17q0 45 29 68q21 17 50 18q17 0 37 -6q25 -10 69 -53.5t88 -93.5l81 -95l49 -59l83 -94l47 -53l41 -44l64 -69l120 -128l120 -128q16 -14 28.5 -29.5t28.5 -30.5q4 -4 12.5 -5 t4.5 -3q-14 -4 -27.5 -7t-30.5 -3q-4 0 -1 3t8.5 6t9.5 4t2 -1q-6 -14 -14.5 -29.5t-24.5 -19.5q-8 -2 -5 6t9 19l13 24q7 12 7 21q0 6 1 12q0 30 -8.5 58t-8.5 57v12q2 63 2 114v107q0 55 -1 125t-3 172l-8 288q-1 26 -1 51q0 117 15 234q8 43 35 62q23 16 47 16q4 0 8 -1 q29 -3 51.5 -27.5t20.5 -67.5q-16 -123 -16 -249q0 -21 1 -42q1 -63 1 -126q0 -84 -2 -169q2 -86 5 -158l6 -138q3 -67 7 -132t10 -137q2 -20 2 -40q0 -46 -10 -89q-18 -80 -55 -104q-23 -15 -50 -14q-16 0 -33 5q-46 14 -95.5 54t-94.5 86.5t-80 88.5l-51 60l-80 86l-79 86 l-156 174l-78 88l-80 86q-12 14 -23 30l-24 32q-4 4 -8 9t-10 9q-2 4 -8.5 8t-2.5 2q8 -4 15.5 -7t13.5 -9q4 -4 -5 1t-13 7l49 58l49 57q12 -35 28.5 -69t28.5 -68q20 -57 33.5 -116.5t30.5 -119.5q2 -6 -1 3t-6 21.5t-5.5 21.5t-0.5 3q35 -96 55 -196.5t36 -198.5z" />
<glyph unicode="o" horiz-adv-x="1202" d="M760 1223q-37 4 -57.5 25.5t-23.5 47t12.5 51t49.5 37.5h7q-8 -35 -15.5 -71.5l-15.5 -73.5q6 -2 14 -6q31 -2 25 -5t-26.5 -8.5t-46.5 -9.5t-34 -8q-74 -29 -137 -76t-121 -104q-57 -57 -109.5 -125t-94.5 -143.5t-67.5 -156.5t-31.5 -163q-1 -13 -1 -28q0 -22 2 -49 q3 -44 15.5 -88t35 -80.5t59.5 -55.5q39 -20 85 -21h9q41 0 82 8q45 9 89 26.5t81 35.5q92 45 186 121t171 169t125 199.5t48 215.5q0 41 -16.5 84t-40.5 76q-51 70 -102.5 104.5t-105.5 38.5q-8 1 -17 1q-47 0 -98 -20q-60 -23 -130 -65q-37 -6 -62.5 7t-37.5 35.5t-6 51.5 t35 53q94 57 181 83q60 18 118 18q26 0 51 -3q82 -11 156.5 -59.5t142.5 -140.5q41 -53 67.5 -121.5t28.5 -136.5v-18q0 -122 -51 -243q-55 -130 -145.5 -244t-203 -206t-223.5 -147q-51 -25 -111.5 -46.5t-122.5 -32.5q-46 -8 -92 -8l-33 1q-62 4 -118 31q-74 35 -119 93 t-67.5 128.5t-25.5 149.5q-1 16 0 32q0 63 10 126q12 79 34.5 151.5t53.5 132.5q59 117 139 222t180 187q35 29 97.5 72t131 75.5t136.5 43.5q14 2 27 2q50 0 85 -31q22 -32 23 -62q0 -14 -5 -27q-15 -42 -73 -52h-6z" />
<glyph unicode="p" d="M365 1223q-25 -29 -53.5 -35t-51 6t-36 37.5t-7.5 62.5q2 2 2 6q20 31 48 42.5t52.5 4t42 -32t15.5 -61.5q-16 -96 -16 -191q0 -56 6 -111q14 -151 58 -295t114.5 -281t158.5 -260q20 -29 21 -56q0 -6 -1 -11q-5 -32 -26.5 -50t-54.5 -18t-64 30q-88 123 -160.5 259.5 t-122.5 279.5t-76 294q-21 121 -21 245q0 30 2 59q4 35 10 66.5t10 64.5l77 -25l75 -24q0 -4 -2 -6zM90 1032q-25 -29 -53.5 -35t-51 6.5t-35.5 37.5q-9 18 -9 41q0 11 2 22q33 63 111.5 119.5t174 96.5t190.5 62q81 19 140 19h21q68 -4 133 -18.5t125 -45.5 q106 -51 166.5 -122.5t75.5 -153.5q5 -27 5 -54q0 -57 -21 -117q-32 -89 -112 -173q-59 -63 -131.5 -112.5t-150.5 -94.5q-102 -59 -208 -100t-220 -72q-13 -3 -24 -3q-26 0 -45 13q-28 18 -36 46t5.5 57.5t54.5 44.5q154 41 294 106.5t269 159.5q29 20 59.5 49t55 61.5 t38.5 69.5q11 29 12 59q0 9 -1 17q-4 41 -27 72.5t-55.5 56t-70.5 42t-73 28.5q-61 20 -127 20q-14 0 -27 -1q-81 -5 -160 -30.5t-152.5 -66.5t-131.5 -88q-4 -4 -5 -9.5t-5 -9.5z" />
<glyph unicode="q" horiz-adv-x="1284" d="M786 1223q20 -29 20 -58q0 -31 -18 -52q-16 -19 -44.5 -25.5t-61.5 10.5q-16 16 -30.5 33.5t-33.5 29.5q-13 9 -29 9q-17 0 -38 -10q-41 -19 -81 -52t-74 -68.5t-46 -50.5q-61 -70 -108 -152.5t-75 -172t-30 -183.5v-11q0 -88 29 -175q2 -4 0 2t-5 14t-5 15.5t2 3.5 q10 -10 15 -27l11 -35q6 -18 17.5 -36.5t36.5 -32.5q52 -30 120 -30h13q76 3 150.5 25.5t143 56.5t111.5 60q102 66 186.5 158t139.5 199q37 72 55 151q10 44 10 83q0 32 -7 62q-15 65 -73 101q-43 28 -117 28q-25 0 -52 -3q-78 -10 -154 -35t-154 -47q-13 -3 -24 -3 q-26 0 -44 13q-28 18 -36 46t5 57.5t54 43.5q45 12 89 29.5t88 33t89 23.5q26 5 53 5q20 0 40 -3q59 -8 122.5 -11t116.5 -30q86 -41 126 -118.5t45 -169.5q1 -15 1 -31q0 -77 -21 -153q-26 -91 -69 -154q-39 -59 -74.5 -121t-89.5 -109l-209 -178q-49 -41 -133 -79 t-180 -62.5t-191 -28.5q-12 -1 -24 0q-81 0 -141 25q-70 29 -116 82t-71.5 120.5t-34.5 144.5q-6 49 -6 99q0 27 1 55q5 77 22.5 148.5t42.5 128.5q35 80 84 152.5t106 138.5q39 45 91.5 95t112 86t124.5 47q18 3 35 3l96 -22q12 -4 28.5 -18.5t32 -30t25.5 -27.5zM713 569 q4 0 7 1q32 0 54 -16q25 -17 32 -42t-4 -52.5t-44 -47.5q-6 0 -8 -2q10 10 20 18l21 16q-4 -6 -3.5 0.5t3 12.5t4.5 8t0 -12q8 -176 69.5 -322.5t157.5 -294.5q5 -17 5 -31q0 -16 -6 -31q-11 -28 -33 -41q-16 -10 -38 -10q-7 0 -13 1q-30 4 -56 30q-90 135 -153.5 274.5 t-88.5 303.5q-4 31 -7 67l-2 32q0 21 3 40q4 35 22.5 61.5t57.5 36.5z" />
<glyph unicode="r" horiz-adv-x="1325" d="M88 1237q20 33 48 44t52.5 4t42 -31.5t15.5 -61.5q-24 -79 -24 -190q0 -119 18 -251q16 -124 41.5 -239t50.5 -188q29 -82 65.5 -155t79.5 -149q10 -35 -1 -62.5t-32.5 -40.5t-51.5 -9t-56 31q-47 80 -87 158.5t-69 166.5t-57.5 216t-46 264.5t-17.5 267.5t29 225z M37 1100q-29 -33 -60.5 -36t-55 14.5t-32.5 48.5q-2 8 -2 18q0 24 17 51q2 2 10 14.5t19 25.5l24 27q12 13 23 19q68 39 126 61.5t136 36.5q51 10 117 15q33 2 67.5 2t69.5 -2q70 -4 138 -20.5t123.5 -48.5t92.5 -81t45 -121q3 -22 3 -44q0 -38 -9 -73q-14 -56 -43 -107.5 t-69 -96.5t-83 -82t-93 -70t-101 -61l-49 -26q-18 -9 -35 -16l-35 -16l-49 -22q-70 -31 -116 -36q-8 -1 -14 -1q-37 0 -61 25q-34 34 -34 69q0 37 23 71q22 32 57.5 55.5t70.5 33.5q59 17 118 17l95 -11q59 -10 116.5 -38.5t104.5 -63.5q66 -47 119 -104.5t100 -120.5 q57 -76 108.5 -152t107 -147.5t119 -136t145.5 -115.5q35 -25 41 -57q2 -10 1 -18q0 -21 -10 -39q-14 -26 -45 -36q-11 -4 -23 -4q-22 0 -46 12q-115 74 -191 154t-138 166l-125 177q-62 91 -148 187q-39 45 -90.5 87t-108.5 68t-119 28h-7q-58 0 -114 -31q-4 -4 -6 -9 l-3 -7.5t1 4.5l8 24v14l-9 21.5t-11 21.5q-4 4 -17 13q-4 0 -7 1t-7 1h-6l95 44q56 26 117.5 59.5t120 74.5t103.5 87t69 96q17 37 17 78q0 14 -2 28q-6 35 -26.5 57.5t-49 36.5t-61.5 21.5t-62 11.5q-59 8 -129 9h-9q-65 0 -129 -12q-69 -13 -129 -43t-99 -81z" />
<glyph unicode="s" horiz-adv-x="1228" d="M944 1120q5 -18 6 -34q0 -20 -9 -35q-15 -29 -42 -39.5t-57.5 1t-50.5 48.5q-10 27 -18.5 54.5t-21 52t-31 44t-48.5 29.5q-19 6 -39 6q-29 0 -63 -12q-56 -20 -110 -62.5t-100.5 -100.5t-72.5 -117q-26 -56 -26 -108q0 -57 42 -91q25 -10 53.5 -10.5t57 5t55.5 12.5 l51 13l185.5 50.5t192.5 37.5q32 3 63 4q62 0 121 -14q89 -20 163 -96q33 -31 42 -83q6 -36 7 -68q0 -14 -2 -27q-8 -76 -49 -151t-103.5 -141.5t-140 -122.5t-160.5 -99t-164 -71t-149 -34q-66 -6 -143 -8h-17q-69 0 -134 14q-73 16 -130 59.5t-84 127.5q-12 39 -12 78 q0 12 1 25q3 29 3 58q0 23 -2 47q6 37 28.5 56.5t49.5 20.5t50.5 -15t33.5 -53q2 -23 2 -47q0 -17 -1 -34q-1 -9 -1 -19q0 -31 8 -62q14 -47 55 -68.5t91 -27.5q27 -3 54 -4q23 0 45 3q50 5 83 11q47 10 111.5 32.5t134 55.5t136 76t120 92t87.5 105q36 60 36 122 q0 53 -36 74q-38 23 -90 26q-12 1 -25 0q-41 0 -83 -8l-88 -16q-43 -8 -106.5 -27.5t-135 -37t-145.5 -26.5q-33 -4 -64 -4q-38 0 -72 6q-62 11 -109.5 49t-63.5 116q-6 33 -7 69q0 33 6 67q11 73 41.5 144.5t78 138t104.5 118t121.5 81t132.5 29.5q2 0 20.5 1t41 1t46 -3 t37.5 -9q53 -25 84 -51.5t51.5 -58.5t35.5 -73t38 -92z" />
<glyph unicode="t" horiz-adv-x="980" d="M444 1272q6 37 29 56.5t49.5 20.5t50 -15.5t33.5 -53.5q8 -311 53.5 -606t153.5 -586q5 -18 6 -34q0 -20 -9 -36q-15 -29 -42 -38q-13 -5 -26 -5q-15 0 -31 6q-31 11 -52 48q-113 307 -161 613t-54 630zM33 1108q-13 -3 -24 -3q-26 0 -45 13q-28 18 -36 46q-3 11 -3 22 q0 18 8 36q13 30 55 44q264 92 529 127q167 22 339 22q101 0 205 -8q37 -10 53 -34q15 -22 16 -47q0 -28 -21 -52q-19 -23 -56 -29q-96 7 -190 7q-167 0 -326 -21q-250 -33 -504 -123z" />
<glyph unicode="u" horiz-adv-x="1251" d="M295 1145q-16 33 -10 61.5t25.5 45t48.5 17.5h3q28 0 58 -20q28 -36 28 -85q0 -41 -12 -83q-12 -45 -32.5 -89t-34.5 -79l-47 -103l-62 -135l-66 -151q-34 -78 -61 -149.5t-43 -133t-14 -100.5q51 -12 105.5 -12t107.5 7t106.5 18.5t104.5 19.5q115 20 228.5 31.5 t227.5 27.5l38 5.5t47.5 7.5t44 13t30.5 24q12 18 2 58t-30.5 83t-43 82t-30.5 55q-43 84 -68.5 164t-40 160t-19.5 164t-9 176q6 37 28.5 56t48.5 21h3q25 0 48 -16q24 -16 33 -53q2 -63 5.5 -127t9.5 -126t19 -123.5t38 -121.5q27 -59 67 -125.5t69.5 -136.5t38.5 -140 q2 -14 2 -28q0 -56 -30 -110q-18 -35 -52 -56.5t-73.5 -35t-80.5 -20.5t-76 -11q-100 -14 -199.5 -23.5t-202.5 -25.5l-167 -30q-84 -15 -170 -24q-35 -2 -84.5 -2t-96.5 10.5t-86 34t-53 68.5q-9 27 -9 62q0 22 4 47q9 65 31.5 138.5t54.5 152.5l63 152q32 73 62 134 l48 102l49 113q25 55 43 113l14 40q4 11 11 33q2 6 0 15.5t0 5.5q6 -12 9 -25.5t7 -27.5q0 2 -8 10z" />
<glyph unicode="v" d="M-6 918q-12 25 -12 46q0 12 4 23q10 31 35.5 45.5t57.5 8t56 -41.5q31 -47 53.5 -97t49.5 -101q53 -98 111 -191l116 -184l92 -145q45 -74 109 -134q-20 8 -40 15l-40 12q14 2 9 -3t-16.5 -11l-22.5 -11.5t-7 -1.5q16 53 24.5 107.5t20.5 107.5q27 102 60 201l69 197 q51 135 115.5 260t115.5 258q23 37 55 45q13 3 24 3q18 0 33 -7q26 -12 38 -42q6 -14 6 -30q0 -19 -8 -41q-53 -135 -118.5 -264t-117.5 -268q-33 -88 -62.5 -176t-51.5 -181q-8 -35 -13.5 -83t-17.5 -94t-35.5 -83t-71.5 -45q-5 -1 -10 0q-27 0 -50 17q-28 20 -46 43 l-49 67l-31.5 47.5t-32.5 46.5l-31 50l-39 62l-39 63l-32 49l-81 130q-40 65 -75 130q-27 51 -49 102.5t-55 98.5z" />
<glyph unicode="w" horiz-adv-x="1454" d="M53 965q-1 8 -1 15q0 27 13 47q15 26 39.5 36t52 1t50.5 -40q37 -102 63.5 -207.5t48 -212t41 -214t43.5 -214.5q-8 14 -18 25.5t-27 7.5q-12 -4 -25.5 -5t-27.5 -5q-12 -2 -12 -7.5t2 -5.5q55 137 88 277.5t76 281.5q8 23 15 50.5t19.5 53t31 44t46.5 25.5 q25 2 39.5 -2.5t34.5 -20.5q31 -33 48.5 -70t28.5 -76.5t20.5 -80.5t21.5 -82l44 -139l46 -138q16 -47 28.5 -78.5t35.5 -76.5q14 -29 24 -46.5t29 -39.5q4 -2 10 -7.5t2 -3.5q-4 4 -14.5 11.5t-5.5 3.5q-25 0 -27 1t1 1t3 -1t-18 -7q-4 -4 -9.5 -14.5t-13.5 -6.5 q-10 6 6.5 17.5t20.5 21.5q10 23 12 45.5t12 44.5q2 4 1 -3t-3 -17.5t-3 -18.5t-1 -2q18 82 30.5 162t31.5 162q63 270 165.5 511.5t253.5 471.5q29 25 59 25h3q27 0 47 -14q20 -15 29 -44q3 -11 3 -24q0 -19 -7 -40q-84 -129 -155 -259t-126 -275q-37 -98 -64.5 -197.5 t-50.5 -201.5q-16 -63 -26.5 -123l-22.5 -123q-10 -66 -33 -127q-23 -59 -54.5 -91t-68.5 -35h-8q-33 0 -67 21q-39 25 -72 76q-35 55 -61.5 117.5t-49.5 124.5q-16 45 -27 81t-28 81l-22 75l-23 80l-28 121q-13 59 -56 107q27 -10 51.5 -17.5t48.5 -17.5q-2 0 7.5 12 t25.5 21q2 0 -5 -15.5t-5 -9.5q-27 -78 -46 -155l-40 -156q-6 -27 -11 -45.5l-9.5 -36t-10.5 -36.5l-14 -44l-16 -52q-8 -26 -19 -53q-10 -23 -17 -44t-20 -42q-29 -53 -81 -55h-4q-49 0 -85 41q-18 23 -35.5 91.5t-31 145t-22.5 143.5t-13 87q-4 16 -9 45t-13 60l-13 58 q-6 28 -10 44l-17 59q-6 23 -12 42.5t-14 40.5z" />
<glyph unicode="x" d="M190 1042q-31 31 -30.5 64t19 54.5t49.5 26.5q5 1 11 1q27 0 56 -21q131 -96 243.5 -210.5t219.5 -235.5l214 -241q108 -120 230 -226q20 -29 20 -58q0 -31 -18 -52q-16 -19 -45 -25t-61 10q-123 106 -231 226l-214 241q-106 121 -219 235.5t-244 210.5zM295 66 q-2 -43 -25.5 -66t-52.5 -24h-3q-27 0 -51 19q-26 19 -30 62v11q0 33 10 61q12 33 31 61.5t40.5 57t39.5 59.5l39 66l37 65q158 270 358.5 496.5t439.5 423.5q21 7 40 7q12 0 24 -3q29 -8 44 -29q14 -19 14 -46q0 -32 -25 -62q-444 -362 -748 -858q-23 -35 -42 -72t-42 -74 q-8 -16 -24.5 -34.5t-33 -39t-28.5 -41t-12 -40.5z" />
<glyph unicode="y" d="M381 1333q30 25 61 25h4q33 -2 54 -23q23 -23 22 -58q0 -30 -24 -60q-39 -47 -74 -95.5t-66 -101.5q-6 -10 -29.5 -54t-46 -95.5t-37 -95.5t-1.5 -54q10 -10 41.5 -7t66.5 11t67 18.5t42 14.5q137 43 268 62.5t272 23.5q37 -10 53.5 -34t15.5 -50.5t-20.5 -49 t-56.5 -28.5q-86 -2 -171 -8t-171 -29t-169 -52.5t-175 -39.5q-24 -3 -44 -3q-61 0 -99 22q-51 30 -70 82q-13 36 -13 80q0 19 3 40q8 68 37 137q20 47 42.5 92.5t47.5 88.5q37 66 80 125t90 116zM950 1219q-33 18 -45 44.5t-7 52t27.5 44t59.5 18.5q6 0 8 -2q72 -20 70 -96 q-10 -60 -10 -116q0 -74 17 -141q30 -118 84 -227.5t118.5 -219t113.5 -232.5q20 -53 39 -112.5t25 -119.5q2 -24 2 -49q0 -36 -5 -71q-9 -59 -40 -115q-18 -35 -50 -60.5t-61 -54.5q-23 -20 -68.5 -34.5t-97 -24.5t-97.5 -16l-70 -9q-159 -18 -319 -17q-60 0 -119 2 q-218 9 -431 73q-25 8 -53.5 23.5t-52 36t-41 46t-19.5 54.5t-5 55q-5 45 -5 61q0 46 32 89q34 46 83 86t100 71t86 49q22 8 41 8q16 0 30 -6q30 -12 42 -37.5t4 -57.5t-45 -54l-73 -39q-38 -20 -68.5 -45t-48.5 -59q-14 -27 -14 -63q0 -8 1 -17q49 -35 101.5 -55.5 t106.5 -31t110.5 -15.5t115.5 -9q50 -2 103 -2t109 2q112 4 210 14l85 9q46 5 90 17.5t83 34t62 60.5q29 48 28 103q0 60 -20 127q-18 60 -46 118l-50 101l-77 142l-78 141q-38 71 -68.5 144.5t-49.5 153.5q-10 47 -15 96.5t-5 98.5q2 27 4 49t6 45q0 2 2 8t4 13.5t4 12.5 t2 3q2 -8 -1 -15.5t-5 -17.5q-2 -4 0 4t2 12q16 -20 29.5 -40.5t30.5 -42.5q-5 2 -11 2z" />
<glyph unicode="z" d="M193 1174q-33 18 -45.5 44.5t-7.5 52t27.5 44t59.5 18.5q45 -9 96 -8q33 0 67 3q89 9 184.5 28.5t194.5 42t193 35.5q75 10 143 9h35q85 -3 152 -34q51 -25 60 -56q3 -10 2 -21q0 -22 -12 -47q-17 -36 -52 -71.5t-71.5 -65.5t-67.5 -51.5t-39 -29.5q-6 -6 -22 -20 l-34 -30l-33 -30q-15 -14 -24 -20q-63 -59 -119 -121l-112 -127q-6 -6 2 3l18 21l19 22q8 9 2 3l-169 -208q-93 -118 -195.5 -231.5t-210 -208.5t-211.5 -143q-15 -3 -28 -2q-14 0 -25 3q-19 7 -44 30l17 -16q-35 35 -35 73q0 30 22 62q41 55 105.5 78.5t128.5 30.5 q29 3 57.5 3t58.5 -3q58 -6 114.5 -18.5t113.5 -27t113 -24.5q111 -20 218 -24q29 -1 59 -1q79 0 159 6q4 0 7 1q38 0 60 -21q25 -23 28 -51.5t-15.5 -55t-61.5 -34.5q-82 -7 -163 -7q-199 0 -394 39q-53 12 -107.5 26.5t-109.5 23.5q-44 7 -88 6h-22q-54 -2 -107 -27 q-4 -4 -14.5 -13t-17.5 -17.5t-7 -7.5t16 20q4 12 7 16l-19 68q-29 4 -54.5 5t-53.5 3q104 47 209.5 144t206 212t192.5 232l170 206q78 86 163 164l173 152q37 33 75.5 61.5t69.5 63.5q-4 -8 -8 -15q0 -18 -3 -30.5t-3 -20.5t5 -12t17 -8l29 -12q18 -7 8 -5q-23 2 -44 10.5 t-44 10.5q-29 4 -58.5 3t-60.5 -5q-102 -8 -210 -31l-215 -44q-108 -22 -214 -32q-38 -4 -75 -3q-66 0 -131 12z" />
<glyph unicode="{" horiz-adv-x="690" d="M575 1468q37 2 62 -15t32 -42t-4.5 -52.5t-43.5 -47.5q-61 -18 -115.5 -32.5t-102.5 -61.5q-20 -23 -29 -50.5t-11.5 -58.5t0 -61.5t6.5 -57.5q8 -72 23.5 -158t17.5 -172t-19.5 -165.5t-89.5 -135.5q-41 -35 -92 -51q-70 -25 -111 -6.5t-57 55.5t-8 81t36.5 72t77 30 t111.5 -45q29 -18 51.5 -39t40.5 -47q39 -51 57.5 -122t25.5 -148t10 -153.5t14 -138.5q4 -29 11 -63.5t19.5 -67t32 -60.5t49.5 -44q18 -8 38 -11t40 -8q41 -12 56.5 -39.5t9.5 -56t-32 -48t-69 -15.5q-27 8 -53.5 13t-54.5 13q-51 14 -87 56.5t-61.5 99.5t-41 123.5 t-24.5 133.5t-14.5 126l-9.5 100q-2 14 -4 43t-7 59.5t-12 59.5t-18 41q-16 23 -32.5 37t-38.5 31q-4 4 -13.5 4t-5.5 2q8 4 17.5 7t19.5 7l21 8q0 -6 -2.5 -2t-5.5 12.5t-7 17.5t-6 15l-20 9q-10 4 -21 10q-4 2 2 1t8 -3l35 20l28 21q13 10 17 20q23 51 24 101.5t-3 103.5 q-8 111 -26.5 205t-15.5 179t44 159.5t151 144.5q41 25 88 34t92 23z" />
<glyph unicode="|" horiz-adv-x="520" d="M168 1360q6 37 28.5 56.5t49 20.5t50 -15.5t34.5 -53.5q2 -215 6 -428t5 -427t-1 -427t-14 -428q-12 -35 -38 -50.5t-51.5 -12t-47 24t-25.5 56.5q23 422 14.5 842t-10.5 842z" />
<glyph unicode="}" horiz-adv-x="724" d="M158 1470q45 -14 92 -23t88 -34q111 -70 151.5 -144.5t44 -159.5t-15 -179t-26.5 -205q-4 -53 -3.5 -103.5t23.5 -101.5q4 -10 17 -20l28 -21q16 -10 35 -20q2 2 8 3t2 -1q-10 -6 -20 -10l-21 -9q-2 -6 -6 -15t-7 -17.5t-5 -12.5t-2 2l20 -8q10 -4 19.5 -7t17.5 -7 q4 -2 -5 -2t-13 -4q-23 -16 -39.5 -30.5t-32.5 -37.5q-10 -12 -17.5 -41t-12.5 -59.5t-7 -59t-4 -43.5q-4 -41 -9 -100t-14.5 -126t-25 -133.5t-41 -123.5t-61 -99t-87.5 -57q-29 -8 -55.5 -13t-52.5 -13q-43 -4 -68.5 15.5t-32 48t9 56t56.5 39.5q20 4 39.5 7.5t38.5 11.5 q31 16 50 44t31.5 60.5t19.5 67.5t11 63q10 61 13.5 138t10.5 154t24.5 147.5t58.5 122.5q18 27 40.5 47t51.5 39q63 47 111.5 45t77 -30t37 -72t-8 -80.5t-57.5 -55t-111 5.5q-51 16 -92 51q-68 55 -89 135t-19 166.5t17 172.5t24 157q2 27 5 57.5t1 61.5t-11.5 58.5 t-29.5 50.5q-47 47 -101.5 61t-115.5 33q-33 20 -44.5 48t-4 52.5t32 41.5t61.5 15z" />
<glyph unicode="~" d="M231 451q-29 -33 -60.5 -36t-55 14t-31.5 49t14 69q49 74 119 110.5t147.5 46t158.5 -9t153 -55.5q37 -18 73 -42l72 -46q37 -23 76 -40t80 -26q57 -10 106.5 14.5t87.5 61.5l25 26q12 13 23 27q4 4 10 14.5t2 4.5t-7 -13.5t-10 -13.5l9 17q23 37 54.5 45t57 -4.5 t37.5 -42t-2 -70.5q-16 -35 -50 -73t-77 -71.5t-87 -56t-79 -24.5q-45 -2 -72.5 -2t-52 3t-51.5 11t-70 24q-66 25 -127 66t-124.5 74t-131 43t-143.5 -29q-35 -23 -63 -51q-3 -2 -11 -14z" />
<glyph unicode="&#xa0;" />
<glyph unicode="&#xaa;" horiz-adv-x="1462" d="M102 -39q-14 -41 -43.5 -54t-57.5 -5t-46 36q-13 19 -13 44q0 11 3 24q16 57 43.5 108.5t44.5 108.5q94 311 204.5 608t233.5 596q33 52 75 52q28 0 60 -23q18 -20 26.5 -46t13.5 -53.5t9 -55t11 -52.5l28 -94q12 -39 27.5 -76t34 -75.5t47.5 -90.5q147 -272 353 -498.5 t448 -414.5q20 -29 19 -58q0 -31 -17 -52q-16 -19 -45 -25q-8 -2 -16 -2q-22 0 -46 12q-258 201 -464 437.5t-373 516.5q-53 90 -88 180.5t-64 188.5q-2 6 -5 25.5t-8 42l-10 43.5l-6 30q-2 10 -8 18.5t0 14.5t8 -7t6 -22q2 -2 -1 2.5t-5 6.5q35 2 69 3t68 3 q-27 -96 -68 -188l-81 -183l-56 -146l-59 -151q-2 -6 2 5.5l8.5 24.5t8.5 23.5t2 4.5q-51 -141 -96 -284l-89 -288q-25 -80 -61 -151q-12 -18 -23 -45l-6 -19q-4 -12 -2 -6q4 8 5 16.5t6 14.5q4 6 0 -6zM72 348q-1 8 -1 15q0 27 12 48q15 26 39.5 36t52.5 0.5t50 -39.5 q2 -4 5 -13.5t5.5 -14.5t-1 -1t-15.5 27q-2 4 2 -1.5t6 -9.5l-25 13l-26 12q4 0 12.5 1t4.5 -1q-12 -4 -25.5 -6t-30.5 -4q-6 -2 6.5 3t18.5 9q33 27 71 35q53 12 110.5 18t111.5 14l410 67l411 62q4 0 7 1q38 0 60 -21q28 -26 29 -59q0 -24 -16 -47q-18 -27 -62 -35 q-258 -39 -513 -82t-515 -78q-46 -37 -89 -37q-12 0 -23 3q-53 13 -82 85z" />
<glyph unicode="&#xad;" d="M78 598q-37 20 -48.5 51t-1 57.5t39 42t69.5 3.5q14 -4 43 -3t58.5 3t54 4t31.5 2q162 14 320.5 33.5t320.5 31.5q43 2 67.5 -20.5t27.5 -51t-15.5 -55t-61.5 -34.5q-160 -12 -319.5 -32t-321.5 -34q-66 -4 -132 -10t-132 12z" />
<glyph unicode="&#xb2;" horiz-adv-x="1005" d="M254 926q-37 -23 -68.5 -14.5t-49 32t-14.5 55t36 60.5q45 35 113.5 75t144.5 68.5t150.5 36.5t133.5 -18q20 -10 44 -38t34 -38q16 -18 22.5 -41t7.5 -47.5t-2 -50t-7 -45.5q-16 -80 -71.5 -168t-124.5 -176l-138 -168q-70 -82 -115 -150q-55 -84 -90 -113.5 t-29.5 -32.5t57.5 11t173 20q154 8 285 28.5t270 29.5q43 2 67.5 -20.5t27.5 -51.5t-15.5 -55.5t-61.5 -34.5q-166 -10 -331.5 -30.5t-333.5 -37.5q-61 -6 -123 -9t-123 -7q-33 -2 -55.5 7t-44.5 32q-4 4 3 -3l11 -12q-23 25 -30 44.5t-1 52.5q45 86 107 155l123 142 l185 221q93 111 161 235q53 94 57 142.5t-22.5 61.5t-74.5 1t-103.5 -38.5t-106.5 -58.5t-82 -54z" />
<glyph unicode="&#xb3;" horiz-adv-x="1189" d="M283 1102q-35 -23 -66 -14.5t-47 31t-13 53t33 57.5q27 18 65 24.5t78 6.5t80 -3.5t68 -3.5q66 -2 135.5 7.5t140 17.5t140.5 10t135 -12q55 -14 66 -68q4 -31 -22.5 -69.5t-70.5 -78.5t-99 -80l-102 -73l-85 -56l-47 -30q-37 -27 -73 -57l-73 -64l-25 -21 q-13 -11 -26 -26q-4 -4 -13 -12t-5 -4q4 6 12 14l-29 59q-14 30 -30 58q25 -4 50 0t52 12l52 16q26 7 50 9q223 23 418 -80q70 -37 118 -113.5t64.5 -165t-4 -173.5t-90.5 -138q-135 -104 -270 -156.5t-307 -68.5q-35 -4 -89.5 -4t-112.5 5t-111.5 18.5t-84.5 37.5l-57 46 q-29 24 -51 53q-10 12 -12 22t-5 27q0 37 -4 75.5t9 73.5q31 88 98 146.5t143 99.5q39 14 67.5 2t41 -36.5t4.5 -54.5t-43 -52l-69 -41q-30 -18 -50 -43t-29.5 -56.5t-9.5 -81.5l25 -25q12 -13 28 -24q72 -31 158 -38t174 4.5t172 37t152 60.5q53 27 97 70.5t65.5 95 t14.5 106.5t-56 109q-29 31 -76 54.5t-100.5 38.5t-107.5 20.5t-93 -5.5l-124 -33q-62 -16 -128 -6q-35 20 -45 45t-4 62q10 25 45 59.5t82 73.5t101 79l102 75l86 61q38 27 55 37l34 24l20 16l21 15l33 25q10 10 19.5 18t17.5 19q4 4 9.5 11t0.5 1q-2 -6 -6 -11t-8 -14 q-6 -12 -6 -22t2 -16.5t5 -5.5t3 12q14 -12 26.5 -25.5t28.5 -28.5q-57 12 -121.5 11.5t-131 -8l-132 -15.5t-122.5 -10q-47 -2 -93.5 0t-93.5 -2q-8 0 -22.5 -3l-26.5 -5.5t-18.5 -2.5t0.5 5q12 8 25.5 11t27.5 7q4 2 -1 -1t-9 -7z" />
<glyph unicode="&#xb9;" horiz-adv-x="905" d="M37 768q-27 27 -31 56.5t9.5 51t41 33t62.5 0.5l18 -12q25 6 64 25.5t82 48t86 63.5t77.5 71t57 69.5t24.5 62.5q23 -23 42.5 -45.5t41.5 -44.5l19 7l18 7q4 4 8.5 9.5t8.5 9.5q6 23 7 20.5t0 -14.5t-4 -28.5t-3 -22.5q0 -248 10 -493t51 -488q0 -37 -18.5 -59.5t-44 -28 t-52 7t-45.5 45.5q-37 233 -46 463.5t-17 466.5q0 37 -2 82t7 83.5t34.5 65.5t77.5 27q72 -20 69 -97q-6 -47 -36.5 -99t-78 -105.5t-106.5 -102.5t-119.5 -88t-119 -62.5t-103.5 -25.5q-27 0 -48.5 14.5t-41.5 26.5zM373 -137q-37 -6 -62.5 7t-38 35.5t-6.5 51.5t35 53 l164 79l129 66l128 65l161 81q41 14 70.5 2t42 -37.5t4 -57.5t-45.5 -54l-160 -81l-128 -66l-129 -65z" />
<glyph unicode="&#xba;" horiz-adv-x="1202" d="M760 1223q-37 4 -57.5 25.5t-23.5 47t12.5 51t49.5 37.5h7q-8 -35 -15.5 -71.5l-15.5 -73.5q6 -2 14 -6q31 -2 25 -5t-26.5 -8.5t-46.5 -9.5t-34 -8q-74 -29 -137 -76t-121 -104q-57 -57 -109.5 -125t-94.5 -143.5t-67.5 -156.5t-31.5 -163q-1 -13 -1 -28q0 -22 2 -49 q3 -44 15.5 -88t35 -80.5t59.5 -55.5q39 -20 85 -21h9q41 0 82 8q45 9 89 26.5t81 35.5q92 45 186 121t171 169t125 199.5t48 215.5q0 41 -16.5 84t-40.5 76q-51 70 -102.5 104.5t-105.5 38.5q-8 1 -17 1q-47 0 -98 -20q-60 -23 -130 -65q-37 -6 -62.5 7t-37.5 35.5t-6 51.5 t35 53q94 57 181 83q60 18 118 18q26 0 51 -3q82 -11 156.5 -59.5t142.5 -140.5q41 -53 67.5 -121.5t28.5 -136.5v-18q0 -122 -51 -243q-55 -130 -145.5 -244t-203 -206t-223.5 -147q-51 -25 -111.5 -46.5t-122.5 -32.5q-46 -8 -92 -8l-33 1q-62 4 -118 31q-74 35 -119 93 t-67.5 128.5t-25.5 149.5q-1 16 0 32q0 63 10 126q12 79 34.5 151.5t53.5 132.5q59 117 139 222t180 187q35 29 97.5 72t131 75.5t136.5 43.5q14 2 27 2q50 0 85 -31q22 -32 23 -62q0 -14 -5 -27q-15 -42 -73 -52h-6z" />
<glyph unicode="&#xc0;" horiz-adv-x="1783" d="M391 1993q-37 -6 -62.5 7.5t-37.5 36t-6 51t35 53.5q2 2 3 2t3 2q31 10 52.5 8t47.5 -21q35 -31 54.5 -81t41.5 -89q37 -59 76 -113l78 -112q25 -35 19.5 -66.5t-27 -50t-54 -18.5t-63.5 31l-84 122l-84 123l-30 56l-27 55q-4 12 -13.5 24.5t-5.5 8.5q8 -4 13.5 -10.5 t9.5 -12.5q2 -4 -2 1t-8 7l38.5 -4t38.5 -6q-2 -2 -3 -2t-3 -2zM342 -137q-8 -27 -36 -35q-15 -4 -31 -4q-14 0 -30 3q-34 7 -72 25.5t-67.5 43t-47.5 53.5q-13 21 -12 42q0 7 1 15q16 57 44 108.5t44 108.5q94 311 205 608l233 596q33 52 76 52q28 0 60 -23q18 -20 26 -46 t13.5 -53.5t9.5 -55t10 -52.5l29 -94q12 -39 27.5 -76t34 -75.5t46.5 -90.5q147 -272 353 -498.5t448 -414.5q20 -29 19 -58q0 -31 -17 -52q-16 -19 -45 -25t-61 10q-258 201 -464 437.5t-374 516.5q-53 90 -88 180.5t-64 188.5q-2 6 -5 25.5t-8 42t-9 43.5l-6 30 q-2 10 -8.5 18.5t-0.5 14.5t8.5 -7t6.5 -22q2 -2 -1 2.5t-5 6.5q18 0 43.5 -38t52.5 -83t52.5 -83t41.5 -38zM174 348q-1 8 -1 15q0 27 12 48q15 26 40 36t52.5 0.5t50.5 -39.5q2 -4 5 -13.5t5 -14.5t-1 -1t-15 27q-2 4 2 -1.5t6 -9.5l-26 13l-25 12q4 0 12 1t4 -1 q-12 -4 -25.5 -6t-29.5 -4q-6 -2 6 3t18 9q33 27 72 35q53 12 110.5 18t110.5 14l411 67l410 62q4 0 7 1q38 0 61 -21q28 -26 28 -59q0 -24 -16 -47q-18 -27 -61 -35q-258 -39 -513 -82t-515 -78q-46 -37 -89 -37q-12 0 -24 3q-53 13 -82 85z" />
<glyph unicode="&#xc2;" horiz-adv-x="1783" d="M281 1610q-37 20 -48.5 50.5t-1 57.5t39 42t69.5 3l11.5 -4l11.5 -4q-29 -6 -54.5 -13.5t-54.5 -13.5q35 39 83 114t95 157t84 159.5t49 126.5q8 31 26.5 54.5t53.5 29.5q33 2 52.5 -7t37.5 -38q12 -31 19.5 -65.5t17.5 -67.5q-2 2 -4 10l-4 17q-2 8 -2 14q0 8 2 2 t5 -18.5t6 -27.5t8 -23q8 -29 13 -41l19 -45q37 -88 86 -157t117 -134q20 -31 19 -60.5t-17 -49t-45 -26t-61 10.5q-94 92 -161 190.5t-114 220.5q-16 47 -27.5 96.5t-29.5 94.5q23 -14 42 -28.5t42 -28.5q-12 -2 -10 -3.5t10 -1.5t19.5 4.5t19.5 14.5q16 18 17 19t-1 -2 t-3 -1t9 27q4 4 1 -4t-5 -12q-2 -23 -14 -50q-10 -29 -29 -65l-33 -64l-122 -234q-62 -116 -148 -216q-23 -12 -37 -16.5t-41 -0.5zM342 -137q-8 -27 -36 -35q-15 -4 -31 -4q-14 0 -30 3q-34 7 -72 25.5t-67.5 43t-47.5 53.5q-13 21 -12 42q0 7 1 15q16 57 44 108.5 t44 108.5q94 311 205 608l233 596q33 52 76 52q28 0 60 -23q18 -20 26 -46t13.5 -53.5t9.5 -55t10 -52.5l29 -94q12 -39 27.5 -76t34 -75.5t46.5 -90.5q147 -272 353 -498.5t448 -414.5q20 -29 19 -58q0 -31 -17 -52q-16 -19 -45 -25t-61 10q-258 201 -464 437.5t-374 516.5 q-53 90 -88 180.5t-64 188.5q-2 6 -5 25.5t-8 42t-9 43.5l-6 30q-2 10 -8.5 18.5t-0.5 14.5t8.5 -7t6.5 -22q2 -2 -1 2.5t-5 6.5q18 0 43.5 -38t52.5 -83t52.5 -83t41.5 -38zM174 348q-1 8 -1 15q0 27 12 48q15 26 40 36t52.5 0.5t50.5 -39.5q2 -4 5 -13.5t5 -14.5t-1 -1 t-15 27q-2 4 2 -1.5t6 -9.5l-26 13l-25 12q4 0 12 1t4 -1q-12 -4 -25.5 -6t-29.5 -4q-6 -2 6 3t18 9q33 27 72 35q53 12 110.5 18t110.5 14l411 67l410 62q4 0 7 1q38 0 61 -21q28 -26 28 -59q0 -24 -16 -47q-18 -27 -61 -35q-258 -39 -513 -82t-515 -78q-46 -37 -89 -37 q-12 0 -24 3q-53 13 -82 85z" />
<glyph unicode="&#xc3;" horiz-adv-x="1783" d="M131 1729q-29 -33 -60.5 -36t-55 14t-31.5 49t14 69q49 74 119 110.5t147.5 46t158.5 -9t153 -55.5q37 -18 73 -42l72 -46q37 -23 76 -40t80 -26q57 -10 106.5 14.5t87.5 61.5l25 26q12 13 23 27q4 4 10 14.5t2 4.5t-7 -13.5t-10 -13.5l9 17q23 37 54.5 45t57 -4.5 t37.5 -42t-2 -70.5q-16 -35 -50 -73t-77 -71.5t-87 -56t-79 -24.5q-45 -2 -72.5 -2t-52 3t-51.5 11t-70 24q-66 25 -127 66t-124.5 74t-131 43t-143.5 -29q-35 -23 -63 -51q-3 -2 -11 -14zM342 -137q-8 -27 -36 -35q-15 -4 -31 -4q-14 0 -30 3q-34 7 -72 25.5t-67.5 43 t-47.5 53.5q-13 21 -12 42q0 7 1 15q16 57 44 108.5t44 108.5q94 311 205 608l233 596q33 52 76 52q28 0 60 -23q18 -20 26 -46t13.5 -53.5t9.5 -55t10 -52.5l29 -94q12 -39 27.5 -76t34 -75.5t46.5 -90.5q147 -272 353 -498.5t448 -414.5q20 -29 19 -58q0 -31 -17 -52 q-16 -19 -45 -25t-61 10q-258 201 -464 437.5t-374 516.5q-53 90 -88 180.5t-64 188.5q-2 6 -5 25.5t-8 42t-9 43.5l-6 30q-2 10 -8.5 18.5t-0.5 14.5t8.5 -7t6.5 -22q2 -2 -1 2.5t-5 6.5q18 0 43.5 -38t52.5 -83t52.5 -83t41.5 -38zM174 348q-1 8 -1 15q0 27 12 48 q15 26 40 36t52.5 0.5t50.5 -39.5q2 -4 5 -13.5t5 -14.5t-1 -1t-15 27q-2 4 2 -1.5t6 -9.5l-26 13l-25 12q4 0 12 1t4 -1q-12 -4 -25.5 -6t-29.5 -4q-6 -2 6 3t18 9q33 27 72 35q53 12 110.5 18t110.5 14l411 67l410 62q4 0 7 1q38 0 61 -21q28 -26 28 -59q0 -24 -16 -47 q-18 -27 -61 -35q-258 -39 -513 -82t-515 -78q-46 -37 -89 -37q-12 0 -24 3q-53 13 -82 85z" />
<glyph unicode="&#xc8;" horiz-adv-x="1077" d="M651 1958q-37 -6 -62.5 7.5t-37.5 36t-6 51t35 53.5q2 2 3 2t3 2q31 10 52.5 8t47.5 -21q35 -31 54.5 -81t41.5 -89q37 -59 76 -113l78 -112q25 -35 19.5 -66.5t-27 -50t-54 -18.5t-63.5 31l-84 122l-84 123l-30 56l-27 55q-4 12 -13.5 24.5t-5.5 8.5q8 -4 13.5 -10.5 t9.5 -12.5q2 -4 -2 1t-8 7l38.5 -4t38.5 -6q-2 -2 -3 -2t-3 -2zM903 1444h7q38 0 61 -21q25 -23 27.5 -51.5t-15.5 -55t-61 -34.5q-70 -12 -129 -28l-117 -30q-57 -15 -117.5 -28.5t-130.5 -24.5q-16 -4 -41 -5t-35 -23q-23 -49 -30 -128q-7 -63 -7 -130v-34q2 -85 9 -166 l10 -136q2 -27 7 -79t14.5 -107.5t23.5 -103.5t35 -64q8 -6 26.5 -3t37 9t32.5 12l14 6l111 48l86 36l86 35l111 43q22 8 40 8q16 0 30 -6q30 -12 42 -38q7 -15 8 -33q0 -12 -4 -24q-8 -32 -45 -55l-166 -60q-84 -30 -166 -64q-53 -25 -113.5 -57t-123 -56.5t-126.5 -33.5 q-20 -3 -40 -3q-44 0 -88 14q-39 12 -63.5 52.5t-40 93.5t-22.5 114.5t-10 120t-4 106.5t-3 75q-6 84 -13.5 166.5t-9.5 166.5q0 35 -2 83q-1 16 -1 33q0 33 3 67q4 51 16.5 97t38.5 77q33 39 72 56t80 24.5t85 9.5t91 10q133 25 260 60.5t260 58.5zM170 557q-13 -3 -24 -2 q-26 0 -45 12q-28 18 -35 46q-3 11 -4 22q0 18 9 36q13 30 54 44q68 20 135 37l135 31q68 15 135.5 34t133.5 43q22 8 40 8q16 0 30 -6q30 -12 42 -38q7 -15 8 -33q0 -12 -4 -24q-8 -32 -45 -54q-137 -53 -280.5 -82t-284.5 -74z" />
<glyph unicode="&#xca;" horiz-adv-x="1077" d="M543 1575q-37 20 -48.5 50.5t-1 57.5t39 42t69.5 3l11.5 -4l11.5 -4q-29 -6 -54.5 -13.5t-54.5 -13.5q35 39 83 114t95 157t84 159.5t49 126.5q8 31 26.5 54.5t53.5 29.5q33 2 52.5 -7t37.5 -38q12 -31 19.5 -65.5t17.5 -67.5q-2 2 -4 10l-4 17q-2 8 -2 14q0 8 2 2 t5 -18.5t6 -27.5t8 -23q8 -29 13 -41l19 -45q37 -88 86 -157t117 -134q20 -31 19 -60.5t-17 -49t-45 -26t-61 10.5q-94 92 -161 190.5t-114 220.5q-16 47 -27.5 96.5t-29.5 94.5q23 -14 42 -28.5t42 -28.5q-12 -2 -10 -3.5t10 -1.5t19.5 4.5t19.5 14.5q16 18 17 19t-1 -2 t-3 -1t9 27q4 4 1 -4t-5 -12q-2 -23 -14 -50q-10 -29 -29 -65l-33 -64l-122 -234q-62 -116 -148 -216q-23 -12 -37 -16.5t-41 -0.5zM903 1444h7q38 0 61 -21q25 -23 27.5 -51.5t-15.5 -55t-61 -34.5q-70 -12 -129 -28l-117 -30q-57 -15 -117.5 -28.5t-130.5 -24.5 q-16 -4 -41 -5t-35 -23q-23 -49 -30 -128q-7 -63 -7 -130v-34q2 -85 9 -166l10 -136q2 -27 7 -79t14.5 -107.5t23.5 -103.5t35 -64q8 -6 26.5 -3t37 9t32.5 12l14 6l111 48l86 36l86 35l111 43q22 8 40 8q16 0 30 -6q30 -12 42 -38q7 -15 8 -33q0 -12 -4 -24q-8 -32 -45 -55 l-166 -60q-84 -30 -166 -64q-53 -25 -113.5 -57t-123 -56.5t-126.5 -33.5q-20 -3 -40 -3q-44 0 -88 14q-39 12 -63.5 52.5t-40 93.5t-22.5 114.5t-10 120t-4 106.5t-3 75q-6 84 -13.5 166.5t-9.5 166.5q0 35 -2 83q-1 16 -1 33q0 33 3 67q4 51 16.5 97t38.5 77q33 39 72 56 t80 24.5t85 9.5t91 10q133 25 260 60.5t260 58.5zM170 557q-13 -3 -24 -2q-26 0 -45 12q-28 18 -35 46q-3 11 -4 22q0 18 9 36q13 30 54 44q68 20 135 37l135 31q68 15 135.5 34t133.5 43q22 8 40 8q16 0 30 -6q30 -12 42 -38q7 -15 8 -33q0 -12 -4 -24q-8 -32 -45 -54 q-137 -53 -280.5 -82t-284.5 -74z" />
<glyph unicode="&#xcc;" horiz-adv-x="450" d="M-97 2232q-37 -6 -62.5 7.5t-37.5 36t-6 51t35 53.5q2 2 3 2t3 2q31 10 52.5 8t47.5 -21q35 -31 54.5 -81t41.5 -89q37 -59 76 -113l78 -112q25 -35 19.5 -66.5t-27 -50t-54 -18.5t-63.5 31l-84 122l-84 123l-30 56l-27 55q-4 12 -13.5 24.5t-5.5 8.5q8 -4 13.5 -10.5 t9.5 -12.5q2 -4 -2 1t-8 7l38.5 -4t38.5 -6q-2 -2 -3 -2t-3 -2zM66 1264q20 33 60 44q26 7 52 7l28 -2q40 -6 69.5 -29.5t27.5 -60.5q0 -158 4 -298.5t25.5 -274.5t65.5 -266t122 -273q3 -10 3 -20q0 -23 -17 -44q-25 -29 -63 -42q-31 -11 -65 -11q-8 0 -16 1q-43 3 -69 30 q-86 156 -134 303t-69.5 297.5t-24.5 307.5l-2 137q1 95 3 194zM59 1671q20 33 62 42q20 5 41 5l41 -5q41 -9 71.5 -35.5t28.5 -63.5q-16 -33 -17 -81q0 -10 -1 -19q0 -36 4 -64q0 -37 -31 -53q-27 -15 -62 -15h-9q-40 2 -78.5 20.5t-57.5 51.5q-9 67 -9 116t17 101z" />
<glyph unicode="&#xce;" horiz-adv-x="450" d="M-205 1850q-37 20 -48.5 50.5t-1 57.5t39 42t69.5 3l11.5 -4l11.5 -4q-29 -6 -54.5 -13.5t-54.5 -13.5q35 39 83 114t95 157t84 159.5t49 126.5q8 31 26.5 54.5t53.5 29.5q33 2 52.5 -7t37.5 -38q12 -31 19.5 -65.5t17.5 -67.5q-2 2 -4 10l-4 17q-2 8 -2 14q0 8 2 2 t5 -18.5t6 -27.5t8 -23q8 -29 13 -41l19 -45q37 -88 86 -157t117 -134q20 -31 19 -60.5t-17 -49t-45 -26t-61 10.5q-94 92 -161 190.5t-114 220.5q-16 47 -27.5 96.5t-29.5 94.5q23 -14 42 -28.5t42 -28.5q-12 -2 -10 -3.5t10 -1.5t19.5 4.5t19.5 14.5q16 18 17 19t-1 -2 t-3 -1t9 27q4 4 1 -4t-5 -12q-2 -23 -14 -50q-10 -29 -29 -65l-33 -64l-122 -234q-62 -116 -148 -216q-23 -12 -37 -16.5t-41 -0.5zM66 1264q20 33 60 44q26 7 52 7l28 -2q40 -6 69.5 -29.5t27.5 -60.5q0 -158 4 -298.5t25.5 -274.5t65.5 -266t122 -273q3 -10 3 -20 q0 -23 -17 -44q-25 -29 -63 -42q-31 -11 -65 -11q-8 0 -16 1q-43 3 -69 30q-86 156 -134 303t-69.5 297.5t-24.5 307.5l-2 137q1 95 3 194zM59 1671q20 33 62 42q20 5 41 5l41 -5q41 -9 71.5 -35.5t28.5 -63.5q-16 -33 -17 -81q0 -10 -1 -19q0 -36 4 -64q0 -37 -31 -53 q-27 -15 -62 -15h-9q-40 2 -78.5 20.5t-57.5 51.5q-9 67 -9 116t17 101z" />
<glyph unicode="&#xd1;" horiz-adv-x="1169" d="M559 1708q-29 -33 -60.5 -36t-55 14t-31.5 49t14 69q49 74 119 110.5t147.5 46t158.5 -9t153 -55.5q37 -18 73 -42l72 -46q37 -23 76 -40t80 -26q57 -10 106.5 14.5t87.5 61.5l25 26q12 13 23 27q4 4 10 14.5t2 4.5t-7 -13.5t-10 -13.5l9 17q23 37 54.5 45t57 -4.5 t37.5 -42t-2 -70.5q-16 -35 -50 -73t-77 -71.5t-87 -56t-79 -24.5q-45 -2 -72.5 -2t-52 3t-51.5 11t-70 24q-66 25 -127 66t-124.5 74t-131 43t-143.5 -29q-35 -23 -63 -51q-3 -2 -11 -14zM461 256q0 -37 -38 -68.5t-86 -49.5q-41 -15 -80 -15q-7 0 -14 1q-46 3 -65 36 q-29 180 -79 351t-111 343q-4 29 23.5 59.5t65.5 55t80 38.5q26 8 46 8q12 0 22 -3q25 -10 69 -53.5t88 -93.5l81 -95l49 -59l83 -94l47 -53l41 -44l65 -69l119 -128l120 -128q16 -14 28.5 -29.5t28.5 -30.5q4 -4 12.5 -5t4.5 -3q-14 -4 -27.5 -7t-29.5 -3q-4 0 -1 3t8 6 t9 4t2 -1q-6 -14 -14.5 -29.5t-24.5 -19.5q-8 -2 -5 6t9 19l13 24q7 12 8 21v12q0 30 -8.5 58t-8.5 57v12q2 63 2 114v107q0 55 -1 125t-3 172l-8 288q-1 26 -1 51q0 117 15 234q8 43 35 62q23 16 47 16q4 0 8 -1q29 -3 51.5 -27.5t20.5 -67.5q-16 -123 -16 -249 q0 -21 1 -42q1 -63 1 -126q0 -84 -2 -169q2 -86 5 -158l6 -138q3 -67 7 -132t10 -137q2 -20 2 -40q0 -46 -10 -89q-18 -80 -55 -104q-23 -15 -49 -14q-16 0 -34 5q-46 14 -95 54t-94.5 86.5t-79.5 88.5l-52 60l-79 86l-80 86l-156 174l-78 88l-80 86q-12 14 -23 30l-24 32 q-4 4 -8 9t-10 9q-2 4 -8 8t-2 2q8 -4 15 -7t13 -9q4 -4 -5 1t-13 7l49 58l49 57q12 -35 28.5 -69t28.5 -68q20 -57 34 -116.5t30 -119.5q2 -6 -1 3t-6 21.5l-5 21.5t0 3q35 -96 54.5 -196.5t35.5 -198.5z" />
<glyph unicode="&#xd2;" horiz-adv-x="1202" d="M538 1882q-37 -6 -62.5 7.5t-37.5 36t-6 51t35 53.5q2 2 3 2t3 2q31 10 52.5 8t47.5 -21q35 -31 54.5 -81t41.5 -89q37 -59 76 -113l78 -112q25 -35 19.5 -66.5t-27 -50t-54 -18.5t-63.5 31l-84 122l-84 123l-30 56l-27 55q-4 12 -13.5 24.5t-5.5 8.5q8 -4 13.5 -10.5 t9.5 -12.5q2 -4 -2 1t-8 7l38.5 -4t38.5 -6q-2 -2 -3 -2t-3 -2zM741 1196q-37 -14 -67.5 -33.5t-60 -50.5t-57.5 -74t-58 -104q-37 -74 -60.5 -133.5t-39 -118.5t-23.5 -124.5t-15 -147.5q10 -53 33 -98.5t53.5 -74t68.5 -36.5q11 -2 22 -3q28 0 59 15q92 45 178 115.5 t152.5 158.5t107.5 189.5t41 210.5q0 41 -16.5 84t-40.5 76q-51 70 -102.5 104.5t-105.5 38.5q-8 1 -17 1q-47 0 -98 -20q-60 -23 -130 -65q-37 -6 -62.5 7t-37.5 35.5t-6 51.5t35 53q94 57 181 83q60 18 118 18q26 0 51 -3q82 -11 156.5 -59.5t142.5 -140.5 q41 -53 67.5 -121.5t28.5 -136.5v-18q0 -122 -51 -243q-55 -130 -145.5 -244t-203 -206t-223.5 -147q-51 -25 -111.5 -46.5t-122.5 -32.5q-46 -8 -92 -8l-33 1q-62 4 -118 31q-74 35 -119 93t-67.5 128.5t-25.5 149.5q-1 16 0 32q0 63 10 126q12 79 34.5 151.5t53.5 132.5 q59 117 139 222t180 187q35 29 109.5 67t159.5 65.5t165 32.5q9 1 18 1q67 0 107 -35z" />
<glyph unicode="&#xd4;" horiz-adv-x="1202" d="M428 1500q-37 20 -48.5 50.5t-1 57.5t39 42t69.5 3l11.5 -4l11.5 -4q-29 -6 -54.5 -13.5t-54.5 -13.5q35 39 83 114t95 157t84 159.5t49 126.5q8 31 26.5 54.5t53.5 29.5q33 2 52.5 -7t37.5 -38q12 -31 19.5 -65.5t17.5 -67.5q-2 2 -4 10l-4 17q-2 8 -2 14q0 8 2 2 t5 -18.5t6 -27.5t8 -23q8 -29 13 -41l19 -45q37 -88 86 -157t117 -134q20 -31 19 -60.5t-17 -49t-45 -26t-61 10.5q-94 92 -161 190.5t-114 220.5q-16 47 -27.5 96.5t-29.5 94.5q23 -14 42 -28.5t42 -28.5q-12 -2 -10 -3.5t10 -1.5t19.5 4.5t19.5 14.5q16 18 17 19t-1 -2 t-3 -1t9 27q4 4 1 -4t-5 -12q-2 -23 -14 -50q-10 -29 -29 -65l-33 -64l-122 -234q-62 -116 -148 -216q-23 -12 -37 -16.5t-41 -0.5zM741 1196q-37 -14 -67.5 -33.5t-60 -50.5t-57.5 -74t-58 -104q-37 -74 -60.5 -133.5t-39 -118.5t-23.5 -124.5t-15 -147.5q10 -53 33 -98.5 t53.5 -74t68.5 -36.5q11 -2 22 -3q28 0 59 15q92 45 178 115.5t152.5 158.5t107.5 189.5t41 210.5q0 41 -16.5 84t-40.5 76q-51 70 -102.5 104.5t-105.5 38.5q-8 1 -17 1q-47 0 -98 -20q-60 -23 -130 -65q-37 -6 -62.5 7t-37.5 35.5t-6 51.5t35 53q94 57 181 83 q60 18 118 18q26 0 51 -3q82 -11 156.5 -59.5t142.5 -140.5q41 -53 67.5 -121.5t28.5 -136.5v-18q0 -122 -51 -243q-55 -130 -145.5 -244t-203 -206t-223.5 -147q-51 -25 -111.5 -46.5t-122.5 -32.5q-46 -8 -92 -8l-33 1q-62 4 -118 31q-74 35 -119 93t-67.5 128.5 t-25.5 149.5q-1 16 0 32q0 63 10 126q12 79 34.5 151.5t53.5 132.5q59 117 139 222t180 187q35 29 109.5 67t159.5 65.5t165 32.5q9 1 18 1q67 0 107 -35z" />
<glyph unicode="&#xd5;" horiz-adv-x="1202" d="M278 1618q-29 -33 -60.5 -36t-55 14t-31.5 49t14 69q49 74 119 110.5t147.5 46t158.5 -9t153 -55.5q37 -18 73 -42l72 -46q37 -23 76 -40t80 -26q57 -10 106.5 14.5t87.5 61.5l25 26q12 13 23 27q4 4 10 14.5t2 4.5t-7 -13.5t-10 -13.5l9 17q23 37 54.5 45t57 -4.5 t37.5 -42t-2 -70.5q-16 -35 -50 -73t-77 -71.5t-87 -56t-79 -24.5q-45 -2 -72.5 -2t-52 3t-51.5 11t-70 24q-66 25 -127 66t-124.5 74t-131 43t-143.5 -29q-35 -23 -63 -51q-3 -2 -11 -14zM741 1196q-37 -14 -67.5 -33.5t-60 -50.5t-57.5 -74t-58 -104q-37 -74 -60.5 -133.5 t-39 -118.5t-23.5 -124.5t-15 -147.5q10 -53 33 -98.5t53.5 -74t68.5 -36.5q11 -2 22 -3q28 0 59 15q92 45 178 115.5t152.5 158.5t107.5 189.5t41 210.5q0 41 -16.5 84t-40.5 76q-51 70 -102.5 104.5t-105.5 38.5q-8 1 -17 1q-47 0 -98 -20q-60 -23 -130 -65 q-37 -6 -62.5 7t-37.5 35.5t-6 51.5t35 53q94 57 181 83q60 18 118 18q26 0 51 -3q82 -11 156.5 -59.5t142.5 -140.5q41 -53 67.5 -121.5t28.5 -136.5v-18q0 -122 -51 -243q-55 -130 -145.5 -244t-203 -206t-223.5 -147q-51 -25 -111.5 -46.5t-122.5 -32.5q-46 -8 -92 -8 l-33 1q-62 4 -118 31q-74 35 -119 93t-67.5 128.5t-25.5 149.5q-1 16 0 32q0 63 10 126q12 79 34.5 151.5t53.5 132.5q59 117 139 222t180 187q35 29 109.5 67t159.5 65.5t165 32.5q9 1 18 1q67 0 107 -35z" />
<glyph unicode="&#xd9;" horiz-adv-x="1251" d="M4 1882q-37 -6 -62.5 7.5t-37.5 36t-6 51t35 53.5q2 2 3 2t3 2q31 10 52.5 8t47.5 -21q35 -31 54.5 -81t41.5 -89q37 -59 76 -113l78 -112q25 -35 19.5 -66.5t-27 -50t-54 -18.5t-63.5 31l-84 122l-84 123l-30 56l-27 55q-4 12 -13.5 24.5t-5.5 8.5q8 -4 13.5 -10.5 t9.5 -12.5q2 -4 -2 1t-8 7l38.5 -4t38.5 -6q-2 -2 -3 -2t-3 -2zM520 1253q20 -14 23 -64v-19q0 -43 -7 -93q-9 -61 -25.5 -122.5t-31.5 -96.5q-27 -61 -54.5 -140t-52 -165t-43 -173t-26.5 -167q20 -18 35.5 -29.5t34 -16.5t47.5 -3t80 10q115 20 228.5 31.5t227.5 27.5 l38 5.5t47.5 7.5t44 13t30.5 24q12 18 2 58t-30.5 83t-43 82t-30.5 55q-43 84 -68.5 164t-40 160t-19.5 164t-9 176q6 37 28.5 56t49 20.5t50 -15t33.5 -53.5q2 -63 5.5 -127t9.5 -126t19 -123.5t38 -121.5q27 -59 67 -125.5t69.5 -136.5t38.5 -140q2 -14 2 -28 q0 -56 -30 -110q-18 -35 -52 -56.5t-73.5 -35t-80.5 -20.5t-76 -11q-100 -14 -199.5 -23.5t-202.5 -25.5l-167 -30q-84 -15 -170 -24q-35 -2 -84.5 -2t-96.5 10.5t-86 34t-53 68.5q-6 20 -6 56q0 21 2 47q6 71 23.5 164t44 199.5t57.5 213t64.5 206t64.5 175.5t57.5 122 t42.5 48z" />
<glyph unicode="&#xdb;" horiz-adv-x="1251" d="M-104 1500q-37 20 -48.5 50.5t-1 57.5t39 42t69.5 3l11.5 -4l11.5 -4q-29 -6 -54.5 -13.5t-54.5 -13.5q35 39 83 114t95 157t84 159.5t49 126.5q8 31 26.5 54.5t53.5 29.5q33 2 52.5 -7t37.5 -38q12 -31 19.5 -65.5t17.5 -67.5q-2 2 -4 10l-4 17q-2 8 -2 14q0 8 2 2 t5 -18.5t6 -27.5t8 -23q8 -29 13 -41l19 -45q37 -88 86 -157t117 -134q20 -31 19 -60.5t-17 -49t-45 -26t-61 10.5q-94 92 -161 190.5t-114 220.5q-16 47 -27.5 96.5t-29.5 94.5q23 -14 42 -28.5t42 -28.5q-12 -2 -10 -3.5t10 -1.5t19.5 4.5t19.5 14.5q16 18 17 19t-1 -2 t-3 -1t9 27q4 4 1 -4t-5 -12q-2 -23 -14 -50q-10 -29 -29 -65l-33 -64l-122 -234q-62 -116 -148 -216q-23 -12 -37 -16.5t-41 -0.5zM520 1253q20 -14 23 -64v-19q0 -43 -7 -93q-9 -61 -25.5 -122.5t-31.5 -96.5q-27 -61 -54.5 -140t-52 -165t-43 -173t-26.5 -167 q20 -18 35.5 -29.5t34 -16.5t47.5 -3t80 10q115 20 228.5 31.5t227.5 27.5l38 5.5t47.5 7.5t44 13t30.5 24q12 18 2 58t-30.5 83t-43 82t-30.5 55q-43 84 -68.5 164t-40 160t-19.5 164t-9 176q6 37 28.5 56t49 20.5t50 -15t33.5 -53.5q2 -63 5.5 -127t9.5 -126t19 -123.5 t38 -121.5q27 -59 67 -125.5t69.5 -136.5t38.5 -140q2 -14 2 -28q0 -56 -30 -110q-18 -35 -52 -56.5t-73.5 -35t-80.5 -20.5t-76 -11q-100 -14 -199.5 -23.5t-202.5 -25.5l-167 -30q-84 -15 -170 -24q-35 -2 -84.5 -2t-96.5 10.5t-86 34t-53 68.5q-6 20 -6 56q0 21 2 47 q6 71 23.5 164t44 199.5t57.5 213t64.5 206t64.5 175.5t57.5 122t42.5 48z" />
<glyph unicode="&#xe0;" horiz-adv-x="1462" d="M288 1993q-37 -6 -62.5 7.5t-37.5 36t-6 51t35 53.5q2 2 3 2t3 2q31 10 52.5 8t47.5 -21q35 -31 54.5 -81t41.5 -89q37 -59 76 -113l78 -112q25 -35 19.5 -66.5t-27 -50t-54 -18.5t-63.5 31l-84 122l-84 123l-30 56l-27 55q-4 12 -13.5 24.5t-5.5 8.5q8 -4 13.5 -10.5 t9.5 -12.5q2 -4 -2 1t-8 7l38.5 -4t38.5 -6q-2 -2 -3 -2t-3 -2zM102 -39q-14 -41 -43.5 -54t-57.5 -5t-46 36q-13 19 -13 44q0 11 3 24q16 57 43.5 108.5t44.5 108.5q94 311 204.5 608t233.5 596q33 52 75 52q28 0 60 -23q18 -20 26.5 -46t13.5 -53.5t9 -55t11 -52.5l28 -94 q12 -39 27.5 -76t34 -75.5t47.5 -90.5q147 -272 353 -498.5t448 -414.5q20 -29 19 -58q0 -31 -17 -52q-16 -19 -45 -25q-8 -2 -16 -2q-22 0 -46 12q-258 201 -464 437.5t-373 516.5q-53 90 -88 180.5t-64 188.5q-2 6 -5 25.5t-8 42l-10 43.5l-6 30q-2 10 -8 18.5t0 14.5 t8 -7t6 -22q2 -2 -1 2.5t-5 6.5q35 2 69 3t68 3q-27 -96 -68 -188l-81 -183l-56 -146l-59 -151q-2 -6 2 5.5l8.5 24.5t8.5 23.5t2 4.5q-51 -141 -96 -284l-89 -288q-25 -80 -61 -151q-12 -18 -23 -45l-6 -19q-4 -12 -2 -6q4 8 5 16.5t6 14.5q4 6 0 -6zM72 348q-1 8 -1 15 q0 27 12 48q15 26 39.5 36t52.5 0.5t50 -39.5q2 -4 5 -13.5t5.5 -14.5t-1 -1t-15.5 27q-2 4 2 -1.5t6 -9.5l-25 13l-26 12q4 0 12.5 1t4.5 -1q-12 -4 -25.5 -6t-30.5 -4q-6 -2 6.5 3t18.5 9q33 27 71 35q53 12 110.5 18t111.5 14l410 67l411 62q4 0 7 1q38 0 60 -21 q28 -26 29 -59q0 -24 -16 -47q-18 -27 -62 -35q-258 -39 -513 -82t-515 -78q-46 -37 -89 -37q-12 0 -23 3q-53 13 -82 85z" />
<glyph unicode="&#xe2;" horiz-adv-x="1462" d="M178 1610q-37 20 -48.5 50.5t-1 57.5t39 42t69.5 3l11.5 -4l11.5 -4q-29 -6 -54.5 -13.5t-54.5 -13.5q35 39 83 114t95 157t84 159.5t49 126.5q8 31 26.5 54.5t53.5 29.5q33 2 52.5 -7t37.5 -38q12 -31 19.5 -65.5t17.5 -67.5q-2 2 -4 10l-4 17q-2 8 -2 14q0 8 2 2 t5 -18.5t6 -27.5t8 -23q8 -29 13 -41l19 -45q37 -88 86 -157t117 -134q20 -31 19 -60.5t-17 -49t-45 -26t-61 10.5q-94 92 -161 190.5t-114 220.5q-16 47 -27.5 96.5t-29.5 94.5q23 -14 42 -28.5t42 -28.5q-12 -2 -10 -3.5t10 -1.5t19.5 4.5t19.5 14.5q16 18 17 19t-1 -2 t-3 -1t9 27q4 4 1 -4t-5 -12q-2 -23 -14 -50q-10 -29 -29 -65l-33 -64l-122 -234q-62 -116 -148 -216q-23 -12 -37 -16.5t-41 -0.5zM102 -39q-14 -41 -43.5 -54t-57.5 -5t-46 36q-13 19 -13 44q0 11 3 24q16 57 43.5 108.5t44.5 108.5q94 311 204.5 608t233.5 596 q33 52 75 52q28 0 60 -23q18 -20 26.5 -46t13.5 -53.5t9 -55t11 -52.5l28 -94q12 -39 27.5 -76t34 -75.5t47.5 -90.5q147 -272 353 -498.5t448 -414.5q20 -29 19 -58q0 -31 -17 -52q-16 -19 -45 -25q-8 -2 -16 -2q-22 0 -46 12q-258 201 -464 437.5t-373 516.5 q-53 90 -88 180.5t-64 188.5q-2 6 -5 25.5t-8 42l-10 43.5l-6 30q-2 10 -8 18.5t0 14.5t8 -7t6 -22q2 -2 -1 2.5t-5 6.5q35 2 69 3t68 3q-27 -96 -68 -188l-81 -183l-56 -146l-59 -151q-2 -6 2 5.5l8.5 24.5t8.5 23.5t2 4.5q-51 -141 -96 -284l-89 -288q-25 -80 -61 -151 q-12 -18 -23 -45l-6 -19q-4 -12 -2 -6q4 8 5 16.5t6 14.5q4 6 0 -6zM72 348q-1 8 -1 15q0 27 12 48q15 26 39.5 36t52.5 0.5t50 -39.5q2 -4 5 -13.5t5.5 -14.5t-1 -1t-15.5 27q-2 4 2 -1.5t6 -9.5l-25 13l-26 12q4 0 12.5 1t4.5 -1q-12 -4 -25.5 -6t-30.5 -4q-6 -2 6.5 3 t18.5 9q33 27 71 35q53 12 110.5 18t111.5 14l410 67l411 62q4 0 7 1q38 0 60 -21q28 -26 29 -59q0 -24 -16 -47q-18 -27 -62 -35q-258 -39 -513 -82t-515 -78q-46 -37 -89 -37q-12 0 -23 3q-53 13 -82 85z" />
<glyph unicode="&#xe3;" horiz-adv-x="1462" d="M28 1729q-29 -33 -60.5 -36t-55 14t-31.5 49t14 69q49 74 119 110.5t147.5 46t158.5 -9t153 -55.5q37 -18 73 -42l72 -46q37 -23 76 -40t80 -26q57 -10 106.5 14.5t87.5 61.5l25 26q12 13 23 27q4 4 10 14.5t2 4.5t-7 -13.5t-10 -13.5l9 17q23 37 54.5 45t57 -4.5 t37.5 -42t-2 -70.5q-16 -35 -50 -73t-77 -71.5t-87 -56t-79 -24.5q-45 -2 -72.5 -2t-52 3t-51.5 11t-70 24q-66 25 -127 66t-124.5 74t-131 43t-143.5 -29q-35 -23 -63 -51q-3 -2 -11 -14zM102 -39q-14 -41 -43.5 -54t-57.5 -5t-46 36q-13 19 -13 44q0 11 3 24 q16 57 43.5 108.5t44.5 108.5q94 311 204.5 608t233.5 596q33 52 75 52q28 0 60 -23q18 -20 26.5 -46t13.5 -53.5t9 -55t11 -52.5l28 -94q12 -39 27.5 -76t34 -75.5t47.5 -90.5q147 -272 353 -498.5t448 -414.5q20 -29 19 -58q0 -31 -17 -52q-16 -19 -45 -25q-8 -2 -16 -2 q-22 0 -46 12q-258 201 -464 437.5t-373 516.5q-53 90 -88 180.5t-64 188.5q-2 6 -5 25.5t-8 42l-10 43.5l-6 30q-2 10 -8 18.5t0 14.5t8 -7t6 -22q2 -2 -1 2.5t-5 6.5q35 2 69 3t68 3q-27 -96 -68 -188l-81 -183l-56 -146l-59 -151q-2 -6 2 5.5l8.5 24.5t8.5 23.5t2 4.5 q-51 -141 -96 -284l-89 -288q-25 -80 -61 -151q-12 -18 -23 -45l-6 -19q-4 -12 -2 -6q4 8 5 16.5t6 14.5q4 6 0 -6zM72 348q-1 8 -1 15q0 27 12 48q15 26 39.5 36t52.5 0.5t50 -39.5q2 -4 5 -13.5t5.5 -14.5t-1 -1t-15.5 27q-2 4 2 -1.5t6 -9.5l-25 13l-26 12q4 0 12.5 1 t4.5 -1q-12 -4 -25.5 -6t-30.5 -4q-6 -2 6.5 3t18.5 9q33 27 71 35q53 12 110.5 18t111.5 14l410 67l411 62q4 0 7 1q38 0 60 -21q28 -26 29 -59q0 -24 -16 -47q-18 -27 -62 -35q-258 -39 -513 -82t-515 -78q-46 -37 -89 -37q-12 0 -23 3q-53 13 -82 85z" />
<glyph unicode="&#xe8;" horiz-adv-x="1040" d="M651 1958q-37 -6 -62.5 7.5t-37.5 36t-6 51t35 53.5q2 2 3 2t3 2q31 10 52.5 8t47.5 -21q35 -31 54.5 -81t41.5 -89q37 -59 76 -113l78 -112q25 -35 19.5 -66.5t-27 -50t-54 -18.5t-63.5 31l-84 122l-84 123l-30 56l-27 55q-4 12 -13.5 24.5t-5.5 8.5q8 -4 13.5 -10.5 t9.5 -12.5q2 -4 -2 1t-8 7l38.5 -4t38.5 -6q-2 -2 -3 -2t-3 -2zM903 1444h7q38 0 61 -21q25 -23 27.5 -51.5t-15.5 -55t-61 -34.5q-139 -25 -273.5 -63.5t-275.5 -59.5q-8 -2 -36 -3t-59.5 -4t-57 -8t-32.5 -18q-23 -49 -27 -127q-3 -43 -3 -88q0 -36 2 -72q4 -83 13 -163 t13 -135q2 -27 3 -89.5t5.5 -130t13.5 -125t30 -73.5q8 -6 33.5 0t52 16.5l48.5 19.5l21 9l261 110l264 103q22 8 40 8q16 0 30 -6q30 -12 42 -38q7 -15 8 -33q0 -12 -4 -24q-8 -32 -45 -55l-166 -60q-84 -30 -166 -64q-53 -25 -113.5 -57t-123 -56.5t-126.5 -33.5 q-20 -3 -40 -3q-44 0 -88 14q-39 12 -63.5 52.5t-40 93.5t-22.5 114.5t-10 120t-4 106.5t-3 75q-6 84 -13.5 166.5t-9.5 166.5q0 35 -2 83q-1 16 -1 33q0 33 3 67q4 51 16.5 97t38.5 77q33 39 72 56t80 24.5t85 9.5t91 10q133 25 260 60.5t260 58.5zM170 557q-13 -3 -24 -2 q-26 0 -45 12q-28 18 -35 46q-3 11 -4 22q0 18 9 36q13 30 54 44q68 20 135 37l135 31q68 15 135.5 34t133.5 43q22 8 40 8q16 0 30 -6q30 -12 42 -38q7 -15 8 -33q0 -12 -4 -24q-8 -32 -45 -54q-137 -53 -280.5 -82t-284.5 -74z" />
<glyph unicode="&#xea;" horiz-adv-x="1040" d="M543 1575q-37 20 -48.5 50.5t-1 57.5t39 42t69.5 3l11.5 -4l11.5 -4q-29 -6 -54.5 -13.5t-54.5 -13.5q35 39 83 114t95 157t84 159.5t49 126.5q8 31 26.5 54.5t53.5 29.5q33 2 52.5 -7t37.5 -38q12 -31 19.5 -65.5t17.5 -67.5q-2 2 -4 10l-4 17q-2 8 -2 14q0 8 2 2 t5 -18.5t6 -27.5t8 -23q8 -29 13 -41l19 -45q37 -88 86 -157t117 -134q20 -31 19 -60.5t-17 -49t-45 -26t-61 10.5q-94 92 -161 190.5t-114 220.5q-16 47 -27.5 96.5t-29.5 94.5q23 -14 42 -28.5t42 -28.5q-12 -2 -10 -3.5t10 -1.5t19.5 4.5t19.5 14.5q16 18 17 19t-1 -2 t-3 -1t9 27q4 4 1 -4t-5 -12q-2 -23 -14 -50q-10 -29 -29 -65l-33 -64l-122 -234q-62 -116 -148 -216q-23 -12 -37 -16.5t-41 -0.5zM903 1444h7q38 0 61 -21q25 -23 27.5 -51.5t-15.5 -55t-61 -34.5q-139 -25 -273.5 -63.5t-275.5 -59.5q-8 -2 -36 -3t-59.5 -4t-57 -8 t-32.5 -18q-23 -49 -27 -127q-3 -43 -3 -88q0 -36 2 -72q4 -83 13 -163t13 -135q2 -27 3 -89.5t5.5 -130t13.5 -125t30 -73.5q8 -6 33.5 0t52 16.5l48.5 19.5l21 9l261 110l264 103q22 8 40 8q16 0 30 -6q30 -12 42 -38q7 -15 8 -33q0 -12 -4 -24q-8 -32 -45 -55l-166 -60 q-84 -30 -166 -64q-53 -25 -113.5 -57t-123 -56.5t-126.5 -33.5q-20 -3 -40 -3q-44 0 -88 14q-39 12 -63.5 52.5t-40 93.5t-22.5 114.5t-10 120t-4 106.5t-3 75q-6 84 -13.5 166.5t-9.5 166.5q0 35 -2 83q-1 16 -1 33q0 33 3 67q4 51 16.5 97t38.5 77q33 39 72 56t80 24.5 t85 9.5t91 10q133 25 260 60.5t260 58.5zM170 557q-13 -3 -24 -2q-26 0 -45 12q-28 18 -35 46q-3 11 -4 22q0 18 9 36q13 30 54 44q68 20 135 37l135 31q68 15 135.5 34t133.5 43q22 8 40 8q16 0 30 -6q30 -12 42 -38q7 -15 8 -33q0 -12 -4 -24q-8 -32 -45 -54 q-137 -53 -280.5 -82t-284.5 -74z" />
<glyph unicode="&#xec;" horiz-adv-x="450" d="M-121 2242q-37 -6 -62.5 7.5t-37.5 36t-6 51t35 53.5q2 2 3 2t3 2q31 10 52.5 8t47.5 -21q35 -31 54.5 -81t41.5 -89q37 -59 76 -113l78 -112q25 -35 19.5 -66.5t-27 -50t-54 -18.5t-63.5 31l-84 122l-84 123l-30 56l-27 55q-4 12 -13.5 24.5t-5.5 8.5q8 -4 13.5 -10.5 t9.5 -12.5q2 -4 -2 1t-8 7l38.5 -4t38.5 -6q-2 -2 -3 -2t-3 -2zM66 1264q20 33 47.5 44t52 4t42 -32t15.5 -61q-4 -20 -3 -41q0 -14 1 -29q4 -37 4 -72q0 -141 7.5 -262t29 -235.5t63.5 -229t109 -244.5q5 -17 5 -31q0 -16 -6 -31q-11 -28 -33 -41q-16 -10 -37 -10 q-7 0 -14 1q-30 4 -56 31q-74 137 -119 261t-69.5 247.5t-33 255t-8.5 282.5q0 49 -4 97q-1 14 -1 28q1 34 8 68zM57 1677q20 33 48 44q17 7 33 7q10 0 20 -3q25 -7 42 -31.5t15 -61.5l-8 -27q-4 -13 -6 -30l4 -40l4 -40q0 -37 -18.5 -59.5t-44.5 -27.5q-8 -2 -15 -2 q-18 0 -37 9q-27 12 -45 45q-9 67 -9 116t17 101z" />
<glyph unicode="&#xee;" horiz-adv-x="450" d="M-229 1860q-37 20 -48.5 50.5t-1 57.5t39 42t69.5 3l11.5 -4l11.5 -4q-29 -6 -54.5 -13.5t-54.5 -13.5q35 39 83 114t95 157t84 159.5t49 126.5q8 31 26.5 54.5t53.5 29.5q33 2 52.5 -7t37.5 -38q12 -31 19.5 -65.5t17.5 -67.5q-2 2 -4 10l-4 17q-2 8 -2 14q0 8 2 2 t5 -18.5t6 -27.5t8 -23q8 -29 13 -41l19 -45q37 -88 86 -157t117 -134q20 -31 19 -60.5t-17 -49t-45 -26t-61 10.5q-94 92 -161 190.5t-114 220.5q-16 47 -27.5 96.5t-29.5 94.5q23 -14 42 -28.5t42 -28.5q-12 -2 -10 -3.5t10 -1.5t19.5 4.5t19.5 14.5q16 18 17 19t-1 -2 t-3 -1t9 27q4 4 1 -4t-5 -12q-2 -23 -14 -50q-10 -29 -29 -65l-33 -64l-122 -234q-62 -116 -148 -216q-23 -12 -37 -16.5t-41 -0.5zM66 1264q20 33 47.5 44t52 4t42 -32t15.5 -61q-4 -20 -3 -41q0 -14 1 -29q4 -37 4 -72q0 -141 7.5 -262t29 -235.5t63.5 -229t109 -244.5 q5 -17 5 -31q0 -16 -6 -31q-11 -28 -33 -41q-16 -10 -37 -10q-7 0 -14 1q-30 4 -56 31q-74 137 -119 261t-69.5 247.5t-33 255t-8.5 282.5q0 49 -4 97q-1 14 -1 28q1 34 8 68zM57 1677q20 33 48 44q17 7 33 7q10 0 20 -3q25 -7 42 -31.5t15 -61.5l-8 -27q-4 -13 -6 -30 l4 -40l4 -40q0 -37 -18.5 -59.5t-44.5 -27.5q-8 -2 -15 -2q-18 0 -37 9q-27 12 -45 45q-9 67 -9 116t17 101z" />
<glyph unicode="&#xf1;" horiz-adv-x="1032" d="M-41 1708q-29 -33 -60.5 -36t-55 14t-31.5 49t14 69q49 74 119 110.5t147.5 46t158.5 -9t153 -55.5q37 -18 73 -42l72 -46q37 -23 76 -40t80 -26q57 -10 106.5 14.5t87.5 61.5l25 26q12 13 23 27q4 4 10 14.5t2 4.5t-7 -13.5t-10 -13.5l9 17q23 37 54.5 45t57 -4.5 t37.5 -42t-2 -70.5q-16 -35 -50 -73t-77 -71.5t-87 -56t-79 -24.5q-45 -2 -72.5 -2t-52 3t-51.5 11t-70 24q-66 25 -127 66t-124.5 74t-131 43t-143.5 -29q-35 -23 -63 -51q-3 -2 -11 -14zM324 256q0 -37 -18.5 -59.5t-44 -27.5t-52.5 7t-45 45q-29 180 -79 351t-112 343 q-1 9 -1 17q0 45 29 68q21 17 50 18q17 0 37 -6q25 -10 69 -53.5t88 -93.5l81 -95l49 -59l83 -94l47 -53l41 -44l64 -69l120 -128l120 -128q16 -14 28.5 -29.5t28.5 -30.5q4 -4 12.5 -5t4.5 -3q-14 -4 -27.5 -7t-30.5 -3q-4 0 -1 3t8.5 6t9.5 4t2 -1q-6 -14 -14.5 -29.5 t-24.5 -19.5q-8 -2 -5 6t9 19l13 24q7 12 7 21q0 6 1 12q0 30 -8.5 58t-8.5 57v12q2 63 2 114v107q0 55 -1 125t-3 172l-8 288q-1 26 -1 51q0 117 15 234q8 43 35 62q23 16 47 16q4 0 8 -1q29 -3 51.5 -27.5t20.5 -67.5q-16 -123 -16 -249q0 -21 1 -42q1 -63 1 -126 q0 -84 -2 -169q2 -86 5 -158l6 -138q3 -67 7 -132t10 -137q2 -20 2 -40q0 -46 -10 -89q-18 -80 -55 -104q-23 -15 -50 -14q-16 0 -33 5q-46 14 -95.5 54t-94.5 86.5t-80 88.5l-51 60l-80 86l-79 86l-156 174l-78 88l-80 86q-12 14 -23 30l-24 32q-4 4 -8 9t-10 9 q-2 4 -8.5 8t-2.5 2q8 -4 15.5 -7t13.5 -9q4 -4 -5 1t-13 7l49 58l49 57q12 -35 28.5 -69t28.5 -68q20 -57 33.5 -116.5t30.5 -119.5q2 -6 -1 3t-6 21.5t-5.5 21.5t-0.5 3q35 -96 55 -196.5t36 -198.5z" />
<glyph unicode="&#xf2;" horiz-adv-x="1202" d="M477 1909q-37 -6 -62.5 7.5t-37.5 36t-6 51t35 53.5q2 2 3 2t3 2q31 10 52.5 8t47.5 -21q35 -31 54.5 -81t41.5 -89q37 -59 76 -113l78 -112q25 -35 19.5 -66.5t-27 -50t-54 -18.5t-63.5 31l-84 122l-84 123l-30 56l-27 55q-4 12 -13.5 24.5t-5.5 8.5q8 -4 13.5 -10.5 t9.5 -12.5q2 -4 -2 1t-8 7l38.5 -4t38.5 -6q-2 -2 -3 -2t-3 -2zM760 1223q-37 4 -57.5 25.5t-23.5 47t12.5 51t49.5 37.5h7q-8 -35 -15.5 -71.5l-15.5 -73.5q6 -2 14 -6q31 -2 25 -5t-26.5 -8.5t-46.5 -9.5t-34 -8q-74 -29 -137 -76t-121 -104q-57 -57 -109.5 -125 t-94.5 -143.5t-67.5 -156.5t-31.5 -163q-1 -13 -1 -28q0 -22 2 -49q3 -44 15.5 -88t35 -80.5t59.5 -55.5q39 -20 85 -21h9q41 0 82 8q45 9 89 26.5t81 35.5q92 45 186 121t171 169t125 199.5t48 215.5q0 41 -16.5 84t-40.5 76q-51 70 -102.5 104.5t-105.5 38.5q-8 1 -17 1 q-47 0 -98 -20q-60 -23 -130 -65q-37 -6 -62.5 7t-37.5 35.5t-6 51.5t35 53q94 57 181 83q60 18 118 18q26 0 51 -3q82 -11 156.5 -59.5t142.5 -140.5q41 -53 67.5 -121.5t28.5 -136.5v-18q0 -122 -51 -243q-55 -130 -145.5 -244t-203 -206t-223.5 -147 q-51 -25 -111.5 -46.5t-122.5 -32.5q-46 -8 -92 -8l-33 1q-62 4 -118 31q-74 35 -119 93t-67.5 128.5t-25.5 149.5q-1 16 0 32q0 63 10 126q12 79 34.5 151.5t53.5 132.5q59 117 139 222t180 187q35 29 97.5 72t131 75.5t136.5 43.5q14 2 27 2q50 0 85 -31q22 -32 23 -62 q0 -14 -5 -27q-15 -42 -73 -52h-6z" />
<glyph unicode="&#xf4;" horiz-adv-x="1202" d="M369 1526q-37 20 -48.5 50.5t-1 57.5t39 42t69.5 3l11.5 -4l11.5 -4q-29 -6 -54.5 -13.5t-54.5 -13.5q35 39 83 114t95 157t84 159.5t49 126.5q8 31 26.5 54.5t53.5 29.5q33 2 52.5 -7t37.5 -38q12 -31 19.5 -65.5t17.5 -67.5q-2 2 -4 10l-4 17q-2 8 -2 14q0 8 2 2 t5 -18.5t6 -27.5t8 -23q8 -29 13 -41l19 -45q37 -88 86 -157t117 -134q20 -31 19 -60.5t-17 -49t-45 -26t-61 10.5q-94 92 -161 190.5t-114 220.5q-16 47 -27.5 96.5t-29.5 94.5q23 -14 42 -28.5t42 -28.5q-12 -2 -10 -3.5t10 -1.5t19.5 4.5t19.5 14.5q16 18 17 19t-1 -2 t-3 -1t9 27q4 4 1 -4t-5 -12q-2 -23 -14 -50q-10 -29 -29 -65l-33 -64l-122 -234q-62 -116 -148 -216q-23 -12 -37 -16.5t-41 -0.5zM760 1223q-37 4 -57.5 25.5t-23.5 47t12.5 51t49.5 37.5h7q-8 -35 -15.5 -71.5l-15.5 -73.5q6 -2 14 -6q31 -2 25 -5t-26.5 -8.5t-46.5 -9.5 t-34 -8q-74 -29 -137 -76t-121 -104q-57 -57 -109.5 -125t-94.5 -143.5t-67.5 -156.5t-31.5 -163q-1 -13 -1 -28q0 -22 2 -49q3 -44 15.5 -88t35 -80.5t59.5 -55.5q39 -20 85 -21h9q41 0 82 8q45 9 89 26.5t81 35.5q92 45 186 121t171 169t125 199.5t48 215.5q0 41 -16.5 84 t-40.5 76q-51 70 -102.5 104.5t-105.5 38.5q-8 1 -17 1q-47 0 -98 -20q-60 -23 -130 -65q-37 -6 -62.5 7t-37.5 35.5t-6 51.5t35 53q94 57 181 83q60 18 118 18q26 0 51 -3q82 -11 156.5 -59.5t142.5 -140.5q41 -53 67.5 -121.5t28.5 -136.5v-18q0 -122 -51 -243 q-55 -130 -145.5 -244t-203 -206t-223.5 -147q-51 -25 -111.5 -46.5t-122.5 -32.5q-46 -8 -92 -8l-33 1q-62 4 -118 31q-74 35 -119 93t-67.5 128.5t-25.5 149.5q-1 16 0 32q0 63 10 126q12 79 34.5 151.5t53.5 132.5q59 117 139 222t180 187q35 29 97.5 72t131 75.5 t136.5 43.5q14 2 27 2q50 0 85 -31q22 -32 23 -62q0 -14 -5 -27q-15 -42 -73 -52h-6z" />
<glyph unicode="&#xf5;" horiz-adv-x="1202" d="M217 1645q-29 -33 -60.5 -36t-55 14t-31.5 49t14 69q49 74 119 110.5t147.5 46t158.5 -9t153 -55.5q37 -18 73 -42l72 -46q37 -23 76 -40t80 -26q57 -10 106.5 14.5t87.5 61.5l25 26q12 13 23 27q4 4 10 14.5t2 4.5t-7 -13.5t-10 -13.5l9 17q23 37 54.5 45t57 -4.5 t37.5 -42t-2 -70.5q-16 -35 -50 -73t-77 -71.5t-87 -56t-79 -24.5q-45 -2 -72.5 -2t-52 3t-51.5 11t-70 24q-66 25 -127 66t-124.5 74t-131 43t-143.5 -29q-35 -23 -63 -51q-3 -2 -11 -14zM760 1223q-37 4 -57.5 25.5t-23.5 47t12.5 51t49.5 37.5h7q-8 -35 -15.5 -71.5 l-15.5 -73.5q6 -2 14 -6q31 -2 25 -5t-26.5 -8.5t-46.5 -9.5t-34 -8q-74 -29 -137 -76t-121 -104q-57 -57 -109.5 -125t-94.5 -143.5t-67.5 -156.5t-31.5 -163q-1 -13 -1 -28q0 -22 2 -49q3 -44 15.5 -88t35 -80.5t59.5 -55.5q39 -20 85 -21h9q41 0 82 8q45 9 89 26.5 t81 35.5q92 45 186 121t171 169t125 199.5t48 215.5q0 41 -16.5 84t-40.5 76q-51 70 -102.5 104.5t-105.5 38.5q-8 1 -17 1q-47 0 -98 -20q-60 -23 -130 -65q-37 -6 -62.5 7t-37.5 35.5t-6 51.5t35 53q94 57 181 83q60 18 118 18q26 0 51 -3q82 -11 156.5 -59.5 t142.5 -140.5q41 -53 67.5 -121.5t28.5 -136.5v-18q0 -122 -51 -243q-55 -130 -145.5 -244t-203 -206t-223.5 -147q-51 -25 -111.5 -46.5t-122.5 -32.5q-46 -8 -92 -8l-33 1q-62 4 -118 31q-74 35 -119 93t-67.5 128.5t-25.5 149.5q-1 16 0 32q0 63 10 126q12 79 34.5 151.5 t53.5 132.5q59 117 139 222t180 187q35 29 97.5 72t131 75.5t136.5 43.5q14 2 27 2q50 0 85 -31q22 -32 23 -62q0 -14 -5 -27q-15 -42 -73 -52h-6z" />
<glyph unicode="&#xf9;" horiz-adv-x="1251" d="M692 1907q-37 -6 -62.5 7.5t-37.5 36t-6 51t35 53.5q2 2 3 2t3 2q31 10 52.5 8t47.5 -21q35 -31 54.5 -81t41.5 -89q37 -59 76 -113l78 -112q25 -35 19.5 -66.5t-27 -50t-54 -18.5t-63.5 31l-84 122l-84 123l-30 56l-27 55q-4 12 -13.5 24.5t-5.5 8.5q8 -4 13.5 -10.5 t9.5 -12.5q2 -4 -2 1t-8 7l38.5 -4t38.5 -6q-2 -2 -3 -2t-3 -2zM295 1145q-16 33 -10 61.5t25.5 45t48.5 17.5h3q28 0 58 -20q28 -36 28 -85q0 -41 -12 -83q-12 -45 -32.5 -89t-34.5 -79l-47 -103l-62 -135l-66 -151q-34 -78 -61 -149.5t-43 -133t-14 -100.5 q51 -12 105.5 -12t107.5 7t106.5 18.5t104.5 19.5q115 20 228.5 31.5t227.5 27.5l38 5.5t47.5 7.5t44 13t30.5 24q12 18 2 58t-30.5 83t-43 82t-30.5 55q-43 84 -68.5 164t-40 160t-19.5 164t-9 176q6 37 28.5 56t48.5 21h3q25 0 48 -16q24 -16 33 -53q2 -63 5.5 -127 t9.5 -126t19 -123.5t38 -121.5q27 -59 67 -125.5t69.5 -136.5t38.5 -140q2 -14 2 -28q0 -56 -30 -110q-18 -35 -52 -56.5t-73.5 -35t-80.5 -20.5t-76 -11q-100 -14 -199.5 -23.5t-202.5 -25.5l-167 -30q-84 -15 -170 -24q-35 -2 -84.5 -2t-96.5 10.5t-86 34t-53 68.5 q-9 27 -9 62q0 22 4 47q9 65 31.5 138.5t54.5 152.5l63 152q32 73 62 134l48 102l49 113q25 55 43 113l14 40q4 11 11 33q2 6 0 15.5t0 5.5q6 -12 9 -25.5t7 -27.5q0 2 -8 10z" />
<glyph unicode="&#xfb;" horiz-adv-x="1251" d="M584 1524q-37 20 -48.5 50.5t-1 57.5t39 42t69.5 3l11.5 -4l11.5 -4q-29 -6 -54.5 -13.5t-54.5 -13.5q35 39 83 114t95 157t84 159.5t49 126.5q8 31 26.5 54.5t53.5 29.5q33 2 52.5 -7t37.5 -38q12 -31 19.5 -65.5t17.5 -67.5q-2 2 -4 10l-4 17q-2 8 -2 14q0 8 2 2 t5 -18.5t6 -27.5t8 -23q8 -29 13 -41l19 -45q37 -88 86 -157t117 -134q20 -31 19 -60.5t-17 -49t-45 -26t-61 10.5q-94 92 -161 190.5t-114 220.5q-16 47 -27.5 96.5t-29.5 94.5q23 -14 42 -28.5t42 -28.5q-12 -2 -10 -3.5t10 -1.5t19.5 4.5t19.5 14.5q16 18 17 19t-1 -2 t-3 -1t9 27q4 4 1 -4t-5 -12q-2 -23 -14 -50q-10 -29 -29 -65l-33 -64l-122 -234q-62 -116 -148 -216q-23 -12 -37 -16.5t-41 -0.5zM295 1145q-16 33 -10 61.5t25.5 45t48.5 17.5h3q28 0 58 -20q28 -36 28 -85q0 -41 -12 -83q-12 -45 -32.5 -89t-34.5 -79l-47 -103l-62 -135 l-66 -151q-34 -78 -61 -149.5t-43 -133t-14 -100.5q51 -12 105.5 -12t107.5 7t106.5 18.5t104.5 19.5q115 20 228.5 31.5t227.5 27.5l38 5.5t47.5 7.5t44 13t30.5 24q12 18 2 58t-30.5 83t-43 82t-30.5 55q-43 84 -68.5 164t-40 160t-19.5 164t-9 176q6 37 28.5 56t48.5 21 h3q25 0 48 -16q24 -16 33 -53q2 -63 5.5 -127t9.5 -126t19 -123.5t38 -121.5q27 -59 67 -125.5t69.5 -136.5t38.5 -140q2 -14 2 -28q0 -56 -30 -110q-18 -35 -52 -56.5t-73.5 -35t-80.5 -20.5t-76 -11q-100 -14 -199.5 -23.5t-202.5 -25.5l-167 -30q-84 -15 -170 -24 q-35 -2 -84.5 -2t-96.5 10.5t-86 34t-53 68.5q-9 27 -9 62q0 22 4 47q9 65 31.5 138.5t54.5 152.5l63 152q32 73 62 134l48 102l49 113q25 55 43 113l14 40q4 11 11 33q2 6 0 15.5t0 5.5q6 -12 9 -25.5t7 -27.5q0 2 -8 10z" />
<glyph unicode="&#x152;" horiz-adv-x="2279" d="M2105 1444h7q38 0 61 -21q25 -23 27.5 -51.5t-15.5 -55t-61 -34.5q-70 -12 -129 -28l-117 -30q-57 -15 -117.5 -28.5t-130.5 -24.5q-16 -4 -41 -5t-35 -23q-23 -49 -30 -128q-7 -63 -7 -130v-34q2 -85 9 -166l10 -136q2 -27 7 -79t14.5 -107.5t23.5 -103.5t35 -64 q8 -6 26.5 -3t37 9t32.5 12l14 6l111 48l86 36l86 35l111 43q22 8 40 8q16 0 30 -6q30 -12 42 -38q7 -15 8 -33q0 -12 -4 -24q-8 -32 -45 -55l-166 -60q-84 -30 -166 -64q-53 -25 -113.5 -57t-123 -56.5t-126.5 -33.5q-20 -3 -40 -3q-44 0 -88 14q-39 12 -63.5 52.5 t-40 93.5t-22.5 114.5t-10 120t-4 106.5t-3 75q-6 84 -13.5 166.5t-9.5 166.5q0 35 -2 83q-1 16 -1 33q0 33 3 67q4 51 16.5 97t38.5 77q33 39 72 56t80 24.5t85 9.5t91 10q133 25 260 60.5t260 58.5zM1372 557q-13 -3 -24 -2q-26 0 -45 12q-28 18 -35 46q-3 11 -4 22 q0 18 9 36q13 30 54 44q68 20 135 37l135 31q68 15 135.5 34t133.5 43q22 8 40 8q16 0 30 -6q30 -12 42 -38q7 -15 8 -33q0 -12 -4 -24q-8 -32 -45 -54q-137 -53 -280.5 -82t-284.5 -74zM741 1196q-37 -14 -67.5 -33.5t-60 -50.5t-57.5 -74t-58 -104q-37 -74 -60.5 -133.5 t-39 -118.5t-23.5 -124.5t-15 -147.5q10 -53 33 -98.5t53.5 -74t68.5 -36.5q11 -2 22 -3q28 0 59 15q92 45 178 115.5t152.5 158.5t107.5 189.5t41 210.5q0 41 -16.5 84t-40.5 76q-51 70 -102.5 104.5t-105.5 38.5q-8 1 -17 1q-47 0 -98 -20q-60 -23 -130 -65 q-37 -6 -62.5 7t-37.5 35.5t-6 51.5t35 53q94 57 181 83q60 18 118 18q26 0 51 -3q82 -11 156.5 -59.5t142.5 -140.5q41 -53 67.5 -121.5t28.5 -136.5v-18q0 -122 -51 -243q-55 -130 -145.5 -244t-203 -206t-223.5 -147q-51 -25 -111.5 -46.5t-122.5 -32.5q-46 -8 -92 -8 l-33 1q-62 4 -118 31q-74 35 -119 93t-67.5 128.5t-25.5 149.5q-1 16 0 32q0 63 10 126q12 79 34.5 151.5t53.5 132.5q59 117 139 222t180 187q35 29 109.5 67t159.5 65.5t165 32.5q9 1 18 1q67 0 107 -35z" />
<glyph unicode="&#x153;" horiz-adv-x="2242" d="M2105 1444h7q38 0 61 -21q25 -23 27.5 -51.5t-15.5 -55t-61 -34.5q-139 -25 -273.5 -63.5t-275.5 -59.5q-8 -2 -36 -3t-59.5 -4t-57 -8t-32.5 -18q-23 -49 -27 -127q-3 -43 -3 -88q0 -36 2 -72q4 -83 13 -163t13 -135q2 -27 3 -89.5t5.5 -130t13.5 -125t30 -73.5 q8 -6 33.5 0t52 16.5l48.5 19.5l21 9l261 110l264 103q22 8 40 8q16 0 30 -6q30 -12 42 -38q7 -15 8 -33q0 -12 -4 -24q-8 -32 -45 -55l-166 -60q-84 -30 -166 -64q-53 -25 -113.5 -57t-123 -56.5t-126.5 -33.5q-20 -3 -40 -3q-44 0 -88 14q-39 12 -63.5 52.5t-40 93.5 t-22.5 114.5t-10 120t-4 106.5t-3 75q-6 84 -13.5 166.5t-9.5 166.5q0 35 -2 83q-1 16 -1 33q0 33 3 67q4 51 16.5 97t38.5 77q33 39 72 56t80 24.5t85 9.5t91 10q133 25 260 60.5t260 58.5zM1372 557q-13 -3 -24 -2q-26 0 -45 12q-28 18 -35 46q-3 11 -4 22q0 18 9 36 q13 30 54 44q68 20 135 37l135 31q68 15 135.5 34t133.5 43q22 8 40 8q16 0 30 -6q30 -12 42 -38q7 -15 8 -33q0 -12 -4 -24q-8 -32 -45 -54q-137 -53 -280.5 -82t-284.5 -74zM760 1223q-37 4 -57.5 25.5t-23.5 47t12.5 51t49.5 37.5h7q-8 -35 -15.5 -71.5l-15.5 -73.5 q6 -2 14 -6q31 -2 25 -5t-26.5 -8.5t-46.5 -9.5t-34 -8q-74 -29 -137 -76t-121 -104q-57 -57 -109.5 -125t-94.5 -143.5t-67.5 -156.5t-31.5 -163q-1 -13 -1 -28q0 -22 2 -49q3 -44 15.5 -88t35 -80.5t59.5 -55.5q39 -20 85 -21h9q41 0 82 8q45 9 89 26.5t81 35.5 q92 45 186 121t171 169t125 199.5t48 215.5q0 41 -16.5 84t-40.5 76q-51 70 -102.5 104.5t-105.5 38.5q-8 1 -17 1q-47 0 -98 -20q-60 -23 -130 -65q-37 -6 -62.5 7t-37.5 35.5t-6 51.5t35 53q94 57 181 83q60 18 118 18q26 0 51 -3q82 -11 156.5 -59.5t142.5 -140.5 q41 -53 67.5 -121.5t28.5 -136.5v-18q0 -122 -51 -243q-55 -130 -145.5 -244t-203 -206t-223.5 -147q-51 -25 -111.5 -46.5t-122.5 -32.5q-46 -8 -92 -8l-33 1q-62 4 -118 31q-74 35 -119 93t-67.5 128.5t-25.5 149.5q-1 16 0 32q0 63 10 126q12 79 34.5 151.5t53.5 132.5 q59 117 139 222t180 187q35 29 97.5 72t131 75.5t136.5 43.5q14 2 27 2q50 0 85 -31q22 -32 23 -62q0 -14 -5 -27q-15 -42 -73 -52h-6z" />
<glyph unicode="&#x178;" />
<glyph unicode="&#x2c6;" d="M246 664q-37 20 -48.5 50.5t-1 57.5t39 42t69.5 3l11.5 -4l11.5 -4q-29 -6 -54.5 -13.5t-54.5 -13.5q35 39 83 114t95 157t84 159.5t49 126.5q8 31 26.5 54.5t53.5 29.5q33 2 52.5 -7t37.5 -38q12 -31 19.5 -65.5t17.5 -67.5q-2 2 -4 10l-4 17q-2 8 -2 14q0 8 2 2 t5 -18.5t6 -27.5t8 -23q8 -29 13 -41l19 -45q37 -88 86 -157t117 -134q20 -31 19 -60.5t-17 -49t-45 -26t-61 10.5q-94 92 -161 190.5t-114 220.5q-16 47 -27.5 96.5t-29.5 94.5q23 -14 42 -28.5t42 -28.5q-12 -2 -10 -3.5t10 -1.5t19.5 4.5t19.5 14.5q16 18 17 19t-1 -2 t-3 -1t9 27q4 4 1 -4t-5 -12q-2 -23 -14 -50q-10 -29 -29 -65l-33 -64l-122 -234q-62 -116 -148 -216q-23 -12 -37 -16.5t-41 -0.5z" />
<glyph unicode="&#x2000;" horiz-adv-x="1308" />
<glyph unicode="&#x2001;" horiz-adv-x="2619" />
<glyph unicode="&#x2002;" horiz-adv-x="1308" />
<glyph unicode="&#x2003;" horiz-adv-x="2619" />
<glyph unicode="&#x2004;" horiz-adv-x="872" />
<glyph unicode="&#x2005;" horiz-adv-x="653" />
<glyph unicode="&#x2006;" horiz-adv-x="436" />
<glyph unicode="&#x2007;" horiz-adv-x="436" />
<glyph unicode="&#x2008;" horiz-adv-x="325" />
<glyph unicode="&#x2009;" horiz-adv-x="522" />
<glyph unicode="&#x200a;" horiz-adv-x="145" />
<glyph unicode="&#x2010;" d="M78 598q-37 20 -48.5 51t-1 57.5t39 42t69.5 3.5q14 -4 43 -3t58.5 3t54 4t31.5 2q162 14 320.5 33.5t320.5 31.5q43 2 67.5 -20.5t27.5 -51t-15.5 -55t-61.5 -34.5q-160 -12 -319.5 -32t-321.5 -34q-66 -4 -132 -10t-132 12z" />
<glyph unicode="&#x2011;" d="M78 598q-37 20 -48.5 51t-1 57.5t39 42t69.5 3.5q14 -4 43 -3t58.5 3t54 4t31.5 2q162 14 320.5 33.5t320.5 31.5q43 2 67.5 -20.5t27.5 -51t-15.5 -55t-61.5 -34.5q-160 -12 -319.5 -32t-321.5 -34q-66 -4 -132 -10t-132 12z" />
<glyph unicode="&#x2012;" d="M78 598q-37 20 -48.5 51t-1 57.5t39 42t69.5 3.5q14 -4 43 -3t58.5 3t54 4t31.5 2q162 14 320.5 33.5t320.5 31.5q43 2 67.5 -20.5t27.5 -51t-15.5 -55t-61.5 -34.5q-160 -12 -319.5 -32t-321.5 -34q-66 -4 -132 -10t-132 12z" />
<glyph unicode="&#x2013;" d="M25 584v239h1036v-239h-1036z" />
<glyph unicode="&#x2014;" horiz-adv-x="2048" d="M25 584v239h2060v-239h-2060z" />
<glyph unicode="&#x2018;" d="M483 1284q-37 -6 -62.5 7.5t-37.5 36t-6 51t35 53.5q2 2 3 2t3 2q31 10 52.5 8t47.5 -21q35 -31 54.5 -81t41.5 -89q37 -59 76 -113l78 -112q25 -35 19.5 -66.5t-27 -50t-54 -18.5t-63.5 31l-84 122l-84 123l-30 56l-27 55q-4 12 -13.5 24.5t-5.5 8.5q8 -4 13.5 -10.5 t9.5 -12.5q2 -4 -2 1t-8 7l38.5 -4t38.5 -6q-2 -2 -3 -2t-3 -2z" />
<glyph unicode="&#x2019;" horiz-adv-x="358" d="M147 1290q6 37 29 56.5t49.5 20.5t50 -15.5t33.5 -53.5q0 -6 1 -13t1 -10t-2 4t-4 30q-4 25 -1 21.5t7 -20.5l10 -40q5 -23 7 -37q4 -37 -3.5 -77t-17.5 -75q-25 -92 -67 -179l-86 -173q-25 -29 -53.5 -35t-51 6.5t-36 38t-7.5 62.5l98 200q49 100 62 211 q-6 20 -10.5 37.5t-8.5 40.5z" />
<glyph unicode="&#x201c;" d="M432 1294q-4 43 15.5 69t48 32t56.5 -9.5t40 -56.5q10 -70 11 -98.5t0 -50t-2 -50t5 -98.5q-2 -43 -25.5 -65.5t-52 -23.5t-54 18.5t-30.5 62.5q-6 66 -6 92.5t2 44t1 42.5t-9 91zM760 1294q-4 43 15.5 69t48 32t56 -9.5t40.5 -56.5q10 -70 11 -98.5t0 -50t-2 -50 t5 -98.5q-2 -43 -25.5 -65.5t-52.5 -23.5t-54.5 18.5t-29.5 62.5q-6 66 -6 92.5t2 44t1 42.5t-9 91z" />
<glyph unicode="&#x201d;" d="M432 1294q-4 43 15.5 69t48 32t56.5 -9.5t40 -56.5q10 -70 11 -98.5t0 -50t-2 -50t5 -98.5q-2 -43 -25.5 -65.5t-52 -23.5t-54 18.5t-30.5 62.5q-6 66 -6 92.5t2 44t1 42.5t-9 91zM760 1294q-4 43 15.5 69t48 32t56 -9.5t40.5 -56.5q10 -70 11 -98.5t0 -50t-2 -50 t5 -98.5q-2 -43 -25.5 -65.5t-52.5 -23.5t-54.5 18.5t-29.5 62.5q-6 66 -6 92.5t2 44t1 42.5t-9 91z" />
<glyph unicode="&#x2026;" horiz-adv-x="2076" d="M1677 164q6 37 28.5 56.5t49 20.5t50 -15.5t34.5 -53.5q0 -29 3 -57.5t7 -57.5q0 -37 -18.5 -59.5t-44 -27.5t-52 7.5t-45.5 45.5l-8 70q-4 36 -4 71zM985 164q6 37 28.5 56.5t49 20.5t50 -15.5t34.5 -53.5q0 -29 3 -57.5t7 -57.5q0 -37 -18.5 -59.5t-44 -27.5t-52 7.5 t-45.5 45.5l-8 70q-4 36 -4 71zM293 164q6 37 28.5 56.5t49 20.5t50 -15.5t34.5 -53.5q0 -29 3 -57.5t7 -57.5q0 -37 -18.5 -59.5t-44 -27.5t-52 7.5t-45.5 45.5l-8 70q-4 36 -4 71z" />
<glyph unicode="&#x202f;" horiz-adv-x="522" />
<glyph unicode="&#x2039;" horiz-adv-x="1058" d="M918 1126q37 2 61.5 -15t31.5 -42t-4.5 -52.5t-43.5 -47.5q-86 -20 -163 -72.5t-153 -97.5q-66 -39 -134 -74l-136 -72l-93 -50q-34 -17 -53.5 -28.5l-27.5 -16.5t-17 -13l11.5 51.5t9.5 48.5q4 -4 8 -9t0 -3l-39 39q-2 2 4 0t16 -7l18 -11q9 -5 15 -9l102 -53l101 -53 l327 -169q161 -85 312 -196q20 -31 19.5 -60.5t-17 -49t-45.5 -25.5t-61 10q-141 102 -291 181l-303 157l-64 29l-94 45q-49 25 -91 51.5t-56 48.5q-14 29 -13.5 51.5t17.5 49.5q31 31 65.5 48t69.5 38l170 92l170 90q92 51 180.5 110t190.5 86z" />
<glyph unicode="&#x203a;" horiz-adv-x="1017" d="M203 1126q102 -27 190 -86t180 -110l170 -90l170 -92q35 -20 70 -38t66 -48q16 -27 17 -49.5t-13 -51.5q-14 -23 -56.5 -49.5t-91.5 -50.5l-94 -45l-63 -29l-304 -157q-150 -79 -290 -181q-35 -16 -63 -10t-44 25.5t-17 49t19 60.5q152 111 312 196l327 169l102 53 l101 53q12 8 33.5 19.5t19.5 7.5l-39 -39q-4 -2 0 3t8 9q4 -25 9.5 -49.5l11.5 -50.5q-8 8 -16.5 13l-28 16.5t-52.5 28.5l-94 50l-136 72q-69 35 -134 74q-76 45 -152.5 97t-162.5 73q-33 20 -44.5 47.5t-4 52.5t32 42t61.5 15z" />
<glyph unicode="&#x205f;" horiz-adv-x="653" />
<glyph unicode="&#x20ac;" horiz-adv-x="1292" d="M1221 1268q12 -41 -3.5 -70t-42 -39t-57.5 1t-51 48q-14 39 -60 54.5t-109.5 5t-134.5 -46t-134 -99.5q-41 -41 -89 -113.5t-92.5 -161.5t-78 -187.5t-45 -190.5t5 -172t73.5 -129q61 -53 148.5 -56t180.5 18.5t180 55.5l147 58q41 14 70.5 1.5t42 -38t4 -57t-45.5 -54.5 l-167 -63q-90 -33 -184.5 -55.5t-186.5 -26.5t-172 22.5t-143.5 90t-98.5 180.5q-18 59 -14 122.5t2 125.5q-2 72 18.5 140t42.5 134q27 80 55.5 138.5t62.5 110.5t74 104l91 116q37 45 95.5 86t128 68.5t144 39t141 0t120 -50t82.5 -110.5zM160 705q-33 -18 -62.5 -15.5 t-48 21t-21.5 48t15 62.5q27 27 67 34t83 3t84.5 -12t74.5 -8q139 -4 275 8l272 24q43 2 67.5 -20.5t27.5 -51t-15 -55t-61 -34.5q-199 -16 -394.5 -27.5t-396.5 10.5q-2 0 4 3l12 6q6 3 12.5 4.5t4.5 -0.5zM121 610q41 -12 56.5 -39.5t9 -56.5t-32 -48.5t-68.5 -14.5 q-12 6 -27 6q-29 14 -42 37.5t-13 46t16.5 43t47.5 32.5q63 16 130.5 11.5t131.5 -2.5q6 0 -3 0h-22h-22q-10 0 -4 0q135 8 267 17t265 22q43 2 67.5 -20.5t27.5 -51.5t-15.5 -55.5t-61.5 -34.5l-75 -8q-57 -6 -133 -13l-161 -13q-85 -7 -160 -11t-131 -4t-73 6q-8 4 9 4h28 q6 2 -5 0t-17 -4l-9 80l-8 77q15 0 27 -6z" />
<glyph unicode="&#x2122;" horiz-adv-x="2500" d="M1305 -115q-10 -41 -63 -53q-28 -7 -58 -7q-25 0 -51 5q-57 10 -101 40q-35 24 -35 55q0 7 2 16l129 1319q6 27 33 24.5t61.5 -25t72.5 -58.5t69 -77t48 -81q13 -30 13 -51q0 -8 -2 -15zM1139 1196q-15 24 -15 45q0 12 4 23q12 31 39 46t60 10t55 -42l594 -999 q13 -24 13 -46q0 -12 -4 -23q-11 -32 -37.5 -47.5t-60.5 -9t-54 43.5zM1874 201q-23 -37 -55.5 -43t-59 9t-39.5 47q-4 11 -4 23q0 22 15 46l190 1106q20 37 54 42t60.5 -10.5t38.5 -46.5q4 -11 4 -22q0 -21 -14 -45zM1923 1311q-15 24 -14 45q0 12 4 22q12 31 39 46 q20 12 43 12q8 0 16 -1q33 -5 55 -42l551 -1547q13 -23 13 -43q0 -12 -4 -24q-12 -31 -40 -46q-20 -11 -43 -11q-9 0 -18 2q-33 6 -51 40zM387 1245q6 37 46 62.5t88 33.5q20 3 39 4q26 0 50 -7q41 -11 52 -48q8 -311 64 -616t167 -598q3 -10 3 -19q0 -29 -30 -54 q-39 -32 -94 -46q-35 -9 -70 -9q-20 0 -39 3q-54 8 -75 45q-113 305 -154 615t-47 634zM33 1108q-13 -3 -24 -3q-26 0 -45 13q-28 18 -36 46q-3 11 -3 22q0 18 8 36q13 30 55 44q264 92 529 127q167 22 339 22q101 0 205 -8q37 -10 53 -34q15 -22 16 -47q0 -28 -21 -52 q-19 -23 -56 -29q-96 7 -190 7q-167 0 -326 -21q-250 -33 -504 -123z" />
<glyph unicode="&#xe000;" horiz-adv-x="1365" d="M0 1365h1365v-1365h-1365v1365z" />
<glyph unicode="&#xfb01;" horiz-adv-x="1427" d="M1043 1264q20 33 47.5 44t52 4t42 -32t15.5 -61q-4 -20 -3 -41q0 -14 1 -29q4 -37 4 -72q0 -141 7.5 -262t29 -235.5t63.5 -229t109 -244.5q5 -17 5 -31q0 -16 -6 -31q-11 -28 -33 -41q-16 -10 -37 -10q-7 0 -14 1q-30 4 -56 31q-74 137 -119 261t-69.5 247.5t-33 255 t-8.5 282.5q0 49 -4 97q-1 14 -1 28q1 34 8 68zM1034 1677q20 33 48 44q17 7 33 7q10 0 20 -3q25 -7 42 -31.5t15 -61.5l-8 -27q-4 -13 -6 -30l4 -40l4 -40q0 -37 -18.5 -59.5t-44.5 -27.5q-8 -2 -15 -2q-18 0 -37 9q-27 12 -45 45q-9 67 -9 116t17 101zM270 1276 q-2 -43 -25.5 -65.5t-52 -23.5t-54 18.5t-29.5 62.5q0 14 -3 20q41 -4 82 -7t82 -7q-6 -55 -6 -112q0 -89 16 -182q26 -153 76 -304.5t115.5 -293.5t130.5 -263q10 -35 -1 -62.5t-33 -41.5q-16 -10 -37 -10q-7 0 -14 1q-30 4 -56 31q-72 131 -143.5 284.5t-124 316.5 t-78.5 328q-16 97 -16 191q0 65 7 129q8 37 31 56.5t49.5 20.5t50 -16.5t33.5 -54.5v-16zM98 1260q-28 -16 -54 -16h-8q-30 3 -48 22q-22 22 -22 56q0 26 16 54q6 6 14 19q20 16 34.5 21t39.5 5q59 -4 120.5 -21.5t120.5 -29.5q158 -29 311 -35q57 -2 115 -2q97 0 197 6 q4 0 7 1q38 0 60 -21q28 -26 29 -59q0 -24 -16 -48q-18 -27 -62 -34q-110 -8 -219 -8h-65q-141 3 -285 24q-51 8 -105 18l-108 21l-53 12l-56 12q-4 2 -10 3.5t-2 1.5q10 0 31 -5q4 0 -5 1.5t-16 1.5l36 20l36 20l-15.5 -20t-17.5 -20zM186 735q-33 18 -45 45q-9 19 -8 37 q0 8 1 16q5 26 27.5 44t59.5 18q41 -9 83 -9h8q46 1 90 8t90 18l90 22h7q32 0 54 -15q25 -17 32 -42q3 -10 3 -20q0 -16 -7 -33q-11 -28 -44 -48l-110 -24q-54 -12 -108.5 -20.5t-110 -8.5t-112.5 12z" />
<glyph unicode="&#xfb02;" horiz-adv-x="1933" d="M1186 1262q6 37 28.5 56t49.5 20h3q25 0 47 -15q24 -16 34 -53q-8 -303 -60.5 -589t-130.5 -579q-14 -41 -44 -54t-57.5 -5t-45.5 36q-13 19 -13 45q0 11 3 23q74 279 126 553.5t60 561.5zM1012 16q-31 31 -31 64t18.5 54.5t50.5 26.5q5 1 11 1q27 0 55 -21q8 -6 1 -5 t-20 5l-29 10q-15 5 -23 9q-4 2 6 1t14 -1l32 5q19 3 30 5q47 10 89 17.5t89 11.5q57 3 114 3q228 0 451 -46q41 -12 56 -40q11 -20 11 -40q0 -8 -2 -17q-6 -29 -31 -48q-21 -16 -54 -16q-7 0 -15 1q-147 29 -292 38q-62 4 -125 4q-84 0 -171 -7q-25 -4 -56.5 -13.5 t-63 -15.5t-62 -5t-53.5 19zM270 1276q-2 -43 -25.5 -65.5t-52 -23.5t-54 18.5t-29.5 62.5q0 14 -3 20q41 -4 82 -7t82 -7q-6 -55 -6 -112q0 -89 16 -182q26 -153 76 -304.5t115.5 -293.5t130.5 -263q10 -35 -1 -62.5t-33 -41.5q-16 -10 -37 -10q-7 0 -14 1q-30 4 -56 31 q-72 131 -143.5 284.5t-124 316.5t-78.5 328q-16 97 -16 191q0 65 7 129q8 37 31 56.5t49.5 20.5t50 -16.5t33.5 -54.5v-16zM98 1260q-28 -16 -54 -16h-8q-30 3 -48 22q-22 22 -22 56q0 26 16 54q6 6 14 19q20 16 34.5 21t39.5 5q59 -4 120.5 -21.5t120.5 -29.5 q158 -29 311 -35q57 -2 115 -2q97 0 197 6q4 0 7 1q38 0 60 -21q28 -26 29 -59q0 -24 -16 -48q-18 -27 -62 -34q-110 -8 -219 -8h-65q-141 3 -285 24q-51 8 -105 18l-108 21l-53 12l-56 12q-4 2 -10 3.5t-2 1.5q10 0 31 -5q4 0 -5 1.5t-16 1.5l36 20l36 20l-15.5 -20 t-17.5 -20zM186 735q-33 18 -45 45q-9 19 -8 37q0 8 1 16q5 26 27.5 44t59.5 18q41 -9 83 -9h8q46 1 90 8t90 18l90 22h7q32 0 54 -15q25 -17 32 -42q3 -10 3 -20q0 -16 -7 -33q-11 -28 -44 -48l-110 -24q-54 -12 -108.5 -20.5t-110 -8.5t-112.5 12z" />
<glyph unicode="&#xfb03;" horiz-adv-x="2404" d="M2020 1264q20 33 47.5 44t52 4t42 -32t15.5 -61q-4 -20 -3 -41q0 -14 1 -29q4 -37 4 -72q0 -141 7.5 -262t29 -235.5t63.5 -229t109 -244.5q5 -17 5 -31q0 -16 -6 -31q-11 -28 -33 -41q-16 -10 -37 -10q-7 0 -14 1q-30 4 -56 31q-74 137 -119 261t-69.5 247.5t-33 255 t-8.5 282.5q0 49 -4 97q-1 14 -1 28q1 34 8 68zM2011 1677q20 33 48 44q17 7 33 7q10 0 20 -3q25 -7 42 -31.5t15 -61.5l-8 -27q-4 -13 -6 -30l4 -40l4 -40q0 -37 -18.5 -59.5t-44.5 -27.5q-8 -2 -15 -2q-18 0 -37 9q-27 12 -45 45q-9 67 -9 116t17 101zM1247 1276 q-2 -43 -25.5 -65.5t-52 -23.5t-54 18.5t-29.5 62.5q0 14 -3 20q41 -4 82 -7t82 -7q-6 -55 -6 -112q0 -89 16 -182q26 -153 76 -304.5t115.5 -293.5t130.5 -263q10 -35 -1 -62.5t-33 -41.5q-16 -10 -37 -10q-7 0 -14 1q-30 4 -56 31q-72 131 -143.5 284.5t-124 316.5 t-78.5 328q-16 97 -16 191q0 65 7 129q8 37 31 56.5t49.5 20.5t50 -16.5t33.5 -54.5v-16zM1075 1260q-28 -16 -54 -16h-8q-30 3 -48 22q-22 22 -22 56q0 26 16 54q6 6 14 19q20 16 34.5 21t39.5 5q59 -4 120.5 -21.5t120.5 -29.5q158 -29 311 -35q57 -2 115 -2q97 0 197 6 q4 0 7 1q38 0 60 -21q28 -26 29 -59q0 -24 -16 -48q-18 -27 -62 -34q-110 -8 -219 -8h-65q-141 3 -285 24q-51 8 -105 18l-108 21l-53 12l-56 12q-4 2 -10 3.5t-2 1.5q10 0 31 -5q4 0 -5 1.5t-16 1.5l36 20l36 20l-15.5 -20t-17.5 -20zM1163 735q-33 18 -45 45q-9 19 -8 37 q0 8 1 16q5 26 27.5 44t59.5 18q41 -9 83 -9h8q46 1 90 8t90 18l90 22h7q32 0 54 -15q25 -17 32 -42q3 -10 3 -20q0 -16 -7 -33q-11 -28 -44 -48l-110 -24q-54 -12 -108.5 -20.5t-110 -8.5t-112.5 12zM270 1276q-2 -43 -25.5 -65.5t-52 -23.5t-54 18.5t-29.5 62.5 q0 14 -3 20q41 -4 82 -7t82 -7q-6 -55 -6 -112q0 -89 16 -182q26 -153 76 -304.5t115.5 -293.5t130.5 -263q10 -35 -1 -62.5t-33 -41.5q-16 -10 -37 -10q-7 0 -14 1q-30 4 -56 31q-72 131 -143.5 284.5t-124 316.5t-78.5 328q-16 97 -16 191q0 65 7 129q8 37 31 56.5 t49.5 20.5t50 -16.5t33.5 -54.5v-16zM98 1260q-28 -16 -54 -16h-8q-30 3 -48 22q-22 22 -22 56q0 26 16 54q6 6 14 19q20 16 34.5 21t39.5 5q59 -4 120.5 -21.5t120.5 -29.5q158 -29 311 -35q57 -2 115 -2q97 0 197 6q4 0 7 1q38 0 60 -21q28 -26 29 -59q0 -24 -16 -48 q-18 -27 -62 -34q-110 -8 -219 -8h-65q-141 3 -285 24q-51 8 -105 18l-108 21l-53 12l-56 12q-4 2 -10 3.5t-2 1.5q10 0 31 -5q4 0 -5 1.5t-16 1.5l36 20l36 20l-15.5 -20t-17.5 -20zM186 735q-33 18 -45 45q-9 19 -8 37q0 8 1 16q5 26 27.5 44t59.5 18q41 -9 83 -9h8 q46 1 90 8t90 18l90 22h7q32 0 54 -15q25 -17 32 -42q3 -10 3 -20q0 -16 -7 -33q-11 -28 -44 -48l-110 -24q-54 -12 -108.5 -20.5t-110 -8.5t-112.5 12z" />
<glyph unicode="&#xfb04;" horiz-adv-x="2910" d="M2163 1262q6 37 28.5 56t49.5 20h3q25 0 47 -15q24 -16 34 -53q-8 -303 -60.5 -589t-130.5 -579q-14 -41 -44 -54t-57.5 -5t-45.5 36q-13 19 -13 45q0 11 3 23q74 279 126 553.5t60 561.5zM1989 16q-31 31 -31 64t18.5 54.5t50.5 26.5q5 1 11 1q27 0 55 -21q8 -6 1 -5 t-20 5l-29 10q-15 5 -23 9q-4 2 6 1t14 -1l32 5q19 3 30 5q47 10 89 17.5t89 11.5q57 3 114 3q228 0 451 -46q41 -12 56 -40q11 -20 11 -40q0 -8 -2 -17q-6 -29 -31 -48q-21 -16 -54 -16q-7 0 -15 1q-147 29 -292 38q-62 4 -125 4q-84 0 -171 -7q-25 -4 -56.5 -13.5 t-63 -15.5t-62 -5t-53.5 19zM1247 1276q-2 -43 -25.5 -65.5t-52 -23.5t-54 18.5t-29.5 62.5q0 14 -3 20q41 -4 82 -7t82 -7q-6 -55 -6 -112q0 -89 16 -182q26 -153 76 -304.5t115.5 -293.5t130.5 -263q10 -35 -1 -62.5t-33 -41.5q-16 -10 -37 -10q-7 0 -14 1q-30 4 -56 31 q-72 131 -143.5 284.5t-124 316.5t-78.5 328q-16 97 -16 191q0 65 7 129q8 37 31 56.5t49.5 20.5t50 -16.5t33.5 -54.5v-16zM1075 1260q-28 -16 -54 -16h-8q-30 3 -48 22q-22 22 -22 56q0 26 16 54q6 6 14 19q20 16 34.5 21t39.5 5q59 -4 120.5 -21.5t120.5 -29.5 q158 -29 311 -35q57 -2 115 -2q97 0 197 6q4 0 7 1q38 0 60 -21q28 -26 29 -59q0 -24 -16 -48q-18 -27 -62 -34q-110 -8 -219 -8h-65q-141 3 -285 24q-51 8 -105 18l-108 21l-53 12l-56 12q-4 2 -10 3.5t-2 1.5q10 0 31 -5q4 0 -5 1.5t-16 1.5l36 20l36 20l-15.5 -20 t-17.5 -20zM1163 735q-33 18 -45 45q-9 19 -8 37q0 8 1 16q5 26 27.5 44t59.5 18q41 -9 83 -9h8q46 1 90 8t90 18l90 22h7q32 0 54 -15q25 -17 32 -42q3 -10 3 -20q0 -16 -7 -33q-11 -28 -44 -48l-110 -24q-54 -12 -108.5 -20.5t-110 -8.5t-112.5 12zM270 1276 q-2 -43 -25.5 -65.5t-52 -23.5t-54 18.5t-29.5 62.5q0 14 -3 20q41 -4 82 -7t82 -7q-6 -55 -6 -112q0 -89 16 -182q26 -153 76 -304.5t115.5 -293.5t130.5 -263q10 -35 -1 -62.5t-33 -41.5q-16 -10 -37 -10q-7 0 -14 1q-30 4 -56 31q-72 131 -143.5 284.5t-124 316.5 t-78.5 328q-16 97 -16 191q0 65 7 129q8 37 31 56.5t49.5 20.5t50 -16.5t33.5 -54.5v-16zM98 1260q-28 -16 -54 -16h-8q-30 3 -48 22q-22 22 -22 56q0 26 16 54q6 6 14 19q20 16 34.5 21t39.5 5q59 -4 120.5 -21.5t120.5 -29.5q158 -29 311 -35q57 -2 115 -2q97 0 197 6 q4 0 7 1q38 0 60 -21q28 -26 29 -59q0 -24 -16 -48q-18 -27 -62 -34q-110 -8 -219 -8h-65q-141 3 -285 24q-51 8 -105 18l-108 21l-53 12l-56 12q-4 2 -10 3.5t-2 1.5q10 0 31 -5q4 0 -5 1.5t-16 1.5l36 20l36 20l-15.5 -20t-17.5 -20zM186 735q-33 18 -45 45q-9 19 -8 37 q0 8 1 16q5 26 27.5 44t59.5 18q41 -9 83 -9h8q46 1 90 8t90 18l90 22h7q32 0 54 -15q25 -17 32 -42q3 -10 3 -20q0 -16 -7 -33q-11 -28 -44 -48l-110 -24q-54 -12 -108.5 -20.5t-110 -8.5t-112.5 12z" />
</font>
</defs>
</svg>
