<?xml version="1.0" standalone="no"?>
<!DOCTYPE svg PUBLIC "-//W3C//DTD SVG 1.1//EN" "http://www.w3.org/Graphics/SVG/1.1/DTD/svg11.dtd" >
<svg xmlns="http://www.w3.org/2000/svg">
<metadata>
This is a custom SVG webfont generated by Font Squirrel.
Copyright   : Copyright c Eva Grinder 2007 All rights reserved
Designer    : Eva Grinder
Foundry     : Eva Grinder
</metadata>
<defs>
<font id="MidoMedium" horiz-adv-x="1433" >
<font-face units-per-em="2048" ascent="1638" descent="-410" />
<missing-glyph horiz-adv-x="536" />
<glyph unicode=" "  horiz-adv-x="536" />
<glyph unicode="&#x09;" horiz-adv-x="536" />
<glyph unicode="&#xa0;" horiz-adv-x="536" />
<glyph unicode="!" horiz-adv-x="309" d="M16 117q0 -68 40 -102.5t106 -34.5q63 0 101 39.5t38 101.5q0 57 -43 89t-104 32q-59 0 -98.5 -31t-39.5 -94zM20 1360l46 -932q35 12 86 12l88 -12l49 932q0 43 -32 78t-99 35q-74 0 -106 -34t-32 -79z" />
<glyph unicode="&#x22;" horiz-adv-x="653" />
<glyph unicode="#" horiz-adv-x="1429" />
<glyph unicode="$" horiz-adv-x="1306" />
<glyph unicode="%" horiz-adv-x="1687" />
<glyph unicode="&#x26;" horiz-adv-x="1499" d="M123 377q0 -201 158.5 -307.5t423.5 -106.5q242 0 384 108.5t142 293.5v229q0 53 13 64.5t83 11.5h111v133q-145 -6 -328 -6l-303 6v-133h100q33 0 51.5 -5.5t25.5 -17.5t8 -18t1 -23v-284q0 -98 -73.5 -165t-200.5 -67q-150 0 -245 85t-95 218q0 121 63.5 199t178.5 78 v133q-98 0 -167 64.5t-69 171t72.5 169t167.5 62.5q217 0 217 -189v-34h184v256q-16 12 -46 29.5t-133.5 47t-219.5 29.5q-193 0 -333 -95t-140 -292q0 -182 172 -266l47 -19v-12q-10 -2 -26.5 -8t-59.5 -33t-77 -62.5t-60.5 -100t-26.5 -144.5z" />
<glyph unicode="'" horiz-adv-x="589" d="M102 1221v20l115 264q10 16 17.5 23.5t26 14.5t50.5 7h140q27 0 33 -15q2 -5 3 -9q0 -11 -12 -23l-250 -282h-123z" />
<glyph unicode="(" horiz-adv-x="649" d="M123 696q0 195 48 371t116.5 286.5t138.5 192.5t119 117l47 37h119v-29l-40 -40q-26 -26 -89.5 -117t-112.5 -193t-89 -266t-40 -338q0 -475 268 -836q57 -78 103 -119v-28h-119l-50 40q-32 26 -113 118t-142.5 195t-112.5 268t-51 341z" />
<glyph unicode=")" horiz-adv-x="804" d="M123 -266v28l40 40q26 26 89 117t112.5 193.5t89.5 266.5t40 338q0 475 -269 835q-57 78 -102 119v29h119l50 -40q32 -26 112.5 -118t142 -195.5t113 -268.5t51.5 -341q0 -195 -48.5 -371t-118 -286.5t-138 -192.5t-115.5 -116l-49 -37h-119z" />
<glyph unicode="*" horiz-adv-x="712" d="M84 1284l6 6q8 6 22.5 14.5t28.5 10.5q18 8 36 9t24 -1l8 -4q-20 -4 -52 -37t-44 -65q-6 -31 -6.5 -61t6.5 -36q29 49 71 88q16 12 66.5 37t75.5 47q6 6 27.5 35t35.5 35q4 -4 4 -12l-11 -17l-10 -14q-3 -4 -8.5 -12.5t-7.5 -12.5t-3 -11t0 -12t3 -11q6 -27 22.5 -48.5 t44.5 -44t34 -30.5q18 -20 28 -43q2 0 2 1v6v10q0 5 1 14.5t6 17.5q16 52 16 92q0 48 -23 80q-20 39 -61 39q-25 0 -29 12q6 4 17 4q20 -5 42 -5q11 0 21 1q33 6 90.5 38t63.5 34q-34 24 -77 24q-11 0 -24 -2q-66 -12 -118 -82l-17 -8l-2 19q0 4 5 17t9.5 29.5t4.5 33 t-6.5 38t-12.5 33.5l-6 14q-43 -51 -43 -94q0 -23 31 -57q6 -6 8 -14.5t2 -12.5v-4l-14 -2q-6 0 -33 18.5t-78 18.5q-45 0 -90 -29.5t-67.5 -58.5t-18.5 -35zM344 1350q20 8 21 12q4 2 9 3t7 3h4q-6 -8 -14 -14z" />
<glyph unicode="+" horiz-adv-x="921" />
<glyph unicode="," horiz-adv-x="425" d="M70 -182q23 18 44 41.5t41.5 53.5t13.5 57.5t-46 43.5q-53 23 -53 84q0 51 32.5 89t104.5 38q70 0 109.5 -35.5t39.5 -93.5q0 -129 -153 -289l-10 -10h-123v21z" />
<glyph unicode="-" horiz-adv-x="675" d="M82 389v164h512v-164h-512z" />
<glyph unicode="." horiz-adv-x="423" d="M70 100q0 -68 40 -102.5t105 -34.5q63 0 101 40t38 101q0 57 -43 89t-104 32q-59 0 -98 -31t-39 -94z" />
<glyph unicode="/" horiz-adv-x="985" d="M0 -223l844 1923h39l102 -47l-852 -1919h-41z" />
<glyph unicode="0" horiz-adv-x="1218" d="M82 471q0 217 153.5 362.5t376.5 145.5q215 0 370 -146.5t155 -361.5q0 -213 -155 -356.5t-370 -143.5q-223 0 -376.5 143.5t-153.5 356.5zM319 471q0 -135 82 -233.5t211 -98.5q125 0 205 98.5t80 233.5q0 141 -80 240.5t-205 99.5q-129 0 -211 -99.5t-82 -240.5z" />
<glyph unicode="1" horiz-adv-x="735" d="M61 0q143 8 314 8l299 -8v127q-94 0 -134 7t-49.5 18.5t-9.5 42.5v755h-186q0 -139 -234 -139v-129h205v-414q0 -80 -46 -110.5t-159 -30.5v-127z" />
<glyph unicode="2" horiz-adv-x="1073" d="M102 631h158q0 82 63.5 131t155.5 49q78 0 134.5 -35t56.5 -102q0 -53 -77 -122t-173 -125t-192.5 -131t-125.5 -138v-158l394 6l475 -6v270h-144q0 -102 -98 -102h-342q-2 35 78 88t177 106.5t178 143.5t81 190q0 141 -115.5 212t-289.5 71q-100 0 -198.5 -34 t-145.5 -68l-50 -33v-213z" />
<glyph unicode="3" horiz-adv-x="960" d="M41 649h162q2 66 56 115t151 49q63 0 119.5 -37t56.5 -112q0 -106 -87 -167t-180 -61v-170q311 0 312 -215q0 -119 -84 -178t-199 -59q-72 0 -137.5 17t-93.5 34l-29 18h-43v-172q129 -59 295 -59q254 0 396.5 121t142.5 325q0 76 -30 133.5t-71 86t-83 47t-72 22.5 l-29 4v6q2 2 28.5 14.5t46 23.5t48 36t48 53.5t34 72.5t14.5 95q0 145 -108.5 216t-272.5 71q-197 0 -375 -137l-16 -13v-180z" />
<glyph unicode="4" horiz-adv-x="1142" d="M102 0h605v-348h217l-6 348h184v164h-184v786h-211q-25 0 -315 -374.5t-290 -411.5v-164zM324 164q2 63 383 524v-524h-383z" />
<glyph unicode="5" horiz-adv-x="997" d="M82 -117v-170q137 -61 295 -61q252 0 395 132t143 314q0 160 -104 272.5t-315 112.5q-29 0 -68 -4t-63 -8l-25 -6v291h520v194q-33 0 -150.5 -3t-177.5 -3q-74 0 -201.5 3t-168.5 3v-669h41q63 23 172 22q145 0 219 -72.5t74 -179.5q0 -104 -71 -170.5t-212 -66.5 q-74 0 -139.5 17t-93.5 34l-29 18h-41z" />
<glyph unicode="6" horiz-adv-x="1067" d="M82 588q0 -170 16.5 -260t67.5 -181q47 -82 148.5 -129t222.5 -47q195 0 321.5 126t126.5 339q0 176 -106.5 285.5t-268 109.5t-291.5 -61q4 162 104.5 261t246.5 99q125 0 219 -71h41v170q-113 59 -258 59q-143 0 -259 -60.5t-186.5 -161.5t-107.5 -224t-37 -254z M317 424l7 223q84 27 196 27q106 0 171 -75t67 -187v-11q0 -288 -213 -288q-115 0 -171.5 92t-56.5 219z" />
<glyph unicode="7" horiz-adv-x="1124" d="M82 950v-309h164q0 74 25.5 97.5t80.5 23.5q444 8 445 0q-6 -74 -58.5 -163t-123 -179t-141.5 -191.5t-119 -232.5t-48 -266v-58h234q-14 152 51 329t152 306l181 267q93 138 117 200v176q-244 -8 -462 -8z" />
<glyph unicode="8" horiz-adv-x="1126" d="M82 324q0 -127 130 -240t333 -113q225 0 362 105.5t137 273.5q0 184 -186 295l-51 27q20 14 50 37.5t79 95.5t49 141q0 170 -129 257t-297 87q-166 0 -300 -94t-134 -250q0 -45 12.5 -86t30.5 -69.5t41.5 -53t46.5 -39l42 -25.5t30 -16l12 -4q-4 0 -27.5 -8t-63.5 -30.5 t-77 -57.5t-63.5 -96t-26.5 -137zM297 326q0 61 55.5 119.5t110.5 84.5l55 27q10 -4 28.5 -10t64.5 -27.5t82 -47.5t64.5 -65.5t28.5 -84.5q0 -102 -65.5 -152.5t-165.5 -50.5q-109 0 -183.5 55.5t-74.5 151.5zM356 963q0 94 66.5 143t144.5 49t151 -58.5t73 -152.5 q0 -121 -138 -188l-20 -11q-10 4 -29.5 10.5t-67 27t-84 44t-66.5 60.5t-30 76z" />
<glyph unicode="9" horiz-adv-x="1077" d="M82 506q0 -195 129 -300.5t289 -105.5q80 0 144.5 26t88.5 50l25 27q1 -29 1 -55t-1 -50q-2 -47 -18.5 -103t-47 -94t-91 -64.5t-142.5 -26.5q-158 0 -262 73h-39v-170q113 -61 293 -61q133 0 230 34.5t157.5 94t96.5 154t48 196.5t12 238q0 178 -40 304t-108.5 189.5 t-143 90t-164.5 26.5q-207 0 -332 -132t-125 -341zM317 532q0 121 52.5 208t165.5 87q35 0 65.5 -9t52 -24.5t38 -37t26.5 -44t18 -50t11.5 -50t5.5 -48.5q1 -17 1 -29v-11q-1 -14 -1 -32v-17q0 -82 -49.5 -145.5t-157.5 -63.5q-111 0 -169.5 77.5t-58.5 188.5z" />
<glyph unicode=":" horiz-adv-x="423" d="M70 100q0 -68 40 -102.5t105 -34.5q63 0 101 40t38 101q0 57 -43 89t-104 32q-59 0 -98 -31t-39 -94zM70 731q0 -68 40 -102.5t105 -34.5q63 0 101 40t38 101q0 57 -43 89t-104 32q-59 0 -98 -31t-39 -94z" />
<glyph unicode=";" horiz-adv-x="425" d="M70 -182q23 18 44 41.5t41.5 53.5t13.5 57.5t-46 43.5q-53 23 -53 84q0 51 32.5 89t104.5 38q70 0 109.5 -35.5t39.5 -93.5q0 -129 -153 -289l-10 -10h-123v21zM70 731q0 -68 40 -102.5t105 -34.5q63 0 101 40t38 101q0 57 -43 89t-104 32q-59 0 -98 -31t-39 -94z" />
<glyph unicode="&#x3c;" horiz-adv-x="901" />
<glyph unicode="=" horiz-adv-x="921" />
<glyph unicode="&#x3e;" horiz-adv-x="901" />
<glyph unicode="?" horiz-adv-x="882" d="M20 1122h164q0 78 73 142.5t187 64.5q80 0 133.5 -46t53.5 -99q0 -23 -7.5 -45.5t-24.5 -49t-27.5 -40t-40 -47t-37.5 -41.5l-63 -69q-44 -48 -59.5 -67.5t-44 -65.5t-38.5 -86t-18 -104q-6 -49 -5 -107v-34q57 12 99 12l96 -12q-3 30 -3 59q0 84 26 157 q36 97 97.5 162.5t125 125t109.5 130.5t46 148q0 143 -116.5 213t-278.5 70q-256 0 -424 -143l-23 -21v-207zM236 117q0 -68 39.5 -102.5t105.5 -34.5q63 0 101 39.5t38 101.5q0 57 -43 89t-104 32q-59 0 -98 -31t-39 -94z" />
<glyph unicode="@" horiz-adv-x="1996" d="M121 416q2 -184 52 -329.5t132 -236t194.5 -149.5t229.5 -83t246 -24q322 0 538 142l27 18v127h-33q-20 -14 -58 -36.5t-168 -60.5t-277 -38q-346 0 -520.5 177t-174.5 569q0 231 114 395t288 237.5t387 73.5q260 0 419.5 -150.5t159.5 -451.5l2 -68q0 -195 -53 -288 q-61 -109 -145 -109q-45 0 -63.5 22.5t-18.5 79.5v689h-68l-11 -12l-23 -22q-15 -15 -26 -23.5t-11 -6.5q-141 92 -297 92q-180 0 -300 -122.5t-120 -338.5q0 -272 99 -395t292 -123q68 0 135.5 31t101.5 61l35 31l56 -114h43q88 18 142 33.5t129 46t120 72.5t89 103.5 t64.5 151.5t20.5 207q0 356 -210 554t-558 198q-129 0 -257 -26t-262 -93.5t-234.5 -169t-165.5 -266.5q-63 -161 -62 -362v-13zM764 457q0 147 59.5 237t184.5 90q16 0 32.5 -1t30.5 -3l29 -4q14 -2 26 -5l24 -6l19 -5q8 -2 14.5 -4t8.5 -2l4 -2l2 -332q2 -276 -201 -277 q-117 0 -175 85.5t-58 228.5z" />
<glyph unicode="A" horiz-adv-x="1484" d="M41 0q92 6 217 6l299 -6v123q-96 0 -134 29q-27 21 -28 62q0 16 4 34l52 164q100 4 268 4l266 -4q39 -115 47 -168q2 -10 2 -20q0 -42 -29 -68q-36 -33 -126 -33v-123q131 6 309 6l256 -6v123q-49 0 -72.5 22.5t-46.5 69.5q-14 31 -122 334l-208 593q-100 290 -98 292 q-72 -6 -152 -7l-161 7l-426 -1203q-23 -59 -45.5 -83.5t-71.5 -24.5v-123zM504 578q20 106 209 651q190 -522 219 -651q-92 -6 -217 -7z" />
<glyph unicode="B" horiz-adv-x="1333" d="M102 0q199 8 322 8q63 0 184 -4t226 -4q123 0 214 38t137 99.5t66.5 127t20.5 134.5q0 160 -105.5 256.5t-255.5 114.5v10q37 10 70 26.5t83 49.5t81 91.5t31 131.5q0 174 -134.5 264.5t-377.5 90.5q-188 -6 -291 -7l-260 7v-123q90 0 133 -16.5t50 -36t5 -62.5 q6 -260 6 -418l-6 -452q0 -115 -40 -159t-159 -44v-123zM541 680h88q190 0 276 -82t86 -219q0 -100 -67.5 -168t-175.5 -68h-50q-84 0 -118.5 50.5t-34.5 109.5zM541 823v467h94q117 0 196.5 -53t79.5 -176q0 -109 -84 -172.5t-227 -63.5z" />
<glyph unicode="C" horiz-adv-x="1320" d="M102 727q2 -340 181.5 -552t500.5 -212q92 0 177.5 13.5t140.5 33t97 40t63 32.5l18 14v266q-78 0 -78 -2l-11 -22q-7 -14 -37 -51t-68.5 -65.5t-110.5 -51.5t-156 -23q-215 0 -329.5 166t-114.5 420q0 252 118.5 406.5t315.5 154.5q244 0 260 -209v-30h201v297 q-16 12 -50 32.5t-152 53t-249 32.5q-125 0 -246.5 -44t-229 -131t-174.5 -234.5t-67 -333.5z" />
<glyph unicode="D" horiz-adv-x="1507" d="M102 0l316 6q37 0 149.5 -3t257.5 -3q283 0 452 188.5t169 507.5q0 342 -221 559q-96 94 -244 138q-141 41 -285 41h-14q-53 0 -155.5 -1t-145.5 -1l-264 2v-121q90 0 132 -15.5t49 -37t7 -72.5q6 -223 6 -410q0 -119 -3 -280.5t-3 -182.5q0 -117 -43 -154.5t-160 -37.5 v-123zM545 743q0 537 6 541q68 6 121 6q231 0 367.5 -153.5t136.5 -446.5q0 -272 -96.5 -408.5t-305.5 -136.5l-67 -2q-156 0 -156 199q-6 194 -6 401z" />
<glyph unicode="E" horiz-adv-x="1318" d="M102 0q184 8 326 8l819 -8v348h-162q0 -184 -202 -184h-330q-4 250 -4 467h184q35 0 54.5 -6t26.5 -26.5t8 -32t1 -50.5h123v383h-127q0 -39 -1 -47t-5 -31.5t-13 -29t-26.5 -11.5t-44.5 -6h-180l4 496h289q68 0 110.5 -15.5t60 -47t22.5 -57.5t5 -67h146v351 q-514 -8 -750 -9l-323 9v-123q131 -2 161.5 -30t30.5 -105q6 -119 6 -445q0 -174 -6 -407q0 -117 -45 -159t-158 -42v-123z" />
<glyph unicode="F" horiz-adv-x="1220" d="M102 0l322 6l350 -6v123q-158 0 -187.5 19.5t-33.5 119.5q-4 221 -4 350h160q33 0 52 -6t27.5 -24.5t10.5 -34t2 -49.5h119v383h-123q0 -37 -2 -54.5t-10.5 -37t-28 -26.5t-54.5 -7h-153l4 514h285q117 -2 158.5 -48t41.5 -137h142v349q-471 -8 -643 -9l-420 9v-123 q68 0 107.5 -7.5t57 -28t20.5 -39.5t3 -60t3 -174.5t3 -223.5t-3 -250.5t-3 -203.5q0 -119 -47 -160t-156 -41v-123z" />
<glyph unicode="G" horiz-adv-x="1466" d="M102 706.5q0 -161.5 44 -291.5t115 -213t166 -138.5t190.5 -78t193.5 -22.5q131 0 254 33t180 65l58 35v375q0 27 1 38t9 23.5t24.5 16.5t46.5 4v133q-117 -6 -227 -6l-340 6v-133h162q63 0 79.5 -13.5t16.5 -56.5v-282q-88 -61 -252 -62q-449 0 -448 596 q0 250 124 404.5t326 154.5q141 0 207 -57t66 -152v-30h205v297q-16 12 -49 32.5t-151 53t-253 32.5q-90 0 -186.5 -24.5t-197.5 -82.5t-181 -142t-131.5 -218.5t-51.5 -296z" />
<glyph unicode="H" horiz-adv-x="1669" d="M102 0q240 6 310 6l295 -6q1 61 1 92t-1 31q-88 0 -126 12t-43.5 28.5t-5.5 63.5l-4 439q178 6 306 6l309 -6l-4 -361q0 -98 -37 -140t-139 -42v-123l323 6l281 -6v123q-127 0 -160 20.5t-33 73.5l-6 516l6 404q0 90 43 132t150 42v123q-221 -6 -316 -7l-288 7v-123 q117 0 146.5 -23.5t29.5 -85.5l4 -368l-309 -5l-306 5q4 203 4 303q0 96 37 135t138 39v123q-213 -6 -306 -7l-299 7v-123q119 0 155 -23.5t36 -79.5l6 -430q0 -76 -3 -249t-3 -218q0 -106 -45 -147t-146 -41v-123z" />
<glyph unicode="I" horiz-adv-x="839" d="M102 0l328 8l307 -8v123q-123 0 -159.5 21.5t-36.5 70.5q-6 352 -6 563q0 131 3 235.5t3 114.5q0 96 36.5 139.5t149.5 43.5v123q-221 -8 -307 -9l-307 9v-123q90 0 132 -13.5t50 -32t8 -57.5q2 -25 3 -64.5t3 -159.5q1 -60 1 -111.5t-1 -94.5q0 -78 -2 -184.5t-3 -182 t-1 -106.5q0 -94 -46 -138t-155 -44v-123z" />
<glyph unicode="J" horiz-adv-x="829" d="M-41 -285v-157q10 -10 28.5 -26.5t89 -44.5t154.5 -28q178 0 275 142q76 111 76 344q-14 301 -15 833l6 340q2 102 40 147.5t135 45.5v123q-217 -6 -316 -7l-334 7v-123q156 0 195 -30t39 -112q6 -276 6 -391l-6 -930q-4 -109 -33 -147q-37 -53 -125 -53q-53 0 -96 16.5 t-58 32.5l-16 18h-45z" />
<glyph unicode="K" horiz-adv-x="1603" d="M102 0q225 6 299 6l293 -6v123q-113 0 -135 20.5t-22 98.5v293q0 8 43 43.5t88 66.5l43 31q342 -406 354 -475q1 -7 1 -14q0 -32 -26 -47q-31 -17 -90 -17v-123q233 6 328 6l285 -6v123q-94 0 -162 80q-489 606 -490 620l437 420q8 6 24.5 19.5t22.5 17.5t19 12 t23.5 11.5t28 5.5t37.5 2v123q-186 -6 -268 -7l-268 7v-123q127 0 127 -56q0 -49 -260.5 -275t-296.5 -228v405q0 86 42 120t138 34v123q-205 -6 -297 -7l-316 7v-123q68 0 107 -7.5t55.5 -29t20.5 -37.5t4 -57q8 -233 8 -402l-8 -452q0 -115 -37 -159t-152 -44v-123z" />
<glyph unicode="L" horiz-adv-x="1189" d="M72 0l374 8l723 -6v348h-163q-2 -102 -47.5 -144t-153.5 -42h-283q-6 449 -6 614l6 363q0 96 45 133t135 37v123q-199 -6 -288 -7l-328 7v-2v-2v-3v-2v-2v-2v-2v-2v-2v-2v-2v-2v-2v-2v-2v-4v-2v-2v-4v-2v-3v-4v-2v-4v-2v-4v-2v-4v-4v-2v-4v-4v-4v-3v-4v-4v-4v-4v-16 q129 0 159.5 -27t30.5 -106q6 -256 7 -400l-7 -452q0 -121 -49 -162t-155 -41v-123z" />
<glyph unicode="M" horiz-adv-x="1982" d="M82 0q166 6 250 6l268 -6v123q-104 0 -132 25.5t-28 101.5q12 430 41 874q72 -186 194 -569t177 -535h233q225 793 340 1104q53 -556 53 -768q0 -35 -1 -61q-4 -88 -54.5 -130t-126.5 -42v-123q244 6 332 6l273 -6v123q-109 0 -136.5 29.5t-33.5 134.5q-72 709 -72 878 q0 68 46 107t126 39v123q-143 -6 -248 -7l-246 7q-74 -201 -200.5 -634t-143.5 -478q0 2 -55 175l-98 302q-43 129 -112 317.5t-126 317.5q-70 -2 -225 -7l-250 7v-123q66 0 103.5 -7.5t53 -31t18.5 -43t3 -64.5q-35 -641 -51 -821q-10 -117 -44 -169t-128 -52v-123z" />
<glyph unicode="N" horiz-adv-x="1673" d="M102 0q186 6 285 6l281 -6v123q-121 0 -150 27.5t-29 121.5q-6 287 -8 506v57q0 142 8 287q78 -104 353.5 -589.5t322.5 -532.5q86 4 158 4l125 -4q-6 440 -6 778q0 76 3 205t3 139q0 96 41 142.5t133 46.5v123q-211 -6 -299 -7l-262 7v-2v-2v-3v-2v-2v-2v-2v-2v-2v-4v-2 v-2v-2v-2v-2v-4v-2v-2v-4v-3v-2v-4v-2v-4v-2v-4v-2v-4v-4v-2v-4v-4v-5v-2v-4v-4v-4v-18q63 0 101 -8.5t52.5 -31t17.5 -37.5t3 -54q4 -199 6 -402q0 -238 -6 -483q-66 102 -229 396l-292 506q-128 212 -173 237q-139 -6 -209 -7l-219 7v-123q57 0 90 -7.5t46 -31t15 -42 t2 -65.5q6 -188 6 -387q0 -113 -3 -287t-3 -204q0 -86 -39 -125t-125 -39v-123z" />
<glyph unicode="O" horiz-adv-x="1595" d="M102 719q0 -209 75 -377t238 -273.5t392 -105.5q213 0 371.5 110.5t236.5 288t78 390.5q0 317 -185.5 517.5t-521.5 200.5q-281 0 -482.5 -206.5t-201.5 -544.5zM375 733.5q0 106.5 21.5 202.5t66.5 181t127 135.5t188 50.5q201 0 317.5 -162t116.5 -424q0 -111 -18 -207 t-61 -183t-123 -137.5t-191 -50.5q-121 0 -211 54.5t-139 145.5t-71.5 189.5t-22.5 205z" />
<glyph unicode="P" horiz-adv-x="1228" d="M102 0l293 6l328 -6v123q-131 0 -166 32.5t-35 112.5l-4 322q75 -1 126 -1q101 0 106 3q197 0 327.5 114.5t130.5 288.5q0 203 -146.5 321t-377.5 118q-76 0 -174 -3.5t-152 -3.5l-247 7v-123q57 0 89.5 -8.5t46 -31t16.5 -41t3 -59.5q6 -184 6 -393q0 -111 -3 -288 t-3 -203q0 -164 -164 -164v-123zM518 739l4 549h115q63 0 113.5 -15.5t80 -41t51 -55t31 -59.5t14.5 -55.5t5 -41.5v-14q0 -125 -70.5 -196t-187.5 -71h-156z" />
<glyph unicode="Q" horiz-adv-x="1597" d="M102 719q0 338 202 544.5t482 206.5q336 0 521.5 -200.5t185.5 -517.5q0 -207 -87 -393.5t-232 -292.5l221 -216q12 -14 5 -28.5t-34 -14.5l-164 -2q-59 0 -80 33l-121 158q-104 -33 -194 -33q-229 0 -392 105.5t-238 273.5t-75 377zM375 733.5q0 -106.5 22.5 -205 t71.5 -189.5t139 -145.5t211 -54.5q109 0 187.5 48.5t123 132t63.5 182t19 215.5q0 262 -116.5 424t-317.5 162q-106 0 -188 -50.5t-127 -135.5t-66.5 -181t-21.5 -202.5z" />
<glyph unicode="R" horiz-adv-x="1490" d="M102 0q178 6 285 6l309 -6v123q-104 0 -129.5 27.5t-25.5 101.5l-4 381q121 0 259 -155.5t165 -264.5q4 -16 3 -29q0 -61 -79 -61v-123q156 6 256 6l309 -6v123q-113 0 -152 61l-227 342q-55 84 -203 129v9q98 18 181.5 56t150 121t66.5 195q0 209 -155 303.5t-415 94.5 q-25 0 -147.5 -3.5t-173.5 -3.5q-35 0 -74 1.5t-69.5 1.5t-56 1t-40.5 3h-16v-123q59 0 94 -7.5t50.5 -29t19.5 -38.5t4 -54q6 -256 6 -404l-6 -473q0 -92 -42 -137t-143 -45v-123zM537 764l4 526h108q147 0 243.5 -61.5t96.5 -198.5q0 -115 -109.5 -190.5t-273.5 -75.5h-69 z" />
<glyph unicode="S" horiz-adv-x="1222" d="M102 115l74 -42t177 -68t243 -42q238 0 381 117t143 303q0 86 -29.5 153.5t-93 120t-113.5 82t-141 72.5l-104 47q-74 33 -103.5 50.5t-73.5 48t-61.5 67.5t-17.5 82q0 66 58.5 131.5t174.5 65.5q211 0 232 -158l-2 -68h201q-1 135 -1 204t1 71q-18 12 -54.5 32.5 t-150 53t-232.5 32.5q-219 0 -351 -111.5t-132 -281.5q0 -139 80 -228t223 -163q39 -20 116 -56t116.5 -57.5t89 -56.5t71 -76t21.5 -90q0 -92 -69.5 -149.5t-170.5 -57.5q-152 0 -225.5 60.5t-73.5 161.5l-2 55h-201v-305z" />
<glyph unicode="T" horiz-adv-x="1337" d="M41 1059h166q0 119 74.5 165t267.5 46v-492l-6 -520q0 -47 -10.5 -71.5t-56.5 -44t-138 -19.5v-123l334 6l321 -6v2v2v2v2v2v2v2v2v2v2v3v2v2v2v4v2v2v4v2v2v4v2v4v2v4v2v5v4v2v4v4v4v2v4v4v4v4v19q-129 0 -163.5 29.5t-34.5 105.5q-6 305 -7 520v492q193 0 269 -44 t76 -167h163v375q-338 -6 -630 -7l-625 7v-375z" />
<glyph unicode="U" horiz-adv-x="1615" d="M61 1309q57 0 92 -7.5t50.5 -24.5t18.5 -32.5t3 -44.5q6 -291 6 -422q0 -90 -3 -177t-3 -138q0 -92 30 -176t95.5 -159t187 -120t285.5 -45q156 0 268.5 47t174 131t89 185.5t27.5 224.5l-6 227l6 340q0 190 172 191v125q-162 -6 -278 -7l-307 7v-2v-2v-3v-2v-2v-2v-2v-2 v-2v-2v-2v-2v-4v-2v-2v-2v-2v-4v-2v-2v-5v-2v-4v-2v-2v-4v-4v-2v-4v-2v-4v-4v-2v-5v-4v-2v-4v-4v-4v-16q84 0 126 -18.5t50 -42t10 -70.5q6 -238 6 -400v-211q0 -418 -325 -417q-190 0 -273.5 114.5t-83.5 335.5l6 518q0 102 45 146.5t142 44.5v125q-176 -6 -322 -7l-289 7 v-125z" />
<glyph unicode="V" horiz-adv-x="1509" d="M20 1311q27 0 46.5 -4t32 -16.5t17.5 -18.5t14 -27.5t11 -25.5l490 -1219q63 6 135 6q17 1 34 1t34 -1q33 -2 55 -4l22 -2q446 1174 451 1174q35 86 59.5 111.5t67.5 25.5v123q-90 -6 -203 -7l-313 7v-123q111 0 140 -30q20 -20 20 -56q0 -18 -5 -39 q-23 -123 -149.5 -473.5t-177.5 -450.5q-59 106 -188.5 441t-155.5 458q-6 25 -6 45q0 104 147 105v123q-205 -6 -344 -7l-234 7v-123z" />
<glyph unicode="W" horiz-adv-x="2197" d="M20 1434v-123q35 0 58.5 -7.5t37 -27t16.5 -25.5t13 -32l478 -1219q59 4 127 4l124 -4l281 547l227 -547q61 4 138 4l120 -4q358 1044 418 1204q39 106 127 107v123q-131 -4 -250 -4l-280 4v-2v-2v-3v-2v-2v-2v-2v-2v-2v-4v-2v-2v-2v-2v-2v-4v-2v-2v-4v-3v-2v-4v-2v-4v-2 v-4v-2v-4v-4v-2v-4v-4v-5v-2v-4v-4v-4v-18q100 0 141 -25.5t31 -79.5q-16 -94 -127 -439t-174 -503l-46 116l-49 124l-48 120q-30 75 -47 122l-41 112q-24 63 -39 108.5l-29.5 92.5t-22.5 82t-10 59q-6 66 40 88.5t126 22.5v123q-188 -4 -328 -4l-268 4v-123q104 0 143 -99 l80 -214.5t62 -190.5q0 -43 -110 -273.5t-138 -269.5q-74 156 -204 486.5t-146 425.5q-14 72 13.5 103.5t94.5 31.5v123q-123 -4 -272 -4q-45 0 -118 2t-104 3t-45 -1z" />
<glyph unicode="X" horiz-adv-x="1570" d="M41 0q150 8 229 8l322 -8v123q-117 0 -117 67q0 39 128 195q126 154 142.5 154t133 -150.5t122.5 -187.5q2 -9 2 -17q0 -27 -21 -42q-28 -19 -93 -19v-123l321 8l324 -8v123q-82 0 -145 63q-109 109 -263.5 295.5t-199.5 255.5l395 492q70 82 174 82v123q-207 -6 -283 -7 l-266 7v-123q72 0 96.5 -15.5t20.5 -48.5q-4 -49 -126 -198.5t-140 -149.5q-14 0 -124 148.5t-120 187.5q-3 11 -3 20q0 26 21 38q29 17 86 18v123q-209 -6 -335 -7l-277 7v-123q57 0 96 -15.5t82 -70.5l391 -529q0 -20 -165 -214l-265 -300q-53 -59 -143 -59v-123z" />
<glyph unicode="Y" horiz-adv-x="1413" d="M20 1311q39 0 62.5 -17.5t62.5 -74.5q391 -633 424 -699q16 -31 23.5 -58.5t5.5 -39.5v-12l-2 -166q0 -74 -27.5 -97.5t-142.5 -23.5l2 -123q164 8 317 8l285 -8v123q-84 0 -120 13.5t-42 33.5t-6 74v200q0 47 21 103q57 135 420 717q23 29 38 37t52 10v123 q-121 -6 -217 -7l-273 7v-123q70 0 106 -27q25 -18 24 -52q0 -15 -5 -34q-16 -61 -123.5 -238.5t-161.5 -244.5q-25 23 -155.5 231.5t-141.5 255.5q-3 15 -3 28q0 35 24 54q33 27 90 27v123q-170 -6 -293 -7l-244 7v-123z" />
<glyph unicode="Z" horiz-adv-x="1304" d="M82 0l524 6l617 -6v369h-166q0 -98 -44 -141.5t-165 -43.5h-455q0 53 104.5 174t277.5 301.5t263 292.5q164 205 164 297v185q-362 -6 -608 -7l-471 7v-361h168q0 94 45 135t160 41h456q0 -59 -90 -167.5t-278.5 -295t-261.5 -266.5q-240 -262 -240 -336v-184z" />
<glyph unicode="[" horiz-adv-x="512" />
<glyph unicode="\" horiz-adv-x="985" />
<glyph unicode="]" horiz-adv-x="512" />
<glyph unicode="^" horiz-adv-x="962" />
<glyph unicode="_" horiz-adv-x="1024" d="M0 -205h1024v-123h-1024v123z" />
<glyph unicode="`" horiz-adv-x="548" />
<glyph unicode="a" horiz-adv-x="1032" d="M72 219q0 -86 75.5 -167t214.5 -81q74 0 132.5 15.5t86 33t48 33t26.5 15.5l80 -88h41q84 20 205 20v123q-39 0 -57.5 1t-40 8t-28.5 22.5t-7 42.5v467q0 94 -33 154.5t-93 87t-116.5 35.5t-134.5 9q-98 0 -182 -27.5t-121 -54.5l-35 -28v-181h164q0 84 45 116t139 32 q80 0 107.5 -37t27.5 -111v-84q-188 -18 -342 -81q-123 -49 -162.5 -119t-39.5 -156zM311 252q0 141 219 184l86 13v-193q0 -74 -44 -107.5t-107 -33.5q-70 0 -112 33.5t-42 103.5z" />
<glyph unicode="b" horiz-adv-x="1093" d="M31 1546v-112h12q45 0 66.5 -3.5t41 -25t19.5 -66.5q6 -295 6 -561l-6 -778h102l74 102q4 0 42 -32.5t112.5 -65.5t167.5 -33q174 0 279.5 132.5t105.5 375.5q0 125 -40 221.5t-101.5 147.5t-126 76.5t-126.5 25.5q-68 0 -129 -18.5t-98 -35.5t-43 -17l4 688h-59 q-113 -21 -303 -21zM385 399l8 353q82 16 178 16q59 0 104.5 -19.5t71 -49t41 -71.5t20.5 -78t5 -77q0 -326 -203 -326q-121 0 -173 73t-52 179z" />
<glyph unicode="c" horiz-adv-x="960" d="M72 436q0 -121 42 -214t110.5 -145t145 -79t156.5 -27q217 0 367 97l6 4v176h-53q-12 -12 -36 -32.5t-97.5 -53.5t-149.5 -33q-125 0 -193.5 86t-68.5 242q0 53 11.5 107t37 109.5t76.5 89.5t123 34q137 0 166 -142l6 -45h178v221q-14 12 -43 33t-116 53.5t-177 32.5 q-207 0 -349 -132t-142 -382z" />
<glyph unicode="d" horiz-adv-x="1148" d="M82 477q0 -254 109.5 -380t271.5 -126q55 0 107.5 13.5t87 33t60 39t41 32.5t17.5 13l80 -122h37q84 20 215 20v123q-43 0 -63.5 1t-45 8t-34 23.5t-9.5 45.5q-6 340 -6 577l6 789h-53q-96 -20 -315 -21v-112q41 0 60.5 -2t45 -11.5t36.5 -32t11 -61.5v-446 q-4 0 -39.5 17t-97 34.5t-131.5 17.5q-154 0 -272.5 -124t-118.5 -349zM313 473q0 164 71 231.5t179 67.5q39 0 85 -5t70.5 -9t22.5 -2l4 -361q2 -102 -55 -173.5t-168 -71.5q-209 -1 -209 323z" />
<glyph unicode="e" horiz-adv-x="1032" d="M72 440q0 -209 111.5 -339t344.5 -130q104 0 198.5 24.5t135.5 49.5l41 25l2 166h-57q-12 -12 -34.5 -30t-92.5 -47.5t-143 -29.5q-123 0 -195 69.5t-80 213.5v20h647v72q0 82 -17.5 153.5t-59.5 141t-126.5 110.5t-205.5 41q-57 0 -116.5 -15t-124 -53t-115 -93.5 t-82 -146.5t-31.5 -202zM315 571q0 20 10.5 55.5t32 78.5t67.5 72.5t107 29.5q72 0 119 -46t61 -96q10 -38 10 -73q0 -11 -1 -21h-406z" />
<glyph unicode="f" horiz-adv-x="784" d="M51 0q55 0 155.5 4t135.5 4t137.5 -4t151.5 -4v123q-125 0 -155 19.5t-30 74.5l-4 559h209v146h-209q4 145 4 225q0 201 152 201q45 0 78 -11.5t60.5 -32t33.5 -22.5h33v51v68l2 33q-98 80 -223 79q-168 0 -260.5 -105t-92.5 -249l4 -237h-182v-146h182l-4 -502 q-2 -84 -42 -117.5t-136 -33.5v-123z" />
<glyph unicode="g" horiz-adv-x="1038" d="M72 475q0 -98 19.5 -184t61.5 -160t118.5 -117t181.5 -43q49 0 96 13.5t78.5 31t56.5 36t37 30.5l10 14v-188q0 -147 -75.5 -212t-194.5 -65q-76 0 -138.5 20.5t-86.5 41.5l-25 22h-41v-157q10 -10 30.5 -26.5t97.5 -44.5t167 -28q115 0 204 31t140 78t83 111.5t43 122 t11 116.5q0 35 -3 253t-3 280l6 471h-53l-111 -54q-4 0 -110.5 41t-208.5 41q-156 0 -273.5 -128t-117.5 -347zM303 471q4 295 252 301q20 0 40.5 -1t37 -2t32 -4l26.5 -5t19.5 -4t12.5 -2l4 -2q4 -149 4 -351q0 -129 -63.5 -190t-155.5 -61q-209 0 -209 309v12z" />
<glyph unicode="h" horiz-adv-x="1222" d="M61 0l265 6l213 -6v123q-82 0 -100.5 16.5t-18.5 59.5l-4 520q111 35 221 35q113 0 144.5 -60.5t31.5 -206.5v-223q0 -80 -35 -110.5t-110 -30.5v-123l256 6l237 -6v123q-76 0 -96.5 12t-20.5 47v379q0 381 -319 381q-78 0 -155.5 -25.5t-114.5 -52.5l-39 -24l4 727h-47 q-121 -20 -312 -21v-112q45 0 68 -3.5t45.5 -21.5t22.5 -57q6 -315 6 -574q0 -127 -3 -309t-3 -203q0 -82 -30 -112.5t-106 -30.5v-123z" />
<glyph unicode="i" horiz-adv-x="712" d="M61 0q233 8 301 8l289 -8v123q-131 0 -161.5 16.5t-30.5 67.5l-2 502l-2 233h-62q-88 -20 -321 -20v-113q33 0 50 -1t44 -5t40 -13.5t24.5 -29t11.5 -45.5v-471q0 -121 -181 -121v-123zM166 1294q0 -76 41 -113.5t108 -37.5q63 0 102.5 44t39.5 111q0 66 -44 101t-108 35 q-59 0 -99 -34t-40 -106z" />
<glyph unicode="j" horiz-adv-x="571" d="M-51 -332v-145q63 -63 184 -64q156 0 246 103q70 80 70 256l-7 592l7 532h-62q-66 -20 -334 -20v-2v-3v-2v-2v-2v-2v-2v-2v-2v-2v-2v-2v-4v-2v-2v-2v-4v-2v-2v-5v-2v-4v-2v-4v-4v-2v-4v-2v-4v-4v-4v-2v-5v-4v-18q37 0 55.5 -1t46 -5t41 -14.5t23.5 -29t10 -46.5 q6 -109 7 -303v-598q0 -100 -32 -144.5t-102 -44.5q-39 0 -67.5 11.5t-38.5 21.5l-10 12h-37zM131 1296q0 -51 41 -95t110.5 -44t104.5 43t35 105q0 57 -39 93t-109 36q-74 0 -108.5 -41.5t-34.5 -96.5z" />
<glyph unicode="k" horiz-adv-x="1232" d="M61 0q164 6 244 6l238 -6v123q-68 0 -86.5 13t-18.5 50v162l168 121l154 -256q12 -25 12 -42q0 -48 -84 -48v-123q184 6 266 6l238 -6v123q-82 2 -129 53q-106 119 -281 416q8 8 42 40t48 44l47 39q32 27 52 38l48 27q28 16 54.5 22.5t50.5 6.5h39v113q-113 -6 -200 -7 l-322 7v-113h49q66 0 66 -35q0 -33 -149.5 -151.5t-168.5 -118.5q-6 160 -6 274l6 789h-49q-145 -20 -317 -21v-112q37 0 56 -2.5t44 -12.5t35 -32.5t10 -61.5q0 -6 3 -223t3 -324q0 -51 -1 -122.5t-1 -139t-1 -128t-3 -97.5v-39q0 -72 -37 -100.5t-119 -28.5v-123z" />
<glyph unicode="l" horiz-adv-x="702" d="M51 0l318 8l282 -8v123q-127 0 -156.5 21.5t-29.5 78.5q-2 410 -6 555l4 789h-55q-98 -20 -334 -21v-112q47 0 67.5 -2t49 -12.5t40 -36t11.5 -70.5q4 -43 4 -254t-2 -475.5t-2 -298.5q0 -162 -191 -162v-123z" />
<glyph unicode="m" horiz-adv-x="1806" d="M61 0q137 6 211 6l267 -6v123q-57 0 -83 11t-29 19.5t-7 41.5q-4 139 -4 256l4 286q53 31 178 31q119 0 168 -57.5t49 -214.5v-195q0 -178 -153 -178v-123l221 6l268 -6l-2 123q-57 0 -85 9t-30 14.5t-6 29.5q-8 170 -8 297l-2 256q70 39 186 39q68 0 112 -21.5 t63.5 -63.5t25.5 -83t6 -102v-197q0 -102 -35 -140t-119 -38v-123q117 6 259 6l229 -6v123q-82 0 -98.5 9t-16.5 44v385v15q0 170 -91 270q-95 104 -263 104q-74 0 -158 -25.5t-131 -52.5l-45 -24q-10 12 -28.5 28.5t-85 45t-142.5 28.5q-143 -2 -293 -98l-45 90 q-72 -20 -287 -20v-113q33 0 51.5 -3t40 -14.5t32 -39t10.5 -72.5l4 -229l-4 -199q-2 -61 -29 -95t-105 -34v-123z" />
<glyph unicode="n" horiz-adv-x="1241" d="M82 0v123q127 0 131 143l6 193l-6 250q0 57 -28.5 78.5t-92.5 21.5v113q94 0 153.5 5t84 10t37.5 5l45 -78q2 0 37.5 21.5t101 43t141.5 21.5q145 0 259 -99t114 -292v-364q0 -33 4 -45.5t29.5 -21.5t81.5 -9v-119q-150 6 -256 6l-248 -6v123q172 0 172 194v170 q0 162 -54.5 222.5t-175.5 60.5l-184 -18q-4 -168 -4 -275l2 -274q0 -33 4 -46.5t32 -23.5t87 -10v-123q-139 6 -238 6z" />
<glyph unicode="o" horiz-adv-x="1062" d="M72 440q0 -469 460 -469q201 0 330 137.5t129 387.5q0 135 -42 229t-113.5 141t-145.5 65.5t-160 18.5q-84 0 -161.5 -28.5t-146 -87t-109.5 -161t-41 -233.5zM301 451q0 178 53.5 267t173.5 89q111 0 174.5 -75t63.5 -224q0 -389 -223 -389q-242 0 -242 332z" />
<glyph unicode="p" horiz-adv-x="1167" d="M51 -389v-123q127 8 289 8l278 -8v123q-82 0 -120.5 14.5t-45 30.5t-6.5 57v2v2v2v2v3v2v2v2v2v2v2v2v2v2v2v2v2v2v2v2v2v2v2v2v2v3v2v2v2v2v2v2v2v2v2v2v2v2v2v4v2v2v2v2v2v3v4v2v2v2v4v2v2v2v4v2v2v4v2v2v4v3v2v4v2v2v4v2v4v2v2v4v2v4v2v5v2v4v2v4v2v4v2v4v2v4v2v4v2v5 v4v2v4v2v4v4v2v4v4v2v4v4v3v4v4v2v4v4v2v4v4v4v2v4v5v4v4v2v4v4v4v4v2v4v4v4v5v4v2v4v18q0 -4 30 -32.5t96.5 -60.5t142.5 -32q174 0 279.5 131t105.5 371q0 215 -114 346t-271 131q-76 0 -148.5 -20.5t-119 -41t-56.5 -20.5l-59 74q-88 -20 -266 -20v-113q41 0 61 -3 t47 -13.5t38 -38t11 -72.5q6 -158 6 -334q0 -125 -3 -330.5t-3 -238.5q0 -88 -40 -128t-132 -40zM442 410l4 344q106 14 179 14q246 0 245 -295q0 -326 -202 -326q-98 0 -162 71t-64 192z" />
<glyph unicode="q" horiz-adv-x="1134" d="M76 475q0 -252 110.5 -378t272.5 -126q78 0 145.5 31t95.5 64l31 30v-311q0 -174 -192 -174v-123q203 6 290 6l285 -6v123q-78 0 -112.5 13.5t-41 29.5t-6.5 59q0 66 -6 594l6 615h-57l-111 -54l-110 41q-109 41 -211 41q-57 0 -119.5 -24.5t-126 -75.5t-103.5 -148.5 t-40 -226.5zM309 471q0 297 244 297q45 0 89 -3t67 -7l22 -4l6 -357q2 -119 -58.5 -183t-158.5 -64q-211 -1 -211 321z" />
<glyph unicode="r" horiz-adv-x="882" d="M61 0l293 6l258 -6v123q-84 0 -117.5 11t-39.5 28.5t-9 70.5v504q51 39 123 39q100 0 101 -84v-39h182v256q-74 41 -205 41q-59 0 -120.5 -24.5t-98.5 -50t-39 -25.5l-57 92q-113 -20 -271 -20v-113q57 0 85 -4t49.5 -26.5t21.5 -67.5q4 -162 4 -260l-4 -172 q4 -156 -156 -156v-123z" />
<glyph unicode="s" horiz-adv-x="886" d="M82 676q0 -88 53 -147.5t128 -88t149.5 -52t128 -60.5t53.5 -92q0 -53 -48 -86t-110 -33q-88 0 -140 46t-52 138h-158v-215q16 -12 47 -31.5t120 -51.5t173 -32q186 0 282.5 81t96.5 212q0 66 -26.5 115t-76 81t-96.5 50t-113.5 40.5t-99.5 37.5q-102 45 -102 117 q0 51 44 82.5t107 31.5q80 0 115 -33.5t35 -109.5h151v188q-12 10 -35.5 24.5t-106.5 38t-179 23.5q-141 0 -240.5 -74.5t-99.5 -199.5z" />
<glyph unicode="t" horiz-adv-x="813" d="M41 778h186v-512q0 -123 82 -209t211 -86q160 0 248 90l4 5v116h-37q-49 -33 -110 -32q-104 0 -137 54t-33 206v368h299v144h-297l2 258h-174q0 -168 -50.5 -223.5t-193.5 -55.5v-123z" />
<glyph unicode="u" horiz-adv-x="1189" d="M51 809q41 0 61.5 -3t39 -25.5t18.5 -69.5v-387q0 -168 107.5 -260.5t252.5 -92.5q156 0 287 127l10 11l95 -129q109 20 247 20v113q-154 0 -153 112q-4 145 -4 318l4 399h-43q-170 -20 -309 -20v-113q53 0 77.5 -4t42 -25.5t17.5 -66.5v-367q0 -88 -54.5 -142 t-138.5 -54q-129 0 -168 69.5t-39 249.5l7 473h-52q-184 -20 -305 -20v-113z" />
<glyph unicode="v" horiz-adv-x="1075" d="M20 922v-123q35 0 50.5 -12.5t31.5 -45.5l338 -741q45 4 119 4l107 -4q307 729 309 733q18 41 33.5 53.5t46.5 12.5v123q-106 -6 -181 -7l-212 7v-123q72 0 94 -17.5t12 -64.5q-14 -76 -78.5 -245t-111.5 -269q-133 287 -211 506q-18 49 6 69.5t86 20.5v123 q-162 -6 -238 -7z" />
<glyph unicode="w" horiz-adv-x="1607" d="M20 922v-123q51 0 66.5 -10.5t36.5 -51.5l317 -737q51 4 95 4l112 -4q172 344 182 344l144 -344q61 4 106 4l109 -4l311 729q23 43 38 56.5t50 13.5v123q-109 -6 -182 -7l-199 7v-123q72 0 90.5 -27t-0.5 -80q-8 -29 -54 -150l-89 -232q-43 -110 -45 -109q-6 -2 -46 117 l-78 238q-38 118 -46 149q-27 94 88 94v123q-156 -6 -231 -7l-187 7v-123q35 0 52.5 -5.5t22.5 -11.5t15 -24l45 -129q25 -74 15 -76q0 -16 -83 -181t-91 -165q-4 0 -37 78l-69 170l-66 172l-31 80q-18 49 5.5 70.5t64.5 21.5v123q-84 -6 -197 -7z" />
<glyph unicode="x" horiz-adv-x="1208" d="M61 0q113 6 170 6l256 -6v123q-61 0 -61 37q0 16 41 61t82 82l39 35q141 -129 143 -174q2 -23 -18.5 -32t-46.5 -9v-123q205 6 288 6l193 -6v123q-78 0 -119 41q-285 299 -285 313q0 8 132.5 141.5t136.5 131.5q61 45 133 49v123q-129 -6 -170 -7l-238 7v-123 q72 0 72 -47q0 -39 -154 -172q-147 145 -147 182t61 37v123q-162 -6 -227 -7l-252 7v-123q94 0 143 -58q252 -268 256 -295q0 -8 -62 -72l-126 -126l-63 -62q-47 -37 -82 -50t-95 -13v-123z" />
<glyph unicode="y" horiz-adv-x="1150" d="M20 799q45 0 64.5 -9.5t44.5 -48.5q387 -696 391 -737q-20 -80 -33.5 -123t-44 -113.5t-77 -105.5t-107.5 -37h-9q-93 0 -128 43h-37v-145q66 -63 192 -64q242 0 334 234l121 303q260 647 311 743q20 39 42 49.5t61 10.5v123q-129 -6 -209 -7l-213 7v-123 q55 0 80.5 -15.5t25.5 -54.5t-44 -161t-89 -225t-49 -103t-63.5 105.5t-118.5 226t-59 155.5q0 72 88 72v123q-160 -6 -238 -7l-236 7v-123z" />
<glyph unicode="z" horiz-adv-x="993" d="M92 922v-277h137q0 133 86 133h340q0 -31 -139 -154l-279 -257q-140 -133 -145 -183v-184q287 6 389 6l420 -6v285h-135q0 -121 -100 -121h-320q0 25 134 147l269 256q134 133 134 181v174q-264 -6 -402 -7z" />
<glyph unicode="{" horiz-adv-x="634" d="M123 733v-28q6 0 14 -2.5t29.5 -17.5t39 -42t31 -85t13.5 -136q0 -348 26 -465q45 -209 211 -223h25q49 0 90 8t57 16l17 11v102h-25q-82 -29 -149 8q-41 37 -58.5 103.5t-16.5 125t7 164t6 162.5q0 74 -15 130.5t-36.5 84t-43 44t-38.5 20.5l-14 4q6 0 16 3t35 21.5 t44.5 45t35.5 83t16 129.5q0 86 -5 206t-4 165t16.5 97.5t54.5 86.5q55 39 145 11h29v100q-53 35 -164 35q-63 0 -110.5 -22.5t-75 -77t-45 -99.5t-23.5 -137t-7 -140t-1 -157v-55q0 -250 -127 -279z" />
<glyph unicode="|" horiz-adv-x="389" />
<glyph unicode="}" horiz-adv-x="634" d="M-61 -129h24q36 -13 69 -13q43 0 81 21q41 37 58 104q16 63 16 118q0 46 -7 170q-6 105 -6 163q0 74 15.5 130.5t37 84t43 44t37.5 20.5l15 4q-6 0 -16.5 3t-35 21.5t-44 45t-36 83t-16.5 129.5q0 86 5 206q4 100 4 148v17q-1 45 -16 97.5t-54 86.5q-32 22 -76 23 q-32 0 -70 -12h-28v100q53 35 163 35q63 0 110.5 -22.5t75 -77t45 -99.5t23.5 -137t7.5 -140t1.5 -157v-55q0 -250 127 -279v-28q-6 0 -14.5 -2.5t-30 -17.5t-39 -42t-30.5 -85t-13 -136q0 -348 -27 -465q-45 -209 -211 -223h-25q-49 0 -90 8t-57 16l-16 11v102z" />
<glyph unicode="~" horiz-adv-x="956" />
<glyph unicode="&#xa1;" horiz-adv-x="514" />
<glyph unicode="&#xa2;" horiz-adv-x="1044" />
<glyph unicode="&#xa3;" horiz-adv-x="1241" />
<glyph unicode="&#xa4;" horiz-adv-x="1306" />
<glyph unicode="&#xa5;" horiz-adv-x="1400" />
<glyph unicode="&#xa6;" horiz-adv-x="389" />
<glyph unicode="&#xa7;" horiz-adv-x="1081" d="M109 530q0 -102 61 -180t148.5 -123t174.5 -85t148 -92t61 -118q0 -63 -48 -107t-134 -44q-88 0 -141 43t-53 113v30h-187v-198q16 -12 48 -32t131.5 -52.5t203.5 -32.5q182 0 290 96t108 217q0 49 -17.5 95t-42 77t-50.5 53.5t-44 32.5l-16 10q8 4 23 14.5t54 42.5 t68 67.5t53.5 91t24.5 114.5q0 86 -61.5 154.5t-148.5 112.5l-174 85q-87 41 -148.5 93.5t-61.5 113.5q0 76 53 119t135 43t118 -33.5t36 -109.5v-35h180v217q-14 10 -39.5 24.5t-106.5 38t-163 23.5q-80 0 -151.5 -15.5t-137 -48t-104.5 -95t-39 -146.5q0 -66 45 -134.5 t90 -105.5l47 -35q-10 -4 -25.5 -13t-55.5 -38.5t-70.5 -62.5t-56 -83.5t-25.5 -101.5zM326 571q0 31 12 62t29.5 53.5t36 40.5t30.5 27l12 10q12 -4 34 -12.5t76 -37t96 -60t76 -80t34 -99.5q0 -53 -33 -97t-65 -63l-33 -18l-33 11q-20 7 -73.5 33t-93.5 55.5t-72.5 76.5 t-32.5 98z" />
<glyph unicode="&#xa8;" horiz-adv-x="946" />
<glyph unicode="&#xa9;" horiz-adv-x="1814" />
<glyph unicode="&#xaa;" horiz-adv-x="819" />
<glyph unicode="&#xab;" horiz-adv-x="1173" d="M123 420q0 18 86 124l172 201l86 95h147v-31l-274 -389l274 -389v-31h-147q-344 371 -344 420zM575 420q0 18 82 124l164 201l82 95h148v-31l-275 -389l275 -389v-31h-148q-328 371 -328 420z" />
<glyph unicode="&#xac;" horiz-adv-x="983" />
<glyph unicode="&#xad;" horiz-adv-x="675" d="M82 389v164h512v-164h-512z" />
<glyph unicode="&#xae;" horiz-adv-x="1814" />
<glyph unicode="&#xaf;" horiz-adv-x="778" />
<glyph unicode="&#xb0;" horiz-adv-x="634" />
<glyph unicode="&#xb1;" horiz-adv-x="921" />
<glyph unicode="&#xb2;" horiz-adv-x="698" />
<glyph unicode="&#xb3;" horiz-adv-x="690" />
<glyph unicode="&#xb4;" horiz-adv-x="548" />
<glyph unicode="&#xb5;" horiz-adv-x="1277" />
<glyph unicode="&#xb6;" horiz-adv-x="1304" />
<glyph unicode="&#xb7;" horiz-adv-x="423" d="M82 696q0 -68 37 -102.5t96 -34.5q57 0 92 40t35 101q0 57 -39 89t-96 32q-53 0 -89 -31t-36 -94z" />
<glyph unicode="&#xb8;" horiz-adv-x="548" />
<glyph unicode="&#xb9;" horiz-adv-x="552" />
<glyph unicode="&#xba;" horiz-adv-x="794" />
<glyph unicode="&#xbb;" horiz-adv-x="1173" d="M123 0v31l274 389l-274 389v31h147q328 -371 328 -420q0 -18 -82 -124l-164 -202l-82 -94h-147zM559 0v31l275 389l-275 389v31h148q344 -371 344 -420q0 -18 -86 -124l-172 -202l-86 -94h-148z" />
<glyph unicode="&#xbc;" horiz-adv-x="1585" />
<glyph unicode="&#xbd;" horiz-adv-x="1695" />
<glyph unicode="&#xbe;" horiz-adv-x="1638" />
<glyph unicode="&#xbf;" horiz-adv-x="1005" />
<glyph unicode="&#xc0;" />
<glyph unicode="&#xc1;" />
<glyph unicode="&#xc2;" />
<glyph unicode="&#xc3;" />
<glyph unicode="&#xc4;" d="M41 0q86 6 211 6l262 -6v123q-84 0 -111 25q-20 20 -20 49q0 9 2 18l59 197q76 4 244 4l258 -4q43 -135 51 -189q2 -12 2 -21q0 -37 -23 -56q-30 -24 -114 -23v-123q121 6 299 6l232 -6v123q-39 0 -56.5 12t-36.5 51q-14 31 -114 341l-195 608q-94 297 -92 299 q-84 -6 -164 -7l-162 7l-423 -1213q-23 -57 -43.5 -77.5t-65.5 -20.5v-123zM342 1700q0 -72 39 -108t102 -36q61 0 98 41t37 107q0 61 -41.5 95t-101.5 34q-57 0 -95 -32.5t-38 -100.5zM498 578q8 47 59 209l98 303l47 139q174 -524 195 -651q-88 -6 -213 -7zM848 1700 q0 -72 39 -108t102 -36q61 0 98 41t37 107q0 61 -42 95t-101 34q-57 0 -95 -32.5t-38 -100.5z" />
<glyph unicode="&#xc5;" d="M41 0q86 6 211 6l262 -6v123q-84 0 -111 25q-20 20 -20 49q0 9 2 18l59 197q76 4 244 4l258 -4q43 -135 51 -189q2 -12 2 -21q0 -37 -23 -56q-30 -24 -114 -23v-123q121 6 299 6l232 -6v123q-39 0 -56.5 12t-36.5 51q-14 31 -114 341l-195 608q-94 297 -92 299 q-84 -6 -164 -7l-162 7l-423 -1213q-23 -57 -43.5 -77.5t-65.5 -20.5v-123zM498 578q8 47 59 209l98 303l47 139q174 -524 195 -651q-88 -6 -213 -7zM504 1712q0 92 63.5 145.5t159.5 53.5q98 0 160.5 -53.5t62.5 -145.5t-63.5 -145.5t-159.5 -53.5t-159.5 53.5t-63.5 145.5 zM639 1712q0 -41 23.5 -65.5t64.5 -24.5t65.5 24.5t24.5 65.5t-24.5 66.5t-65.5 25.5q-39 0 -63.5 -25.5t-24.5 -66.5z" />
<glyph unicode="&#xc6;" horiz-adv-x="1941" />
<glyph unicode="&#xc7;" horiz-adv-x="1230" />
<glyph unicode="&#xc8;" horiz-adv-x="1173" />
<glyph unicode="&#xc9;" horiz-adv-x="1177" />
<glyph unicode="&#xca;" horiz-adv-x="1185" />
<glyph unicode="&#xcb;" horiz-adv-x="1191" />
<glyph unicode="&#xcc;" horiz-adv-x="788" />
<glyph unicode="&#xcd;" horiz-adv-x="839" />
<glyph unicode="&#xce;" horiz-adv-x="847" />
<glyph unicode="&#xcf;" horiz-adv-x="987" />
<glyph unicode="&#xd0;" horiz-adv-x="1484" />
<glyph unicode="&#xd1;" horiz-adv-x="1611" />
<glyph unicode="&#xd2;" horiz-adv-x="1521" />
<glyph unicode="&#xd3;" horiz-adv-x="1595" />
<glyph unicode="&#xd4;" horiz-adv-x="1595" />
<glyph unicode="&#xd5;" horiz-adv-x="1595" />
<glyph unicode="&#xd6;" horiz-adv-x="1595" d="M102 719q0 -209 75 -377t238 -273.5t392 -105.5q213 0 371.5 110.5t236.5 288t78 390.5q0 317 -185.5 517.5t-521.5 200.5q-281 0 -482.5 -206.5t-201.5 -544.5zM375 733.5q0 106.5 21.5 202.5t66.5 181t127 135.5t188 50.5q201 0 317.5 -162t116.5 -424q0 -111 -18 -207 t-61 -183t-123 -137.5t-191 -50.5q-121 0 -211 54.5t-139 145.5t-71.5 189.5t-22.5 205zM375 1700q0 -72 39 -108t102 -36q61 0 98 41t37 107q0 61 -42 95t-101 34q-57 0 -95 -32.5t-38 -100.5zM977 1698q0 -72 39 -108t102 -36q61 0 98 41t37 107q0 61 -42 95t-101 34 q-57 0 -95 -32.5t-38 -100.5z" />
<glyph unicode="&#xd7;" horiz-adv-x="901" />
<glyph unicode="&#xd8;" horiz-adv-x="1601" />
<glyph unicode="&#xd9;" horiz-adv-x="1562" />
<glyph unicode="&#xda;" horiz-adv-x="1552" />
<glyph unicode="&#xdb;" horiz-adv-x="1558" />
<glyph unicode="&#xdc;" horiz-adv-x="1566" />
<glyph unicode="&#xdd;" horiz-adv-x="1359" />
<glyph unicode="&#xde;" horiz-adv-x="1259" />
<glyph unicode="&#xdf;" horiz-adv-x="1312" />
<glyph unicode="&#xe0;" horiz-adv-x="952" />
<glyph unicode="&#xe1;" horiz-adv-x="956" />
<glyph unicode="&#xe2;" horiz-adv-x="952" />
<glyph unicode="&#xe3;" horiz-adv-x="946" />
<glyph unicode="&#xe4;" horiz-adv-x="1042" d="M72 219q0 -86 75.5 -167t214.5 -81q74 0 132.5 15.5t86 33t48 33t26.5 15.5l80 -88h41q84 20 205 20v123q-39 0 -57.5 1t-40 8t-28.5 22.5t-7 42.5v467q0 94 -33 154.5t-93.5 87t-116.5 35.5t-134 9q-98 0 -182 -27.5t-121 -54.5l-35 -28v-181h164q0 84 45 116t139 32 q80 0 107.5 -37t27.5 -111v-84q-188 -18 -342 -81q-123 -49 -162.5 -119t-39.5 -156zM174 1208q0 -68 36 -101.5t95 -33.5q55 0 89 39t34 100q0 57 -38 87t-93 30q-123 0 -123 -121zM311 252q0 141 219 184l86 13v-193q0 -74 -44 -107.5t-107 -33.5q-70 0 -112 33.5 t-42 103.5zM578 1208q0 -66 35.5 -100.5t93 -34.5t91 39t33.5 100q0 57 -38.5 87t-94.5 30q-51 0 -85.5 -29t-34.5 -92z" />
<glyph unicode="&#xe5;" horiz-adv-x="1042" d="M72 219q0 -86 75.5 -167t214.5 -81q74 0 132.5 15.5t86 33t48 33t26.5 15.5l80 -88h41q84 20 205 20v123q-39 0 -57.5 1t-40 8t-28.5 22.5t-7 42.5v467q0 94 -33 154.5t-93 87t-116.5 35.5t-134.5 9q-98 0 -182 -27.5t-121 -54.5l-35 -28v-181h164q0 84 45 116t139 32 q80 0 107.5 -37t27.5 -111v-84q-188 -18 -342 -81q-123 -49 -162.5 -119t-39.5 -156zM270 1220.5q0 90.5 62.5 142.5t156.5 52q98 0 159 -52t61 -142.5t-62.5 -142.5t-157 -52t-157 52t-62.5 142.5zM311 252q0 141 219 184l86 13v-193q0 -74 -44 -107.5t-107 -33.5 q-70 0 -112 33.5t-42 103.5zM403 1221q0 -39 24 -63.5t62.5 -24.5t63.5 23.5t25 64.5t-25 65.5t-63.5 24.5t-62.5 -24.5t-24 -65.5z" />
<glyph unicode="&#xe6;" horiz-adv-x="1587" />
<glyph unicode="&#xe7;" horiz-adv-x="960" />
<glyph unicode="&#xe8;" horiz-adv-x="1011" />
<glyph unicode="&#xe9;" horiz-adv-x="1011" />
<glyph unicode="&#xea;" horiz-adv-x="1011" />
<glyph unicode="&#xeb;" horiz-adv-x="1011" />
<glyph unicode="&#xec;" horiz-adv-x="690" />
<glyph unicode="&#xed;" horiz-adv-x="696" />
<glyph unicode="&#xee;" horiz-adv-x="692" />
<glyph unicode="&#xef;" horiz-adv-x="669" />
<glyph unicode="&#xf0;" horiz-adv-x="1083" />
<glyph unicode="&#xf1;" horiz-adv-x="1206" />
<glyph unicode="&#xf2;" horiz-adv-x="1062" />
<glyph unicode="&#xf3;" horiz-adv-x="1062" />
<glyph unicode="&#xf4;" horiz-adv-x="1062" />
<glyph unicode="&#xf5;" horiz-adv-x="1062" />
<glyph unicode="&#xf6;" horiz-adv-x="1062" d="M72 440q0 -469 460 -469q201 0 330 137.5t129 387.5q0 135 -42 229t-113.5 141t-145.5 65.5t-160 18.5q-84 0 -161.5 -28.5t-146 -87t-109.5 -161t-41 -233.5zM209 1208q0 -68 36 -101.5t95 -33.5q55 0 89 39t34 100q0 57 -38 87t-93 30q-123 0 -123 -121zM301 451 q0 178 53.5 267t173.5 89q109 0 168.5 -78t59.5 -229q0 -188 -46 -284.5t-167 -96.5q-242 0 -242 332zM612 1208q0 -66 36 -100.5t93.5 -34.5t91 39t33.5 100q0 57 -39 87t-94 30q-51 0 -86 -29t-35 -92z" />
<glyph unicode="&#xf7;" horiz-adv-x="1044" />
<glyph unicode="&#xf8;" horiz-adv-x="1083" />
<glyph unicode="&#xf9;" horiz-adv-x="1163" />
<glyph unicode="&#xfa;" horiz-adv-x="1157" />
<glyph unicode="&#xfb;" horiz-adv-x="1163" />
<glyph unicode="&#xfc;" horiz-adv-x="1163" />
<glyph unicode="&#xfd;" horiz-adv-x="1161" />
<glyph unicode="&#xfe;" horiz-adv-x="1198" />
<glyph unicode="&#xff;" horiz-adv-x="1202" />
<glyph unicode="&#x152;" horiz-adv-x="2074" />
<glyph unicode="&#x153;" horiz-adv-x="1699" />
<glyph unicode="&#x178;" horiz-adv-x="1316" />
<glyph unicode="&#x2c6;" horiz-adv-x="806" />
<glyph unicode="&#x2dc;" horiz-adv-x="806" />
<glyph unicode="&#x2013;" horiz-adv-x="1024" />
<glyph unicode="&#x2014;" horiz-adv-x="2048" />
<glyph unicode="&#x2018;" horiz-adv-x="303" />
<glyph unicode="&#x2019;" horiz-adv-x="303" />
<glyph unicode="&#x201a;" horiz-adv-x="548" />
<glyph unicode="&#x201c;" horiz-adv-x="661" />
<glyph unicode="&#x201d;" horiz-adv-x="661" />
<glyph unicode="&#x201e;" horiz-adv-x="931" />
<glyph unicode="&#x2022;" horiz-adv-x="897" />
<glyph unicode="&#x2026;" horiz-adv-x="1517" d="M82 117q0 -68 37 -102.5t96 -34.5q57 0 92 39.5t35 101.5q0 57 -39 89t-96 32q-53 0 -89 -31t-36 -94zM625 117q0 -68 36.5 -102.5t96.5 -34.5q57 0 92 39.5t35 101.5q0 57 -39 89t-96 32q-53 0 -89 -31t-36 -94zM1176 117q0 -68 36.5 -102.5t96.5 -34.5q57 0 92 39.5 t35 101.5q0 57 -39 89t-97 32q-53 0 -88.5 -31t-35.5 -94z" />
<glyph unicode="&#x2039;" horiz-adv-x="737" d="M123 420q0 18 86 124l172 201l86 95h147v-31l-274 -389l274 -389v-31h-147q-344 371 -344 420z" />
<glyph unicode="&#x203a;" horiz-adv-x="737" d="M123 0v31l274 389l-274 389v31h147q344 -371 344 -420q0 -18 -86 -124l-172 -202l-86 -94h-147z" />
<glyph unicode="&#x20ac;" horiz-adv-x="1478" />
<glyph unicode="&#x2122;" horiz-adv-x="1824" />
<glyph unicode="&#xe000;" horiz-adv-x="920" d="M0 920h920v-920h-920v920z" />
<glyph unicode="&#xfb01;" horiz-adv-x="1316" d="M61 0q55 0 155.5 4t135.5 4t122 -4t136 -4v123q-57 0 -90 4t-46 19.5t-15 26.5t-2 44l-4 561l239 10q152 -4 154 -104v-440q0 -121 -180 -121v-123q233 8 301 8l288 -8v123q-131 0 -161.5 16.5t-30.5 67.5l-2 502l-2 233h-62q-88 -20 -321 -20h-223q4 145 4 225 q0 201 151 201q147 0 191 -95q25 -55 55.5 -82.5t87.5 -27.5t93 33.5t36 85.5q0 61 -63.5 120.5t-182 95t-227.5 35.5q-168 0 -263 -105t-95 -249l4 -237h-183v-144h183l-4 -504q-2 -84 -42 -117.5t-137 -33.5v-123z" />
<glyph unicode="&#xfb02;" horiz-adv-x="1349" d="M51 0q55 0 155.5 4t135.5 4t122 -4t136 -4v123q-102 0 -128 19.5t-26 74.5l-4 559h209v146h-209q4 145 4 225q0 94 34 143t110 58q28 3 62 3q28 0 61 -2q72 -5 90 -16q43 -23 43 -104q4 -43 4 -233.5t-2 -431t-2 -279.5q0 -162 -191 -162v-123l318 8l282 -8v123 q-127 0 -156.5 21.5t-29.5 78.5q-2 410 -6 555l4 750h-55q-86 -29 -232 -29l-198 14q-168 0 -260.5 -105t-92.5 -249l4 -237h-182v-146h182l-4 -502q-2 -84 -42 -117.5t-136 -33.5v-123z" />
<glyph unicode="&#xfb03;" horiz-adv-x="2281" d="M51 0q55 0 155.5 4t135.5 4t137.5 -4t151.5 -4v123q-125 0 -155 19.5t-30 74.5l-4 559h209v146h-209q4 145 4 225q0 201 152 201q45 0 78 -11.5t60.5 -32t33.5 -22.5h33v51v68l2 33q-98 80 -223 79q-168 0 -260.5 -105t-92.5 -249l4 -237h-182v-146h182l-4 -502 q-2 -84 -42 -117.5t-136 -33.5v-123zM836 0q55 0 155.5 4t135 4t137 -4t151.5 -4v123q-125 0 -154.5 19.5t-29.5 74.5l-4 559h209v146h-209q4 145 4 225q0 201 151 201q45 0 78 -11.5t60.5 -32t33.5 -22.5h33v51v68l2 33q-98 80 -223 79q-168 0 -260 -105t-92 -249l4 -237 h-182v-146h182l-4 -502q-2 -84 -42 -117.5t-136 -33.5v-123zM1630 0q233 8 301 8l289 -8v123q-131 0 -161.5 16.5t-30.5 67.5l-3 502l-2 233h-61q-88 -20 -322 -20v-113q33 0 50.5 -1t44 -5t40 -13.5t24.5 -29t11 -45.5v-471q0 -121 -180 -121v-123zM1735 1294 q0 -76 41 -113.5t108 -37.5q63 0 102 44t39 111q0 66 -44 101t-107 35q-59 0 -99 -34t-40 -106z" />
<glyph unicode="&#xfb04;" horiz-adv-x="2271" d="M51 0q55 0 155.5 4t135.5 4t137.5 -4t151.5 -4v123q-125 0 -155 19.5t-30 74.5l-4 559h209v146h-209q4 145 4 225q0 201 152 201q45 0 78 -11.5t60.5 -32t33.5 -22.5h33v51v68l2 33q-98 80 -223 79q-168 0 -260.5 -105t-92.5 -249l4 -237h-182v-146h182l-4 -502 q-2 -84 -42 -117.5t-136 -33.5v-123zM836 0q55 0 155.5 4t135 4t137 -4t151.5 -4v123q-125 0 -154.5 19.5t-29.5 74.5l-4 559h209v146h-209q4 145 4 225q0 201 151 201q45 0 78 -11.5t60.5 -32t33.5 -22.5h33v51v68l2 33q-98 80 -223 79q-168 0 -260 -105t-92 -249l4 -237 h-182v-146h182l-4 -502q-2 -84 -42 -117.5t-136 -33.5v-123zM1620 0l317 8l283 -8v123q-127 0 -156.5 21.5t-29.5 78.5q-2 410 -6 555l4 789h-56q-98 -20 -334 -21v-112q47 0 68 -2t49.5 -12.5t39.5 -36t11 -70.5q4 -43 4.5 -254t-2 -475.5t-2.5 -298.5q0 -162 -190 -162 v-123z" />
</font>
</defs>
</svg>
