<?xml version="1.0" standalone="no"?>
<!DOCTYPE svg PUBLIC "-//W3C//DTD SVG 1.1//EN" "http://www.w3.org/Graphics/SVG/1.1/DTD/svg11.dtd" >
<svg xmlns="http://www.w3.org/2000/svg">
<metadata>
This is a custom SVG webfont generated by Font Squirrel.
Copyright   : Copyright c 2010 by Typemade All rights reserved
Designer    : Santiago Orozco
Foundry     : Typemade
</metadata>
<defs>
<font id="webfontRTpBUUtd" horiz-adv-x="1120" >
<font-face units-per-em="2048" ascent="1536" descent="-512" />
<missing-glyph horiz-adv-x="614" />
<glyph unicode=" "  horiz-adv-x="614" />
<glyph unicode="&#x09;" horiz-adv-x="614" />
<glyph unicode="&#xa0;" horiz-adv-x="614" />
<glyph unicode="!" horiz-adv-x="411" d="M4 109q6 47 44 76.5t79 29.5q39 0 66.5 -29.5t21.5 -76.5t-43 -78t-76 -31q-41 0 -68.5 31t-23.5 78zM57 340l168 1196h170l-168 -1196h-170z" />
<glyph unicode="&#x22;" horiz-adv-x="686" d="M92 967l72 508h170l-40 -254l-40 -254h-162zM365 967l71 508h170l-40 -254l-40 -254h-161z" />
<glyph unicode="#" horiz-adv-x="1169" d="M12 385l43 166h189l27 104l26 105h-186l20 83l21 83h188l52 195l52 196h172l-52 -196l-52 -195h205l52 195l52 196h172l-52 -196l-52 -195h209l-21 -83l-20 -83h-211q-12 -53 -26 -105l-27 -104h208l-43 -166h-208l-51 -192l-50 -193h-172l50 193l51 192h-205l-50 -192 l-51 -193h-172l51 193l50 192h-189zM416 551h205l27 104l26 105h-205q-12 -53 -26 -105z" />
<glyph unicode="$" horiz-adv-x="1161" d="M-29 190l31 238h162l-27 -182q37 -31 82 -55.5t105 -36.5l77 548q-55 18 -106 43t-87 65t-53.5 99.5t-7.5 149.5q6 57 31 117.5t68 112.5t107.5 90t150.5 55l18 131h172l-18 -127q66 -6 137.5 -31t138.5 -88l-28 -201h-162l18 121q-27 12 -57.5 22.5t-69.5 14.5l-63 -461 q63 -23 123.5 -51.5t105.5 -75.5t66.5 -120.5t7.5 -184.5q-12 -84 -50 -152.5t-94.5 -120t-128 -83t-147.5 -39.5l-18 -127h-172l18 133q-121 18 -209 73t-121 123zM317 1053q-10 -70 22 -110t87 -69l53 388q-72 -27 -112 -83t-50 -126zM496 154q86 18 149.5 75.5 t77.5 155.5q8 57 -1 99t-30.5 73t-54.5 52.5t-72 37.5z" />
<glyph unicode="%" horiz-adv-x="1486" d="M223 797q8 53 36 100t68 82t91 55.5t104 20.5t98.5 -20.5t76 -55.5t45 -82t6.5 -100q-8 -55 -36 -102.5t-69 -82t-91 -55t-103 -20.5t-98.5 20.5t-76 55t-45 82t-6.5 102.5zM283 0l377 512l378 512h187l-378 -512l-378 -512h-186zM395 797q-6 -41 15.5 -68t62.5 -27 t68.5 27t33.5 68t-15 66.5t-62 25.5t-69 -25.5t-34 -66.5zM766 227q8 53 35.5 100.5t67.5 82t91.5 55t104.5 20.5t98 -20.5t76 -55t45 -81.5t6 -101q-8 -55 -35.5 -102t-68.5 -82t-91.5 -55.5t-103.5 -20.5t-98 20.5t-76 55.5t-45 82t-6 102zM938 227q-6 -41 15.5 -67.5 t62.5 -26.5t68.5 26.5t33.5 67.5t-15.5 66.5t-62.5 25.5t-68.5 -25.5t-33.5 -66.5z" />
<glyph unicode="&#x26;" horiz-adv-x="1433" d="M160 385q10 74 44 139.5t86 117.5t117.5 88t137.5 48l-111 238q-29 61 -34 126.5t13.5 128t64.5 119t120 97.5q63 35 123.5 42t116 -4.5t103.5 -34t83 -46.5l-86 -133q-18 12 -48 27.5t-63.5 23.5t-68.5 8t-66 -18q-92 -53 -112.5 -135t18.5 -162l236 -496v6l28 203h367 l-23 -166h-194l-13 -82l-5 -42l-7 -57q-4 -32 -11 -64.5t-18 -59.5l119 -248l-145 -88l-80 168q-66 -68 -154 -107.5t-186 -39.5q-86 0 -155.5 31.5t-118 87t-69.5 128t-9 156.5zM330 385q-14 -100 43 -169t164 -69q78 0 141 39t98 103l-155 332q-115 0 -195 -62.5 t-96 -173.5z" />
<glyph unicode="'" horiz-adv-x="333" d="M49 967l72 508h172l-40 -254l-40 -254h-164z" />
<glyph unicode="(" horiz-adv-x="868" d="M222 303q-9 139 14 293q20 154 68 293t112.5 258t138.5 216t147 165q35 -12 72 -23.5t72 -23.5q-68 -68 -137.5 -160t-130 -204.5t-105.5 -244t-65 -276.5t-12.5 -276.5t36.5 -244t73 -204.5t93 -160l-78 -23l-78 -24q-55 68 -102 165t-78 216t-40 258z" />
<glyph unicode=")" horiz-adv-x="819" d="M27 -299q68 68 137 160t129.5 204.5t105.5 243.5t66 277q20 145 12 276t-36.5 244t-72.5 205t-94 159l78 26l78 26q55 -68 102.5 -165t78 -216t39.5 -258.5t-11 -292.5q-23 -154 -71 -293t-112.5 -258t-138 -216t-147.5 -165l-72 21z" />
<glyph unicode="*" horiz-adv-x="686" d="M41 1110q35 16 67.5 34.5t67.5 35.5l-56 38l-57 37l99 142l60 -38l59 -38l22 154h172l-24 -154l141 74l32 -71l29 -71l-70 -38l-73 -37l60 -37l59 -37l-54 -75l-53 -75l-58 38l-58 38q-4 -35 -11 -71l-12 -70h-164l21 143l-67 -36l-69 -35l-31 74z" />
<glyph unicode="+" horiz-adv-x="1112" d="M164 389l22 166h283l41 287h172l-41 -287h283l-23 -166h-283l-40 -285h-172l40 285h-282z" />
<glyph unicode="," horiz-adv-x="409" d="M-25 -246l107 211l108 211h172l-117 -211l-118 -211h-152z" />
<glyph unicode="-" horiz-adv-x="614" d="M96 301l23 166h377l-23 -166h-377z" />
<glyph unicode="." horiz-adv-x="333" d="M66 106q8 47 44.5 78t77.5 31q39 0 68 -30.5t20 -78.5q-6 -47 -42.5 -76.5t-75.5 -29.5q-41 0 -69.5 29.5t-22.5 76.5z" />
<glyph unicode="/" horiz-adv-x="778" d="M-74 -39l393 773l394 773h172l-395 -773l-394 -773h-170z" />
<glyph unicode="0" horiz-adv-x="1261" d="M76 670q23 156 83 281.5t147 213.5t194.5 135.5t222.5 47.5t208 -49.5t154.5 -138.5t85 -216t0.5 -282q-23 -156 -87 -281t-154 -214t-195.5 -136t-210.5 -47q-104 0 -196 49t-155.5 139t-91.5 216t-5 282zM247.5 465q16.5 -94 57.5 -164t102.5 -110.5t139.5 -40.5 q76 0 150.5 38.5t137 108.5t105.5 164t59 203q12 74 6 164t-38.5 168.5t-97 132t-169.5 53.5q-104 0 -184 -52.5t-136 -130t-89 -168t-43 -163.5q-17 -109 -0.5 -203z" />
<glyph unicode="1" horiz-adv-x="593" d="M-45 0l22 162h160l142 1003h-140l23 166h311l-164 -1169h162l-22 -162h-494z" />
<glyph unicode="2" horiz-adv-x="1062" d="M12 0l280 247q136 120 243.5 231.5t178 217t85.5 201.5q10 76 -7.5 129t-50 88t-74.5 51.5t-79 16.5q-78 0 -131.5 -27t-87 -65.5t-51 -81.5t-21.5 -76q-18 -131 51 -213l-119 -105q-31 23 -53 61t-35.5 82t-17.5 90t2 85q12 82 50 157.5t101.5 133t147.5 91.5t188 34 q94 0 167 -35t120 -93.5t67.5 -135t8.5 -162.5q-14 -102 -63.5 -197.5t-121 -190t-160.5 -185.5l-184 -183h336l27 190h162l-51 -356h-908z" />
<glyph unicode="3" horiz-adv-x="1054" d="M45 129l141 117q31 -45 80 -70.5t111 -25.5q57 0 110.5 22.5t96.5 60t72.5 88t37.5 107.5t-7 107.5t-48 87t-80 58t-104 21.5q-74 0 -140 -34l355 495h-228l-12 -96h-162l37 264h674l-363 -487q63 -25 113.5 -65t84.5 -93t47 -118.5t3 -139.5q-12 -92 -60 -173 t-118 -141.5t-156 -95t-178 -34.5q-98 0 -176 39.5t-131 105.5z" />
<glyph unicode="4" horiz-adv-x="1083" d="M33 375l887 973l-115 -807h199l-23 -166h-199l-30 -213h170l-23 -162h-496l23 162h154l30 213h-577zM399 541h234l43 305z" />
<glyph unicode="5" horiz-adv-x="1112" d="M133 109l141 114q31 -35 75 -54t97 -19q57 0 110.5 22.5t96.5 60t73 88t38 107.5t-7.5 107.5t-48 87t-79.5 58t-105 21.5q-72 0 -134 -23.5t-107 -80.5l104 733h588l-37 -264h-162l12 98h-253l-41 -301q12 2 25 3t28 1q92 0 169 -33.5t129 -94t76.5 -140.5t12.5 -172 t-60.5 -173t-118 -141.5t-155.5 -95t-178 -34.5q-90 0 -164 33t-125 92z" />
<glyph unicode="6" horiz-adv-x="1064" d="M63 403q20 147 101.5 275.5t195 239t247.5 206.5l261 181l44 -66l44 -65q-145 -88 -248.5 -165t-177.5 -143q10 0 21.5 1t21.5 1q92 0 169 -33.5t129.5 -94t77 -140.5t12.5 -172t-60.5 -173t-118 -141.5t-155.5 -95t-178 -34.5q-88 0 -163 32.5t-127.5 89t-78 133 t-17.5 164.5zM244 428q-8 -57 5 -107.5t45 -88t78 -60t101 -22.5q57 0 110.5 22.5t96.5 60t72.5 88t38.5 107.5q8 57 -7.5 107.5t-48.5 87t-80 58t-104 21.5q-55 0 -107.5 -21.5t-94.5 -58t-69.5 -87t-35.5 -107.5z" />
<glyph unicode="7" horiz-adv-x="960" d="M-10 0l688 1163h-418l-14 -96h-162l37 264h846l-785 -1331h-192z" />
<glyph unicode="8" horiz-adv-x="1044" d="M39 428q16 119 87 216t175 157q-35 41 -51.5 97t-5.5 122q8 68 41.5 127t84 104t113 71t129.5 26q68 0 124.5 -26t94 -71t55 -104.5t9.5 -126.5q-10 -66 -42 -122t-79 -97q86 -59 130 -156.5t28 -216.5q-12 -92 -59.5 -173t-117 -141.5t-155.5 -95t-178 -34.5t-168 34.5 t-128 95t-75.5 141.5t-11.5 173zM215 428q-8 -57 6.5 -107.5t45 -88t76.5 -60t101 -22.5q57 0 110.5 22.5t97.5 60t73 88t37 107.5q8 55 -6.5 104.5t-45 86t-76.5 59t-102 24.5q-59 0 -113 -21.5t-96 -58t-71 -87t-37 -107.5zM418 1020q-10 -66 28.5 -109t102.5 -43 q66 0 116 43t60 109t-28 114t-103 48q-31 0 -60.5 -13.5t-54 -36t-41 -51t-20.5 -61.5z" />
<glyph unicode="9" horiz-adv-x="1075" d="M82 858q12 92 60 173t118 141.5t156 95.5t178 35t168 -36t127 -96.5t74.5 -141.5t11.5 -171q-18 -139 -100 -264t-198 -234.5t-249 -203.5l-254 -174l-44 65l-44 66q145 88 248.5 164.5t177.5 142.5q-10 -2 -22 -2h-21q-92 0 -169 33.5t-129 94t-76.5 140.5t-12.5 172z M252 858q-8 -57 7 -107.5t48 -87t80 -58t105 -21.5q55 0 107 21.5t94 58t70 87t36 107.5t-5.5 107.5t-45 88.5t-77.5 60.5t-102 22.5q-57 0 -110 -22.5t-96.5 -60.5t-73 -88.5t-37.5 -107.5z" />
<glyph unicode=":" horiz-adv-x="358" d="M31 106q6 47 43 78t78 31q39 0 67.5 -30.5t22.5 -78.5q-6 -47 -43 -76.5t-76 -29.5q-41 0 -69.5 29.5t-22.5 76.5zM102 618q6 47 43 78t78 31q39 0 67.5 -30.5t22.5 -78.5q-6 -47 -43 -76.5t-75 -29.5q-41 0 -70 29.5t-23 76.5z" />
<glyph unicode=";" horiz-adv-x="411" d="M-92 -246l107 211l108 211h172l-118 -211l-118 -211h-151zM182 618q8 47 45 78t78 31q39 0 67.5 -30.5t20.5 -78.5q-6 -47 -43 -76.5t-76 -29.5q-41 0 -69.5 29.5t-22.5 76.5z" />
<glyph unicode="&#x3c;" horiz-adv-x="1392" d="M238 487l482 258l484 259l-33 -232l-266 -142l-266 -143l225 -142l228 -142l-33 -232l-411 258z" />
<glyph unicode="=" horiz-adv-x="1449" d="M164 229l24 166h1037l-25 -166h-1036zM219 627l25 166h1036l-25 -166h-1036z" />
<glyph unicode="&#x3e;" horiz-adv-x="1331" d="M164 -29l33 232l266 142l268 142l-227 143l-228 142l33 232l411 -259l413 -258l-485 -258z" />
<glyph unicode="?" horiz-adv-x="925" d="M143 1186q20 45 55 99t89.5 101.5t130.5 80t180 32.5q84 0 153.5 -31.5t115.5 -86t67.5 -127t9.5 -154.5q-16 -115 -81.5 -200t-170.5 -155l-66.5 -41.5t-68.5 -49t-56.5 -65.5t-31.5 -93l-23 -160h-172l29 199q8 66 36 106.5t65.5 72t86 59.5t99.5 65q82 55 126 120.5 t54 141.5q14 100 -39 166.5t-156 66.5q-115 0 -179 -51t-109 -152l-72 28zM219 106q8 47 45 78t78 31q39 0 67.5 -30.5t20.5 -78.5q-6 -47 -43 -76.5t-76 -29.5q-41 0 -69.5 29.5t-22.5 76.5z" />
<glyph unicode="@" horiz-adv-x="2027" d="M133 387q25 178 115 336t224 274.5t302 184t348 67.5q178 0 325.5 -67.5t248 -184t145.5 -274.5t21 -338q-23 -109 -75 -181.5t-115.5 -118.5t-132.5 -65.5t-124 -19.5h-217l6 41q2 10 3 20.5t3 20.5q-4 -6 -24.5 -22.5t-56 -33t-85 -30.5t-108.5 -14q-86 0 -157.5 31.5 t-119 87t-70 128t-9.5 154.5q12 80 54 152.5t105.5 128t143.5 87t166 31.5q53 0 97 -14t75.5 -33.5t50 -38t20.5 -24.5q4 23 11.5 47t11.5 49h141l-86 -602h68q41 0 82 11t74.5 37t58 68t37.5 103q20 145 -16 272t-116.5 222.5t-198.5 149.5t-261 54q-145 0 -279.5 -54 t-242 -149.5t-180 -222.5t-93.5 -272q-20 -145 16.5 -271t118.5 -220.5t201 -148.5t264 -54q121 0 233.5 35.5t213.5 99.5l43 -60l43 -61q-57 -45 -126 -79t-142.5 -56.5t-147.5 -33.5t-141 -11q-180 0 -329 67.5t-250 184.5t-146.5 274.5t-20.5 335.5zM752 385 q-14 -100 43 -169t163 -69q53 0 99.5 18.5t83.5 50.5t60.5 76t29.5 93q16 102 -41 169t-164 67q-53 0 -99 -17.5t-83 -49.5t-60.5 -75t-31.5 -94z" />
<glyph unicode="A" horiz-adv-x="1613" d="M72 0l22 162h168l377 668l377 669l190 -669l191 -668h168l-23 -162h-455l23 162h115l-58 203l-57 202h-451l-227 -405h117l-23 -162h-454zM754 729h311l-92 326l-10 67l-8 -14q-5 -10 -9 -23q-8 -14 -14 -30l-66 -117q-29 -49 -58 -107z" />
<glyph unicode="B" horiz-adv-x="1110" d="M72 0l22 162h92l156 1110h-92l22 162h467q100 0 180 -20.5t133.5 -63.5t75.5 -112q14 -42 14 -93q0 -33 -5 -70q-16 -127 -90 -223t-203 -131q57 -12 106 -41t83 -74t50 -104q10 -37 10 -79q0 -26 -3 -54q-12 -92 -61.5 -161t-120 -115t-157.5 -69.5t-176 -23.5h-503z M356 162h228q63 0 120.5 14t103.5 44t76.5 73t39.5 102q2 18 2 34q0 43 -16 77q-22 47 -64.5 76.5t-102 44t-122.5 14.5h-199zM446 803h222q121 0 199.5 67.5t95.5 178.5q3 24 3 45q0 86 -53 127q-66 51 -184 51h-217z" />
<glyph unicode="C" horiz-adv-x="1249" d="M174 715q20 152 97 286t189.5 233t254 157.5t293.5 58.5q104 0 194 -26.5t166 -75.5l-33 -230h-161l18 125q-96 45 -207 45q-117 0 -225.5 -45t-195.5 -124t-145.5 -183.5t-74.5 -220.5q-6 -42 -6 -82q0 -72 19 -139q30 -104 95.5 -181t161 -122.5t211.5 -45.5 q150 0 291 76l74 -135q-90 -47 -186.5 -74.5t-200.5 -27.5q-152 0 -277 57t-211 156.5t-125 232.5q-25 84 -24 176q0 53 8 109z" />
<glyph unicode="D" horiz-adv-x="1294" d="M72 0l22 164h96l156 1108h-96l22 162h430q147 0 271.5 -50.5t209.5 -144.5t124 -226q25 -84 24 -181q0 -56 -8 -117q-18 -121 -77.5 -248t-168 -230.5t-268.5 -170t-377 -66.5h-360zM360 164h144q121 0 230.5 39t196.5 111.5t145.5 174t76.5 228.5q7 49 7 93 q0 73 -18 136q-30 102 -97.5 175t-166 112t-219.5 39h-143z" />
<glyph unicode="E" horiz-adv-x="1169" d="M72 0l22 162h115l156 1110h-115l22 162h998l-45 -316h-162l22 154h-550l-66 -469h633l-25 -162h-633l-65 -479h579l21 153h162l-43 -315h-1026z" />
<glyph unicode="F" horiz-adv-x="1140" d="M72 0l22 162h115l156 1110h-115l22 162h998l-45 -316h-162l22 154h-550l-66 -469h633l-25 -162h-633l-65 -479h211l-23 -162h-495z" />
<glyph unicode="G" horiz-adv-x="1247" d="M68 711q20 152 97 285.5t190.5 233t255 158t292.5 58.5q104 0 193.5 -26.5t167.5 -76.5l-115 -137q-57 37 -124 57.5t-144 20.5q-117 0 -225.5 -45t-195.5 -124t-146.5 -183.5t-75.5 -220.5q-6 -42 -6 -82q0 -72 19 -140q30 -104 95.5 -181t160.5 -122t212 -45 q106 0 209 37l37 271h-211l22 161h381l-74 -528q-88 -47 -184 -74.5t-201 -27.5q-152 0 -276.5 57t-210.5 156.5t-125 232.5q-25 87 -25 182q0 51 7 103z" />
<glyph unicode="H" horiz-adv-x="1581" d="M72 0l22 162h162l156 1110h-162l22 162h496l-23 -162h-163l-66 -469h774l66 469h-164l22 162h496l-22 -162h-162l-156 -1110h162l-23 -162h-495l22 162h164l66 479h-774l-66 -479h164l-23 -162h-495z" />
<glyph unicode="I" horiz-adv-x="638" d="M72 0l22 162h162l156 1110h-162l22 162h496l-23 -162h-163l-156 -1110h164l-23 -162h-495z" />
<glyph unicode="J" horiz-adv-x="636" d="M-49 -295l20 162q70 4 132.5 26.5t111.5 63.5t81 99.5t42 133.5l154 1082h-324l22 162h494l-176 -1250q-16 -115 -66.5 -202.5t-124 -148t-168 -93.5t-198.5 -35z" />
<glyph unicode="K" horiz-adv-x="1404" d="M72 0l22 162h158l156 1110h-158l22 162h455l-22 -162h-127l-58 -400q-4 -16 -7 -32.5t-7 -32.5l45 47l498 418h-76l22 162h455l-23 -162h-170l-499 -420l224 -345l226 -345h148l-23 -162h-454l22 162h107l-191 290l-186 291l-146 -120l-31 -231l-32 -230h168l-23 -162 h-495z" />
<glyph unicode="L" horiz-adv-x="1169" d="M72 0l22 162h115l156 1110h-115l22 162h455l-22 -162h-170l-156 -1110h579l21 153h162l-43 -315h-1026z" />
<glyph unicode="M" horiz-adv-x="1998" d="M72 0l22 162h178l156 1110h-178l22 162h230l284 -454l287 -454l412 454l413 454h230l-23 -162h-178l-155 -1110h178l-23 -162h-495l22 162h148l112 801q4 16 7 32.5t8 32.5l-38 -47q-19 -25 -40 -47q-147 -174 -305 -341l-312 -337l-448 717l-29 55q0 -16 -1 -32.5 t-1 -32.5l-113 -801h148l-23 -162h-495z" />
<glyph unicode="N" horiz-adv-x="1751" d="M80 0l22 162h179l155 1110h-178l23 162h237l840 -1072l31 -53l4 66l125 897h-148l23 162h495l-22 -162h-178l-187 -1338l-893 1115l-30 53l-5 -66l-122 -874h147l-23 -162h-495z" />
<glyph unicode="O" horiz-adv-x="1609" d="M174 715q20 150 96 284t189.5 234t255 158.5t293.5 58.5q150 0 275.5 -58.5t211.5 -158.5t126 -235q26 -89 26 -184q0 -49 -7 -99q-23 -152 -99.5 -285t-190 -232.5t-256 -156.5t-291.5 -57q-152 0 -277 57t-211 156.5t-125 232.5q-25 84 -24 176q0 53 8 109zM344 715 q-6 -42 -6 -83q0 -73 19 -139q30 -103 95.5 -180t162 -122.5t212.5 -45.5q117 0 225.5 45.5t195.5 122t146.5 180t75.5 222.5q6 42 6 82q0 73 -19 140q-30 103 -96.5 181t-161.5 123t-212 45t-225.5 -45t-196.5 -123t-146.5 -181t-74.5 -222z" />
<glyph unicode="P" horiz-adv-x="1058" d="M72 0l22 162h92l156 1110h-92l22 162h430q70 0 152 -21.5t148.5 -69t105.5 -120.5q28 -54 28 -125q0 -26 -3 -54q-27 -186 -153 -295.5t-335 -109.5h-223l-66 -477h234l-23 -162h-495zM446 803h179q90 0 151.5 23.5t101.5 58.5t59 78t26 81q2 12 1 24q0 33 -13 62 q-17 41 -53 73t-89 50.5t-117 18.5h-180z" />
<glyph unicode="Q" horiz-adv-x="1654" d="M174 715q20 152 97 286t189.5 233t254 157.5t293.5 58.5t277.5 -58.5t211.5 -157.5t125 -234q25 -88 26 -183q0 -50 -8 -102q-25 -166 -113.5 -309.5t-219.5 -243.5h301l-23 -162h-629q-82 -16 -153 -16q-152 0 -277 57t-211 156.5t-125 232.5q-25 84 -24 176q0 53 8 109 zM344 715q-6 -42 -6 -82q0 -72 19 -139q30 -104 95.5 -181t161 -122.5t211.5 -45.5q117 0 225.5 45.5t196.5 122t147.5 181t75.5 221.5q6 41 6 79q0 73 -20 142q-31 104 -96.5 183t-161.5 124t-213 45t-225.5 -45t-195.5 -124t-145.5 -183t-74.5 -221z" />
<glyph unicode="R" horiz-adv-x="1179" d="M72 0l22 162h92l156 1110h-92l22 162h430q70 0 152 -21.5t148.5 -69t105.5 -120.5q28 -54 28 -125q0 -26 -3 -54q-23 -154 -114 -257t-243 -136l162 -489h192l-22 -162h-299l-213 639h-88h-86l-66 -477h234l-23 -162h-495zM446 803h179q90 0 151.5 23.5t101.5 58.5t59 78 t26 81q2 12 1 24q0 33 -13 62q-17 41 -53 73t-89 50.5t-117 18.5h-180z" />
<glyph unicode="S" horiz-adv-x="978" d="M72 190l32 238h162l-26 -182q49 -41 118.5 -71t161.5 -30q53 0 104.5 15.5t93.5 45.5t70.5 75t36.5 104q4 29 5 54q0 44 -14 77q-22 51 -63.5 84t-99.5 53l-116 40q-59 19 -117 43t-98.5 64t-62.5 101q-14 39 -14 92q0 30 5 66q8 68 37.5 135.5t85 122.5t138.5 90t196 35 q37 0 78.5 -4t87 -16.5t92.5 -37t90 -65.5l-29 -201h-162l19 121q-37 16 -87.5 28.5t-111.5 12.5q-119 0 -185.5 -67.5t-78.5 -159.5q-2 -16 -2 -30q0 -41 17 -70q24 -38 67 -63.5t100 -44l117.5 -40t116 -51t96.5 -77.5t59 -119q10 -40 11 -90q0 -39 -7 -85 q-12 -92 -57 -166t-109.5 -126t-146.5 -79.5t-168 -27.5q-78 0 -148.5 17t-129 46t-101.5 65.5t-63 77.5z" />
<glyph unicode="T" horiz-adv-x="1275" d="M227 1118l45 316h1133l-45 -316h-162l23 154h-318l-155 -1110h149l-23 -162h-495l22 162h177l155 1110h-321l-23 -154h-162z" />
<glyph unicode="U" horiz-adv-x="1492" d="M252 1272l22 162h496l-22 -162h-168l-113 -803q-5 -33 -5 -63q0 -112 67 -178q85 -83 239 -83q76 0 142.5 21.5t118.5 62.5t86 101.5t46 138.5l113 803h-168l22 162h496l-22 -162h-158l-115 -809q-16 -117 -68.5 -207t-130 -150.5t-176 -91t-209.5 -30.5t-200.5 30.5 t-151 91t-88.5 150.5q-16 56 -16 122q0 41 6 85l115 809h-158z" />
<glyph unicode="V" horiz-adv-x="1658" d="M258 1272l23 162h495l-22 -162h-148l127 -447l127 -446l8 -68l29 68l252 445l250 448h-121l22 162h496l-22 -162h-203l-377 -669l-377 -669l-190 669l-191 669h-178z" />
<glyph unicode="W" horiz-adv-x="2412" d="M258 1272l23 162h495l-22 -162h-148l127 -447l127 -446l8 -68q37 92 86 184l103 182l107 181l104 178l-34 118l-34 118h-188l22 162h496l-23 -162h-137l127 -447l127 -446l8 -68l29 68l252 445l250 448h-131l22 162h496l-23 -162h-192l-377 -669l-377 -669l-244 854 l-10 72q-45 -115 -106.5 -232.5t-130.5 -234.5l-141 -232q-71 -116 -132 -227l-190 669l-191 669h-178z" />
<glyph unicode="X" horiz-adv-x="1421" d="M72 0l22 162h154l452 569l-276 541h-174l22 162h496l-23 -162h-112l90 -177l90 -175l18 -56l35 56l279 352h-113l23 162h495l-22 -162h-176l-218 -278l-219 -275l144 -279l143 -278h170l-22 -162h-496l23 162h112l-186 366q-6 14 -11.5 28.5t-9.5 29.5l-34 -58l-146 -183 l-143 -183h131l-23 -162h-495z" />
<glyph unicode="Y" horiz-adv-x="1615" d="M250 1272l22 162h496l-23 -162h-81l113 -250l114 -250l14 -63h2l33 63l367 500h-80l22 162h496l-23 -162h-206l-264 -361l-263 -360l-53 -389h149l-22 -162h-496l23 162h137l53 391l-163 359l-160 360h-207z" />
<glyph unicode="Z" horiz-adv-x="1288" d="M72 0l22 164l1032 1108h-843l32 233h170l-10 -71h883l-23 -162l-1032 -1108h774l47 332h162l-69 -496h-1145z" />
<glyph unicode="[" horiz-adv-x="692" d="M41 -305l256 1833h393l-22 -166h-224l-211 -1501h224l-23 -166h-393z" />
<glyph unicode="\" horiz-adv-x="788" d="M109 1507h192l175 -773l175 -773h-192l-175 773z" />
<glyph unicode="]" horiz-adv-x="700" d="M-6 -305l20 166h224l211 1501h-224l23 166h393l-256 -1833h-391z" />
<glyph unicode="^" horiz-adv-x="962" d="M203 981l148 185l149 186l97 -186l97 -185h-121l-104 147l-73 -73l-72 -74h-121z" />
<glyph unicode="_" horiz-adv-x="1228" d="M193 0l22 166h819l-22 -166h-819z" />
<glyph unicode="`" horiz-adv-x="409" d="M-63 1253h167q29 -68 53.5 -136t53.5 -136h-121q-41 68 -76.5 136t-76.5 136z" />
<glyph unicode="a" d="M127 383q12 80 54 153.5t105.5 129t143.5 88t166 32.5q55 0 99 -16t77 -35.5t50.5 -38t17.5 -24.5q4 23 10 47t10 49h141l-83 -606h155l-22 -162h-306l7 41q2 10 2 20.5t2 20.5q-4 -6 -24.5 -22.5t-55.5 -34t-84 -30.5t-109 -13q-86 0 -157.5 31.5t-118.5 87t-70 127.5 q-15 47 -14 98q0 28 4 57zM299 385q-3 -20 -3 -39q0 -75 46 -130q57 -69 164 -69q53 0 99 18.5t83 50.5t60.5 76t29.5 93q3 20 3 40q0 76 -46 129q-57 67 -164 67q-53 0 -99 -17.5t-83 -49.5t-60.5 -75t-29.5 -94z" />
<glyph unicode="b" d="M74 0l22 162h156l170 1212h-135l22 162h305l-110 -795l-16 -31l-15 -32q4 6 28.5 24.5t61.5 37t85 32.5t102 14q86 0 156.5 -31.5t118.5 -87t70 -127.5q14 -46 13 -97q0 -29 -4 -58q-12 -82 -54 -155.5t-104.5 -129t-142.5 -87t-166 -31.5q-59 0 -105.5 13t-77 30.5 t-47 34t-18.5 22.5q-2 -10 -2 -20.5t-2 -20.5l-6 -41h-305zM453 385q-3 -20 -3 -39q0 -75 46 -130q57 -69 163 -69q53 0 99.5 18.5t83.5 50.5t60.5 76t29.5 93q3 20 3 40q0 76 -46 129q-57 67 -164 67q-53 0 -99 -17.5t-83 -49.5t-60.5 -75t-29.5 -94z" />
<glyph unicode="c" horiz-adv-x="813" d="M127 385q12 82 54 155.5t105.5 128t142.5 86t165 31.5q76 0 138.5 -23.5t109.5 -64.5l-35 -237h-152l21 137q-49 23 -107 23q-53 0 -99 -17.5t-83 -49.5t-60.5 -75t-29.5 -94q-3 -20 -3 -39q0 -75 46 -130q57 -69 164 -69q90 0 160 52l86 -129q-59 -41 -127 -64.5 t-142 -23.5q-86 0 -155.5 31.5t-117.5 87t-71 127.5q-15 47 -14 99q0 28 4 58z" />
<glyph unicode="d" d="M127 385q12 82 54 154.5t105.5 128t143.5 87t166 31.5q51 0 95 -14t77 -32.5t51.5 -37t20.5 -24.5q-2 16 -5.5 31.5t-5.5 31.5l89 633h-136l23 162h305l-192 -1374h155l-22 -162h-306l7 41q2 10 2 20.5t2 20.5q-4 -6 -24.5 -22.5t-55.5 -34t-84 -30.5t-109 -13 q-86 0 -157.5 31.5t-118.5 87t-70 128.5q-15 48 -14 99q0 28 4 57zM299 385q-3 -20 -3 -39q0 -75 46 -130q57 -69 164 -69q53 0 99 18.5t83 50.5t60.5 76t29.5 93q3 20 3 40q0 76 -46 129q-57 67 -164 67q-53 0 -99 -17.5t-83 -49.5t-60.5 -75t-29.5 -94z" />
<glyph unicode="e" horiz-adv-x="921" d="M127 385q12 82 54 155.5t105.5 128t142.5 86t165 31.5q63 0 117.5 -25.5t94.5 -70.5t65.5 -107.5t33.5 -136.5l-291 -102l-292 -102q25 -43 71.5 -69t110.5 -26q47 0 89 17.5t75 48.5l44 -61l44 -62q-59 -51 -128 -79.5t-147 -28.5q-86 0 -155.5 31.5t-117.5 87 t-71 127.5q-15 47 -14 99q0 28 4 58zM299 401l203 71l200 71q-23 35 -56.5 56.5t-76.5 21.5q-104 0 -178 -63t-92 -157z" />
<glyph unicode="f" horiz-adv-x="688" d="M72 0l22 162h125l62 440h-125l22 166h123l41 291q16 115 66.5 203t125 148t169 92t200.5 36l-22 -162q-143 -8 -244.5 -90t-124.5 -233l-41 -285h242l-23 -166h-241l-62 -440h162l-23 -162h-454z" />
<glyph unicode="g" d="M176 -389l131 139q37 -31 88 -58.5t111 -27.5q53 0 100 18.5t83 50t60.5 76t30.5 95.5l19 137q6 8 11 17l11 20q-8 -10 -30.5 -25.5t-57.5 -31t-80 -26.5t-100 -11q-86 0 -157.5 31.5t-119 86t-69.5 126.5q-15 47 -15 98q0 28 5 57q12 80 54 153.5t105.5 129t143.5 88 t166 32.5q55 0 99 -16t76.5 -35.5t50 -38t17.5 -24.5q4 23 10.5 47t10.5 49h297l-23 -162h-155l-103 -729q-12 -82 -53 -152.5t-103.5 -123t-140.5 -83t-164 -30.5q-92 0 -173 40t-136 83zM369 385q-3 -20 -3 -39q0 -75 46 -130q57 -69 163 -69q53 0 99.5 18.5t83.5 50.5 t60.5 76t29.5 93q3 20 3 40q0 76 -46 129q-57 67 -164 67q-53 0 -99 -17.5t-83 -49.5t-60.5 -75t-29.5 -94z" />
<glyph unicode="h" horiz-adv-x="1187" d="M72 0l22 162h156l170 1212h-156l23 162h325l-123 -872l-18 -93q59 100 152.5 154.5t210.5 60.5q121 0 182 -63q53 -54 52 -137q0 -14 -1 -29l-55 -395h127l-23 -162h-454l22 162h158l43 317v13q0 47 -26 82q-30 40 -107 44q-53 0 -104.5 -18t-92.5 -51t-69.5 -78 t-36.5 -98l-29 -211h129l-23 -162h-454z" />
<glyph unicode="i" horiz-adv-x="598" d="M72 0l22 162h144l61 444h-143l22 162h314l-84 -606h141l-23 -162h-454zM346 1065q6 47 43 78t78 31q39 0 68 -31q24 -25 23 -62q0 -8 -1 -16q-8 -47 -45 -77t-76 -30q-41 0 -69 30q-22 23 -23 57q0 10 2 20z" />
<glyph unicode="j" horiz-adv-x="434" d="M-10 -244q57 41 95 102.5t48 147.5l86 600h-121l23 162h291l-109 -768q-16 -125 -72.5 -218t-140.5 -153zM268 1065q6 47 43 78t78 31q39 0 68 -31q24 -25 23 -62q0 -8 -1 -16q-6 -47 -43 -77t-76 -30q-41 0 -69 30q-24 24 -24 61q0 8 1 16z" />
<glyph unicode="k" horiz-adv-x="1079" d="M72 0l22 162h156l170 1212h-135l22 162h305l-155 -1104l211 174h-76l22 162h412l-22 -162h-127l-101 -84l-98 -84l80 -138l82 -138h190l-22 -162h-412l22 162h23q-53 82 -98 166l-113 -95l-10 -71h129l-23 -162h-454z" />
<glyph unicode="l" horiz-adv-x="598" d="M72 0l22 162h156l170 1212h-135l22 162h305l-192 -1374h129l-23 -162h-454z" />
<glyph unicode="m" horiz-adv-x="1781" d="M72 0l22 162h156l61 444h-135l23 162h284l-2 -18q-4 -49 -5 -89t-5 -90q57 98 151.5 154.5t211.5 60.5q113 0 174 -56t59 -148q59 94 152.5 147t205.5 57q121 0 183 -63q53 -54 52 -137q0 -14 -1 -29l-55 -395h129l-23 -162h-455l23 162h156l43 317v13q0 47 -26 82 q-30 40 -108 44q-53 0 -104 -18t-92 -51t-69.5 -78t-37.5 -98l-28 -211h129l-23 -162h-454l22 162h156l43 317v13q0 47 -26 82q-30 40 -107 44q-53 0 -104.5 -18t-92.5 -51t-69.5 -78t-36.5 -98l-29 -211h129l-23 -162h-454z" />
<glyph unicode="n" horiz-adv-x="1187" d="M72 0l22 162h156l61 444h-135l23 162h284l-2 -18q-4 -49 -5 -89t-5 -90q55 98 153.5 156.5t209.5 58.5q121 0 182 -63q53 -54 52 -137q0 -14 -1 -29l-55 -395h127l-23 -162h-454l22 162h158l43 317v13q0 47 -26 82q-30 40 -107 44q-53 0 -104.5 -18t-92.5 -51t-69.5 -78 t-36.5 -98l-29 -211h129l-23 -162h-454z" />
<glyph unicode="o" horiz-adv-x="964" d="M127 385q12 82 54 155.5t105.5 128t142.5 86t165 31.5t156.5 -31.5t119 -86t69.5 -127.5q14 -47 14 -97q0 -29 -5 -59q-12 -84 -54 -156.5t-104.5 -128t-142.5 -87t-166 -31.5t-155.5 31.5t-117.5 87t-71 127.5q-15 47 -14 99q0 28 4 58zM297 383q-2 -16 -2 -32 q0 -31 8 -60q12 -43 40 -75t68 -50.5t89 -18.5t95 18.5t83 50.5t61.5 75t30.5 92q2 16 2 32q0 31 -8 60q-12 43 -40 76t-69 51.5t-90 18.5t-94 -18.5t-82 -51.5t-61.5 -76t-30.5 -92z" />
<glyph unicode="p" horiz-adv-x="1122" d="M-2 -512l18 162h138l135 956h-156l27 162h293q-6 -47 -7 -96q2 6 27 25.5t62.5 39t86 34.5t101.5 15q86 0 156.5 -31.5t119 -87t69.5 -127.5q15 -49 15 -103q0 -25 -4 -52q-12 -82 -54 -155.5t-105.5 -129t-143.5 -87t-166 -31.5q-57 0 -101 12t-75 28.5t-48 32t-21 23.5 q4 -10 7 -19.5t7 -19.5l-55 -389h147l-20 -162h-453zM428 385q-3 -21 -3 -40q0 -27 6 -53q11 -44 39 -76t69 -50.5t94 -18.5t99 18.5t83 50.5t60.5 76t31.5 93q3 20 3 40q0 76 -46 129q-57 67 -164 67q-53 0 -99 -17.5t-83 -49.5t-60.5 -75t-29.5 -94z" />
<glyph unicode="q" horiz-adv-x="1128" d="M197 385q12 82 54 154.5t105.5 128t143.5 87t166 31.5q53 0 97 -15t75.5 -34.5t50 -39t20.5 -25.5q4 23 10.5 47t10.5 49h305l-23 -162h-163l-134 -956h129l-22 -162h-455l23 162h155l54 389q4 10 11 19.5t13 19.5q-6 -8 -29.5 -23.5t-58.5 -32t-82 -28.5t-102 -12 q-86 0 -156.5 31.5t-119 87t-69.5 128.5q-14 47 -14 98q1 28 5 58zM369 385q-3 -20 -3 -39q0 -75 46 -130q57 -69 163 -69q53 0 99.5 18.5t83.5 50.5t60.5 76t29.5 93q3 20 3 40q0 76 -46 129q-57 67 -164 67q-53 0 -99 -17.5t-83 -49.5t-60.5 -75t-29.5 -94z" />
<glyph unicode="r" horiz-adv-x="757" d="M72 0l22 162h156l61 444h-135l23 162h284l-2 -18q-4 -49 -5 -89t-5 -90q31 51 75 91t89 68t87 42t73 14l-35 -168q-61 0 -115.5 -18t-95.5 -51t-66.5 -78t-33.5 -98l-29 -211h129l-23 -162h-454z" />
<glyph unicode="s" horiz-adv-x="679" d="M106 68l25 178h152l-11 -80q23 -10 46.5 -13t58.5 -3q2 0 15.5 1t30.5 8t32.5 21.5t21.5 42.5q8 37 -12.5 56.5t-54 33t-75.5 26.5t-76 36.5t-52 66.5q-12 28 -12 68q0 22 4 47q8 63 38.5 106.5t71.5 71t86 39.5t80 12q20 0 49 -4t58.5 -14t57.5 -26.5t46 -41.5l-27 -178 h-151l14 88q-31 10 -61 11q-45 0 -68.5 -19.5t-23.5 -52.5q2 -25 25.5 -40t58 -29.5t72.5 -33t69 -46t47 -69.5q11 -28 11 -66q0 -19 -3 -40q-4 -29 -20.5 -69.5t-50 -79.5t-89 -65.5t-137.5 -26.5q-76 0 -143.5 19.5t-102.5 64.5z" />
<glyph unicode="t" horiz-adv-x="686" d="M156 602l22 166h172l70 500h170l-70 -500h201l-23 -166h-200l-62 -440h154l-23 -162h-323l84 602h-172z" />
<glyph unicode="u" horiz-adv-x="1167" d="M158 606l22 162h305l-65 -479q0 -7 -1 -13q0 -47 26 -82q30 -40 108 -44q53 0 104.5 18t92.5 51t69.5 78t36.5 98l29 211h-135l22 162h305l-86 -625h127l-20 -143h-297l14 104l19 93q-55 -98 -153.5 -156.5t-209.5 -58.5q-121 0 -182 63q-53 54 -53 137q0 14 2 29l55 395 h-135z" />
<glyph unicode="v" horiz-adv-x="1196" d="M162 606l22 162h455l-23 -162h-106q41 -90 78 -180t53 -180q41 90 101 180l126 180h-123l23 162h469l-23 -162h-170l-222 -327l-222 -326l-134 327l-132 326h-172z" />
<glyph unicode="w" horiz-adv-x="1699" d="M162 606l22 162h424l-22 -162h-72l64 -179q31 -89 49 -181q33 70 73 136l82 134l28 45l28 45h-105l23 162h454l-22 -162h-117l64 -179q31 -89 49 -181q43 92 97 181l114 179h-115l23 162h438l-23 -162h-155l-210 -327l-210 -326l-203 551l-354 -551l-122 327l-120 326 h-182z" />
<glyph unicode="x" horiz-adv-x="1077" d="M72 0l22 162h158l109 126l112 126l-57 96l-58 96h-202l22 162h455l-23 -162h-47l72 -121l102 121h-55l23 162h407l-22 -162h-150l-217 -252l57 -97l60 -95h188l-22 -162h-455l22 162h52l-35 55l-33 55q-23 -29 -48.5 -55.5t-47.5 -54.5h41l-23 -162h-407z" />
<glyph unicode="y" horiz-adv-x="1263" d="M188 -512l23 162h184l112 176l114 174l-111 303l-111 303h-172l23 162h455l-23 -162h-109l89 -226q43 -114 65 -228q53 115 128 228l151 226h-127l22 162h469l-22 -162h-168l-308 -478l-307 -478h101l-23 -162h-455z" />
<glyph unicode="z" horiz-adv-x="890" d="M72 0l22 166l135 112l126 107l126 109l135 112h-436l33 234h152l-11 -72h525l-23 -166q-74 -57 -137 -112l-125 -107l-125 -107l-135 -110h356l17 117h151l-39 -283h-747z" />
<glyph unicode="{" horiz-adv-x="655" d="M178 524l25 166q49 2 85 30t59.5 68.5t36.5 89t19 89.5l46 319q12 94 38.5 144.5t62.5 72t80 23.5t93 2h129l-23 -166h-90q-31 0 -53 -8t-37.5 -32t-27 -64.5t-19.5 -106.5l-37 -264q-8 -63 -27.5 -109.5t-44 -79t-51 -54t-49.5 -34.5q18 -12 39 -33.5t36 -55.5t21.5 -79 t-2.5 -106l-36 -264q-10 -66 -10.5 -108t9 -64.5t29 -30.5t49.5 -8h90l-24 -166h-129q-47 0 -90 2t-74 23.5t-43 70.5t0 146l43 311q6 41 6 89t-12 89t-40 68.5t-77 29.5z" />
<glyph unicode="|" horiz-adv-x="555" d="M186 -475l267 1909h172l-267 -1909h-172z" />
<glyph unicode="}" horiz-adv-x="655" d="M61 -305l25 166h90q31 0 52.5 8t37 30.5t25.5 64.5t20 108l37 264q8 61 28.5 107t45 79t51.5 54.5t47 33.5q-18 12 -37.5 34t-35 54.5t-22.5 78.5t1 110l37 264q8 66 10 106.5t-7 64.5t-28.5 32t-50.5 8h-90l22 166h130q47 0 91 -2t74.5 -23.5t43 -71t-0.5 -145.5 l-45 -319q-6 -41 -6 -89.5t12.5 -89t40 -68.5t76.5 -30l-24 -166q-49 -2 -84 -29.5t-59.5 -68.5t-38 -89t-19.5 -89l-43 -311q-12 -96 -39 -145.5t-63.5 -71t-80.5 -23.5t-94 -2h-129z" />
<glyph unicode="~" horiz-adv-x="1001" d="M252 950q8 41 30.5 75t52.5 57.5t63.5 35.5t64.5 12q47 0 83 -18t64 -49q27 -33 49.5 -43t51.5 -10q14 0 31.5 4t35 14t32.5 28.5t21 47.5l93 -6q-8 -41 -31 -75t-52.5 -56.5t-63.5 -34.5t-64 -12q-47 0 -84 18t-66 47q-27 33 -48 43t-50 10t-68 -17t-55 -77q-23 2 -45 3 t-45 3z" />
<glyph unicode="&#xa1;" horiz-adv-x="409" d="M121 -430l168 1196h170l-168 -1196h-170zM301 997q10 47 46 78t77 31q39 0 66.5 -31t19.5 -78q-6 -47 -42 -76.5t-75 -29.5q-41 0 -69.5 29.5t-22.5 76.5z" />
<glyph unicode="&#xa2;" horiz-adv-x="788" d="M145 385q10 68 41 129t77 112.5t105.5 88.5t125.5 55l18 127h172l-16 -115q59 -6 106 -28.5t86 -55.5l-2 -2q-4 -16 -5 -29.5t-3 -29.5l-25 -176h-151l18 137q-10 6 -22.5 9t-26.5 7l-65 -462q29 6 56.5 18t49.5 29l84 -129q-49 -35 -99.5 -54.5t-113.5 -29.5l-16 -125 h-172l18 139q-61 18 -109.5 55t-81 87.5t-46 112.5t-3.5 130zM315 385q-10 -70 15.5 -125t79.5 -86l59 418q-61 -29 -102.5 -83t-51.5 -124z" />
<glyph unicode="&#xa3;" horiz-adv-x="1175" d="M59 0l23 166h90q33 0 54.5 7t37 29.5t24.5 62.5t19 106l27 188h-133l22 166h133l43 299q20 141 148.5 207.5t343.5 66.5q68 0 120 -16t90 -45t63.5 -65.5t39.5 -77.5l-141 -76l-19 34q-10 19 -30.5 37.5t-55 31t-92.5 12.5q-139 0 -212.5 -29t-88.5 -125l-37 -254h240 l-23 -166h-239l-33 -225q-8 -59 -19.5 -99t-45.5 -69h563l26 196q43 0 87 1.5t87 1.5l-51 -365h-1061z" />
<glyph unicode="&#xa4;" horiz-adv-x="1024" d="M190 522l56 49q-16 37 -22.5 79t1.5 89q12 88 66 160l-21 25l-20 24l137 121l43 -49q41 18 82 30.5t86 12.5t84 -11.5t74 -31.5l55 49l104 -121l-51 -45q35 -76 23 -164q-16 -96 -72 -166l43 -49l-137 -121q-12 12 -23.5 25.5l-23.5 26.5q-78 -41 -168 -41q-86 0 -154 39 l-57 -52zM397 737q-10 -66 30 -111.5t105 -45.5q33 0 64 12t55.5 33.5t42 50.5t21.5 61q8 66 -32 113t-105 47q-66 0 -118.5 -47t-62.5 -113z" />
<glyph unicode="&#xa5;" horiz-adv-x="1615" d="M250 1272l22 162h496l-23 -162h-81l113 -250l114 -250l14 -63h2l33 63l367 500h-80l22 162h496l-23 -162h-206l-207 -285l-207 -282h147l-24 -166h-238l-22 -168h239l-22 -166h-240l-6 -43h149l-22 -162h-496l23 162h137l6 43h-235l22 166h236l22 168h-235l24 166h146 l-256 567h-207z" />
<glyph unicode="&#xa6;" horiz-adv-x="440" d="M141 -477l101 717h172l-101 -717h-172zM307 717l103 717h172l-103 -717h-172z" />
<glyph unicode="&#xa7;" horiz-adv-x="1024" d="M354 679q-2 54 14.5 107.5t49.5 100.5t80 82q66 47 151 55l-32 70l-31 71q-29 68 -34 116t7 84t40 60.5t65 44.5l82 46l83 45l66 -144q-23 -10 -43.5 -22.5t-42.5 -22.5q-27 -16 -42 -30.5t-20.5 -35t2 -48t25.5 -70.5h2l70 -153l69 -152q23 -47 24 -100.5t-15.5 -105.5 t-50 -99.5t-82.5 -79.5q-66 -47 -152 -60l66 -143q31 -68 35.5 -117t-7.5 -85t-39.5 -61.5t-64.5 -45.5l-81 -44l-81 -44l-34 71l-34 72l44 24l44 23q27 14 42.5 30.5t16.5 40t-10.5 57.5t-35.5 87l-69 143q-26 53 -38 81t-14 37t-2 14q-21 47 -23 101zM514 737 q-8 -55 24.5 -93t88.5 -38q53 0 97 38t52 93q8 53 -24.5 92t-87.5 39q-53 0 -97.5 -38t-52.5 -93z" />
<glyph unicode="&#xa8;" horiz-adv-x="757" d="M115 1065q6 47 43 78t78 31q39 0 67.5 -31t22.5 -78q-8 -47 -44 -77t-75 -30q-41 0 -70.5 30t-21.5 77zM455 1065q6 47 43 78t77 31q39 0 68 -31t23 -78q-8 -47 -44 -77t-75 -30q-41 0 -70.5 30t-21.5 77z" />
<glyph unicode="&#xa9;" horiz-adv-x="1624" d="M354 762q16 117 72.5 215t140.5 170t187.5 111.5t214.5 39.5t203 -39.5t155.5 -111.5t92 -170t12.5 -215q-16 -115 -72.5 -212t-139.5 -169t-186.5 -113t-214.5 -41t-203 41t-155.5 113t-93 169t-13.5 212zM436 762q-14 -98 9.5 -182t76.5 -145.5t132 -96.5t175 -35 t184.5 35t159 96.5t116.5 145.5t61 182q14 100 -9.5 184t-76 145.5t-131 96.5t-175.5 35q-96 0 -185 -35t-158.5 -96.5t-117 -145.5t-61.5 -184zM571 768q10 70 45 130t85.5 105.5t115 71t131.5 25.5q92 0 164 -45l-14 -105h-74l8 58q-47 20 -94 20q-53 0 -101.5 -20.5 t-88 -56.5t-66.5 -83t-33 -100q-8 -53 5.5 -100t43 -82t72.5 -55.5t96 -20.5q68 0 131 35l35 -62q-41 -23 -85 -35t-91 -12q-68 0 -125 26.5t-95 72t-56.5 105.5t-8.5 128z" />
<glyph unicode="&#xaa;" horiz-adv-x="1198" d="M210.614 903.239q8.65723 57.7002 38.9541 110.713q30.2979 53.0117 76.1055 93.041q45.8076 40.0303 103.518 63.4707t119.748 23.4404q39.6758 0 71.416 -11.54t55.5459 -25.6045q23.8047 -14.0645 36.4287 -27.4072q12.625 -13.3438 12.625 -17.6709 q2.88477 16.5889 7.21289 33.8984q4.32812 17.3105 7.21387 35.3418h101.714l-59.874 -437.079h111.813l-15.8701 -116.843h-220.741l5.0498 29.5713q1.44238 7.21289 1.44238 14.7861q0 7.57227 1.44336 14.7852q-2.88574 -4.32715 -17.6738 -16.2285 q-14.7881 -11.9004 -40.0361 -24.5225t-60.5957 -21.998t-78.6299 -9.37598q-62.0381 0 -113.616 22.7197q-51.5781 22.7188 -85.4834 62.749q-33.9043 40.0293 -50.4961 91.959q-10.8203 33.8994 -10.0986 70.6826q0 20.1953 2.88477 41.1113zM334.691 904.683 q-2.16406 -14.4258 -2.16406 -28.1289q0 -54.0947 33.1826 -93.7627q41.1182 -49.7666 118.306 -49.7666q38.2324 0 71.416 13.3428q33.1836 13.3438 59.874 36.4238t43.6436 54.8145q16.9521 31.7354 21.2803 67.0771q2.16406 14.4248 2.16406 28.8496 q0 54.8154 -33.1836 93.042q-41.1182 48.3232 -118.305 48.3232q-38.2334 0 -71.417 -12.6221q-33.1826 -12.6211 -59.874 -35.7012q-26.6904 -23.0801 -43.6426 -54.0947q-16.9521 -31.0137 -21.2803 -67.7969z" />
<glyph unicode="&#xab;" horiz-adv-x="1230" d="M285 489l198 165l199 165l-27 -194l-77 -68l-76 -68l57 -68l57 -69l-26 -194zM635 489l199 165l198 165l-26 -192l-77 -69l-77 -69l57 -68l58 -69l-27 -194z" />
<glyph unicode="&#xac;" horiz-adv-x="1144" d="M215 385l18 123h738l-29 -205h-172l10 82h-565z" />
<glyph unicode="&#xad;" horiz-adv-x="614" d="M96 301l23 166h377l-23 -166h-377z" />
<glyph unicode="&#xae;" horiz-adv-x="1640" d="M354 762q16 117 72.5 215t140.5 170t187.5 111.5t214.5 39.5t203 -39.5t155.5 -111.5t92 -170t12.5 -215q-16 -115 -72.5 -212t-139.5 -169t-186.5 -113t-214.5 -41t-203 41t-155.5 113t-93 169t-13.5 212zM436 762q-14 -98 9.5 -182t76.5 -145.5t132 -96.5t175 -35 t184.5 35t159 96.5t116.5 145.5t61 182q14 100 -9.5 184t-76 145.5t-131 96.5t-175.5 35q-96 0 -185 -35t-158.5 -96.5t-117 -145.5t-61.5 -184zM635 430l10 76h43l74 526h-43l10 76h205q33 0 71.5 -10.5t69.5 -33t49.5 -57t12.5 -83.5q-10 -72 -53.5 -121t-114.5 -66 l75 -231h93l-13 -76h-141l-100 303h-41h-41l-33 -227h113l-13 -76h-233zM811 809h86q43 0 71.5 11t47 27.5t28 37t13.5 39.5q6 43 -31 75.5t-98 32.5h-84z" />
<glyph unicode="&#xaf;" horiz-adv-x="817" d="M174 979l14 108h471l-14 -108h-471z" />
<glyph unicode="&#xb0;" horiz-adv-x="577" d="M102 1147q6 43 27 80t53.5 64.5t73.5 44t84 16.5q86 0 136 -59.5t40 -145.5q-6 -43 -27.5 -81t-53.5 -65.5t-70.5 -43t-81.5 -15.5q-88 0 -140.5 59.5t-40.5 145.5zM211 1145q-4 -41 20.5 -69.5t65.5 -28.5t75 28.5t38 69.5q6 41 -19.5 70.5t-66.5 29.5t-74 -29.5 t-39 -70.5z" />
<glyph unicode="&#xb1;" horiz-adv-x="1073" d="M176 205l23 166h737l-23 -166h-737zM248 717l22 166h283l41 286h172l-41 -286h283l-23 -166h-283l-40 -285h-173l41 285h-282z" />
<glyph unicode="&#xb2;" horiz-adv-x="815" d="M165.92 768l138.138 121.992q67.0947 59.2676 120.13 114.337t87.8154 107.176q34.7812 52.1064 42.1816 99.5205q4.93359 37.5361 -3.7002 63.7129q-8.63379 26.1758 -24.667 43.4629q-16.0342 17.2861 -36.7549 25.4355q-20.7207 8.14844 -38.9746 8.14844 q-38.4805 0 -64.875 -13.335q-26.3936 -13.335 -42.9209 -32.3496q-16.5273 -19.0156 -25.1611 -40.2529t-10.6064 -37.5361q-8.88086 -64.7002 25.1602 -105.2l-58.708 -51.8594q-15.2939 11.3604 -26.1475 30.1279q-10.8535 18.7686 -17.5137 40.5t-8.63379 44.4502 q-1.97363 22.7197 0.986328 41.9814q5.9209 40.499 24.668 77.7891q18.7471 37.2891 50.0742 65.6875q31.3281 28.3994 72.7695 45.1924q41.4404 16.792 92.749 16.792q46.374 0 82.3887 -17.2861q36.0146 -17.2871 59.2021 -46.1797q23.1865 -28.8926 33.3008 -66.6758 q10.1133 -37.7832 4.19336 -80.2578q-6.90723 -50.3779 -31.3281 -97.5449q-24.4199 -47.167 -59.6943 -93.8408q-35.2744 -46.6729 -79.1826 -91.6172l-90.7754 -90.3838h165.765l13.3203 93.8408h79.9219l-25.1611 -175.827h-447.959z" />
<glyph unicode="&#xb3;" horiz-adv-x="858" d="M120.203 841.523l69.5703 57.6152q15.2959 -22.1602 39.4727 -34.7168q24.1777 -12.5566 54.7686 -12.5566q28.124 0 54.5215 11.0791q26.3975 11.0801 47.6143 29.5459q21.2168 18.4668 35.7725 43.334q14.5557 24.8682 18.5029 52.9365t-3.4541 52.9365 q-7.40137 24.8672 -23.6836 42.8418q-16.2822 17.9736 -39.4727 28.5605q-23.1904 10.5879 -51.3145 10.5879q-36.5127 0 -69.0771 -16.7432l175.16 243.754h-112.498l-5.91992 -47.2734h-79.9326l18.2559 130.002h332.558l-179.107 -239.814 q31.085 -12.3105 56.002 -32.0078t41.6934 -45.7959q16.7754 -26.0996 23.1895 -58.3535t1.48047 -68.6943q-5.9209 -45.3037 -29.6045 -85.1904t-58.2217 -69.6797q-34.5391 -29.792 -76.9727 -46.7803q-42.4326 -16.9893 -87.8262 -16.9893q-48.3535 0 -86.8398 19.4512 t-64.6367 51.9512z" />
<glyph unicode="&#xb4;" horiz-adv-x="561" d="M205 981l110 136l111 136h172l-272 -272h-121z" />
<glyph unicode="&#xb5;" horiz-adv-x="1128" d="M168 -412l141 1018h-135l23 162h305l-66 -479q-4 -55 26 -95t107 -44q53 0 104.5 18t92.5 51t69.5 78t36.5 98l29 211h-135l22 162h306l-86 -625h127l-21 -143h-297l14 104l19 93q-55 -98 -154.5 -156.5t-210.5 -58.5q-49 0 -92 12l-55 -406h-170z" />
<glyph unicode="&#xb6;" d="M246 1200q10 70 45 131.5t86 106.5t115.5 71.5t134.5 26.5h645l-21 -143h-141l-176 -1250h141l-18 -143h-312l195 1393h-164l-194 -1393h-170l120 866q-70 0 -127 26t-96 71t-56 106t-7 131z" />
<glyph unicode="&#xb7;" horiz-adv-x="344" d="M68 577q8 47 44.5 78t77.5 31q39 0 68 -30.5t20 -78.5q-6 -47 -42.5 -76.5t-75.5 -29.5q-41 0 -69.5 29.5t-22.5 76.5z" />
<glyph unicode="&#xb8;" horiz-adv-x="925" d="M238 -358l50 24l50 25q6 -33 29.5 -54.5t64.5 -21.5q49 0 81 33t38 82q6 41 -12.5 64.5t-42 42t-43 39t-15.5 54.5l11 70h104l-2 -14q-4 -29 2 -46.5t17.5 -28.5t24.5 -18.5t26 -17.5q39 -33 50 -74t5 -92q-6 -43 -25.5 -83t-50.5 -70.5t-74 -49t-96 -18.5q-70 0 -123 38 t-69 116z" />
<glyph unicode="&#xb9;" horiz-adv-x="559" d="M65.2773 821l10.1309 74.5234h73.6816l65.3926 461.402h-64.4717l10.5918 76.3633h143.219l-75.5234 -537.766h74.6025l-10.1309 -74.5234h-227.492z" />
<glyph unicode="&#xba;" horiz-adv-x="960" d="M224.599 904.683q8.65527 59.1426 38.9482 112.154q30.292 53.0117 76.0918 92.3203t102.778 62.0273q56.9795 22.7197 119.007 22.7197t112.876 -22.7197q50.8486 -22.7188 85.8291 -62.0273t50.127 -91.96q10.0977 -33.8984 10.0977 -69.9609 q0 -20.917 -3.60645 -42.5537q-8.65527 -60.5859 -38.9473 -112.876q-30.293 -52.291 -75.3711 -92.3203q-45.0781 -40.0303 -102.778 -62.749q-57.7002 -22.7197 -119.728 -22.7197q-62.0283 0 -112.155 22.7197q-50.127 22.7188 -84.7471 62.749 q-34.6201 40.0293 -51.209 91.959q-10.8184 33.8994 -10.0977 71.4043q0 20.1953 2.88477 41.833zM347.212 903.239q-1.44238 -11.54 -1.44238 -23.0801q0 -22.3584 5.76953 -43.2744q8.65527 -31.0137 28.8506 -54.0938t49.0449 -36.4238 q28.8506 -13.3428 64.1914 -13.3428q35.3418 0 68.5195 13.3428q33.1777 13.3438 59.8633 36.4238q26.6865 23.0801 44.3574 54.0938t21.998 66.3545q1.44238 11.54 1.44238 23.0801q0 22.3594 -5.76953 43.2754q-8.65527 31.0137 -28.8506 54.8154 q-20.1943 23.8008 -49.7666 37.1445q-29.5713 13.3428 -64.9121 13.3428q-35.3418 0 -67.7979 -13.3428q-32.4561 -13.3438 -59.1426 -37.1445q-26.6865 -23.8018 -44.3574 -54.8154t-21.998 -66.3555z" />
<glyph unicode="&#xbb;" horiz-adv-x="1230" d="M240 158l26 194l76 69l76 68l-57 69l-56 69l27 192l151 -165l152 -165zM590 158l26 194l76 69l76 68l-56 68l-57 68l27 194l152 -165l151 -165z" />
<glyph unicode="&#xbc;" horiz-adv-x="1982" d="M415 -39l393 773l394 773h172l-395 -773l-394 -773h-170zM995.519 279.259l659.024 724.583l-85.4434 -600.965h147.854l-17.0889 -123.618h-147.854l-22.2891 -158.619h126.307l-17.0889 -120.64h-368.519l17.0889 120.64h114.419l22.29 158.619h-428.7z M1267.45 402.877h173.857l31.9482 227.131zM167.055 479l15.6172 114.975h113.584l100.807 711.846h-99.3867l16.3281 117.812h220.778l-116.423 -829.658h115.004l-15.6182 -114.975h-350.69z" />
<glyph unicode="&#xbd;" horiz-adv-x="2189" d="M167.055 479l15.6172 114.975h113.584l100.807 711.846h-99.3867l16.3281 117.812h220.778l-116.423 -829.658h115.004l-15.6182 -114.975h-350.69zM1100.5 0l198.327 175.3q96.3311 85.166 172.475 164.3q76.1436 79.1328 126.079 154.009 q49.9365 74.875 60.5615 143.008q7.08301 53.9385 -5.3125 91.5537q-12.3955 37.6143 -35.416 62.4551q-23.0195 24.8398 -52.7695 36.5498q-29.749 11.71 -55.9561 11.71q-55.249 0 -93.1436 -19.1621t-61.623 -46.4863t-36.124 -57.8418t-15.2285 -53.9385 q-12.75 -92.9727 36.124 -151.17l-84.2891 -74.5205q-21.958 16.3242 -37.541 43.293q-15.583 26.9697 -25.1455 58.1973q-9.56152 31.2275 -12.3955 63.874q-2.83301 32.6475 1.41699 60.3262q8.5 58.1963 35.416 111.78t71.8936 94.3926t104.476 64.9395 q59.499 24.1299 133.163 24.1299q66.582 0 118.288 -24.8398q51.707 -24.8408 84.998 -66.3584q33.291 -41.5186 47.8115 -95.8125q14.5195 -54.293 6.02051 -115.328q-9.91699 -72.3916 -44.9785 -140.17q-35.0615 -67.7773 -85.7051 -134.846 q-50.6445 -67.0684 -113.685 -131.652l-130.33 -129.879h237.993l19.125 134.847h114.746l-36.123 -252.659h-643.148zM415 -39l393 773l394 773h172l-395 -773l-394 -773h-170z" />
<glyph unicode="&#xbe;" horiz-adv-x="2613" d="M224.788 519.789l109.003 90.5068q23.9658 -34.8105 61.8457 -54.5361q37.8809 -19.7256 85.8115 -19.7256q44.0645 0 85.4238 17.4053q41.3594 17.4043 74.6016 46.4131t56.0479 68.0732t28.9902 83.1582q6.18457 44.0928 -5.41211 83.1572 q-11.5957 39.0645 -37.1074 67.2998q-25.5107 28.2344 -61.8457 44.8662q-36.334 16.6318 -80.3994 16.6318q-57.207 0 -108.229 -26.3008l274.44 382.911h-176.261l-9.27637 -74.2617h-125.237l28.6035 204.22h521.05l-280.625 -376.723q48.7031 -19.3398 87.7432 -50.2822 q39.041 -30.9424 65.3252 -71.9404q26.2842 -40.999 36.334 -91.667t2.31934 -107.911q-9.27734 -71.168 -46.3848 -133.826t-91.2217 -109.459q-54.1152 -46.7998 -120.6 -73.4883q-66.4834 -26.6875 -137.606 -26.6875q-75.7607 0 -136.061 30.5557t-101.272 81.6104z M805 -39l393 773l394 773h172l-395 -773l-394 -773h-170zM1402.52 279.259l659.024 724.583l-85.4434 -600.965h147.854l-17.0889 -123.618h-147.854l-22.2891 -158.619h126.307l-17.0889 -120.64h-368.519l17.0889 120.64h114.419l22.29 158.619h-428.7zM1674.45 402.877 h173.857l31.9482 227.131z" />
<glyph unicode="&#xbf;" horiz-adv-x="925" d="M815.009 -81.9277q-19.999 -44.9971 -54.9971 -98.9941q-34.9971 -53.9961 -89.4941 -101.493t-130.492 -79.9951t-179.989 -32.498q-83.9941 0 -153.49 31.498t-115.493 85.9941q-45.9971 54.4971 -67.4961 126.992q-21.498 72.4961 -9.49902 154.491 q15.999 114.993 81.4951 199.987q65.4961 84.9951 170.489 154.991l66.4961 41.4971t68.4961 48.9971t56.4961 65.4961q23.499 37.9971 31.498 92.9941l22.999 159.99h171.989l-28.998 -198.988q-8 -65.9951 -35.998 -106.493q-27.998 -40.4971 -65.4961 -71.9951 q-37.4971 -31.498 -85.9941 -59.4971q-48.4971 -27.998 -99.4941 -64.9961q-81.9951 -54.9961 -125.992 -120.492t-53.9971 -141.491q-13.999 -99.9941 38.998 -166.49q52.9961 -66.4961 155.99 -66.4961q114.993 0 178.989 50.9971t108.993 151.991l71.9951 -27.999z M739.014 998.007q-8 -46.9971 -44.998 -77.9951q-36.9971 -30.999 -77.9951 -30.999q-38.9971 0 -67.4951 30.499q-28.499 30.498 -20.499 78.4951q5.99902 46.9971 42.9971 76.4951t75.9951 29.498q40.998 0 69.4961 -29.498t22.499 -76.4951z" />
<glyph unicode="&#xc0;" horiz-adv-x="1613" d="M72 0l22 162h168l377 668l377 669l190 -669l191 -668h168l-23 -162h-455l23 162h115l-58 203l-57 202h-451l-227 -405h117l-23 -162h-454zM754 729h311l-92 326l-10 67l-8 -14q-5 -10 -9 -23q-8 -14 -14 -30l-66 -117q-29 -49 -58 -107zM795 1808h167q29 -68 53.5 -136 t53.5 -136h-121q-41 68 -76.5 136t-76.5 136z" />
<glyph unicode="&#xc1;" horiz-adv-x="1613" d="M971 1536l110 136l111 136h172l-272 -272h-121zM72 0l22 162h168l377 668l377 669l190 -669l191 -668h168l-23 -162h-455l23 162h115l-58 203l-57 202h-451l-227 -405h117l-23 -162h-454zM754 729h311l-92 326l-10 67l-8 -14q-5 -10 -9 -23q-8 -14 -14 -30l-66 -117 q-29 -49 -58 -107z" />
<glyph unicode="&#xc2;" horiz-adv-x="1613" d="M772 1536l148 185l149 186l97 -186l97 -185h-121l-104 147l-73 -73l-72 -74h-121zM72 0l22 162h168l377 668l377 669l190 -669l191 -668h168l-23 -162h-455l23 162h115l-58 203l-57 202h-451l-227 -405h117l-23 -162h-454zM754 729h311l-92 326l-10 67l-8 -14 q-5 -10 -9 -23q-8 -14 -14 -30l-66 -117q-29 -49 -58 -107z" />
<glyph unicode="&#xc3;" horiz-adv-x="1613" d="M680 1573q8 41 30.5 75t52.5 57.5t63.5 35.5t64.5 12q47 0 83 -18t64 -49q27 -33 49.5 -43t51.5 -10q14 0 31.5 4t35 14t32.5 28.5t21 47.5l93 -6q-8 -41 -31 -75t-52.5 -56.5t-63.5 -34.5t-64 -12q-47 0 -84 18t-66 47q-27 33 -48 43t-50 10t-68 -17t-55 -77 q-23 2 -45 3t-45 3zM72 0l22 162h168l377 668l377 669l190 -669l191 -668h168l-23 -162h-455l23 162h115l-58 203l-57 202h-451l-227 -405h117l-23 -162h-454zM754 729h311l-92 326l-10 67l-8 -14q-5 -10 -9 -23q-8 -14 -14 -30l-66 -117q-29 -49 -58 -107z" />
<glyph unicode="&#xc4;" horiz-adv-x="1613" d="M746 1659q6 47 43 78t78 31q39 0 67.5 -31t22.5 -78q-8 -47 -44 -77t-75 -30q-41 0 -70.5 30t-21.5 77zM1086 1659q6 47 43 78t77 31q39 0 68 -31t23 -78q-8 -47 -44 -77t-75 -30q-41 0 -70.5 30t-21.5 77zM72 0l22 162h168l377 668l377 669l190 -669l191 -668h168 l-23 -162h-455l23 162h115l-58 203l-57 202h-451l-227 -405h117l-23 -162h-454zM754 729h311l-92 326l-10 67l-8 -14q-5 -10 -9 -23q-8 -14 -14 -30l-66 -117q-29 -49 -58 -107z" />
<glyph unicode="&#xc5;" horiz-adv-x="1613" d="M72 0l22 162h168l377 668l377 669l190 -669l191 -668h168l-23 -162h-455l23 162h115l-58 203l-57 202h-451l-227 -405h117l-23 -162h-454zM754 729h311l-92 326l-10 67l-8 -14q-5 -10 -9 -23q-8 -14 -14 -30l-66 -117q-29 -49 -58 -107zM866 1714q4 37 23.5 69t47.5 56.5 t61.5 38.5t70.5 14t66.5 -14t51 -38.5t31 -56.5t5.5 -69q-6 -37 -24.5 -68.5t-46.5 -56t-61.5 -39t-70.5 -14.5t-66.5 14.5t-51 39t-32 56t-4.5 68.5zM979 1712q-4 -29 11.5 -47t43.5 -18q29 0 51.5 18t26.5 47t-13.5 48.5t-45.5 19.5q-29 0 -49.5 -19.5t-24.5 -48.5z" />
<glyph unicode="&#xc6;" horiz-adv-x="1591" d="M72 0l22 162h164l358 636l359 636h717l-45 -316h-162l22 154h-356l-66 -469h439l-25 -162h-438l-66 -479h385l21 153h162l-43 -315h-717l76 541h-236l-107 -190l-108 -189h121l-23 -162h-454zM733 702h168l60 420q-45 -106 -108 -211z" />
<glyph unicode="&#xc7;" horiz-adv-x="1249" d="M244 715q20 152 97 286t189.5 233t254 157.5t292.5 58.5q104 0 194.5 -26.5t166.5 -75.5l-64 -455h-162l50 350q-96 45 -207 45q-117 0 -225.5 -45t-195.5 -124t-145.5 -183.5t-74.5 -220.5q-16 -117 13.5 -221.5t95 -181t160.5 -122t212 -45.5q150 0 291 76l74 -135 q-86 -45 -175.5 -71.5t-183.5 -30.5q-4 -27 -2 -29q4 -39 27.5 -51.5t44.5 -28.5q39 -33 50 -74t5 -92q-6 -43 -25.5 -83t-50 -70.5t-73.5 -49t-97 -18.5q-70 0 -123 38t-69 116l100 49q6 -33 29.5 -54.5t64.5 -21.5q49 0 81 33t38 82q6 41 -12.5 64.5t-42 42t-43 39 t-15.5 54.5l9 58q-137 14 -248 75.5t-185.5 158.5t-107 224.5t-12.5 268.5z" />
<glyph unicode="&#xc8;" horiz-adv-x="1169" d="M72 0l22 162h115l156 1110h-115l22 162h998l-45 -316h-162l22 154h-550l-66 -469h633l-25 -162h-633l-65 -479h579l21 153h162l-43 -315h-1026zM541 1808h167q29 -68 53.5 -136t53.5 -136h-121q-41 68 -76.5 136t-76.5 136z" />
<glyph unicode="&#xc9;" horiz-adv-x="1169" d="M72 0l22 162h115l156 1110h-115l22 162h998l-45 -316h-162l22 154h-550l-66 -469h633l-25 -162h-633l-65 -479h579l21 153h162l-43 -315h-1026zM819 1536l110 136l111 136h172l-272 -272h-121z" />
<glyph unicode="&#xca;" horiz-adv-x="1169" d="M72 0l22 162h115l156 1110h-115l22 162h998l-45 -316h-162l22 154h-550l-66 -469h633l-25 -162h-633l-65 -479h579l21 153h162l-43 -315h-1026zM570 1536l148 185l149 186l97 -186l97 -185h-121l-104 147l-73 -73l-72 -74h-121z" />
<glyph unicode="&#xcb;" horiz-adv-x="1169" d="M72 0l22 162h115l156 1110h-115l22 162h998l-45 -316h-162l22 154h-550l-66 -469h633l-25 -162h-633l-65 -479h579l21 153h162l-43 -315h-1026zM545 1659q6 47 43 78t78 31q39 0 67.5 -31t22.5 -78q-8 -47 -44 -77t-75 -30q-41 0 -70.5 30t-21.5 77zM885 1659q6 47 43 78 t77 31q39 0 68 -31t23 -78q-8 -47 -44 -77t-75 -30q-41 0 -70.5 30t-21.5 77z" />
<glyph unicode="&#xcc;" horiz-adv-x="638" d="M72 0l22 162h162l156 1110h-162l22 162h496l-23 -162h-163l-156 -1110h164l-23 -162h-495zM297 1808h167q29 -68 53.5 -136t53.5 -136h-121q-41 68 -76.5 136t-76.5 136z" />
<glyph unicode="&#xcd;" horiz-adv-x="638" d="M72 0l22 162h162l156 1110h-162l22 162h496l-23 -162h-163l-156 -1110h164l-23 -162h-495zM475 1536l110 136l111 136h172l-272 -272h-121z" />
<glyph unicode="&#xce;" horiz-adv-x="645" d="M72 0l22 162h162l156 1110h-162l22 162h496l-23 -162h-163l-156 -1110h164l-23 -162h-495zM295 1536l148 185l149 186l97 -186l97 -185h-121l-104 147l-73 -73l-72 -74h-121z" />
<glyph unicode="&#xcf;" horiz-adv-x="645" d="M72 0l22 162h162l156 1110h-162l22 162h496l-23 -162h-163l-156 -1110h164l-23 -162h-495zM277 1659q6 47 43 78t78 31q39 0 67.5 -31t22.5 -78q-8 -47 -44 -77t-75 -30q-41 0 -70.5 30t-21.5 77zM617 1659q6 47 43 78t77 31q39 0 68 -31t23 -78q-8 -47 -44 -77t-75 -30 q-41 0 -70.5 30t-21.5 77z" />
<glyph unicode="&#xd0;" horiz-adv-x="1294" d="M72 0l22 162h96l66 471h-78l23 166h78l67 473h-96l22 162h430q147 0 271.5 -50.5t209.5 -144.5t124 -226t16 -298q-18 -121 -77.5 -248t-168 -230.5t-268.5 -170t-377 -66.5h-360zM360 162h144q121 0 230.5 40t196.5 111.5t145.5 174t76.5 229.5t-11.5 229.5t-97 175 t-166 111.5t-219.5 39h-143l-67 -473h370l-22 -166h-371z" />
<glyph unicode="&#xd1;" horiz-adv-x="1673" d="M80 0l22 162h179l155 1110h-178l23 162h237l840 -1072l31 -53l4 66l125 897h-148l23 162h495l-22 -162h-178l-187 -1338l-893 1115l-30 53l-5 -66l-122 -874h147l-23 -162h-495zM694 1548q8 41 30.5 75t52.5 57.5t63.5 35.5t64.5 12q47 0 83 -18t64 -49q27 -33 49.5 -43 t51.5 -10q14 0 31.5 4t35 14t32.5 28.5t21 47.5l93 -6q-8 -41 -31 -75t-52.5 -56.5t-63.5 -34.5t-64 -12q-47 0 -84 18t-66 47q-27 33 -48 43t-50 10t-68 -17t-55 -77q-23 2 -45 3t-45 3z" />
<glyph unicode="&#xd2;" horiz-adv-x="1609" d="M174 715q20 150 96 284t189.5 234t255 158.5t293.5 58.5q150 0 275.5 -58.5t211.5 -158.5t126 -235q26 -89 26 -184q0 -49 -7 -99q-23 -152 -99.5 -285t-190 -232.5t-256 -156.5t-291.5 -57q-152 0 -277 57t-211 156.5t-125 232.5q-25 84 -24 176q0 53 8 109zM344 715 q-6 -42 -6 -83q0 -73 19 -139q30 -103 95.5 -180t162 -122.5t212.5 -45.5q117 0 225.5 45.5t195.5 122t146.5 180t75.5 222.5q6 42 6 82q0 73 -19 140q-30 103 -96.5 181t-161.5 123t-212 45t-225.5 -45t-196.5 -123t-146.5 -181t-74.5 -222zM768 1808h167q29 -68 53.5 -136 t53.5 -136h-121q-41 68 -76.5 136t-76.5 136z" />
<glyph unicode="&#xd3;" horiz-adv-x="1609" d="M174 715q20 150 96 284t189.5 234t255 158.5t293.5 58.5q150 0 275.5 -58.5t211.5 -158.5t126 -235q26 -89 26 -184q0 -49 -7 -99q-23 -152 -99.5 -285t-190 -232.5t-256 -156.5t-291.5 -57q-152 0 -277 57t-211 156.5t-125 232.5q-25 84 -24 176q0 53 8 109zM344 715 q-6 -42 -6 -83q0 -73 19 -139q30 -103 95.5 -180t162 -122.5t212.5 -45.5q117 0 225.5 45.5t195.5 122t146.5 180t75.5 222.5q6 42 6 82q0 73 -19 140q-30 103 -96.5 181t-161.5 123t-212 45t-225.5 -45t-196.5 -123t-146.5 -181t-74.5 -222zM979 1536l110 136l111 136h172 l-272 -272h-121z" />
<glyph unicode="&#xd4;" horiz-adv-x="1609" d="M174 715q20 150 96 284t189.5 234t255 158.5t293.5 58.5q150 0 275.5 -58.5t211.5 -158.5t126 -235q26 -89 26 -184q0 -49 -7 -99q-23 -152 -99.5 -285t-190 -232.5t-256 -156.5t-291.5 -57q-152 0 -277 57t-211 156.5t-125 232.5q-25 84 -24 176q0 53 8 109zM344 715 q-6 -42 -6 -83q0 -73 19 -139q30 -103 95.5 -180t162 -122.5t212.5 -45.5q117 0 225.5 45.5t195.5 122t146.5 180t75.5 222.5q6 42 6 82q0 73 -19 140q-30 103 -96.5 181t-161.5 123t-212 45t-225.5 -45t-196.5 -123t-146.5 -181t-74.5 -222zM778 1536l148 185l149 186 l97 -186l97 -185h-121l-104 147l-73 -73l-72 -74h-121z" />
<glyph unicode="&#xd5;" horiz-adv-x="1609" d="M174 715q20 150 96 284t189.5 234t255 158.5t293.5 58.5q150 0 275.5 -58.5t211.5 -158.5t126 -235q26 -89 26 -184q0 -49 -7 -99q-23 -152 -99.5 -285t-190 -232.5t-256 -156.5t-291.5 -57q-152 0 -277 57t-211 156.5t-125 232.5q-25 84 -24 176q0 53 8 109zM344 715 q-6 -42 -6 -83q0 -73 19 -139q30 -103 95.5 -180t162 -122.5t212.5 -45.5q117 0 225.5 45.5t195.5 122t146.5 180t75.5 222.5q6 42 6 82q0 73 -19 140q-30 103 -96.5 181t-161.5 123t-212 45t-225.5 -45t-196.5 -123t-146.5 -181t-74.5 -222zM709 1620q8 41 30.5 75 t52.5 57.5t63.5 35.5t64.5 12q47 0 83 -18t64 -49q27 -33 49.5 -43t51.5 -10q14 0 31.5 4t35 14t32.5 28.5t21 47.5l93 -6q-8 -41 -31 -75t-52.5 -56.5t-63.5 -34.5t-64 -12q-47 0 -84 18t-66 47q-27 33 -48 43t-50 10t-68 -17t-55 -77q-23 2 -45 3t-45 3z" />
<glyph unicode="&#xd6;" horiz-adv-x="1609" d="M174 715q20 150 96 284t189.5 234t255 158.5t293.5 58.5q150 0 275.5 -58.5t211.5 -158.5t126 -235q26 -89 26 -184q0 -49 -7 -99q-23 -152 -99.5 -285t-190 -232.5t-256 -156.5t-291.5 -57q-152 0 -277 57t-211 156.5t-125 232.5q-25 84 -24 176q0 53 8 109zM344 715 q-6 -42 -6 -83q0 -73 19 -139q30 -103 95.5 -180t162 -122.5t212.5 -45.5q117 0 225.5 45.5t195.5 122t146.5 180t75.5 222.5q6 42 6 82q0 73 -19 140q-30 103 -96.5 181t-161.5 123t-212 45t-225.5 -45t-196.5 -123t-146.5 -181t-74.5 -222zM750 1659q6 47 43 78t78 31 q39 0 67.5 -31t22.5 -78q-8 -47 -44 -77t-75 -30q-41 0 -70.5 30t-21.5 77zM1090 1659q6 47 43 78t77 31q39 0 68 -31t23 -78q-8 -47 -44 -77t-75 -30q-41 0 -70.5 30t-21.5 77z" />
<glyph unicode="&#xd7;" horiz-adv-x="1024" d="M242 119l113 100l114 100l-174 203l139 121l174 -203l114 101l114 100q27 -29 51 -59l49 -60l-113 -99l-112 -99l85 -102l87 -101l-138 -121l-88 100l-88 101l-112 -100l-113 -99l-52 58z" />
<glyph unicode="&#xd8;" horiz-adv-x="1609" d="M164 70l69 70l70 71q-78 98 -112.5 227t-14.5 277q20 152 97 286t189.5 233t254 157.5t293.5 58.5q117 0 218 -35t181 -96l154 154l104 -105l-77 -76l-77 -75q78 -98 114 -227.5t15 -274.5q-23 -152 -98.5 -285t-189 -232.5t-256 -156.5t-293.5 -57q-117 0 -216.5 32.5 t-178.5 92.5l-71 -72l-71 -72l-53 52zM346 715q-16 -109 7.5 -204t78.5 -171l852 852q-61 45 -136 70.5t-161 25.5q-117 0 -225.5 -45t-195.5 -124t-145.5 -183t-74.5 -221zM537 236q59 -43 131.5 -67t158.5 -24q117 0 225.5 45.5t196.5 122t147.5 181t76.5 221.5 q16 106 -8.5 201.5t-78.5 170.5l-424 -425z" />
<glyph unicode="&#xd9;" horiz-adv-x="1492" d="M252 1272l22 162h496l-22 -162h-168l-113 -803q-5 -33 -5 -63q0 -112 67 -178q85 -83 239 -83q76 0 142.5 21.5t118.5 62.5t86 101.5t46 138.5l113 803h-168l22 162h496l-22 -162h-158l-115 -809q-16 -117 -68.5 -207t-130 -150.5t-176 -91t-209.5 -30.5t-200.5 30.5 t-151 91t-88.5 150.5q-16 56 -16 122q0 41 6 85l115 809h-158zM748 1808h167q29 -68 53.5 -136t53.5 -136h-121q-41 68 -76.5 136t-76.5 136z" />
<glyph unicode="&#xda;" horiz-adv-x="1492" d="M252 1272l22 162h496l-22 -162h-168l-113 -803q-5 -33 -5 -63q0 -112 67 -178q85 -83 239 -83q76 0 142.5 21.5t118.5 62.5t86 101.5t46 138.5l113 803h-168l22 162h496l-22 -162h-158l-115 -809q-16 -117 -68.5 -207t-130 -150.5t-176 -91t-209.5 -30.5t-200.5 30.5 t-151 91t-88.5 150.5q-16 56 -16 122q0 41 6 85l115 809h-158zM897 1536l110 136l111 136h172l-272 -272h-121z" />
<glyph unicode="&#xdb;" horiz-adv-x="1492" d="M252 1272l22 162h496l-22 -162h-168l-113 -803q-5 -33 -5 -63q0 -112 67 -178q85 -83 239 -83q76 0 142.5 21.5t118.5 62.5t86 101.5t46 138.5l113 803h-168l22 162h496l-22 -162h-158l-115 -809q-16 -117 -68.5 -207t-130 -150.5t-176 -91t-209.5 -30.5t-200.5 30.5 t-151 91t-88.5 150.5q-16 56 -16 122q0 41 6 85l115 809h-158zM723 1538l148 185l149 186l97 -186l97 -185h-121l-104 147l-73 -73l-72 -74h-121z" />
<glyph unicode="&#xdc;" horiz-adv-x="1492" d="M252 1272l22 162h496l-22 -162h-168l-113 -803q-5 -33 -5 -63q0 -112 67 -178q85 -83 239 -83q76 0 142.5 21.5t118.5 62.5t86 101.5t46 138.5l113 803h-168l22 162h496l-22 -162h-158l-115 -809q-16 -117 -68.5 -207t-130 -150.5t-176 -91t-209.5 -30.5t-200.5 30.5 t-151 91t-88.5 150.5q-16 56 -16 122q0 41 6 85l115 809h-158zM707 1659q6 47 43 78t78 31q39 0 67.5 -31t22.5 -78q-8 -47 -44 -77t-75 -30q-41 0 -70.5 30t-21.5 77zM1047 1659q6 47 43 78t77 31q39 0 68 -31t23 -78q-8 -47 -44 -77t-75 -30q-41 0 -70.5 30t-21.5 77z" />
<glyph unicode="&#xdd;" horiz-adv-x="1615" d="M250 1272l22 162h496l-23 -162h-81l113 -250l114 -250l14 -63h2l33 63l367 500h-80l22 162h496l-23 -162h-206l-264 -361l-263 -360l-53 -389h149l-22 -162h-496l23 162h137l53 391l-163 359l-160 360h-207zM971 1536l110 136l111 136h172l-272 -272h-121z" />
<glyph unicode="&#xde;" horiz-adv-x="1112" d="M72 0l22 162h146l155 1110h-145l22 162h455l-22 -162h-140l-24 -176h168q70 0 151.5 -21.5t148 -69t105.5 -121t25 -177.5q-27 -186 -153 -296t-335 -110h-223l-18 -139h180l-23 -162h-495zM451 465h178q90 0 152.5 23.5t102.5 58.5t59.5 78t25.5 82q6 45 -11.5 87 t-53.5 73.5t-89 50t-117 18.5h-180z" />
<glyph unicode="&#xdf;" horiz-adv-x="1144" d="M74 0l22 162h123l74 522h-123l23 166h122l2 16q16 111 64.5 200t116 151.5t150.5 95.5t167 33q68 0 124 -26t94 -71t55.5 -104.5t9.5 -126.5q-10 -66 -42 -122t-79 -97q86 -59 130 -156.5t28 -216.5q-12 -92 -59.5 -173t-117 -141.5t-155.5 -95t-178 -34.5q-47 0 -91.5 9 t-80.5 27l90 152q49 -23 104 -23q57 0 110.5 23t97.5 60.5t72.5 88t37.5 107.5q8 57 -8.5 107.5t-49.5 87t-81 58t-105 21.5q4 20 4 40t4 42l12 84q70 0 123.5 40t63.5 112q8 63 -30 113.5t-103 48.5q-117 -4 -202 -89t-106 -235l-120 -856h-293z" />
<glyph unicode="&#xe0;" d="M127 383q12 80 54 153.5t105.5 129t143.5 88t166 32.5q55 0 99 -16t77 -35.5t50.5 -38t17.5 -24.5q4 23 10 47t10 49h141l-83 -606h155l-22 -162h-306l7 41q2 10 2 20.5t2 20.5q-4 -6 -24.5 -22.5t-55.5 -34t-84 -30.5t-109 -13q-86 0 -157.5 31.5t-118.5 87t-70 127.5 q-15 47 -14 98q0 28 4 57zM299 385q-3 -20 -3 -39q0 -75 46 -130q57 -69 164 -69q53 0 99 18.5t83 50.5t60.5 76t29.5 93q3 20 3 40q0 76 -46 129q-57 67 -164 67q-53 0 -99 -17.5t-83 -49.5t-60.5 -75t-29.5 -94zM363 1253h167q29 -68 53.5 -136t53.5 -136h-121 q-41 68 -76.5 136t-76.5 136z" />
<glyph unicode="&#xe1;" d="M127 383q12 80 54 153.5t105.5 129t143.5 88t166 32.5q55 0 99 -16t77 -35.5t50.5 -38t17.5 -24.5q4 23 10 47t10 49h141l-83 -606h155l-22 -162h-306l7 41q2 10 2 20.5t2 20.5q-4 -6 -24.5 -22.5t-55.5 -34t-84 -30.5t-109 -13q-86 0 -157.5 31.5t-118.5 87t-70 127.5 q-15 47 -14 98q0 28 4 57zM299 385q-3 -20 -3 -39q0 -75 46 -130q57 -69 164 -69q53 0 99 18.5t83 50.5t60.5 76t29.5 93q3 20 3 40q0 76 -46 129q-57 67 -164 67q-53 0 -99 -17.5t-83 -49.5t-60.5 -75t-29.5 -94zM578 981l110 136l111 136h172l-272 -272h-121z" />
<glyph unicode="&#xe2;" d="M127 383q12 80 54 153.5t105.5 129t143.5 88t166 32.5q55 0 99 -16t77 -35.5t50.5 -38t17.5 -24.5q4 23 10 47t10 49h141l-83 -606h155l-22 -162h-306l7 41q2 10 2 20.5t2 20.5q-4 -6 -24.5 -22.5t-55.5 -34t-84 -30.5t-109 -13q-86 0 -157.5 31.5t-118.5 87t-70 127.5 q-15 47 -14 98q0 28 4 57zM299 385q-3 -20 -3 -39q0 -75 46 -130q57 -69 164 -69q53 0 99 18.5t83 50.5t60.5 76t29.5 93q3 20 3 40q0 76 -46 129q-57 67 -164 67q-53 0 -99 -17.5t-83 -49.5t-60.5 -75t-29.5 -94zM412 981l148 185l149 186l97 -186l97 -185h-121l-104 147 l-73 -73l-72 -74h-121z" />
<glyph unicode="&#xe3;" d="M127 383q12 80 54 153.5t105.5 129t143.5 88t166 32.5q55 0 99 -16t77 -35.5t50.5 -38t17.5 -24.5q4 23 10 47t10 49h141l-83 -606h155l-22 -162h-306l7 41q2 10 2 20.5t2 20.5q-4 -6 -24.5 -22.5t-55.5 -34t-84 -30.5t-109 -13q-86 0 -157.5 31.5t-118.5 87t-70 127.5 q-15 47 -14 98q0 28 4 57zM299 385q-3 -20 -3 -39q0 -75 46 -130q57 -69 164 -69q53 0 99 18.5t83 50.5t60.5 76t29.5 93q3 20 3 40q0 76 -46 129q-57 67 -164 67q-53 0 -99 -17.5t-83 -49.5t-60.5 -75t-29.5 -94zM281 950q8 41 30.5 75t52.5 57.5t63.5 35.5t64.5 12 q47 0 83 -18t64 -49q27 -33 49.5 -43t51.5 -10q14 0 31.5 4t35 14t32.5 28.5t21 47.5l93 -6q-8 -41 -31 -75t-52.5 -56.5t-63.5 -34.5t-64 -12q-47 0 -84 18t-66 47q-27 33 -48 43t-50 10t-68 -17t-55 -77q-23 2 -45 3t-45 3z" />
<glyph unicode="&#xe4;" d="M127 383q12 80 54 153.5t105.5 129t143.5 88t166 32.5q55 0 99 -16t77 -35.5t50.5 -38t17.5 -24.5q4 23 10 47t10 49h141l-83 -606h155l-22 -162h-306l7 41q2 10 2 20.5t2 20.5q-4 -6 -24.5 -22.5t-55.5 -34t-84 -30.5t-109 -13q-86 0 -157.5 31.5t-118.5 87t-70 127.5 q-15 47 -14 98q0 28 4 57zM299 385q-3 -20 -3 -39q0 -75 46 -130q57 -69 164 -69q53 0 99 18.5t83 50.5t60.5 76t29.5 93q3 20 3 40q0 76 -46 129q-57 67 -164 67q-53 0 -99 -17.5t-83 -49.5t-60.5 -75t-29.5 -94zM394 1065q6 47 43 78t78 31q39 0 67.5 -31t22.5 -78 q-8 -47 -44 -77t-75 -30q-41 0 -70.5 30t-21.5 77zM734 1065q6 47 43 78t77 31q39 0 68 -31t23 -78q-8 -47 -44 -77t-75 -30q-41 0 -70.5 30t-21.5 77z" />
<glyph unicode="&#xe5;" d="M127 383q12 80 54 153.5t105.5 129t143.5 88t166 32.5q55 0 99 -16t77 -35.5t50.5 -38t17.5 -24.5q4 23 10 47t10 49h141l-83 -606h155l-22 -162h-306l7 41q2 10 2 20.5t2 20.5q-4 -6 -24.5 -22.5t-55.5 -34t-84 -30.5t-109 -13q-86 0 -157.5 31.5t-118.5 87t-69.5 128 t-10.5 154.5zM299 385q-14 -100 43 -169t164 -69q53 0 99 18.5t83 50.5t60.5 76t29.5 93q14 102 -43 169t-164 67q-53 0 -99 -17.5t-83 -49.5t-60.5 -75t-29.5 -94zM463 1106q4 37 23.5 68.5t47 56t61.5 39t71 14.5t66.5 -14.5t51 -39t30.5 -56t5 -68.5q-6 -37 -24.5 -68.5 t-47 -56.5t-62.5 -39t-71 -14t-66.5 14t-50 39t-30.5 56.5t-4 68.5zM573 1104q-4 -29 12.5 -47.5t45.5 -18.5t50 18.5t26 47.5q4 29 -12.5 48t-45.5 19t-50.5 -19t-25.5 -48z" />
<glyph unicode="&#xe6;" horiz-adv-x="1255" d="M104 225q8 63 40 107.5t77 70t100.5 37t110.5 11.5h182l7 49q4 31 2 52t-15.5 36.5t-42 22.5t-76.5 7q-53 0 -117.5 -17t-99.5 -40q-18 29 -36.5 54.5t-36.5 54.5q27 23 64.5 44t80.5 36.5t88 24.5t84 9q160 0 223 -45q96 45 197 45q63 0 117.5 -25.5t94.5 -70.5 t65.5 -107.5t33.5 -136.5l-485 -172l-2 -8q-4 -27 -10.5 -50.5t-14.5 -45.5q23 -12 51.5 -17.5t59.5 -5.5q47 0 89 17.5t75 48.5l44 -61l44 -62q-59 -51 -128 -79.5t-147 -28.5q-109 0 -194 51q-82 -51 -230 -51q-74 0 -133 11t-98 39.5t-56.5 75.5t-7.5 119zM276 217 q-4 -23 8.5 -36t33 -21t47 -11.5t55.5 -3.5q23 0 49.5 1t50 7.5t41 21.5t21.5 46l8 53h-115q-29 0 -62.5 -2t-63.5 -8t-50.5 -17.5t-22.5 -29.5zM786 451l129 45l129 45q-23 35 -56.5 56t-76.5 21q-59 0 -110 -22q0 -23 -2 -47.5t-6 -52.5z" />
<glyph unicode="&#xe7;" horiz-adv-x="815" d="M109 385q12 82 54 155.5t104.5 128t141 86t164.5 31.5q76 0 138.5 -23.5t109.5 -64.5l-33 -237h-153l18 137q-49 23 -102 23t-99 -17.5t-83 -49.5t-60.5 -75t-29.5 -94q-8 -49 3 -93t38.5 -76t68.5 -50.5t94 -18.5q88 0 162 52l84 -129q-59 -41 -128 -64.5t-142 -23.5 q-4 -31 1 -47.5t16 -26.5t26.5 -16.5t27.5 -16.5q39 -33 50.5 -74t3.5 -92q-10 -70 -53.5 -128t-114.5 -81q-37 -12 -78 -12q-70 0 -123 38t-70 116l103 49q6 -33 29.5 -54.5t64.5 -21.5q49 0 80 33t39 82q6 41 -13.5 64.5t-43 42t-43 39t-15.5 54.5l10 66q-63 16 -113 53 t-84 88t-47 114.5t-3 133.5z" />
<glyph unicode="&#xe8;" horiz-adv-x="921" d="M127 385q12 82 54 155.5t105.5 128t142.5 86t165 31.5q63 0 117.5 -25.5t94.5 -70.5t65.5 -107.5t33.5 -136.5l-291 -102l-292 -102q25 -43 71.5 -69t110.5 -26q47 0 89 17.5t75 48.5l44 -61l44 -62q-59 -51 -128 -79.5t-147 -28.5q-86 0 -155.5 31.5t-117.5 87 t-71 127.5q-15 47 -14 99q0 28 4 58zM299 401l203 71l200 71q-23 35 -56.5 56.5t-76.5 21.5q-104 0 -178 -63t-92 -157zM338 1253h167q29 -68 53.5 -136t53.5 -136h-121q-41 68 -76.5 136t-76.5 136z" />
<glyph unicode="&#xe9;" horiz-adv-x="921" d="M127 385q12 82 54 155.5t105.5 128t142.5 86t165 31.5q63 0 117.5 -25.5t94.5 -70.5t65.5 -107.5t33.5 -136.5l-291 -102l-292 -102q25 -43 71.5 -69t110.5 -26q47 0 89 17.5t75 48.5l44 -61l44 -62q-59 -51 -128 -79.5t-147 -28.5q-86 0 -155.5 31.5t-117.5 87 t-71 127.5q-15 47 -14 99q0 28 4 58zM299 401l203 71l200 71q-23 35 -56.5 56.5t-76.5 21.5q-104 0 -178 -63t-92 -157zM535 981l110 136l111 136h172l-272 -272h-121z" />
<glyph unicode="&#xea;" horiz-adv-x="921" d="M127 385q12 82 54 155.5t105.5 128t142.5 86t165 31.5q63 0 117.5 -25.5t94.5 -70.5t65.5 -107.5t33.5 -136.5l-291 -102l-292 -102q25 -43 71.5 -69t110.5 -26q47 0 89 17.5t75 48.5l44 -61l44 -62q-59 -51 -128 -79.5t-147 -28.5q-86 0 -155.5 31.5t-117.5 87 t-71 127.5q-15 47 -14 99q0 28 4 58zM299 401l203 71l200 71q-23 35 -56.5 56.5t-76.5 21.5q-104 0 -178 -63t-92 -157zM373 981l148 185l149 186l97 -186l97 -185h-121l-104 147l-73 -73l-72 -74h-121z" />
<glyph unicode="&#xeb;" horiz-adv-x="921" d="M127 385q12 82 54 155.5t105.5 128t142.5 86t165 31.5q63 0 117.5 -25.5t94.5 -70.5t65.5 -107.5t33.5 -136.5l-291 -102l-292 -102q25 -43 71.5 -69t110.5 -26q47 0 89 17.5t75 48.5l44 -61l44 -62q-59 -51 -128 -79.5t-147 -28.5q-86 0 -155.5 31.5t-117.5 87 t-71 127.5q-15 47 -14 99q0 28 4 58zM299 401l203 71l200 71q-23 35 -56.5 56.5t-76.5 21.5q-104 0 -178 -63t-92 -157zM324 1065q6 47 43 78t78 31q39 0 67.5 -31t22.5 -78q-8 -47 -44 -77t-75 -30q-41 0 -70.5 30t-21.5 77zM664 1065q6 47 43 78t77 31q39 0 68 -31t23 -78 q-8 -47 -44 -77t-75 -30q-41 0 -70.5 30t-21.5 77z" />
<glyph unicode="&#xec;" horiz-adv-x="598" d="M72 0l22 162h144l61 444h-143l22 162h314l-84 -606h141l-23 -162h-454zM203 1253h168q29 -68 53.5 -136t52.5 -136h-121q-41 68 -76.5 136t-76.5 136z" />
<glyph unicode="&#xed;" horiz-adv-x="598" d="M72 0l22 162h144l61 444h-143l22 162h314l-84 -606h141l-23 -162h-454zM383 981l111 136l110 136h172l-272 -272h-121z" />
<glyph unicode="&#xee;" horiz-adv-x="598" d="M72 0l22 162h144l61 444h-143l22 162h314l-84 -606h141l-23 -162h-454zM166 981l148 185l149 186l97 -186l97 -185h-120l-105 147l-73 -73l-72 -74h-121z" />
<glyph unicode="&#xef;" horiz-adv-x="598" d="M72 0l22 162h144l61 444h-143l22 162h314l-84 -606h141l-23 -162h-454zM170 1065q6 47 43 78t78 31q39 0 67.5 -31t22.5 -78q-8 -47 -44 -77t-75 -30q-41 0 -70.5 30t-21.5 77zM510 1065q6 47 43 78t78 31q39 0 67.5 -31t22.5 -78q-8 -47 -44 -77t-75 -30q-41 0 -70.5 30 t-21.5 77z" />
<glyph unicode="&#xf0;" horiz-adv-x="964" d="M127 379q8 82 49 156.5t103.5 130t140.5 89t164 36.5q68 2 129 -17q-16 82 -45 159t-68 148q-27 -27 -54.5 -51t-53.5 -51l-53 54l-52 54l67 62l66 61q-72 102 -162 189l70 56l70 56q43 -37 83 -79.5t78 -90.5l53 52l54 51q25 -27 51 -52l53 -53l-64 -60l-65 -60 q51 -84 96.5 -184.5t75 -207t41 -215t-3.5 -209.5q-10 -84 -50 -157.5t-101.5 -130t-139 -91t-163.5 -36.5t-157 27.5t-121 83t-74.5 125t-16.5 155.5zM299 385q-6 -51 6 -94t41 -74t71 -48t95 -15t99 21.5t82 52t58.5 76.5t28.5 93q8 102 -50 167t-163 63 q-111 -4 -184.5 -72t-83.5 -170z" />
<glyph unicode="&#xf1;" horiz-adv-x="1187" d="M72 0l22 162h156l61 444h-135l23 162h284l-2 -18q-4 -49 -5 -89t-5 -90q55 98 153.5 156.5t209.5 58.5q121 0 182 -63q53 -54 52 -137q0 -14 -1 -29l-55 -395h127l-23 -162h-454l22 162h158l43 317v13q0 47 -26 82q-30 40 -107 44q-53 0 -104.5 -18t-92.5 -51t-69.5 -78 t-36.5 -98l-29 -211h129l-23 -162h-454zM430 938q8 41 30.5 75t52.5 57.5t63.5 35.5t64.5 12q47 0 83 -18t64 -49q27 -33 49.5 -43t51.5 -10q14 0 31.5 4t35 14t32.5 28.5t21 47.5l93 -6q-8 -41 -31 -75t-52.5 -56.5t-63.5 -34.5t-64 -12q-47 0 -84 18t-66 47q-27 33 -48 43 t-50 10t-68 -17t-55 -77q-23 2 -45 3t-45 3z" />
<glyph unicode="&#xf2;" horiz-adv-x="964" d="M127 385q12 82 54 155.5t105.5 128t142.5 86t165 31.5t156.5 -31.5t119 -86t69.5 -127.5q14 -47 14 -97q0 -29 -5 -59q-12 -84 -54 -156.5t-104.5 -128t-142.5 -87t-166 -31.5t-155.5 31.5t-117.5 87t-71 127.5q-15 47 -14 99q0 28 4 58zM297 383q-2 -16 -2 -32 q0 -31 8 -60q12 -43 40 -75t68 -50.5t89 -18.5t95 18.5t83 50.5t61.5 75t30.5 92q2 16 2 32q0 31 -8 60q-12 43 -40 76t-69 51.5t-90 18.5t-94 -18.5t-82 -51.5t-61.5 -76t-30.5 -92zM373 1253h167q29 -68 53.5 -136t53.5 -136h-121q-41 68 -76.5 136t-76.5 136z" />
<glyph unicode="&#xf3;" horiz-adv-x="964" d="M127 385q12 82 54 155.5t105.5 128t142.5 86t165 31.5t156.5 -31.5t119 -86t69.5 -127.5q14 -47 14 -97q0 -29 -5 -59q-12 -84 -54 -156.5t-104.5 -128t-142.5 -87t-166 -31.5t-155.5 31.5t-117.5 87t-71 127.5q-15 47 -14 99q0 28 4 58zM297 383q-2 -16 -2 -32 q0 -31 8 -60q12 -43 40 -75t68 -50.5t89 -18.5t95 18.5t83 50.5t61.5 75t30.5 92q2 16 2 32q0 31 -8 60q-12 43 -40 76t-69 51.5t-90 18.5t-94 -18.5t-82 -51.5t-61.5 -76t-30.5 -92zM615 981l110 136l111 136h172l-272 -272h-121z" />
<glyph unicode="&#xf4;" horiz-adv-x="964" d="M127 385q12 82 54 155.5t105.5 128t142.5 86t165 31.5t156.5 -31.5t119 -86t69.5 -127.5q14 -47 14 -97q0 -29 -5 -59q-12 -84 -54 -156.5t-104.5 -128t-142.5 -87t-166 -31.5t-155.5 31.5t-117.5 87t-71 127.5q-15 47 -14 99q0 28 4 58zM297 383q-2 -16 -2 -32 q0 -31 8 -60q12 -43 40 -75t68 -50.5t89 -18.5t95 18.5t83 50.5t61.5 75t30.5 92q2 16 2 32q0 31 -8 60q-12 43 -40 76t-69 51.5t-90 18.5t-94 -18.5t-82 -51.5t-61.5 -76t-30.5 -92zM383 981l148 185l149 186l97 -186l97 -185h-121l-104 147l-73 -73l-72 -74h-121z" />
<glyph unicode="&#xf5;" horiz-adv-x="964" d="M127 385q12 82 54 155.5t105.5 128t142.5 86t165 31.5t156.5 -31.5t119 -86t69.5 -127.5q14 -47 14 -97q0 -29 -5 -59q-12 -84 -54 -156.5t-104.5 -128t-142.5 -87t-166 -31.5t-155.5 31.5t-117.5 87t-71 127.5q-15 47 -14 99q0 28 4 58zM297 383q-2 -16 -2 -32 q0 -31 8 -60q12 -43 40 -75t68 -50.5t89 -18.5t95 18.5t83 50.5t61.5 75t30.5 92q2 16 2 32q0 31 -8 60q-12 43 -40 76t-69 51.5t-90 18.5t-94 -18.5t-82 -51.5t-61.5 -76t-30.5 -92zM279 950q8 41 30.5 75t52.5 57.5t63.5 35.5t64.5 12q47 0 83 -18t64 -49q27 -33 49.5 -43 t51.5 -10q14 0 31.5 4t35 14t32.5 28.5t21 47.5l93 -6q-8 -41 -31 -75t-52.5 -56.5t-63.5 -34.5t-64 -12q-47 0 -84 18t-66 47q-27 33 -48 43t-50 10t-68 -17t-55 -77q-23 2 -45 3t-45 3z" />
<glyph unicode="&#xf6;" horiz-adv-x="964" d="M127 385q12 82 54 155.5t105.5 128t142.5 86t165 31.5t156.5 -31.5t119 -86t69.5 -127.5q14 -47 14 -97q0 -29 -5 -59q-12 -84 -54 -156.5t-104.5 -128t-142.5 -87t-166 -31.5t-155.5 31.5t-117.5 87t-71 127.5q-15 47 -14 99q0 28 4 58zM297 383q-2 -16 -2 -32 q0 -31 8 -60q12 -43 40 -75t68 -50.5t89 -18.5t95 18.5t83 50.5t61.5 75t30.5 92q2 16 2 32q0 31 -8 60q-12 43 -40 76t-69 51.5t-90 18.5t-94 -18.5t-82 -51.5t-61.5 -76t-30.5 -92zM340 1065q6 47 43 78t78 31q39 0 67.5 -31t22.5 -78q-8 -47 -44 -77t-75 -30 q-41 0 -70.5 30t-21.5 77zM680 1065q6 47 43 78t77 31q39 0 68 -31t23 -78q-8 -47 -44 -77t-75 -30q-41 0 -70.5 30t-21.5 77z" />
<glyph unicode="&#xf7;" horiz-adv-x="1026" d="M139 422l23 166h737l-22 -166h-738zM371 252q6 47 43 77.5t78 30.5q39 0 67.5 -30.5t22.5 -77.5t-43 -77t-76 -30q-41 0 -69.5 30t-22.5 77zM442 764q6 47 43 77.5t78 30.5q39 0 67.5 -30.5t22.5 -77.5t-43 -77t-75 -30q-41 0 -70 30t-23 77z" />
<glyph unicode="&#xf8;" horiz-adv-x="964" d="M88 25q25 27 50 51l52 51q-37 53 -52 118.5t-5 139.5q12 82 54 155.5t104.5 128t141.5 86t165 31.5q115 0 197 -53l45 44l45 44l40 -41l40 -41l-82 -82q43 -53 62.5 -123.5t8.5 -148.5q-12 -84 -54 -156.5t-105.5 -128t-143.5 -87t-166 -31.5q-63 0 -116.5 17t-98.5 48 l-49 -50l-49 -50l-43 39q-21 19 -41 39zM303 385q-12 -72 16 -129l349 348q-45 16 -93 17q-53 0 -99 -17.5t-83 -49.5t-60.5 -75t-29.5 -94zM397 174q49 -27 111 -27q53 0 99 18.5t83 50.5t60.5 76t31.5 93q10 84 -26 145l-181 -178z" />
<glyph unicode="&#xf9;" horiz-adv-x="1167" d="M158 606l22 162h305l-65 -479q0 -7 -1 -13q0 -47 26 -82q30 -40 108 -44q53 0 104.5 18t92.5 51t69.5 78t36.5 98l29 211h-135l22 162h305l-86 -625h127l-20 -143h-297l14 104l19 93q-55 -98 -153.5 -156.5t-209.5 -58.5q-121 0 -182 63q-53 54 -53 137q0 14 2 29l55 395 h-135zM420 1253h167q29 -68 53.5 -136t53.5 -136h-121q-41 68 -76.5 136t-76.5 136z" />
<glyph unicode="&#xfa;" horiz-adv-x="1167" d="M158 606l22 162h305l-65 -479q0 -7 -1 -13q0 -47 26 -82q30 -40 108 -44q53 0 104.5 18t92.5 51t69.5 78t36.5 98l29 211h-135l22 162h305l-86 -625h127l-20 -143h-297l14 104l19 93q-55 -98 -153.5 -156.5t-209.5 -58.5q-121 0 -182 63q-53 54 -53 137q0 14 2 29l55 395 h-135zM633 981l110 136l111 136h172l-272 -272h-121z" />
<glyph unicode="&#xfb;" horiz-adv-x="1167" d="M158 606l22 162h305l-65 -479q0 -7 -1 -13q0 -47 26 -82q30 -40 108 -44q53 0 104.5 18t92.5 51t69.5 78t36.5 98l29 211h-135l22 162h305l-86 -625h127l-20 -143h-297l14 104l19 93q-55 -98 -153.5 -156.5t-209.5 -58.5q-121 0 -182 63q-53 54 -53 137q0 14 2 29l55 395 h-135zM424 981l148 185l149 186l97 -186l97 -185h-121l-104 147l-73 -73l-72 -74h-121z" />
<glyph unicode="&#xfc;" horiz-adv-x="1167" d="M158 606l22 162h305l-65 -479q0 -7 -1 -13q0 -47 26 -82q30 -40 108 -44q53 0 104.5 18t92.5 51t69.5 78t36.5 98l29 211h-135l22 162h305l-86 -625h127l-20 -143h-297l14 104l19 93q-55 -98 -153.5 -156.5t-209.5 -58.5q-121 0 -182 63q-53 54 -53 137q0 14 2 29l55 395 h-135zM443 1065q6 47 43 78t78 31q39 0 67.5 -31t22.5 -78q-8 -47 -44 -77t-75 -30q-41 0 -70.5 30t-21.5 77zM783 1065q6 47 43 78t77 31q39 0 68 -31t23 -78q-8 -47 -44 -77t-75 -30q-41 0 -70.5 30t-21.5 77z" />
<glyph unicode="&#xfd;" horiz-adv-x="1263" d="M188 -512l23 162h184l112 176l114 174l-111 303l-111 303h-172l23 162h455l-23 -162h-109l89 -226q43 -114 65 -228q53 115 128 228l151 226h-127l22 162h469l-22 -162h-168l-308 -478l-307 -478h101l-23 -162h-455zM803 981l110 136l111 136h172l-272 -272h-121z" />
<glyph unicode="&#xfe;" horiz-adv-x="1044" d="M-111 -512l23 162h156l243 1724h-157l22 162h455l-23 -162h-127l-90 -637l-15 -31q-7 -15 -14 -32q4 6 28 24.5t60.5 37t85 32.5t101.5 14q86 0 156.5 -31.5t119 -87t70 -128t10.5 -152.5q-12 -82 -54 -154.5t-105.5 -128t-143.5 -87t-166 -31.5q-57 0 -100 12t-74 27.5 t-48 32t-21 24.5q4 -10 6 -19.5t6 -19.5l-55 -389h168l-23 -162h-494zM342 385q-14 -100 42 -169t163 -69q53 0 100 18.5t83 50.5t60.5 76t30.5 93q14 102 -43 169t-164 67q-53 0 -99 -17.5t-83 -49.5t-60.5 -75t-29.5 -94z" />
<glyph unicode="&#xff;" horiz-adv-x="1263" d="M188 -512l23 162h184l112 176l114 174l-111 303l-111 303h-172l23 162h455l-23 -162h-109l89 -226q43 -114 65 -228q53 115 128 228l151 226h-127l22 162h469l-22 -162h-168l-308 -478l-307 -478h101l-23 -162h-455zM564 1065q6 47 43 78t78 31q39 0 67.5 -31t22.5 -78 q-8 -47 -44 -77t-75 -30q-41 0 -70.5 30t-21.5 77zM904 1065q6 47 43 78t77 31q39 0 68 -31t23 -78q-8 -47 -44 -77t-75 -30q-41 0 -70.5 30t-21.5 77z" />
<glyph unicode="&#x152;" horiz-adv-x="2779" d="M1682 0l22 162h115l156 1110h-115l22 162h998l-45 -316h-162l22 154h-550l-66 -469h633l-25 -162h-633l-65 -479h579l21 153h162l-43 -315h-1026zM174 715q20 150 96 284t189.5 234t255 158.5t293.5 58.5q150 0 275.5 -58.5t211.5 -158.5t126 -235q26 -89 26 -184 q0 -49 -7 -99q-23 -152 -99.5 -285t-190 -232.5t-256 -156.5t-291.5 -57q-152 0 -277 57t-211 156.5t-125 232.5q-25 84 -24 176q0 53 8 109zM344 715q-6 -42 -6 -83q0 -73 19 -139q30 -103 95.5 -180t162 -122.5t212.5 -45.5q117 0 225.5 45.5t195.5 122t146.5 180 t75.5 222.5q6 42 6 82q0 73 -19 140q-30 103 -96.5 181t-161.5 123t-212 45t-225.5 -45t-196.5 -123t-146.5 -181t-74.5 -222z" />
<glyph unicode="&#x153;" horiz-adv-x="1886" d="M1092 385q12 82 54 155.5t105.5 128t142.5 86t165 31.5q63 0 117.5 -25.5t94.5 -70.5t65.5 -107.5t33.5 -136.5l-291 -102l-292 -102q25 -43 71.5 -69t110.5 -26q47 0 89 17.5t75 48.5l44 -61l44 -62q-59 -51 -128 -79.5t-147 -28.5q-86 0 -155.5 31.5t-117.5 87 t-71 127.5q-15 47 -14 99q0 28 4 58zM1264 401l203 71l200 71q-23 35 -56.5 56.5t-76.5 21.5q-104 0 -178 -63t-92 -157zM127 385q12 82 54 155.5t105.5 128t142.5 86t165 31.5t156.5 -31.5t119 -86t69.5 -127.5q14 -47 14 -97q0 -29 -5 -59q-12 -84 -54 -156.5t-104.5 -128 t-142.5 -87t-166 -31.5t-155.5 31.5t-117.5 87t-71 127.5q-15 47 -14 99q0 28 4 58zM297 383q-2 -16 -2 -32q0 -31 8 -60q12 -43 40 -75t68 -50.5t89 -18.5t95 18.5t83 50.5t61.5 75t30.5 92q2 16 2 32q0 31 -8 60q-12 43 -40 76t-69 51.5t-90 18.5t-94 -18.5t-82 -51.5 t-61.5 -76t-30.5 -92z" />
<glyph unicode="&#x178;" horiz-adv-x="1615" d="M768 1679q6 47 43 78t78 31q39 0 67.5 -31t22.5 -78q-8 -47 -44 -77t-75 -30q-41 0 -70.5 30t-21.5 77zM1108 1679q6 47 43 78t77 31q39 0 68 -31t23 -78q-8 -47 -44 -77t-75 -30q-41 0 -70.5 30t-21.5 77zM250 1272l22 162h496l-23 -162h-81l113 -250l114 -250l14 -63h2 l33 63l367 500h-80l22 162h496l-23 -162h-206l-264 -361l-263 -360l-53 -389h149l-22 -162h-496l23 162h137l53 391l-163 359l-160 360h-207z" />
<glyph unicode="&#x2c6;" horiz-adv-x="962" d="M203 981l148 185l149 186l97 -186l97 -185h-121l-104 147l-73 -73l-72 -74h-121z" />
<glyph unicode="&#x2000;" horiz-adv-x="954" />
<glyph unicode="&#x2001;" horiz-adv-x="1908" />
<glyph unicode="&#x2002;" horiz-adv-x="954" />
<glyph unicode="&#x2003;" horiz-adv-x="1908" />
<glyph unicode="&#x2004;" horiz-adv-x="634" />
<glyph unicode="&#x2005;" horiz-adv-x="477" />
<glyph unicode="&#x2006;" horiz-adv-x="317" />
<glyph unicode="&#x2007;" horiz-adv-x="317" />
<glyph unicode="&#x2008;" horiz-adv-x="237" />
<glyph unicode="&#x2009;" horiz-adv-x="380" />
<glyph unicode="&#x200a;" horiz-adv-x="104" />
<glyph unicode="&#x2010;" horiz-adv-x="614" d="M96 301l23 166h377l-23 -166h-377z" />
<glyph unicode="&#x2011;" horiz-adv-x="614" d="M96 301l23 166h377l-23 -166h-377z" />
<glyph unicode="&#x2012;" horiz-adv-x="614" d="M96 301l23 166h377l-23 -166h-377z" />
<glyph unicode="&#x2013;" horiz-adv-x="1042" d="M205 356l22 166h617l-23 -166h-616z" />
<glyph unicode="&#x2014;" horiz-adv-x="1433" d="M203 356l22 166h1028l-22 -166h-1028z" />
<glyph unicode="&#x2018;" horiz-adv-x="335" d="M90 1293.5q-14 76.5 14 162.5q27 -4 52.5 -7t52.5 -7q-25 -72 -13.5 -132.5t48.5 -101.5l-45 -24l-45 -25q-50 58 -64 134.5z" />
<glyph unicode="&#x2019;" horiz-adv-x="335" d="M78 1208q49 41 76.5 101.5t23.5 132.5q27 4 54.5 7t54.5 7q4 -86 -31 -162.5t-100 -134.5l-39 24.5z" />
<glyph unicode="&#x201a;" horiz-adv-x="299" d="M45 -59q49 41 77 101t23 132q27 4 54.5 7t54.5 7q4 -86 -31 -162.5t-100 -134.5q-20 12 -39 25t-39 25z" />
<glyph unicode="&#x201c;" horiz-adv-x="509" d="M90 1293.5q-14 76.5 14 162.5q27 -4 52.5 -7t52.5 -7q-25 -72 -13.5 -132.5t48.5 -101.5l-45 -24l-45 -25q-50 58 -64 134.5zM303 1293.5q-14 76.5 14 162.5q27 -4 52.5 -7t52.5 -7q-25 -72 -13.5 -132.5t48.5 -101.5l-45 -24l-45 -25q-50 58 -64 134.5z" />
<glyph unicode="&#x201d;" horiz-adv-x="507" d="M29 1208q49 41 76.5 101.5t23.5 132.5q27 4 54.5 7t54.5 7q4 -86 -31 -162.5t-101 -134.5q-20 12 -38.5 24.5t-38.5 24.5zM242 1208q49 41 76.5 101.5t23.5 132.5q27 4 54.5 7t54.5 7q4 -86 -31 -162.5t-101 -134.5q-20 12 -38.5 24.5t-38.5 24.5z" />
<glyph unicode="&#x201e;" horiz-adv-x="698" d="M45 -59q49 41 77 101t23 132q27 4 54.5 7t54.5 7q4 -86 -31 -162.5t-100 -134.5q-20 12 -39 25t-39 25zM258 -59q49 41 76.5 101t23.5 132q27 4 54.5 7t54.5 7q4 -86 -31 -162.5t-100 -134.5q-20 12 -39 25t-39 25z" />
<glyph unicode="&#x2022;" horiz-adv-x="980" d="M266 614q8 55 35 102.5t67 83.5t90 56.5t103 20.5q55 0 99.5 -20.5t75 -56.5t45 -83t5.5 -103q-8 -55 -34.5 -102t-66.5 -82t-90 -54.5t-106 -19.5q-53 0 -98 19.5t-74.5 54.5t-44 82t-6.5 102z" />
<glyph unicode="&#x2026;" horiz-adv-x="1001" d="M734 106q8 47 44.5 78t77.5 31q39 0 68 -30.5t20 -78.5q-6 -47 -42.5 -76.5t-75.5 -29.5q-41 0 -69.5 29.5t-22.5 76.5zM400 106q8 47 44.5 78t77.5 31q39 0 68 -30.5t20 -78.5q-6 -47 -42.5 -76.5t-75.5 -29.5q-41 0 -69.5 29.5t-22.5 76.5zM66 106q8 47 44.5 78 t77.5 31q39 0 68 -30.5t20 -78.5q-6 -47 -42.5 -76.5t-75.5 -29.5q-41 0 -69.5 29.5t-22.5 76.5z" />
<glyph unicode="&#x202f;" horiz-adv-x="380" />
<glyph unicode="&#x2039;" horiz-adv-x="802" d="M285 489l198 165l199 165l-27 -194l-77 -68l-76 -68l57 -68l57 -69l-26 -194z" />
<glyph unicode="&#x203a;" horiz-adv-x="802" d="M240 158l26 194l76 69l76 68l-57 68l-56 68l27 194l151 -165l152 -165z" />
<glyph unicode="&#x205f;" horiz-adv-x="477" />
<glyph unicode="&#x2122;" horiz-adv-x="3274" d="M1348 0l22 162h178l156 1110h-178l22 162h230l284 -454l287 -454l412 454l413 454h230l-23 -162h-178l-155 -1110h178l-23 -162h-495l22 162h148l112 801q4 16 7 32.5t8 32.5l-38 -47q-19 -25 -40 -47q-147 -174 -305 -341l-312 -337l-448 717l-29 55q0 -16 -1 -32.5 t-1 -32.5l-113 -801h148l-23 -162h-495zM227 1118l45 316h1133l-45 -316h-162l23 154h-318l-155 -1110h149l-23 -162h-495l22 162h177l155 1110h-321l-23 -154h-162z" />
<glyph unicode="&#xe000;" horiz-adv-x="770" d="M0 770h770v-770h-770v770z" />
<glyph unicode="&#xfb01;" horiz-adv-x="1286" d="M760 0l22 162h144l61 444h-143l22 162h314l-84 -606h141l-23 -162h-454zM1034 1065q6 47 43 78t78 31q39 0 68 -31q24 -25 23 -62q0 -8 -1 -16q-8 -47 -45 -77t-76 -30q-41 0 -69 30q-22 23 -23 57q0 10 2 20zM72 0l22 162h125l62 440h-125l22 166h123l41 291 q16 115 66.5 203t125 148t169 92t200.5 36l-22 -162q-143 -8 -244.5 -90t-124.5 -233l-41 -285h242l-23 -166h-241l-62 -440h162l-23 -162h-454z" />
<glyph unicode="&#xfb02;" horiz-adv-x="1286" d="M760 0l22 162h156l170 1212h-135l22 162h305l-192 -1374h129l-23 -162h-454zM72 0l22 162h125l62 440h-125l22 166h123l41 291q16 115 66.5 203t125 148t169 92t200.5 36l-22 -162q-143 -8 -244.5 -90t-124.5 -233l-41 -285h242l-23 -166h-241l-62 -440h162l-23 -162 h-454z" />
<glyph unicode="&#xfb03;" horiz-adv-x="1974" d="M1448 0l22 162h144l61 444h-143l22 162h314l-84 -606h141l-23 -162h-454zM1722 1065q6 47 43 78t78 31q39 0 68 -31q24 -25 23 -62q0 -8 -1 -16q-8 -47 -45 -77t-76 -30q-41 0 -69 30q-22 23 -23 57q0 10 2 20zM760 0l22 162h125l62 440h-125l22 166h123l41 291 q16 115 66.5 203t125 148t169 92t200.5 36l-22 -162q-143 -8 -244.5 -90t-124.5 -233l-41 -285h242l-23 -166h-241l-62 -440h162l-23 -162h-454zM72 0l22 162h125l62 440h-125l22 166h123l41 291q16 115 66.5 203t125 148t169 92t200.5 36l-22 -162q-143 -8 -244.5 -90 t-124.5 -233l-41 -285h242l-23 -166h-241l-62 -440h162l-23 -162h-454z" />
<glyph unicode="&#xfb04;" horiz-adv-x="1974" d="M1448 0l22 162h156l170 1212h-135l22 162h305l-192 -1374h129l-23 -162h-454zM760 0l22 162h125l62 440h-125l22 166h123l41 291q16 115 66.5 203t125 148t169 92t200.5 36l-22 -162q-143 -8 -244.5 -90t-124.5 -233l-41 -285h242l-23 -166h-241l-62 -440h162l-23 -162 h-454zM72 0l22 162h125l62 440h-125l22 166h123l41 291q16 115 66.5 203t125 148t169 92t200.5 36l-22 -162q-143 -8 -244.5 -90t-124.5 -233l-41 -285h242l-23 -166h-241l-62 -440h162l-23 -162h-454z" />
</font>
</defs>
</svg>
