<svg xmlns="http://www.w3.org/2000/svg" width="33" height="59">
	<polygon fill="#191919" points="18.5,35.011 15.523,38 11,33.457 6.476,38 3.5,35.011 8.023,30.469 3.562,25.989 6.539,23 11,27.48 15.46,23 18.438,25.989 13.976,30.469"/>
	<polygon fill="#191919" points="6.011,8.004 11.001,13.005 22,2 22,7.995 11.001,19 3,10.998"/>
	<path fill="#555555" d="M31.564,2.173c-0.457-0.304-1.088-0.197-1.409,0.24l-3.793,5.18 l-1.623-1.647c-0.391-0.382-1.029-0.388-1.431-0.018c-0.403,0.369-0.411,0.978-0.021,1.36l2.397,2.435 c0.224,0.218,0.526,0.3,0.82,0.273c0.328,0.007,0.652-0.12,0.854-0.395l4.459-6.088C32.138,3.076,32.025,2.477,31.564,2.173z"/>
	<path fill="#04AC30" d="M31.564,11.173c-0.457-0.304-1.088-0.197-1.409,0.24l-3.793,5.18 l-1.623-1.647c-0.391-0.382-1.029-0.388-1.431-0.018c-0.403,0.369-0.411,0.978-0.021,1.36l2.397,2.435 c0.224,0.218,0.526,0.3,0.82,0.273c0.328,0.007,0.652-0.12,0.854-0.395l4.459-6.088C32.138,12.076,32.025,11.477,31.564,11.173z"/>
	<path fill="#555555" d="M24.275,22.275L24.275,22.275c-0.367,0.367-0.367,0.962,0,1.328 l5.121,5.121c0.366,0.367,0.961,0.367,1.328,0l0,0c0.368-0.366,0.368-0.962,0-1.329l-5.12-5.12 C25.237,21.907,24.643,21.907,24.275,22.275z"/>
	<path fill="#555555" d="M30.725,22.275L30.725,22.275c0.368,0.367,0.368,0.962,0,1.328 l-5.12,5.121c-0.367,0.367-0.962,0.367-1.329,0l0,0c-0.367-0.366-0.367-0.962,0-1.329l5.121-5.12 C29.763,21.907,30.357,21.907,30.725,22.275z"/>
	<path fill="#FA5D48" d="M24.275,31.275L24.275,31.275c-0.367,0.367-0.367,0.962,0,1.328 l5.121,5.121c0.366,0.367,0.961,0.367,1.328,0l0,0c0.368-0.366,0.368-0.962,0-1.329l-5.12-5.12 C25.237,30.907,24.643,30.907,24.275,31.275z"/>
	<path fill="#FA5D48" d="M30.725,31.275L30.725,31.275c0.368,0.367,0.368,0.962,0,1.328 l-5.12,5.121c-0.367,0.367-0.962,0.367-1.329,0l0,0c-0.367-0.366-0.367-0.962,0-1.329l5.121-5.12 C29.763,30.907,30.357,30.907,30.725,31.275z"/>
	<path fill="#191919" d="M13,58l12-12l-5-5l-7,7l-6.999-7L1,46L13,58z"/>
</svg>