<svg xmlns="http://www.w3.org/2000/svg" width="120" height="50">
	<g fill="#FFF">
		<path d="m58.954 28.678c-5.568 0-6.815-3.808-6.815-8.552 0-4.275 1.269-8.196 6.815-8.196 5.547 0 6.882 3.921 6.882 8.196 0 4.744-1.336 8.552-6.882 8.552zm0-14.187c-2.94 0-3.787 1.849-3.787 5.635 0 4.232 .867 6.012 3.787 6.012 2.94 0 3.853-1.804 3.853-6.012-.004-3.786-.894-5.635-3.854-5.635h.001z"/>
		<path d="m72.815 22.754h-2.606c.045 .155 .156 .423 .156 .578v5.012h-2.984v-16.058h5.435c4.099 0 5.969 2.183 5.969 5.099 .003 2.897-1.823 5.37-5.965 5.37h-.005zm0-7.931h-2.45v5.391h2.45c2.006 0 2.938-1.003 2.938-2.831 .001-1.714-.979-2.56-2.938-2.56z"/>
		<path d="m80.05 28.344v-16.058h10.689v2.495h-7.705v3.852h7.038l-.736 2.495h-6.391c.066 .155 .089 .333 .089 .424v4.296h7.727v2.496h-10.711z"/>
		<path d="m101.172 28.357l-3.697-5.656c-.111-.157-.157-.356-.202-.538h-1.869v6.194h-2.985v-16.057h5.456c4.077 0 5.945 2.005 5.945 4.967 0 2.182-1.068 3.786-3.34 4.499l4.276 6.591h-3.584zm-3.296-13.562h-2.473v4.877h2.473c2.094 0 2.917-.937 2.917-2.406 0-1.604-.891-2.472-2.919-2.472h.002z"/>
		<path d="m116.691 28.357l-1.381-4.074h-5.634l-1.403 4.074h-3.096l5.813-16.057h3.051l5.791 16.057h-3.141zm-3.879-11.355c-.154-.425-.286-.98-.331-1.271-.046 .312-.179 .869-.312 1.271l-1.648 4.787h3.92l-1.629-4.787z"/>
		<path d="m56.509 44.348c-1.641 0-3.086-.617-3.758-2.064l1.572-.564c.421 .797 1.161 1.147 2.186 1.147 1.269 0 2.116-.441 2.116-1.483 0-.649-.353-1.057-1.059-1.181l-2.31-.405c-1.445-.246-2.31-1.112-2.31-2.68 0-1.731 1.377-2.771 3.703-2.771 1.729 0 2.945 .602 3.581 1.747l-1.428 .725c-.406-.602-1.024-.973-2.135-.973-1.199 0-1.903 .389-1.903 1.272 0 .512 .194 .914 .934 1.04l2.22 .368c1.396 .23 2.559 1.008 2.559 2.699-.003 2.275-1.875 3.119-3.971 3.119l.003 .004z"/>
		<path d="m65.444 44.348c-3.192 0-4.339-1.906-4.339-5.009 0-3.104 1.146-4.993 4.339-4.993 3.19 0 4.355 1.888 4.355 4.993 .003 3.102-1.162 5.009-4.355 5.009zm0-8.503c-1.765 0-2.487 .866-2.487 3.494 0 2.625 .723 3.509 2.487 3.509 1.76 0 2.467-.884 2.467-3.509 0-2.628-.705-3.493-2.467-3.494z"/>
		<path d="m75.784 31.903c-.292-.047-.555-.063-.862-.063-.972 0-1.641 .446-1.641 1.871v.896h2.405l-.353 1.537h-2.053v7.938h-1.85v-7.285c0-.194 .087-.404 .178-.652h-1.631v-1.537h1.453v-.896c0-2.68 1.657-3.369 3.511-3.369 .409 0 .811 .055 1.21 .13l-.362 1.432h-.005z"/>
		<path d="m80.703 44.348c-1.521 0-2.946-.599-2.946-2.682v-4.92c0-.178 .034-.352 .175-.6h-1.726v-1.536h1.551v-3.209l1.852-.546v3.755h3.215l-.494 1.536h-2.721v5.52c0 .829 .562 1.146 1.218 1.146 .545 0 1.004-.196 1.55-.563l1.079 1.076c-.732 .671-1.771 1.021-2.757 1.021l.004 .002z"/>
		<path d="m93.658 44.082h-1.675l-1.8-5.468c-.123-.352-.229-.652-.264-1.163-.035 .511-.158 .812-.282 1.163l-1.8 5.468h-1.673l-3.036-9.472h1.82l1.778 5.574c.07 .212 .178 .724 .264 1.694 .126-.971 .196-1.288 .319-1.661l1.799-5.607h1.604l1.802 5.607c.122 .373 .192 .69 .315 1.661 .089-.971 .193-1.482 .263-1.694l1.783-5.574h1.816l-3.028 9.472h-.005z"/>
		<path d="m103.275 44.082l-.197-.688c-.949 .635-1.868 .953-2.977 .953-2.33 0-3.354-1.323-3.354-3.193 0-2.45 1.818-3.033 3.617-3.033 .845 0 1.798 .124 2.573 .3v-1.217c0-.9-.475-1.359-1.746-1.359-1.059 0-1.939 .248-2.556 1.146l-1.394-.811c.81-1.393 2.346-1.835 3.985-1.835 3.033 0 3.562 1.499 3.562 2.876v6.86h-1.513v.001zm-.337-4.285c-.687-.107-1.446-.228-2.205-.228-1.217 0-2.115 .403-2.115 1.585 0 1.287 .688 1.658 1.483 1.658 1.145 0 1.885-.283 2.836-.9v-2.113l.001-.002z"/>
		<path d="m110.012 35.936c-.549 0-1.096 .106-1.501 .441l-.616 .511v7.196h-1.854v-9.472h1.518l.23 .897 .65-.544c.565-.477 1.182-.618 1.869-.618 .301 0 .584 .035 .882 .072v1.622c-.372-.052-.776-.106-1.181-.106h.003z"/>
		<path d="m113.177 39.918c.035 1.994 .686 2.895 2.608 2.895 1.236 0 2.03-.388 2.54-1.377l1.569 .603c-.776 1.587-1.991 2.31-4.109 2.31-3.085 0-4.461-1.569-4.461-5.009 0-3.104 1.058-4.993 4.461-4.993 3.65 0 4.215 2.912 4.215 4.993v.579h-6.8229999999999995zm2.609-4.038c-1.69 0-2.468 .6-2.592 2.54h4.851c-.037-1.463-.674-2.54-2.259-2.54z"/>
		<path d="m35.613 3.835c-3.573-2.471-7.995-3.835-12.983-3.835-4.562 0-8.65 1.14-12.05 3.224-6.548 3.971-10.58 11.405-10.58 20.933 0 12.887 9.047 24.622 22.621 24.622 13.578 0 22.623-11.735 22.623-24.622 0-9.058-3.645-16.225-9.632-20.322l.001 0zm-12.986 .475c7.282 0 8.764 10.161 8.764 19.387 0 8.547-.825 19.99-8.674 19.99-7.851 0-8.866-11.556-8.866-20.101 .001-9.225 1.495-19.274 8.777-19.274l-.001-.002z"/>
	</g>
</svg>